<?xml version="1.0" encoding="UTF-8" standalone="no"?>
<!DOCTYPE svg PUBLIC "-//W3C//DTD SVG 1.1//EN"
 "http://www.w3.org/Graphics/SVG/1.1/DTD/svg11.dtd">
<!-- Generated by graphviz version 14.1.5 (20260411.2331)
 -->
<!-- Title: Dependencies Pages: 1 -->
<svg width="296pt" height="98pt"
 viewBox="0.00 0.00 296.00 98.00" xmlns="http://www.w3.org/2000/svg" xmlns:xlink="http://www.w3.org/1999/xlink">
<g id="graph0" class="graph" transform="scale(1 1) rotate(0) translate(4 94)">
<title>Dependencies</title>
<!-- Client -->
<g id="node1" class="node">
<title>Client</title>
<ellipse fill="none" stroke="black" cx="34.64" cy="-45" rx="34.64" ry="18"/>
<text xml:space="preserve" text-anchor="middle" x="34.64" y="-40.8" font-family="Times,serif" font-size="14.00">Client</text>
</g>
<!-- Api -->
<g id="node2" class="node">
<title>Api</title>
<ellipse fill="none" stroke="black" cx="132.28" cy="-45" rx="27" ry="18"/>
<text xml:space="preserve" text-anchor="middle" x="132.28" y="-40.8" font-family="Times,serif" font-size="14.00">Api</text>
</g>
<!-- Client&#45;&gt;Api -->
<g id="edge1" class="edge">
<title>Client&#45;&gt;Api</title>
<path fill="none" stroke="black" d="M69.63,-45C77.33,-45 85.56,-45 93.41,-45"/>
<polygon fill="black" stroke="black" points="93.41,-48.5 103.41,-45 93.41,-41.5 93.41,-48.5"/>
</g>
<!-- Auth -->
<g id="node3" class="node">
<title>Auth</title>
<ellipse fill="none" stroke="black" cx="241.71" cy="-72" rx="30.35" ry="18"/>
<text xml:space="preserve" text-anchor="middle" x="241.71" y="-67.8" font-family="Times,serif" font-size="14.00">Auth</text>
</g>
<!-- Api&#45;&gt;Auth -->
<g id="edge2" class="edge">
<title>Api&#45;&gt;Auth</title>
<path fill="none" stroke="black" d="M157.93,-51.19C171.06,-54.49 187.5,-58.63 202.27,-62.34"/>
<polygon fill="black" stroke="black" points="201.13,-65.66 211.69,-64.71 202.84,-58.87 201.13,-65.66"/>
</g>
<!-- Database -->
<g id="node4" class="node">
<title>Database</title>
<ellipse fill="none" stroke="black" cx="241.71" cy="-18" rx="46.42" ry="18"/>
<text xml:space="preserve" text-anchor="middle" x="241.71" y="-13.8" font-family="Times,serif" font-size="14.00">Database</text>
</g>
<!-- Api&#45;&gt;Database -->
<g id="edge3" class="edge">
<title>Api&#45;&gt;Database</title>
<path fill="none" stroke="black" d="M157.93,-38.81C167.79,-36.33 179.51,-33.38 191,-30.49"/>
<polygon fill="black" stroke="black" points="191.55,-33.97 200.39,-28.13 189.84,-27.18 191.55,-33.97"/>
</g>
</g>
</svg>
