<svg version="1.1" xmlns="http://www.w3.org/2000/svg" viewBox="0 0 280 140" width="280" height="140" filter="invert(93%) hue-rotate(180deg)"><!-- svg-source:excalidraw --><metadata/><defs><style class="style-fonts">
      @font-face { font-family: Virgil; src: url(https://esm.sh/@excalidraw/excalidraw@0.18.0/dist/prod/fonts/Virgil/Virgil-Regular.woff2); }</style></defs><rect x="0" y="0" width="280" height="140" fill="#111111"/><g stroke-linecap="round" transform="translate(10 10) rotate(0 130 60)"><path d="M30 0 C76.93 -1.28, 115.13 -0.19, 230 0 C252.76 -2.71, 260.43 13.56, 260 30 C257.9 49.76, 256.5 71.52, 260 90 C257.73 113.31, 252.22 117.97, 230 120 C163.36 119.07, 98.04 117.99, 30 120 C7.02 117.22, 0.36 112.39, 0 90 C-1.84 72.99, 1.48 64.02, 0 30 C2.2 9.24, 9.27 -0.48, 30 0" stroke="none" stroke-width="0" fill="#194566"/><path d="M30 0 C70.77 0.5, 109.71 0.68, 230 0 M30 0 C84.58 0.01, 138.59 1.1, 230 0 M230 0 C248.7 0.53, 260.88 11.63, 260 30 M230 0 C250.2 0.56, 258.67 11.73, 260 30 M260 30 C261.26 41.3, 260.82 57.33, 260 90 M260 30 C259.07 53.06, 259.82 76.15, 260 90 M260 90 C260.6 108.4, 250.48 118.28, 230 120 M260 90 C258.31 110.06, 250.94 120.81, 230 120 M230 120 C187.81 121.59, 144.66 121.61, 30 120 M230 120 C186.65 122.34, 143.46 121.76, 30 120 M30 120 C8.11 119.71, -0.18 110.53, 0 90 M30 120 C11.83 119.98, 2.16 110.1, 0 90 M0 90 C-1.16 72.51, 0.83 54.05, 0 30 M0 90 C-0.66 74.05, 0.56 56.16, 0 30 M0 30 C0.44 12, 8.45 -1.31, 30 0 M0 30 C-0.62 7.93, 11.01 2.27, 30 0" stroke="#1971c2" stroke-width="2" fill="none"/></g><g transform="translate(70 55) rotate(0 70 12)"><text x="70" y="17.619999999999997" font-family="Virgil, Segoe UI Emoji" font-size="20px" fill="#1e1e1e" text-anchor="middle" style="white-space: pre;" direction="ltr" dominant-baseline="alphabetic">Design Board</text></g></svg>