<svg id="ge170ef0c-1c10-4601-a86b-e3950ff56b7d-dark" width="100%" xmlns="http://www.w3.org/2000/svg" xmlns:xlink="http://www.w3.org/1999/xlink" class="flowchart" style="max-width: 733.6234741210938px;" viewBox="0 0 733.6234741210938 820.4000244140625" role="graphics-document document" aria-roledescription="flowchart-v2"><style>#ge170ef0c-1c10-4601-a86b-e3950ff56b7d-dark{font-family:"trebuchet ms",verdana,arial,sans-serif;font-size:16px;fill:#e5e5e5;}@keyframes edge-animation-frame{from{stroke-dashoffset:0;}}@keyframes dash{to{stroke-dashoffset:0;}}#ge170ef0c-1c10-4601-a86b-e3950ff56b7d-dark .edge-animation-slow{stroke-dasharray:9,5!important;stroke-dashoffset:900;animation:dash 50s linear infinite;stroke-linecap:round;}#ge170ef0c-1c10-4601-a86b-e3950ff56b7d-dark .edge-animation-fast{stroke-dasharray:9,5!important;stroke-dashoffset:900;animation:dash 20s linear infinite;stroke-linecap:round;}#ge170ef0c-1c10-4601-a86b-e3950ff56b7d-dark .error-icon{fill:#252525;}#ge170ef0c-1c10-4601-a86b-e3950ff56b7d-dark .error-text{fill:#cccccc;stroke:#cccccc;}#ge170ef0c-1c10-4601-a86b-e3950ff56b7d-dark .edge-thickness-normal{stroke-width:1px;}#ge170ef0c-1c10-4601-a86b-e3950ff56b7d-dark .edge-thickness-thick{stroke-width:3.5px;}#ge170ef0c-1c10-4601-a86b-e3950ff56b7d-dark .edge-pattern-solid{stroke-dasharray:0;}#ge170ef0c-1c10-4601-a86b-e3950ff56b7d-dark .edge-thickness-invisible{stroke-width:0;fill:none;}#ge170ef0c-1c10-4601-a86b-e3950ff56b7d-dark .edge-pattern-dashed{stroke-dasharray:3;}#ge170ef0c-1c10-4601-a86b-e3950ff56b7d-dark .edge-pattern-dotted{stroke-dasharray:2;}#ge170ef0c-1c10-4601-a86b-e3950ff56b7d-dark .marker{fill:#cccccc;stroke:#cccccc;}#ge170ef0c-1c10-4601-a86b-e3950ff56b7d-dark .marker.cross{stroke:#cccccc;}#ge170ef0c-1c10-4601-a86b-e3950ff56b7d-dark svg{font-family:"trebuchet ms",verdana,arial,sans-serif;font-size:16px;}#ge170ef0c-1c10-4601-a86b-e3950ff56b7d-dark p{margin:0;}#ge170ef0c-1c10-4601-a86b-e3950ff56b7d-dark .label{font-family:"trebuchet ms",verdana,arial,sans-serif;color:#e5e5e5;}#ge170ef0c-1c10-4601-a86b-e3950ff56b7d-dark .cluster-label text{fill:#e5e5e5;}#ge170ef0c-1c10-4601-a86b-e3950ff56b7d-dark .cluster-label span{color:#e5e5e5;}#ge170ef0c-1c10-4601-a86b-e3950ff56b7d-dark .cluster-label span p{background-color:transparent;}#ge170ef0c-1c10-4601-a86b-e3950ff56b7d-dark .label text,#ge170ef0c-1c10-4601-a86b-e3950ff56b7d-dark span{fill:#e5e5e5;color:#e5e5e5;}#ge170ef0c-1c10-4601-a86b-e3950ff56b7d-dark .node rect,#ge170ef0c-1c10-4601-a86b-e3950ff56b7d-dark .node circle,#ge170ef0c-1c10-4601-a86b-e3950ff56b7d-dark .node ellipse,#ge170ef0c-1c10-4601-a86b-e3950ff56b7d-dark .node polygon,#ge170ef0c-1c10-4601-a86b-e3950ff56b7d-dark .node path{fill:#2d2d2d;stroke:#555555;stroke-width:1px;}#ge170ef0c-1c10-4601-a86b-e3950ff56b7d-dark .rough-node .label text,#ge170ef0c-1c10-4601-a86b-e3950ff56b7d-dark .node .label text,#ge170ef0c-1c10-4601-a86b-e3950ff56b7d-dark .image-shape .label,#ge170ef0c-1c10-4601-a86b-e3950ff56b7d-dark .icon-shape .label{text-anchor:middle;}#ge170ef0c-1c10-4601-a86b-e3950ff56b7d-dark .node .katex path{fill:#000;stroke:#000;stroke-width:1px;}#ge170ef0c-1c10-4601-a86b-e3950ff56b7d-dark .rough-node .label,#ge170ef0c-1c10-4601-a86b-e3950ff56b7d-dark .node .label,#ge170ef0c-1c10-4601-a86b-e3950ff56b7d-dark .image-shape .label,#ge170ef0c-1c10-4601-a86b-e3950ff56b7d-dark .icon-shape .label{text-align:center;}#ge170ef0c-1c10-4601-a86b-e3950ff56b7d-dark .node.clickable{cursor:pointer;}#ge170ef0c-1c10-4601-a86b-e3950ff56b7d-dark .root .anchor path{fill:#cccccc!important;stroke-width:0;stroke:#cccccc;}#ge170ef0c-1c10-4601-a86b-e3950ff56b7d-dark .arrowheadPath{fill:#cccccc;}#ge170ef0c-1c10-4601-a86b-e3950ff56b7d-dark .edgePath .path{stroke:#cccccc;stroke-width:1px;}#ge170ef0c-1c10-4601-a86b-e3950ff56b7d-dark .flowchart-link{stroke:#cccccc;fill:none;}#ge170ef0c-1c10-4601-a86b-e3950ff56b7d-dark .edgeLabel{background-color:#1e1e1e;text-align:center;}#ge170ef0c-1c10-4601-a86b-e3950ff56b7d-dark .edgeLabel p{background-color:#1e1e1e;}#ge170ef0c-1c10-4601-a86b-e3950ff56b7d-dark .edgeLabel rect{opacity:0.5;background-color:#1e1e1e;fill:#1e1e1e;}#ge170ef0c-1c10-4601-a86b-e3950ff56b7d-dark .labelBkg{background-color:rgba(30, 30, 30, 0.5);}#ge170ef0c-1c10-4601-a86b-e3950ff56b7d-dark .cluster rect{fill:#1e1e1e;stroke:#555555;stroke-width:1px;}#ge170ef0c-1c10-4601-a86b-e3950ff56b7d-dark .cluster text{fill:#e5e5e5;}#ge170ef0c-1c10-4601-a86b-e3950ff56b7d-dark .cluster span{color:#e5e5e5;}#ge170ef0c-1c10-4601-a86b-e3950ff56b7d-dark div.mermaidTooltip{position:absolute;text-align:center;max-width:200px;padding:2px;font-family:"trebuchet ms",verdana,arial,sans-serif;font-size:12px;background:#252525;border:1px solid #555555;border-radius:2px;pointer-events:none;z-index:100;}#ge170ef0c-1c10-4601-a86b-e3950ff56b7d-dark .flowchartTitleText{text-anchor:middle;font-size:18px;fill:#e5e5e5;}#ge170ef0c-1c10-4601-a86b-e3950ff56b7d-dark rect.text{fill:none;stroke-width:0;}#ge170ef0c-1c10-4601-a86b-e3950ff56b7d-dark .icon-shape,#ge170ef0c-1c10-4601-a86b-e3950ff56b7d-dark .image-shape{background-color:#1e1e1e;text-align:center;}#ge170ef0c-1c10-4601-a86b-e3950ff56b7d-dark .icon-shape p,#ge170ef0c-1c10-4601-a86b-e3950ff56b7d-dark .image-shape p{background-color:#1e1e1e;padding:2px;}#ge170ef0c-1c10-4601-a86b-e3950ff56b7d-dark .icon-shape .label rect,#ge170ef0c-1c10-4601-a86b-e3950ff56b7d-dark .image-shape .label rect{opacity:0.5;background-color:#1e1e1e;fill:#1e1e1e;}#ge170ef0c-1c10-4601-a86b-e3950ff56b7d-dark .label-icon{display:inline-block;height:1em;overflow:visible;vertical-align:-0.125em;}#ge170ef0c-1c10-4601-a86b-e3950ff56b7d-dark .node .label-icon path{fill:currentColor;stroke:revert;stroke-width:revert;}#ge170ef0c-1c10-4601-a86b-e3950ff56b7d-dark .node .neo-node{stroke:#555555;}#ge170ef0c-1c10-4601-a86b-e3950ff56b7d-dark [data-look="neo"].node rect,#ge170ef0c-1c10-4601-a86b-e3950ff56b7d-dark [data-look="neo"].cluster rect,#ge170ef0c-1c10-4601-a86b-e3950ff56b7d-dark [data-look="neo"].node polygon{stroke:url(#ge170ef0c-1c10-4601-a86b-e3950ff56b7d-dark-gradient);filter:drop-shadow( 1px 2px 2px rgba(185,185,185,1));}#ge170ef0c-1c10-4601-a86b-e3950ff56b7d-dark [data-look="neo"].node path{stroke:url(#ge170ef0c-1c10-4601-a86b-e3950ff56b7d-dark-gradient);stroke-width:1px;}#ge170ef0c-1c10-4601-a86b-e3950ff56b7d-dark [data-look="neo"].node .outer-path{filter:drop-shadow( 1px 2px 2px rgba(185,185,185,1));}#ge170ef0c-1c10-4601-a86b-e3950ff56b7d-dark [data-look="neo"].node .neo-line path{stroke:#555555;filter:none;}#ge170ef0c-1c10-4601-a86b-e3950ff56b7d-dark [data-look="neo"].node circle{stroke:url(#ge170ef0c-1c10-4601-a86b-e3950ff56b7d-dark-gradient);filter:drop-shadow( 1px 2px 2px rgba(185,185,185,1));}#ge170ef0c-1c10-4601-a86b-e3950ff56b7d-dark [data-look="neo"].node circle .state-start{fill:#000000;}#ge170ef0c-1c10-4601-a86b-e3950ff56b7d-dark [data-look="neo"].icon-shape .icon{fill:url(#ge170ef0c-1c10-4601-a86b-e3950ff56b7d-dark-gradient);filter:drop-shadow( 1px 2px 2px rgba(185,185,185,1));}#ge170ef0c-1c10-4601-a86b-e3950ff56b7d-dark [data-look="neo"].icon-shape .icon-neo path{stroke:url(#ge170ef0c-1c10-4601-a86b-e3950ff56b7d-dark-gradient);filter:drop-shadow( 1px 2px 2px rgba(185,185,185,1));}#ge170ef0c-1c10-4601-a86b-e3950ff56b7d-dark :root{--mermaid-font-family:"trebuchet ms",verdana,arial,sans-serif;}#ge170ef0c-1c10-4601-a86b-e3950ff56b7d-dark .rootNode rect{fill:#1F4870!important;stroke:#0E2C4A!important;color:#ffffff!important;stroke-width:2px!important;}#ge170ef0c-1c10-4601-a86b-e3950ff56b7d-dark .rootNode polygon{fill:#1F4870!important;stroke:#0E2C4A!important;color:#ffffff!important;stroke-width:2px!important;}#ge170ef0c-1c10-4601-a86b-e3950ff56b7d-dark .rootNode ellipse{fill:#1F4870!important;stroke:#0E2C4A!important;color:#ffffff!important;stroke-width:2px!important;}#ge170ef0c-1c10-4601-a86b-e3950ff56b7d-dark .rootNode circle{fill:#1F4870!important;stroke:#0E2C4A!important;color:#ffffff!important;stroke-width:2px!important;}#ge170ef0c-1c10-4601-a86b-e3950ff56b7d-dark .rootNode path{fill:#1F4870!important;stroke:#0E2C4A!important;color:#ffffff!important;stroke-width:2px!important;}#ge170ef0c-1c10-4601-a86b-e3950ff56b7d-dark .rootNode tspan{fill:#ffffff!important;}#ge170ef0c-1c10-4601-a86b-e3950ff56b7d-dark .primary rect{fill:#2E5A88!important;stroke:#1F4870!important;color:#ffffff!important;}#ge170ef0c-1c10-4601-a86b-e3950ff56b7d-dark .primary polygon{fill:#2E5A88!important;stroke:#1F4870!important;color:#ffffff!important;}#ge170ef0c-1c10-4601-a86b-e3950ff56b7d-dark .primary ellipse{fill:#2E5A88!important;stroke:#1F4870!important;color:#ffffff!important;}#ge170ef0c-1c10-4601-a86b-e3950ff56b7d-dark .primary circle{fill:#2E5A88!important;stroke:#1F4870!important;color:#ffffff!important;}#ge170ef0c-1c10-4601-a86b-e3950ff56b7d-dark .primary path{fill:#2E5A88!important;stroke:#1F4870!important;color:#ffffff!important;}#ge170ef0c-1c10-4601-a86b-e3950ff56b7d-dark .primary tspan{fill:#ffffff!important;}</style><g><marker id="ge170ef0c-1c10-4601-a86b-e3950ff56b7d-dark_flowchart-v2-pointEnd" class="marker flowchart-v2" viewBox="0 0 10 10" refX="5" refY="5" markerUnits="userSpaceOnUse" markerWidth="8" markerHeight="8" orient="auto"><path d="M 0 0 L 10 5 L 0 10 z" class="arrowMarkerPath" style="stroke-width: 1; stroke-dasharray: 1, 0;"></path></marker><marker id="ge170ef0c-1c10-4601-a86b-e3950ff56b7d-dark_flowchart-v2-pointStart" class="marker flowchart-v2" viewBox="0 0 10 10" refX="4.5" refY="5" markerUnits="userSpaceOnUse" markerWidth="8" markerHeight="8" orient="auto"><path d="M 0 5 L 10 10 L 10 0 z" class="arrowMarkerPath" style="stroke-width: 1; stroke-dasharray: 1, 0;"></path></marker><marker id="ge170ef0c-1c10-4601-a86b-e3950ff56b7d-dark_flowchart-v2-pointEnd-margin" class="marker flowchart-v2" viewBox="0 0 11.5 14" refX="11.5" refY="7" markerUnits="userSpaceOnUse" markerWidth="10.5" markerHeight="14" orient="auto"><path d="M 0 0 L 11.5 7 L 0 14 z" class="arrowMarkerPath" style="stroke-width: 0; stroke-dasharray: 1, 0;"></path></marker><marker id="ge170ef0c-1c10-4601-a86b-e3950ff56b7d-dark_flowchart-v2-pointStart-margin" class="marker flowchart-v2" viewBox="0 0 11.5 14" refX="1" refY="7" markerUnits="userSpaceOnUse" markerWidth="11.5" markerHeight="14" orient="auto"><polygon points="0,7 11.5,14 11.5,0" class="arrowMarkerPath" style="stroke-width: 0; stroke-dasharray: 1, 0;"></polygon></marker><marker id="ge170ef0c-1c10-4601-a86b-e3950ff56b7d-dark_flowchart-v2-circleEnd" class="marker flowchart-v2" viewBox="0 0 10 10" refX="11" refY="5" markerUnits="userSpaceOnUse" markerWidth="11" markerHeight="11" orient="auto"><circle cx="5" cy="5" r="5" class="arrowMarkerPath" style="stroke-width: 1; stroke-dasharray: 1, 0;"></circle></marker><marker id="ge170ef0c-1c10-4601-a86b-e3950ff56b7d-dark_flowchart-v2-circleStart" class="marker flowchart-v2" viewBox="0 0 10 10" refX="-1" refY="5" markerUnits="userSpaceOnUse" markerWidth="11" markerHeight="11" orient="auto"><circle cx="5" cy="5" r="5" class="arrowMarkerPath" style="stroke-width: 1; stroke-dasharray: 1, 0;"></circle></marker><marker id="ge170ef0c-1c10-4601-a86b-e3950ff56b7d-dark_flowchart-v2-circleEnd-margin" class="marker flowchart-v2" viewBox="0 0 10 10" refY="5" refX="12.25" markerUnits="userSpaceOnUse" markerWidth="14" markerHeight="14" orient="auto"><circle cx="5" cy="5" r="5" class="arrowMarkerPath" style="stroke-width: 0; stroke-dasharray: 1, 0;"></circle></marker><marker id="ge170ef0c-1c10-4601-a86b-e3950ff56b7d-dark_flowchart-v2-circleStart-margin" class="marker flowchart-v2" viewBox="0 0 10 10" refX="-2" refY="5" markerUnits="userSpaceOnUse" markerWidth="14" markerHeight="14" orient="auto"><circle cx="5" cy="5" r="5" class="arrowMarkerPath" style="stroke-width: 0; stroke-dasharray: 1, 0;"></circle></marker><marker id="ge170ef0c-1c10-4601-a86b-e3950ff56b7d-dark_flowchart-v2-crossEnd" class="marker cross flowchart-v2" viewBox="0 0 11 11" refX="12" refY="5.2" markerUnits="userSpaceOnUse" markerWidth="11" markerHeight="11" orient="auto"><path d="M 1,1 l 9,9 M 10,1 l -9,9" class="arrowMarkerPath" style="stroke-width: 2; stroke-dasharray: 1, 0;"></path></marker><marker id="ge170ef0c-1c10-4601-a86b-e3950ff56b7d-dark_flowchart-v2-crossStart" class="marker cross flowchart-v2" viewBox="0 0 11 11" refX="-1" refY="5.2" markerUnits="userSpaceOnUse" markerWidth="11" markerHeight="11" orient="auto"><path d="M 1,1 l 9,9 M 10,1 l -9,9" class="arrowMarkerPath" style="stroke-width: 2; stroke-dasharray: 1, 0;"></path></marker><marker id="ge170ef0c-1c10-4601-a86b-e3950ff56b7d-dark_flowchart-v2-crossEnd-margin" class="marker cross flowchart-v2" viewBox="0 0 15 15" refX="17.7" refY="7.5" markerUnits="userSpaceOnUse" markerWidth="12" markerHeight="12" orient="auto"><path d="M 1,1 L 14,14 M 1,14 L 14,1" class="arrowMarkerPath" style="stroke-width: 2.5;"></path></marker><marker id="ge170ef0c-1c10-4601-a86b-e3950ff56b7d-dark_flowchart-v2-crossStart-margin" class="marker cross flowchart-v2" viewBox="0 0 15 15" refX="-3.5" refY="7.5" markerUnits="userSpaceOnUse" markerWidth="12" markerHeight="12" orient="auto"><path d="M 1,1 L 14,14 M 1,14 L 14,1" class="arrowMarkerPath" style="stroke-width: 2.5; stroke-dasharray: 1, 0;"></path></marker><g class="root"><g class="clusters"></g><g class="edgePaths"><path d="M66.52,393.2L78.378,343.733C90.237,294.267,113.954,195.333,131.751,145.867C149.548,96.4,161.426,96.4,167.364,96.4L173.303,96.4" id="ge170ef0c-1c10-4601-a86b-e3950ff56b7d-dark-L_root_node_runtime_0" class="edge-thickness-normal edge-pattern-solid edge-thickness-normal edge-pattern-solid flowchart-link" style=";" data-edge="true" data-et="edge" data-id="L_root_node_runtime_0" data-points="W3sieCI6NjYuNTIwMDc4ODE0MDQ1MDQsInkiOjM5My4yMDAwMDA3NjI5Mzk0NX0seyJ4IjoxMzcuNjcwMzY0Mzc5ODgyOCwieSI6OTYuNDAwMDAxNTI1ODc4OX0seyJ4IjoxNzcuMzAzMTc2ODc5ODgyOCwieSI6OTYuNDAwMDAxNTI1ODc4OX1d" data-look="classic" marker-end="url(#ge170ef0c-1c10-4601-a86b-e3950ff56b7d-dark_flowchart-v2-pointEnd)"></path><path d="M79.41,393.2L89.12,380.067C98.83,366.933,118.25,340.667,134.65,327.533C151.051,314.4,164.431,314.4,171.121,314.4L177.811,314.4" id="ge170ef0c-1c10-4601-a86b-e3950ff56b7d-dark-L_root_node_output_0" class="edge-thickness-normal edge-pattern-solid edge-thickness-normal edge-pattern-solid flowchart-link" style=";" data-edge="true" data-et="edge" data-id="L_root_node_output_0" data-points="W3sieCI6NzkuNDEwMjA3NzIxNTM0MTksInkiOjM5My4yMDAwMDA3NjI5Mzk0NX0seyJ4IjoxMzcuNjcwMzY0Mzc5ODgyOCwieSI6MzE0LjQwMDAwMTUyNTg3ODl9LHsieCI6MTgxLjgxMDk4OTM3OTg4MjgsInkiOjMxNC40MDAwMDE1MjU4Nzg5fV0=" data-look="classic" marker-end="url(#ge170ef0c-1c10-4601-a86b-e3950ff56b7d-dark_flowchart-v2-pointEnd)"></path><path d="M79.41,444.8L89.12,457.933C98.83,471.067,118.25,497.333,138.361,510.467C158.472,523.6,179.275,523.6,189.676,523.6L200.077,523.6" id="ge170ef0c-1c10-4601-a86b-e3950ff56b7d-dark-L_root_node_build_0" class="edge-thickness-normal edge-pattern-solid edge-thickness-normal edge-pattern-solid flowchart-link" style=";" data-edge="true" data-et="edge" data-id="L_root_node_build_0" data-points="W3sieCI6NzkuNDEwMjA3NzIxNTM0MTksInkiOjQ0NC43OTk5OTkyMzcwNjA1NX0seyJ4IjoxMzcuNjcwMzY0Mzc5ODgyOCwieSI6NTIzLjU5OTk5ODQ3NDEyMTF9LHsieCI6MjA0LjA3NjYxNDM3OTg4MjgsInkiOjUyMy41OTk5OTg0NzQxMjExfV0=" data-look="classic" marker-end="url(#ge170ef0c-1c10-4601-a86b-e3950ff56b7d-dark_flowchart-v2-pointEnd)"></path><path d="M66.694,444.8L78.523,492.8C90.352,540.8,114.011,636.8,129.341,684.8C144.67,732.8,151.67,732.8,155.17,732.8L158.67,732.8" id="ge170ef0c-1c10-4601-a86b-e3950ff56b7d-dark-L_root_node_config_0" class="edge-thickness-normal edge-pattern-solid edge-thickness-normal edge-pattern-solid flowchart-link" style=";" data-edge="true" data-et="edge" data-id="L_root_node_config_0" data-points="W3sieCI6NjYuNjkzNTI0MDMzODA1NjcsInkiOjQ0NC43OTk5OTkyMzcwNjA1NX0seyJ4IjoxMzcuNjcwMzY0Mzc5ODgyOCwieSI6NzMyLjc5OTk5NTQyMjM2MzN9LHsieCI6MTYyLjY3MDM2NDM3OTg4MjgsInkiOjczMi43OTk5OTU0MjIzNjMzfV0=" data-look="classic" marker-end="url(#ge170ef0c-1c10-4601-a86b-e3950ff56b7d-dark_flowchart-v2-pointEnd)"></path></g><g class="edgeLabels"><g class="edgeLabel"><g class="label" data-id="L_root_node_runtime_0" transform="translate(0, 0)"><text y="-10.1" text-anchor="middle"><tspan class="text-outer-tspan row" x="0" y="-0.1em" dy="1.1em" text-anchor="middle"></tspan></text></g></g><g><rect class="background" style="stroke: none"></rect></g><g class="edgeLabel"><g class="label" data-id="L_root_node_output_0" transform="translate(0, 0)"><text y="-10.1" text-anchor="middle"><tspan class="text-outer-tspan row" x="0" y="-0.1em" dy="1.1em" text-anchor="middle"></tspan></text></g></g><g><rect class="background" style="stroke: none"></rect></g><g class="edgeLabel"><g class="label" data-id="L_root_node_build_0" transform="translate(0, 0)"><text y="-10.1" text-anchor="middle"><tspan class="text-outer-tspan row" x="0" y="-0.1em" dy="1.1em" text-anchor="middle"></tspan></text></g></g><g><rect class="background" style="stroke: none"></rect></g><g class="edgeLabel"><g class="label" data-id="L_root_node_config_0" transform="translate(0, 0)"><text y="-10.1" text-anchor="middle"><tspan class="text-outer-tspan row" x="0" y="-0.1em" dy="1.1em" text-anchor="middle"></tspan></text></g></g><g><rect class="background" style="stroke: none"></rect></g></g><g class="nodes"><g class="root" transform="translate(154.6703643798828, 645.1999969482422)"><g class="clusters"><g class="cluster" id="ge170ef0c-1c10-4601-a86b-e3950ff56b7d-dark-config" data-look="classic"><rect style="" x="8" y="8" width="562.953125" height="159.1999969482422"></rect><g class="cluster-label" transform="translate(266.7734375, 8)"><g><rect class="background" style="stroke: none"></rect><text y="-10.1" style=""><tspan class="text-outer-tspan row" x="0" y="-0.1em" dy="1.1em"><tspan font-style="normal" class="text-inner-tspan" font-weight="normal">Config</tspan></tspan></text></g></g></g></g><g class="edgePaths"></g><g class="edgeLabels"></g><g class="nodes"><g class="node default primary" id="ge170ef0c-1c10-4601-a86b-e3950ff56b7d-dark-flowchart-layered-7" data-look="classic" transform="translate(162.796875, 87.5999984741211)"><rect class="basic label-container" style="fill:#2E5A88 !important;stroke:#1F4870 !important" x="-119.796875" y="-42.099998474121094" width="239.59375" height="84.19999694824219"></rect><g class="label" style="color:#ffffff !important" transform="translate(0, -27.099998474121094)"><rect></rect><g><rect class="background" style="stroke: none"></rect><text y="-10.1" style="fill:#404040 !important"><tspan class="text-outer-tspan row" x="0" y="-0.1em" dy="1.1em"><tspan font-style="normal" class="text-inner-tspan" font-weight="normal">Layered</tspan><tspan font-style="normal" class="text-inner-tspan" font-weight="normal"> Config</tspan></tspan><tspan class="text-outer-tspan row" x="0" y="1em" dy="1.1em"><tspan font-style="normal" class="text-inner-tspan" font-weight="normal">Defaults</tspan><tspan font-style="normal" class="text-inner-tspan" font-weight="normal"> to</tspan><tspan font-style="normal" class="text-inner-tspan" font-weight="normal"> Global</tspan><tspan font-style="normal" class="text-inner-tspan" font-weight="normal"> to</tspan><tspan font-style="normal" class="text-inner-tspan" font-weight="normal"> Env</tspan></tspan><tspan class="text-outer-tspan row" x="0" y="2.1em" dy="1.1em"><tspan font-style="normal" class="text-inner-tspan" font-weight="normal">to</tspan><tspan font-style="normal" class="text-inner-tspan" font-weight="normal"> Local</tspan><tspan font-style="normal" class="text-inner-tspan" font-weight="normal"> to</tspan><tspan font-style="normal" class="text-inner-tspan" font-weight="normal"> CLI</tspan></tspan></text></g></g></g><g class="node default primary" id="ge170ef0c-1c10-4601-a86b-e3950ff56b7d-dark-flowchart-ext-8" data-look="classic" transform="translate(434.2734375, 87.5999984741211)"><rect class="basic label-container" style="fill:#2E5A88 !important;stroke:#1F4870 !important" x="-101.6796875" y="-33.29999923706055" width="203.359375" height="66.5999984741211"></rect><g class="label" style="color:#ffffff !important" transform="translate(0, -18.299999237060547)"><rect></rect><g><rect class="background" style="stroke: none"></rect><text y="-10.1" style="fill:#404040 !important"><tspan class="text-outer-tspan row" x="0" y="-0.1em" dy="1.1em"><tspan font-style="normal" class="text-inner-tspan" font-weight="normal">Extension</tspan><tspan font-style="normal" class="text-inner-tspan" font-weight="normal"> Detection</tspan></tspan><tspan class="text-outer-tspan row" x="0" y="1em" dy="1.1em"><tspan font-style="normal" class="text-inner-tspan" font-weight="normal">Longest</tspan><tspan font-style="normal" class="text-inner-tspan" font-weight="normal"> match</tspan><tspan font-style="normal" class="text-inner-tspan" font-weight="normal"> first</tspan></tspan></text></g></g></g></g></g><g class="root" transform="translate(196.0766143798828, 436)"><g class="clusters"><g class="cluster" id="ge170ef0c-1c10-4601-a86b-e3950ff56b7d-dark-build" data-look="classic"><rect style="" x="8" y="8" width="480.140625" height="159.1999969482422"></rect><g class="cluster-label" transform="translate(230.0703125, 8)"><g><rect class="background" style="stroke: none"></rect><text y="-10.1" style=""><tspan class="text-outer-tspan row" x="0" y="-0.1em" dy="1.1em"><tspan font-style="normal" class="text-inner-tspan" font-weight="normal">Build</tspan></tspan></text></g></g></g></g><g class="edgePaths"></g><g class="edgeLabels"></g><g class="nodes"><g class="node default primary" id="ge170ef0c-1c10-4601-a86b-e3950ff56b7d-dark-flowchart-incremental-5" data-look="classic" transform="translate(139.7890625, 87.5999984741211)"><rect class="basic label-container" style="fill:#2E5A88 !important;stroke:#1F4870 !important" x="-96.7890625" y="-42.099998474121094" width="193.578125" height="84.19999694824219"></rect><g class="label" style="color:#ffffff !important" transform="translate(0, -27.099998474121094)"><rect></rect><g><rect class="background" style="stroke: none"></rect><text y="-10.1" style="fill:#404040 !important"><tspan class="text-outer-tspan row" x="0" y="-0.1em" dy="1.1em"><tspan font-style="normal" class="text-inner-tspan" font-weight="normal">Incremental</tspan><tspan font-style="normal" class="text-inner-tspan" font-weight="normal"> Builds</tspan></tspan><tspan class="text-outer-tspan row" x="0" y="1em" dy="1.1em"><tspan font-style="normal" class="text-inner-tspan" font-weight="normal">SHA-256</tspan><tspan font-style="normal" class="text-inner-tspan" font-weight="normal"> manifest</tspan></tspan><tspan class="text-outer-tspan row" x="0" y="2.1em" dy="1.1em"><tspan font-style="normal" class="text-inner-tspan" font-weight="normal">Skip</tspan><tspan font-style="normal" class="text-inner-tspan" font-weight="normal"> unchanged</tspan></tspan></text></g></g></g><g class="node default primary" id="ge170ef0c-1c10-4601-a86b-e3950ff56b7d-dark-flowchart-atomic-6" data-look="classic" transform="translate(369.859375, 87.5999984741211)"><rect class="basic label-container" style="fill:#2E5A88 !important;stroke:#1F4870 !important" x="-83.28125" y="-33.29999923706055" width="166.5625" height="66.5999984741211"></rect><g class="label" style="color:#ffffff !important" transform="translate(0, -18.299999237060547)"><rect></rect><g><rect class="background" style="stroke: none"></rect><text y="-10.1" style="fill:#404040 !important"><tspan class="text-outer-tspan row" x="0" y="-0.1em" dy="1.1em"><tspan font-style="normal" class="text-inner-tspan" font-weight="normal">Atomic</tspan><tspan font-style="normal" class="text-inner-tspan" font-weight="normal"> Writes</tspan></tspan><tspan class="text-outer-tspan row" x="0" y="1em" dy="1.1em"><tspan font-style="normal" class="text-inner-tspan" font-weight="normal">.tmp</tspan><tspan font-style="normal" class="text-inner-tspan" font-weight="normal"> +</tspan><tspan font-style="normal" class="text-inner-tspan" font-weight="normal"> rename</tspan></tspan></text></g></g></g></g></g><g class="root" transform="translate(173.8109893798828, 226.8000030517578)"><g class="clusters"><g class="cluster" id="ge170ef0c-1c10-4601-a86b-e3950ff56b7d-dark-output" data-look="classic"><rect style="" x="8" y="8" width="524.671875" height="159.1999969482422"></rect><g class="cluster-label" transform="translate(245.3984375, 8)"><g><rect class="background" style="stroke: none"></rect><text y="-10.1" style=""><tspan class="text-outer-tspan row" x="0" y="-0.1em" dy="1.1em"><tspan font-style="normal" class="text-inner-tspan" font-weight="normal">Output</tspan></tspan></text></g></g></g></g><g class="edgePaths"></g><g class="edgeLabels"></g><g class="nodes"><g class="node default primary" id="ge170ef0c-1c10-4601-a86b-e3950ff56b7d-dark-flowchart-svgFirst-3" data-look="classic" transform="translate(140.4296875, 87.5999984741211)"><rect class="basic label-container" style="fill:#2E5A88 !important;stroke:#1F4870 !important" x="-97.4296875" y="-42.099998474121094" width="194.859375" height="84.19999694824219"></rect><g class="label" style="color:#ffffff !important" transform="translate(0, -27.099998474121094)"><rect></rect><g><rect class="background" style="stroke: none"></rect><text y="-10.1" style="fill:#404040 !important"><tspan class="text-outer-tspan row" x="0" y="-0.1em" dy="1.1em"><tspan font-style="normal" class="text-inner-tspan" font-weight="normal">SVG-First</tspan></tspan><tspan class="text-outer-tspan row" x="0" y="1em" dy="1.1em"><tspan font-style="normal" class="text-inner-tspan" font-weight="normal">Vector</tspan><tspan font-style="normal" class="text-inner-tspan" font-weight="normal"> is</tspan><tspan font-style="normal" class="text-inner-tspan" font-weight="normal"> canonical</tspan></tspan><tspan class="text-outer-tspan row" x="0" y="2.1em" dy="1.1em"><tspan font-style="normal" class="text-inner-tspan" font-weight="normal">Raster</tspan><tspan font-style="normal" class="text-inner-tspan" font-weight="normal"> via</tspan><tspan font-style="normal" class="text-inner-tspan" font-weight="normal"> sharp</tspan></tspan></text></g></g></g><g class="node default primary" id="ge170ef0c-1c10-4601-a86b-e3950ff56b7d-dark-flowchart-themes-4" data-look="classic" transform="translate(392.765625, 87.5999984741211)"><rect class="basic label-container" style="fill:#2E5A88 !important;stroke:#1F4870 !important" x="-104.90625" y="-42.099998474121094" width="209.8125" height="84.19999694824219"></rect><g class="label" style="color:#ffffff !important" transform="translate(0, -27.099998474121094)"><rect></rect><g><rect class="background" style="stroke: none"></rect><text y="-10.1" style="fill:#404040 !important"><tspan class="text-outer-tspan row" x="0" y="-0.1em" dy="1.1em"><tspan font-style="normal" class="text-inner-tspan" font-weight="normal">Light</tspan><tspan font-style="normal" class="text-inner-tspan" font-weight="normal"> +</tspan><tspan font-style="normal" class="text-inner-tspan" font-weight="normal"> Dark</tspan></tspan><tspan class="text-outer-tspan row" x="0" y="1em" dy="1.1em"><tspan font-style="normal" class="text-inner-tspan" font-weight="normal">Both</tspan><tspan font-style="normal" class="text-inner-tspan" font-weight="normal"> themes</tspan><tspan font-style="normal" class="text-inner-tspan" font-weight="normal"> default</tspan></tspan><tspan class="text-outer-tspan row" x="0" y="2.1em" dy="1.1em"><tspan font-style="normal" class="text-inner-tspan" font-weight="normal">Theme</tspan><tspan font-style="normal" class="text-inner-tspan" font-weight="normal"> suffix</tspan><tspan font-style="normal" class="text-inner-tspan" font-weight="normal"> naming</tspan></tspan></text></g></g></g></g></g><g class="root" transform="translate(169.3031768798828, 0)"><g class="clusters"><g class="cluster" id="ge170ef0c-1c10-4601-a86b-e3950ff56b7d-dark-runtime" data-look="classic"><rect style="" x="8" y="8" width="533.6875" height="176.8000030517578"></rect><g class="cluster-label" transform="translate(245.21875, 8)"><g><rect class="background" style="stroke: none"></rect><text y="-10.1" style=""><tspan class="text-outer-tspan row" x="0" y="-0.1em" dy="1.1em"><tspan font-style="normal" class="text-inner-tspan" font-weight="normal">Runtime</tspan></tspan></text></g></g></g></g><g class="edgePaths"></g><g class="edgeLabels"></g><g class="nodes"><g class="node default primary" id="ge170ef0c-1c10-4601-a86b-e3950ff56b7d-dark-flowchart-chromium-1" data-look="classic" transform="translate(152.625, 96.4000015258789)"><rect class="basic label-container" style="fill:#2E5A88 !important;stroke:#1F4870 !important" x="-109.625" y="-42.099998474121094" width="219.25" height="84.19999694824219"></rect><g class="label" style="color:#ffffff !important" transform="translate(0, -27.099998474121094)"><rect></rect><g><rect class="background" style="stroke: none"></rect><text y="-10.1" style="fill:#404040 !important"><tspan class="text-outer-tspan row" x="0" y="-0.1em" dy="1.1em"><tspan font-style="normal" class="text-inner-tspan" font-weight="normal">One</tspan><tspan font-style="normal" class="text-inner-tspan" font-weight="normal"> Chromium</tspan></tspan><tspan class="text-outer-tspan row" x="0" y="1em" dy="1.1em"><tspan font-style="normal" class="text-inner-tspan" font-weight="normal">Shared</tspan><tspan font-style="normal" class="text-inner-tspan" font-weight="normal"> BrowserPool</tspan></tspan><tspan class="text-outer-tspan row" x="0" y="2.1em" dy="1.1em"><tspan font-style="normal" class="text-inner-tspan" font-weight="normal">Graphviz</tspan><tspan font-style="normal" class="text-inner-tspan" font-weight="normal"> is</tspan><tspan font-style="normal" class="text-inner-tspan" font-weight="normal"> WASM</tspan><tspan font-style="normal" class="text-inner-tspan" font-weight="normal"> only</tspan></tspan></text></g></g></g><g class="node default primary" id="ge170ef0c-1c10-4601-a86b-e3950ff56b7d-dark-flowchart-registry-2" data-look="classic" transform="translate(409.46875, 96.4000015258789)"><rect class="basic label-container" style="fill:#2E5A88 !important;stroke:#1F4870 !important" x="-97.21875" y="-50.900001525878906" width="194.4375" height="101.80000305175781"></rect><g class="label" style="color:#ffffff !important" transform="translate(0, -35.900001525878906)"><rect></rect><g><rect class="background" style="stroke: none"></rect><text y="-10.1" style="fill:#404040 !important"><tspan class="text-outer-tspan row" x="0" y="-0.1em" dy="1.1em"><tspan font-style="normal" class="text-inner-tspan" font-weight="normal">Engine</tspan><tspan font-style="normal" class="text-inner-tspan" font-weight="normal"> Registry</tspan></tspan><tspan class="text-outer-tspan row" x="0" y="1em" dy="1.1em"><tspan font-style="normal" class="text-inner-tspan" font-weight="normal">Extension</tspan><tspan font-style="normal" class="text-inner-tspan" font-weight="normal"> mapping</tspan></tspan><tspan class="text-outer-tspan row" x="0" y="2.1em" dy="1.1em"><tspan font-style="normal" class="text-inner-tspan" font-weight="normal">Engine</tspan><tspan font-style="normal" class="text-inner-tspan" font-weight="normal"> profiles</tspan></tspan><tspan class="text-outer-tspan row" x="0" y="3.2em" dy="1.1em"><tspan font-style="normal" class="text-inner-tspan" font-weight="normal">Renderer</tspan><tspan font-style="normal" class="text-inner-tspan" font-weight="normal"> dispatch</tspan></tspan></text></g></g></g></g></g><g class="node default rootNode" id="ge170ef0c-1c10-4601-a86b-e3950ff56b7d-dark-flowchart-root_node-0" data-look="classic" transform="translate(60.335182189941406, 419)"><g class="basic label-container outer-path"><path d="M-26.54843807220459 -25.799999237060547 C-6.989196115403985 -25.799999237060547, 12.57004584139662 -25.799999237060547, 26.54843807220459 -25.799999237060547 C26.54843807220459 -25.799999237060547, 26.54843807220459 -25.799999237060547, 26.54843807220459 -25.799999237060547 C27.0164700743389 -25.78499036172113, 27.484502076473213 -25.769981486381706, 28.201449698825282 -25.746990371586765 C28.78363941486533 -25.690827229865956, 29.365829130905375 -25.634664088145147, 29.84766874610231 -25.58818159996402 C30.48935632521665 -25.484438528534312, 31.131043904330994 -25.380695457104604, 31.48033054685753 -25.32422550149928 C31.86288462988553 -25.236910028446832, 32.24543871291353 -25.149594555394383, 33.092726143546784 -24.956206728419545 C33.41208065174528 -24.861423986712254, 33.73143515994377 -24.766641245004962, 34.678229856805515 -24.48563754880318 C35.02534684980518 -24.357895286664995, 35.37246384280484 -24.230153024526807, 36.23032651178644 -23.914451632345997 C36.65056093059143 -23.72842632095215, 37.07079534939642 -23.542401009558304, 37.74263821041056 -23.24499610449772 C38.187667340407145 -23.012824692433263, 38.63269647040374 -22.780653280368806, 39.2089505395184 -22.480021901620034 C39.65248787940011 -22.211146959669012, 40.09602521928183 -21.942272017717986, 40.62323810722664 -21.62267246679901 C41.108485395242276 -21.284184964695847, 41.59373268325791 -20.94569746259268, 41.97968930255584 -20.67647083276321 C42.314681206354464 -20.40932370399275, 42.649673110153095 -20.14217657522229, 43.272730176586506 -19.64530514498651 C43.71010136946628 -19.248096199820726, 44.14747256234605 -18.850887254654943, 44.49704734701088 -18.533412684464313 C44.83647094065093 -18.18292995683566, 45.17589453429098 -17.832447229207006, 45.64760983196044 -17.345362455817106 C45.99689146436707 -16.93507637570437, 46.3461730967737 -16.524790295591632, 46.71968972338968 -16.086036412270357 C46.955676584792556 -15.76983551683584, 47.19166344619544 -15.453634621401326, 47.70888161506427 -14.76060939466161 C47.9694777040566 -14.3602638221214, 48.23007379304893 -13.95991824958119, 48.61112070532037 -13.374527866909407 C48.90617538261914 -12.850628409839555, 49.20123005991791 -12.3267289527697, 49.422699500206406 -11.93348753532484 C49.705266505575935 -11.346731102709631, 49.98783351094547 -10.759974670094424, 50.14028304837108 -10.443409943732584 C50.318165677434266 -10.004036410819849, 50.49604830649745 -9.564662877907113, 50.760922645093814 -8.910418140577123 C50.95191605286233 -8.335176427045324, 51.14290946063084 -7.759934713513526, 51.2820679491449 -7.340811518003323 C51.417377027973814 -6.82481935710296, 51.552686106802724 -6.308827196202597, 51.70157746268467 -5.741039926302914 C51.766990284751145 -5.4051589099964, 51.83240310681762 -5.069277893689886, 52.01772733113747 -4.117677170096137 C52.094002123986876 -3.526104938917637, 52.170276916836286 -2.934532707739138, 52.22921842687991 -2.4773939951584394 C52.26695994233782 -1.889539427498581, 52.30470145779572 -1.3016848598387227, 52.33518168763487 -0.8269306768952902 C52.33518168763487 -0.2662443875128935, 52.33518168763487 0.29444190186950325, 52.33518168763487 0.826930676895284 C52.302714429238016 1.332634433525638, 52.27024717084115 1.8383381901559919, 52.22921842687991 2.4773939951584216 C52.16588361375983 2.9686062988443, 52.10254880063975 3.459818602530178, 52.01772733113748 4.117677170096119 C51.94655265686971 4.483144079688345, 51.875377982601954 4.84861098928057, 51.70157746268467 5.741039926302909 C51.574309745671094 6.226366889453127, 51.44704202865753 6.711693852603346, 51.28206794914491 7.340811518003306 C51.15875958627448 7.71219666044948, 51.035451223404046 8.083581802895653, 50.76092264509383 8.910418140577105 C50.611056534598355 9.280590330965056, 50.46119042410288 9.650762521353007, 50.14028304837109 10.443409943732577 C49.97515010183258 10.786312040498828, 49.81001715529407 11.129214137265079, 49.422699500206406 11.933487535324835 C49.19020725150839 12.346301065281196, 48.95771500281037 12.759114595237559, 48.611120705320374 13.374527866909402 C48.418121754086144 13.671026083480113, 48.225122802851914 13.967524300050822, 47.708881615064286 14.760609394661596 C47.448920288677684 15.108933889055601, 47.18895896229109 15.457258383449606, 46.71968972338968 16.086036412270353 C46.299752850251075 16.57931815854396, 45.87981597711247 17.07259990481757, 45.64760983196045 17.345362455817092 C45.35188415803268 17.65072349367688, 45.056158484104905 17.95608453153667, 44.49704734701088 18.533412684464306 C44.238383709306895 18.768324156362244, 43.97972007160291 19.00323562826018, 43.272730176586535 19.64530514498649 C42.979062037193984 19.87949767131466, 42.68539389780143 20.11369019764283, 41.97968930255585 20.676470832763208 C41.68133323581953 20.884591109292494, 41.38297716908322 21.092711385821783, 40.623238107226655 21.622672466799003 C40.075769952045654 21.954550879749718, 39.52830179686466 22.286429292700433, 39.208950539518405 22.48002190162003 C38.80940738226649 22.688463310838745, 38.40986422501458 22.89690472005746, 37.74263821041057 23.244996104497716 C37.20396680327171 23.483449957318534, 36.665295396132855 23.721903810139356, 36.23032651178645 23.914451632345994 C35.79444830359642 24.074858842173914, 35.35857009540638 24.235266052001837, 34.67822985680553 24.485637548803172 C34.352302112929515 24.582371192355936, 34.02637436905349 24.6791048359087, 33.09272614354681 24.95620672841954 C32.709412780242 25.043695502240407, 32.32609941693718 25.131184276061273, 31.480330546857545 25.324225501499278 C30.925460348398122 25.41393261210354, 30.3705901499387 25.503639722707806, 29.84766874610233 25.588181599964017 C29.446484492992308 25.626883362366886, 29.045300239882284 25.665585124769752, 28.201449698825282 25.746990371586765 C27.691603604596803 25.763340143473453, 27.18175751036832 25.77968991536014, 26.548438072204593 25.799999237060547 C26.548438072204593 25.799999237060547, 26.548438072204593 25.799999237060547, 26.54843807220459 25.799999237060547 C12.279868838703347 25.799999237060547, -1.9887003947978954 25.799999237060547, -26.548438072204586 25.799999237060547 C-26.949866362572912 25.7871262131212, -27.351294652941238 25.774253189181856, -28.20144969882527 25.746990371586765 C-28.712278268803022 25.69771135380225, -29.223106838780772 25.648432336017738, -29.84766874610232 25.588181599964017 C-30.45015944305619 25.49077557646565, -31.05265014001006 25.393369552967286, -31.480330546857534 25.324225501499278 C-31.986982130747318 25.208585583687, -32.493633714637106 25.092945665874723, -33.092726143546784 24.956206728419545 C-33.60476946578712 24.80423495814886, -34.11681278802745 24.652263187878177, -34.6782298568055 24.485637548803183 C-35.175604274767394 24.30259916531449, -35.67297869272928 24.119560781825793, -36.230326511786444 23.914451632345997 C-36.814781747536884 23.655730636727853, -37.399236983287324 23.397009641109708, -37.74263821041056 23.244996104497723 C-38.10373695050073 23.05661112308746, -38.46483569059091 22.8682261416772, -39.2089505395184 22.480021901620038 C-39.646485887320466 22.214785402539317, -40.08402123512253 21.949548903458595, -40.623238107226626 21.622672466799017 C-40.94369246048837 21.399137382209, -41.26414681375011 21.17560229761898, -41.97968930255584 20.67647083276321 C-42.365025649655415 20.369175350182147, -42.750361996755 20.06187986760108, -43.272730176586506 19.645305144986512 C-43.73918806917771 19.22168042873471, -44.20564596176891 18.79805571248291, -44.49704734701086 18.533412684464324 C-44.876628276988384 18.141464210088603, -45.25620920696591 17.749515735712883, -45.64760983196044 17.3453624558171 C-46.02418315565145 16.903018002180502, -46.40075647934246 16.460673548543905, -46.71968972338967 16.08603641227036 C-46.935883327044515 15.796356679015343, -47.15207693069935 15.506676945760326, -47.70888161506427 14.760609394661614 C-47.9987665776298 14.315268247149183, -48.28865154019533 13.869927099636753, -48.61112070532036 13.374527866909418 C-48.91170312392377 12.840813345408671, -49.212285542527184 12.307098823907927, -49.4226995002064 11.933487535324842 C-49.62603848836443 11.51124977565732, -49.82937747652246 11.089012015989798, -50.14028304837108 10.443409943732586 C-50.27410868647414 10.112858030275321, -50.407934324577205 9.782306116818054, -50.760922645093814 8.910418140577127 C-50.86724501250848 8.590192110092895, -50.97356737992314 8.269966079608663, -51.2820679491449 7.340811518003316 C-51.4133229668078 6.8402792493702025, -51.54457798447069 6.33974698073709, -51.70157746268467 5.741039926302918 C-51.79711290533445 5.250485619719249, -51.89264834798423 4.759931313135579, -52.01772733113747 4.117677170096139 C-52.085600763162866 3.5912642344323444, -52.15347419518826 3.0648512987685494, -52.22921842687991 2.477393995158454 C-52.26781328067833 1.8762479940427284, -52.30640813447676 1.2751019929270024, -52.33518168763487 0.8269306768952934 C-52.33518168763487 0.3208851562115901, -52.33518168763487 -0.18516036447211326, -52.33518168763487 -0.8269306768952809 C-52.30621856394732 -1.2780547069415638, -52.277255440259765 -1.7291787369878466, -52.22921842687991 -2.4773939951584185 C-52.16801825112748 -2.9520504729526547, -52.106818075375045 -3.4267069507468904, -52.01772733113748 -4.117677170096128 C-51.92436736791377 -4.597060849614645, -51.83100740469006 -5.076444529133162, -51.70157746268467 -5.741039926302906 C-51.582918639625206 -6.193537445687853, -51.46425981656575 -6.6460349650728, -51.28206794914491 -7.340811518003303 C-51.16287457401091 -7.699802973021601, -51.043681198876904 -8.0587944280399, -50.76092264509383 -8.910418140577093 C-50.54394532849629 -9.446356307544045, -50.32696801189876 -9.982294474510999, -50.14028304837109 -10.443409943732574 C-49.93487431635641 -10.869945570803855, -49.729465584341725 -11.296481197875138, -49.422699500206406 -11.933487535324831 C-49.196058381937924 -12.335911790712348, -48.96941726366944 -12.738336046099866, -48.61112070532037 -13.374527866909409 C-48.370218288260524 -13.744618670869945, -48.12931587120069 -14.114709474830482, -47.70888161506428 -14.760609394661605 C-47.46251058963575 -15.090724123873686, -47.21613956420722 -15.420838853085765, -46.71968972338968 -16.086036412270353 C-46.41822913883783 -16.44014916847816, -46.116768554285976 -16.794261924685966, -45.64760983196045 -17.345362455817092 C-45.2180600989064 -17.788907821884354, -44.78851036585235 -18.232453187951617, -44.49704734701089 -18.5334126844643 C-44.07216311456829 -18.919281302547915, -43.64727888212568 -19.30514992063153, -43.272730176586535 -19.645305144986487 C-42.853917935203285 -19.979296762427825, -42.43510569382003 -20.313288379869164, -41.97968930255585 -20.676470832763204 C-41.50959569076263 -21.004387786325683, -41.03950207896942 -21.332304739888162, -40.62323810722666 -21.622672466799 C-40.31191624965337 -21.811397606390237, -40.000594392080075 -22.00012274598148, -39.208950539518405 -22.480021901620027 C-38.67357510789741 -22.75932692137237, -38.13819967627642 -23.038631941124716, -37.742638210410576 -23.244996104497716 C-37.15277547269828 -23.506110840826526, -36.562912734985986 -23.767225577155337, -36.23032651178645 -23.91445163234599 C-35.712194043871904 -24.105129170102575, -35.194061575957356 -24.295806707859157, -34.67822985680553 -24.485637548803172 C-34.23764933466636 -24.616399535119726, -33.797068812527186 -24.74716152143628, -33.09272614354682 -24.956206728419538 C-32.76399296207612 -25.03123793190574, -32.43525978060541 -25.10626913539194, -31.480330546857545 -25.324225501499278 C-30.894401569517825 -25.41895395460848, -30.308472592178106 -25.513682407717685, -29.84766874610233 -25.588181599964017 C-29.27901853007516 -25.643038602402214, -28.71036831404799 -25.697895604840415, -28.201449698825286 -25.746990371586765 C-27.59515107993921 -25.76643318820577, -26.98885246105314 -25.78587600482478, -26.548438072204597 -25.799999237060547 C-26.548438072204593 -25.799999237060547, -26.54843807220459 -25.799999237060547, -26.54843807220459 -25.799999237060547" stroke="none" stroke-width="0" fill="#1F4870" style="fill:#1F4870 !important;stroke:#0E2C4A !important;stroke-width:2px !important"></path><path d="M-26.54843807220459 -25.799999237060547 C-7.919118281842689 -25.799999237060547, 10.710201508519212 -25.799999237060547, 26.54843807220459 -25.799999237060547 M-26.54843807220459 -25.799999237060547 C-8.478484901797344 -25.799999237060547, 9.591468268609901 -25.799999237060547, 26.54843807220459 -25.799999237060547 M26.54843807220459 -25.799999237060547 C26.54843807220459 -25.799999237060547, 26.54843807220459 -25.799999237060547, 26.54843807220459 -25.799999237060547 M26.54843807220459 -25.799999237060547 C26.54843807220459 -25.799999237060547, 26.54843807220459 -25.799999237060547, 26.54843807220459 -25.799999237060547 M26.54843807220459 -25.799999237060547 C27.10890421931465 -25.782026178603903, 27.669370366424708 -25.76405312014726, 28.201449698825282 -25.746990371586765 M26.54843807220459 -25.799999237060547 C27.041631577319063 -25.78418348129445, 27.534825082433535 -25.768367725528346, 28.201449698825282 -25.746990371586765 M28.201449698825282 -25.746990371586765 C28.72751253846885 -25.69624172212948, 29.253575378112423 -25.645493072672195, 29.84766874610231 -25.58818159996402 M28.201449698825282 -25.746990371586765 C28.669534810999238 -25.701834763770055, 29.137619923173197 -25.656679155953345, 29.84766874610231 -25.58818159996402 M29.84766874610231 -25.58818159996402 C30.21697420372346 -25.52847515758243, 30.586279661344612 -25.46876871520084, 31.48033054685753 -25.32422550149928 M29.84766874610231 -25.58818159996402 C30.316241468302884 -25.512426396074364, 30.784814190503454 -25.436671192184708, 31.48033054685753 -25.32422550149928 M31.48033054685753 -25.32422550149928 C31.94696635786339 -25.21771892272044, 32.41360216886925 -25.111212343941595, 33.092726143546784 -24.956206728419545 M31.48033054685753 -25.32422550149928 C31.812366395260586 -25.248440485837687, 32.14440224366364 -25.172655470176093, 33.092726143546784 -24.956206728419545 M33.092726143546784 -24.956206728419545 C33.448354258263734 -24.85065817070162, 33.80398237298069 -24.745109612983697, 34.678229856805515 -24.48563754880318 M33.092726143546784 -24.956206728419545 C33.52698520084459 -24.827320919685864, 33.9612442581424 -24.698435110952182, 34.678229856805515 -24.48563754880318 M34.678229856805515 -24.48563754880318 C35.05440667358497 -24.347201002887964, 35.430583490364434 -24.208764456972748, 36.23032651178644 -23.914451632345997 M34.678229856805515 -24.48563754880318 C35.10589686660159 -24.328252135887723, 35.53356387639766 -24.170866722972267, 36.23032651178644 -23.914451632345997 M36.23032651178644 -23.914451632345997 C36.80124774960758 -23.661721736139366, 37.37216898742873 -23.40899183993274, 37.74263821041056 -23.24499610449772 M36.23032651178644 -23.914451632345997 C36.74698072680806 -23.68574413735868, 37.26363494182969 -23.45703664237136, 37.74263821041056 -23.24499610449772 M37.74263821041056 -23.24499610449772 C38.30337360436697 -22.952460808638826, 38.86410899832337 -22.65992551277993, 39.2089505395184 -22.480021901620034 M37.74263821041056 -23.24499610449772 C38.07520393152859 -23.071496780808953, 38.40776965264662 -22.897997457120187, 39.2089505395184 -22.480021901620034 M39.2089505395184 -22.480021901620034 C39.76625437934468 -22.14218103883645, 40.32355821917096 -21.804340176052865, 40.62323810722664 -21.62267246679901 M39.2089505395184 -22.480021901620034 C39.54062331648632 -22.278959915096493, 39.872296093454246 -22.07789792857295, 40.62323810722664 -21.62267246679901 M40.62323810722664 -21.62267246679901 C41.116329420414246 -21.278713312298258, 41.609420733601844 -20.934754157797506, 41.97968930255584 -20.67647083276321 M40.62323810722664 -21.62267246679901 C41.07516388417662 -21.307428608350286, 41.52708966112659 -20.992184749901558, 41.97968930255584 -20.67647083276321 M41.97968930255584 -20.67647083276321 C42.3378191831318 -20.39087178324025, 42.69594906370776 -20.10527273371729, 43.272730176586506 -19.64530514498651 M41.97968930255584 -20.67647083276321 C42.26255357534035 -20.45089410255199, 42.545417848124856 -20.225317372340772, 43.272730176586506 -19.64530514498651 M43.272730176586506 -19.64530514498651 C43.69734129064787 -19.259684565790426, 44.121952404709226 -18.87406398659434, 44.49704734701088 -18.533412684464313 M43.272730176586506 -19.64530514498651 C43.6065827304216 -19.342109088848005, 43.940435284256694 -19.0389130327095, 44.49704734701088 -18.533412684464313 M44.49704734701088 -18.533412684464313 C44.78318184097569 -18.237955327366794, 45.06931633494051 -17.942497970269276, 45.64760983196044 -17.345362455817106 M44.49704734701088 -18.533412684464313 C44.94071940806075 -18.07528485527667, 45.38439146911063 -17.617157026089025, 45.64760983196044 -17.345362455817106 M45.64760983196044 -17.345362455817106 C45.86362394812791 -17.09161998341538, 46.07963806429538 -16.83787751101366, 46.71968972338968 -16.086036412270357 M45.64760983196044 -17.345362455817106 C46.05488541052578 -16.86695338659733, 46.46216098909112 -16.38854431737755, 46.71968972338968 -16.086036412270357 M46.71968972338968 -16.086036412270357 C47.1084671317991 -15.565110103352255, 47.49724454020853 -15.044183794434154, 47.70888161506427 -14.76060939466161 M46.71968972338968 -16.086036412270357 C46.924471253144084 -15.811647818380605, 47.12925278289848 -15.537259224490851, 47.70888161506427 -14.76060939466161 M47.70888161506427 -14.76060939466161 C48.01345914398061 -14.292696519727844, 48.31803667289696 -13.824783644794076, 48.61112070532037 -13.374527866909407 M47.70888161506427 -14.76060939466161 C48.0432768275089 -14.246888550659264, 48.377672039953524 -13.733167706656918, 48.61112070532037 -13.374527866909407 M48.61112070532037 -13.374527866909407 C48.84057532988112 -12.96710794620156, 49.07002995444187 -12.559688025493715, 49.422699500206406 -11.93348753532484 M48.61112070532037 -13.374527866909407 C48.858375856543304 -12.935501308614072, 49.10563100776624 -12.496474750318736, 49.422699500206406 -11.93348753532484 M49.422699500206406 -11.93348753532484 C49.66472467488677 -11.430917081591907, 49.90674984956713 -10.928346627858973, 50.14028304837108 -10.443409943732584 M49.422699500206406 -11.93348753532484 C49.58047012889617 -11.605873449099873, 49.738240757585935 -11.278259362874905, 50.14028304837108 -10.443409943732584 M50.14028304837108 -10.443409943732584 C50.37682551395184 -9.859145480510648, 50.6133679795326 -9.274881017288713, 50.760922645093814 -8.910418140577123 M50.14028304837108 -10.443409943732584 C50.29169775579819 -10.069412688983402, 50.443112463225305 -9.695415434234219, 50.760922645093814 -8.910418140577123 M50.760922645093814 -8.910418140577123 C50.92735978064099 -8.409136006465353, 51.09379691618816 -7.907853872353582, 51.2820679491449 -7.340811518003323 M50.760922645093814 -8.910418140577123 C50.869629228470174 -8.583011231489479, 50.978335811846534 -8.255604322401835, 51.2820679491449 -7.340811518003323 M51.2820679491449 -7.340811518003323 C51.43564804475254 -6.755144051416911, 51.58922814036018 -6.1694765848305, 51.70157746268467 -5.741039926302914 M51.2820679491449 -7.340811518003323 C51.38240690050852 -6.958175609277253, 51.48274585187213 -6.575539700551183, 51.70157746268467 -5.741039926302914 M51.70157746268467 -5.741039926302914 C51.79454304342161 -5.263681317501149, 51.887508624158556 -4.786322708699383, 52.01772733113747 -4.117677170096137 M51.70157746268467 -5.741039926302914 C51.78152521267342 -5.330525127073624, 51.86147296266217 -4.920010327844334, 52.01772733113747 -4.117677170096137 M52.01772733113747 -4.117677170096137 C52.08776413091588 -3.574485581345275, 52.15780093069428 -3.031293992594414, 52.22921842687991 -2.4773939951584394 M52.01772733113747 -4.117677170096137 C52.0981493038108 -3.493940231156569, 52.178571276484135 -2.8702032922170013, 52.22921842687991 -2.4773939951584394 M52.22921842687991 -2.4773939951584394 C52.2600421037278 -1.997290347828439, 52.290865780575686 -1.5171867004984385, 52.33518168763487 -0.8269306768952902 M52.22921842687991 -2.4773939951584394 C52.27144190045782 -1.819729312008048, 52.31366537403573 -1.1620646288576568, 52.33518168763487 -0.8269306768952902 M52.33518168763487 -0.8269306768952902 C52.33518168763487 -0.42890581300557007, 52.33518168763487 -0.03088094911584993, 52.33518168763487 0.826930676895284 M52.33518168763487 -0.8269306768952902 C52.33518168763487 -0.30495218887308095, 52.33518168763487 0.2170262991491283, 52.33518168763487 0.826930676895284 M52.33518168763487 0.826930676895284 C52.29858595852598 1.3969386973071403, 52.26199022941709 1.9669467177189965, 52.22921842687991 2.4773939951584216 M52.33518168763487 0.826930676895284 C52.3051084140611 1.2953461875162604, 52.27503514048733 1.7637616981372368, 52.22921842687991 2.4773939951584216 M52.22921842687991 2.4773939951584216 C52.15912554333785 3.0210205585052265, 52.08903265979579 3.5646471218520315, 52.01772733113748 4.117677170096119 M52.22921842687991 2.4773939951584216 C52.18324030038711 2.8339912648285637, 52.13726217389431 3.1905885344987053, 52.01772733113748 4.117677170096119 M52.01772733113748 4.117677170096119 C51.912636792214954 4.6572948765699875, 51.807546253292436 5.196912583043856, 51.70157746268467 5.741039926302909 M52.01772733113748 4.117677170096119 C51.93014969360246 4.5673698292981895, 51.84257205606744 5.017062488500261, 51.70157746268467 5.741039926302909 M51.70157746268467 5.741039926302909 C51.535074325347395 6.375988551886137, 51.36857118801012 7.0109371774693665, 51.28206794914491 7.340811518003306 M51.70157746268467 5.741039926302909 C51.59597955704211 6.143730506939821, 51.49038165139954 6.546421087576734, 51.28206794914491 7.340811518003306 M51.28206794914491 7.340811518003306 C51.15961829986129 7.709610351943414, 51.03716865057768 8.07840918588352, 50.76092264509383 8.910418140577105 M51.28206794914491 7.340811518003306 C51.15254526413082 7.730913208628395, 51.023022579116734 8.121014899253483, 50.76092264509383 8.910418140577105 M50.76092264509383 8.910418140577105 C50.61771533740436 9.264142959295018, 50.474508029714904 9.617867778012931, 50.14028304837109 10.443409943732577 M50.76092264509383 8.910418140577105 C50.61499019000808 9.270874126050991, 50.46905773492232 9.631330111524878, 50.14028304837109 10.443409943732577 M50.14028304837109 10.443409943732577 C49.934388850171274 10.87095365172459, 49.72849465197147 11.298497359716604, 49.422699500206406 11.933487535324835 M50.14028304837109 10.443409943732577 C49.936838536513626 10.865866825619813, 49.733394024656164 11.288323707507049, 49.422699500206406 11.933487535324835 M49.422699500206406 11.933487535324835 C49.2453182668466 12.248445876952754, 49.0679370334868 12.563404218580674, 48.611120705320374 13.374527866909402 M49.422699500206406 11.933487535324835 C49.114875683243156 12.480059892884576, 48.8070518662799 13.026632250444317, 48.611120705320374 13.374527866909402 M48.611120705320374 13.374527866909402 C48.36618909101641 13.750808599827874, 48.12125747671244 14.127089332746344, 47.708881615064286 14.760609394661596 M48.611120705320374 13.374527866909402 C48.311251032763145 13.835208210239124, 48.011381360205924 14.295888553568847, 47.708881615064286 14.760609394661596 M47.708881615064286 14.760609394661596 C47.51046111499092 15.026474788280485, 47.31204061491755 15.292340181899375, 46.71968972338968 16.086036412270353 M47.708881615064286 14.760609394661596 C47.4866098296945 15.058433337680887, 47.264338044324724 15.356257280700177, 46.71968972338968 16.086036412270353 M46.71968972338968 16.086036412270353 C46.47891178540414 16.368867878880966, 46.238133847418595 16.65169934549158, 45.64760983196045 17.345362455817092 M46.71968972338968 16.086036412270353 C46.35579695832721 16.513485560197637, 45.991904193264745 16.940934708124924, 45.64760983196045 17.345362455817092 M45.64760983196045 17.345362455817092 C45.29703940758953 17.707355201347184, 44.94646898321861 18.06934794687728, 44.49704734701088 18.533412684464306 M45.64760983196045 17.345362455817092 C45.34956176132572 17.653121558949138, 45.05151369069098 17.96088066208118, 44.49704734701088 18.533412684464306 M44.49704734701088 18.533412684464306 C44.17510295796126 18.825794060417422, 43.85315856891163 19.11817543637054, 43.272730176586535 19.64530514498649 M44.49704734701088 18.533412684464306 C44.217169365868294 18.787590461772407, 43.93729138472572 19.04176823908051, 43.272730176586535 19.64530514498649 M43.272730176586535 19.64530514498649 C42.89339541146795 19.947814525646518, 42.51406064634937 20.250323906306544, 41.97968930255585 20.676470832763208 M43.272730176586535 19.64530514498649 C42.8717116470464 19.9651067507435, 42.470693117506265 20.28490835650051, 41.97968930255585 20.676470832763208 M41.97968930255585 20.676470832763208 C41.61783511842699 20.928884647196337, 41.25598093429812 21.181298461629464, 40.623238107226655 21.622672466799003 M41.97968930255585 20.676470832763208 C41.52288758302023 20.995115937683526, 41.06608586348461 21.313761042603847, 40.623238107226655 21.622672466799003 M40.623238107226655 21.622672466799003 C40.20941748553452 21.87353295954868, 39.7955968638424 22.124393452298357, 39.208950539518405 22.48002190162003 M40.623238107226655 21.622672466799003 C40.26745183556729 21.83835219551112, 39.91166556390793 22.05403192422324, 39.208950539518405 22.48002190162003 M39.208950539518405 22.48002190162003 C38.74528326219203 22.721916823208133, 38.28161598486565 22.96381174479624, 37.74263821041057 23.244996104497716 M39.208950539518405 22.48002190162003 C38.77196366028463 22.707997676612838, 38.334976781050855 22.93597345160564, 37.74263821041057 23.244996104497716 M37.74263821041057 23.244996104497716 C37.43159585680215 23.38268532769657, 37.120553503193726 23.52037455089543, 36.23032651178645 23.914451632345994 M37.74263821041057 23.244996104497716 C37.29778574092086 23.441919096661163, 36.85293327143115 23.638842088824607, 36.23032651178645 23.914451632345994 M36.23032651178645 23.914451632345994 C35.67952395342064 24.117152065387646, 35.12872139505483 24.3198524984293, 34.67822985680553 24.485637548803172 M36.23032651178645 23.914451632345994 C35.750266240173275 24.091118249928147, 35.27020596856009 24.267784867510304, 34.67822985680553 24.485637548803172 M34.67822985680553 24.485637548803172 C34.07105762613981 24.665843079752683, 33.463885395474094 24.846048610702194, 33.09272614354681 24.95620672841954 M34.67822985680553 24.485637548803172 C34.18175266712367 24.632989372638804, 33.6852754774418 24.78034119647443, 33.09272614354681 24.95620672841954 M33.09272614354681 24.95620672841954 C32.56205074946001 25.077329924139274, 32.03137535537321 25.198453119859007, 31.480330546857545 25.324225501499278 M33.09272614354681 24.95620672841954 C32.663895266117265 25.05408457780984, 32.23506438868772 25.151962427200132, 31.480330546857545 25.324225501499278 M31.480330546857545 25.324225501499278 C30.98921882932503 25.403624635361684, 30.498107111792514 25.48302376922409, 29.84766874610233 25.588181599964017 M31.480330546857545 25.324225501499278 C31.04236841096447 25.39503182318338, 30.604406275071398 25.465838144867483, 29.84766874610233 25.588181599964017 M29.84766874610233 25.588181599964017 C29.189324674690813 25.6516912607585, 28.530980603279296 25.71520092155298, 28.201449698825282 25.746990371586765 M29.84766874610233 25.588181599964017 C29.411128038539072 25.630294157005633, 28.97458733097581 25.672406714047245, 28.201449698825282 25.746990371586765 M28.201449698825282 25.746990371586765 C27.625339026901333 25.765465119503972, 27.049228354977387 25.783939867421175, 26.548438072204593 25.799999237060547 M28.201449698825282 25.746990371586765 C27.698416126252354 25.763121679163728, 27.19538255367943 25.77925298674069, 26.548438072204593 25.799999237060547 M26.548438072204593 25.799999237060547 C26.548438072204593 25.799999237060547, 26.548438072204593 25.799999237060547, 26.54843807220459 25.799999237060547 M26.548438072204593 25.799999237060547 C26.548438072204593 25.799999237060547, 26.54843807220459 25.799999237060547, 26.54843807220459 25.799999237060547 M26.54843807220459 25.799999237060547 C15.712151189444413 25.799999237060547, 4.875864306684235 25.799999237060547, -26.548438072204586 25.799999237060547 M26.54843807220459 25.799999237060547 C8.975665160483803 25.799999237060547, -8.597107751236983 25.799999237060547, -26.548438072204586 25.799999237060547 M-26.548438072204586 25.799999237060547 C-26.918930892776807 25.788118253425324, -27.28942371334903 25.776237269790098, -28.20144969882527 25.746990371586765 M-26.548438072204586 25.799999237060547 C-27.073441463700163 25.783163400152393, -27.598444855195737 25.76632756324424, -28.20144969882527 25.746990371586765 M-28.20144969882527 25.746990371586765 C-28.684308233466577 25.70040958947227, -29.167166768107883 25.653828807357772, -29.84766874610232 25.588181599964017 M-28.20144969882527 25.746990371586765 C-28.777256713237424 25.691442961415678, -29.35306372764958 25.635895551244587, -29.84766874610232 25.588181599964017 M-29.84766874610232 25.588181599964017 C-30.288582266640436 25.516898121298834, -30.72949578717855 25.44561464263365, -31.480330546857534 25.324225501499278 M-29.84766874610232 25.588181599964017 C-30.333881245542617 25.509574533688756, -30.820093744982916 25.4309674674135, -31.480330546857534 25.324225501499278 M-31.480330546857534 25.324225501499278 C-32.0920149297531 25.184612532717, -32.70369931264866 25.044999563934724, -33.092726143546784 24.956206728419545 M-31.480330546857534 25.324225501499278 C-31.987962986333688 25.208361709800094, -32.49559542580984 25.092497918100907, -33.092726143546784 24.956206728419545 M-33.092726143546784 24.956206728419545 C-33.54116799032992 24.8231115422136, -33.98960983711306 24.690016356007654, -34.6782298568055 24.485637548803183 M-33.092726143546784 24.956206728419545 C-33.65288630193256 24.789954133751323, -34.21304646031833 24.623701539083097, -34.6782298568055 24.485637548803183 M-34.6782298568055 24.485637548803183 C-35.06007477080682 24.345115090715005, -35.44191968480814 24.204592632626827, -36.230326511786444 23.914451632345997 M-34.6782298568055 24.485637548803183 C-35.288489241278086 24.26105645414136, -35.89874862575067 24.036475359479542, -36.230326511786444 23.914451632345997 M-36.230326511786444 23.914451632345997 C-36.587333507777444 23.756415225457047, -36.944340503768444 23.598378818568097, -37.74263821041056 23.244996104497723 M-36.230326511786444 23.914451632345997 C-36.57934182018402 23.759952908489666, -36.92835712858159 23.605454184633338, -37.74263821041056 23.244996104497723 M-37.74263821041056 23.244996104497723 C-38.07558752735909 23.07129665910989, -38.40853684430762 22.897597213722058, -39.2089505395184 22.480021901620038 M-37.74263821041056 23.244996104497723 C-38.22404514409844 22.993846415548614, -38.70545207778632 22.742696726599508, -39.2089505395184 22.480021901620038 M-39.2089505395184 22.480021901620038 C-39.6167231191739 22.232827767495202, -40.024495698829405 21.985633633370366, -40.623238107226626 21.622672466799017 M-39.2089505395184 22.480021901620038 C-39.74717131485625 22.15374930467387, -40.28539209019411 21.8274767077277, -40.623238107226626 21.622672466799017 M-40.623238107226626 21.622672466799017 C-40.97279546130936 21.378836388684874, -41.3223528153921 21.135000310570728, -41.97968930255584 20.67647083276321 M-40.623238107226626 21.622672466799017 C-40.98883421148922 21.36764845086571, -41.35443031575181 21.112624434932403, -41.97968930255584 20.67647083276321 M-41.97968930255584 20.67647083276321 C-42.26495724454711 20.44897724032392, -42.55022518653839 20.221483647884632, -43.272730176586506 19.645305144986512 M-41.97968930255584 20.67647083276321 C-42.4050584460948 20.337250260339193, -42.830427589633764 19.99802968791517, -43.272730176586506 19.645305144986512 M-43.272730176586506 19.645305144986512 C-43.5900980195973 19.35708006705709, -43.90746586260809 19.06885498912767, -44.49704734701086 18.533412684464324 M-43.272730176586506 19.645305144986512 C-43.7089096976346 19.24917844464835, -44.1450892186827 18.853051744310186, -44.49704734701086 18.533412684464324 M-44.49704734701086 18.533412684464324 C-44.794504082609095 18.226264183306977, -45.091960818207326 17.91911568214963, -45.64760983196044 17.3453624558171 M-44.49704734701086 18.533412684464324 C-44.92204228775711 18.094570515410272, -45.34703722850335 17.65572834635622, -45.64760983196044 17.3453624558171 M-45.64760983196044 17.3453624558171 C-45.882876958609096 17.06900430177684, -46.118144085257754 16.792646147736583, -46.71968972338967 16.08603641227036 M-45.64760983196044 17.3453624558171 C-46.03411622107521 16.89135005832632, -46.42062261018998 16.437337660835542, -46.71968972338967 16.08603641227036 M-46.71968972338967 16.08603641227036 C-47.10883783719072 15.564613391899439, -47.497985950991776 15.043190371528516, -47.70888161506427 14.760609394661614 M-46.71968972338967 16.08603641227036 C-46.92716091704806 15.80804391378269, -47.13463211070645 15.53005141529502, -47.70888161506427 14.760609394661614 M-47.70888161506427 14.760609394661614 C-47.938620264150735 14.407669136199626, -48.1683589132372 14.054728877737638, -48.61112070532036 13.374527866909418 M-47.70888161506427 14.760609394661614 C-48.03842572514899 14.25434114658746, -48.367969835233716 13.748072898513307, -48.61112070532036 13.374527866909418 M-48.61112070532036 13.374527866909418 C-48.81408018622315 13.014152756690502, -49.01703966712594 12.653777646471585, -49.4226995002064 11.933487535324842 M-48.61112070532036 13.374527866909418 C-48.79375893454617 13.050235196792851, -48.97639716377198 12.725942526676286, -49.4226995002064 11.933487535324842 M-49.4226995002064 11.933487535324842 C-49.69666303121297 11.36459640130918, -49.97062656221955 10.795705267293519, -50.14028304837108 10.443409943732586 M-49.4226995002064 11.933487535324842 C-49.690422430577385 11.377555142056442, -49.95814536094837 10.821622748788043, -50.14028304837108 10.443409943732586 M-50.14028304837108 10.443409943732586 C-50.26686533451034 10.130749249666598, -50.3934476206496 9.81808855560061, -50.760922645093814 8.910418140577127 M-50.14028304837108 10.443409943732586 C-50.26622743929375 10.13232486318444, -50.39217183021642 9.821239782636294, -50.760922645093814 8.910418140577127 M-50.760922645093814 8.910418140577127 C-50.93506021694477 8.38594351921628, -51.10919778879572 7.861468897855433, -51.2820679491449 7.340811518003316 M-50.760922645093814 8.910418140577127 C-50.909763816623375 8.462132246550262, -51.058604988152936 8.013846352523396, -51.2820679491449 7.340811518003316 M-51.2820679491449 7.340811518003316 C-51.373719985185275 6.991302582337693, -51.46537202122565 6.64179364667207, -51.70157746268467 5.741039926302918 M-51.2820679491449 7.340811518003316 C-51.443125848634566 6.726627944314034, -51.604183748124235 6.112444370624752, -51.70157746268467 5.741039926302918 M-51.70157746268467 5.741039926302918 C-51.76646415088313 5.40786049621022, -51.831350839081594 5.074681066117522, -52.01772733113747 4.117677170096139 M-51.70157746268467 5.741039926302918 C-51.803569915945914 5.217330234919036, -51.90556236920717 4.693620543535155, -52.01772733113747 4.117677170096139 M-52.01772733113747 4.117677170096139 C-52.09631124117458 3.5081958819965746, -52.17489515121169 2.89871459389701, -52.22921842687991 2.477393995158454 M-52.01772733113747 4.117677170096139 C-52.06420012464806 3.7572433607190785, -52.110672918158656 3.3968095513420176, -52.22921842687991 2.477393995158454 M-52.22921842687991 2.477393995158454 C-52.25936172848986 2.007887741348445, -52.2895050300998 1.5383814875384358, -52.33518168763487 0.8269306768952934 M-52.22921842687991 2.477393995158454 C-52.25841708655572 2.022601301973864, -52.28761574623152 1.567808608789274, -52.33518168763487 0.8269306768952934 M-52.33518168763487 0.8269306768952934 C-52.33518168763487 0.24900681951613013, -52.33518168763487 -0.32891703786303317, -52.33518168763487 -0.8269306768952809 M-52.33518168763487 0.8269306768952934 C-52.33518168763487 0.2637223799181959, -52.33518168763487 -0.2994859170589016, -52.33518168763487 -0.8269306768952809 M-52.33518168763487 -0.8269306768952809 C-52.294094904551535 -1.4668904880726368, -52.2530081214682 -2.1068502992499925, -52.22921842687991 -2.4773939951584185 M-52.33518168763487 -0.8269306768952809 C-52.293303030547776 -1.479224564870373, -52.25142437346068 -2.131518452845465, -52.22921842687991 -2.4773939951584185 M-52.22921842687991 -2.4773939951584185 C-52.181993088235515 -2.8436643959864503, -52.13476774959112 -3.209934796814482, -52.01772733113748 -4.117677170096128 M-52.22921842687991 -2.4773939951584185 C-52.15276984568114 -3.0703140944561893, -52.076321264482374 -3.6632341937539605, -52.01772733113748 -4.117677170096128 M-52.01772733113748 -4.117677170096128 C-51.90974408318533 -4.67214832606286, -51.80176083523318 -5.226619482029593, -51.70157746268467 -5.741039926302906 M-52.01772733113748 -4.117677170096128 C-51.92212920799005 -4.608553327787688, -51.826531084842614 -5.099429485479249, -51.70157746268467 -5.741039926302906 M-51.70157746268467 -5.741039926302906 C-51.57458933029177 -6.225300712121736, -51.447601197898884 -6.709561497940564, -51.28206794914491 -7.340811518003303 M-51.70157746268467 -5.741039926302906 C-51.53650194278925 -6.37054442784704, -51.371426422893826 -7.000048929391175, -51.28206794914491 -7.340811518003303 M-51.28206794914491 -7.340811518003303 C-51.15476771679525 -7.724219535302886, -51.02746748444558 -8.10762755260247, -50.76092264509383 -8.910418140577093 M-51.28206794914491 -7.340811518003303 C-51.17457005698621 -7.6645780417221365, -51.067072164827515 -7.98834456544097, -50.76092264509383 -8.910418140577093 M-50.76092264509383 -8.910418140577093 C-50.598356303706 -9.311960146811428, -50.43578996231817 -9.713502153045761, -50.14028304837109 -10.443409943732574 M-50.76092264509383 -8.910418140577093 C-50.60725720626721 -9.289974745398, -50.453591767440585 -9.669531350218906, -50.14028304837109 -10.443409943732574 M-50.14028304837109 -10.443409943732574 C-49.91307655644052 -10.915209085666527, -49.68587006450996 -11.387008227600482, -49.422699500206406 -11.933487535324831 M-50.14028304837109 -10.443409943732574 C-49.968758092943716 -10.799585183723627, -49.79723313751634 -11.155760423714682, -49.422699500206406 -11.933487535324831 M-49.422699500206406 -11.933487535324831 C-49.17534503310268 -12.372690439023335, -48.927990565998954 -12.811893342721838, -48.61112070532037 -13.374527866909409 M-49.422699500206406 -11.933487535324831 C-49.24780614035038 -12.244028405622284, -49.072912780494356 -12.55456927591974, -48.61112070532037 -13.374527866909409 M-48.61112070532037 -13.374527866909409 C-48.364974457456526 -13.75267460315062, -48.11882820959269 -14.13082133939183, -47.70888161506428 -14.760609394661605 M-48.61112070532037 -13.374527866909409 C-48.3032847436631 -13.847446569544948, -47.99544878200582 -14.320365272180485, -47.70888161506428 -14.760609394661605 M-47.70888161506428 -14.760609394661605 C-47.47004861155097 -15.080623861235214, -47.23121560803766 -15.40063832780882, -46.71968972338968 -16.086036412270353 M-47.70888161506428 -14.760609394661605 C-47.498816895517315 -15.042076981564895, -47.28875217597035 -15.323544568468185, -46.71968972338968 -16.086036412270353 M-46.71968972338968 -16.086036412270353 C-46.47498671688241 -16.373478487709306, -46.23028371037515 -16.660920563148263, -45.64760983196045 -17.345362455817092 M-46.71968972338968 -16.086036412270353 C-46.383209975568654 -16.481284670300965, -46.04673022774764 -16.876532928331578, -45.64760983196045 -17.345362455817092 M-45.64760983196045 -17.345362455817092 C-45.28663332152181 -17.718100339567663, -44.92565681108317 -18.090838223318237, -44.49704734701089 -18.5334126844643 M-45.64760983196045 -17.345362455817092 C-45.39137597089513 -17.609944954558262, -45.13514210982982 -17.874527453299432, -44.49704734701089 -18.5334126844643 M-44.49704734701089 -18.5334126844643 C-44.16093295448909 -18.838662882653097, -43.8248185619673 -19.14391308084189, -43.272730176586535 -19.645305144986487 M-44.49704734701089 -18.5334126844643 C-44.25040806380733 -18.75740395575194, -44.003768780603764 -18.981395227039584, -43.272730176586535 -19.645305144986487 M-43.272730176586535 -19.645305144986487 C-43.00513191618165 -19.85870763657061, -42.73753365577676 -20.072110128154733, -41.97968930255585 -20.676470832763204 M-43.272730176586535 -19.645305144986487 C-42.96445895930641 -19.891143237325768, -42.6561877420263 -20.136981329665048, -41.97968930255585 -20.676470832763204 M-41.97968930255585 -20.676470832763204 C-41.69040095800884 -20.878265858828602, -41.40111261346182 -21.080060884894003, -40.62323810722666 -21.622672466799 M-41.97968930255585 -20.676470832763204 C-41.463532091331004 -21.036519759228106, -40.94737488010615 -21.396568685693012, -40.62323810722666 -21.622672466799 M-40.62323810722666 -21.622672466799 C-40.1718919081483 -21.89628118508498, -39.72054570906994 -22.16988990337096, -39.208950539518405 -22.480021901620027 M-40.62323810722666 -21.622672466799 C-40.066534880516805 -21.96014923438181, -39.50983165380695 -22.297626001964623, -39.208950539518405 -22.480021901620027 M-39.208950539518405 -22.480021901620027 C-38.63533470336588 -22.779276915922324, -38.06171886721335 -23.07853193022462, -37.742638210410576 -23.244996104497716 M-39.208950539518405 -22.480021901620027 C-38.72484580438811 -22.73257903185362, -38.240741069257815 -22.985136162087215, -37.742638210410576 -23.244996104497716 M-37.742638210410576 -23.244996104497716 C-37.38127801201512 -23.404959544957958, -37.019917813619664 -23.5649229854182, -36.23032651178645 -23.91445163234599 M-37.742638210410576 -23.244996104497716 C-37.396004397110794 -23.398440611118794, -37.04937058381101 -23.551885117739875, -36.23032651178645 -23.91445163234599 M-36.23032651178645 -23.91445163234599 C-35.7876905079806 -24.07734577342891, -35.345054504174755 -24.24023991451183, -34.67822985680553 -24.485637548803172 M-36.23032651178645 -23.91445163234599 C-35.840386667128115 -24.05795309974467, -35.45044682246978 -24.201454567143347, -34.67822985680553 -24.485637548803172 M-34.67822985680553 -24.485637548803172 C-34.18468121337952 -24.63212019548232, -33.6911325699535 -24.77860284216146, -33.09272614354682 -24.956206728419538 M-34.67822985680553 -24.485637548803172 C-34.16290332379802 -24.63858375879563, -33.64757679079052 -24.79152996878809, -33.09272614354682 -24.956206728419538 M-33.09272614354682 -24.956206728419538 C-32.52577241911052 -25.085610216303316, -31.958818694674214 -25.215013704187093, -31.480330546857545 -25.324225501499278 M-33.09272614354682 -24.956206728419538 C-32.5739267205799 -25.074619311229114, -32.05512729761298 -25.19303189403869, -31.480330546857545 -25.324225501499278 M-31.480330546857545 -25.324225501499278 C-30.93635663532354 -25.412170984935408, -30.392382723789538 -25.500116468371537, -29.84766874610233 -25.588181599964017 M-31.480330546857545 -25.324225501499278 C-30.976997668799587 -25.40560045781892, -30.473664790741626 -25.486975414138566, -29.84766874610233 -25.588181599964017 M-29.84766874610233 -25.588181599964017 C-29.45455098214322 -25.626105197859868, -29.061433218184117 -25.66402879575572, -28.201449698825286 -25.746990371586765 M-29.84766874610233 -25.588181599964017 C-29.358878654429464 -25.635334592251606, -28.870088562756596 -25.682487584539196, -28.201449698825286 -25.746990371586765 M-28.201449698825286 -25.746990371586765 C-27.613611766633028 -25.765841189915047, -27.02577383444077 -25.78469200824333, -26.548438072204597 -25.799999237060547 M-28.201449698825286 -25.746990371586765 C-27.696924435398856 -25.763169514786, -27.192399171972426 -25.779348657985235, -26.548438072204597 -25.799999237060547 M-26.548438072204597 -25.799999237060547 C-26.548438072204593 -25.799999237060547, -26.548438072204593 -25.799999237060547, -26.54843807220459 -25.799999237060547 M-26.548438072204597 -25.799999237060547 C-26.548438072204593 -25.799999237060547, -26.548438072204593 -25.799999237060547, -26.54843807220459 -25.799999237060547" stroke="#0E2C4A" stroke-width="2" fill="none" stroke-dasharray="0 0" style="fill:#1F4870 !important;stroke:#0E2C4A !important;stroke-width:2px !important"></path></g><g class="label" style="color:#ffffff !important" transform="translate(0, -18.299999237060547)"><rect></rect><g><rect class="background" style="stroke: none"></rect><text y="-10.1" style="fill:#404040 !important"><tspan class="text-outer-tspan row" x="0" y="-0.1em" dy="1.1em"><tspan font-style="normal" class="text-inner-tspan" font-weight="normal">diagramkit</tspan></tspan><tspan class="text-outer-tspan row" x="0" y="1em" dy="1.1em"><tspan font-style="normal" class="text-inner-tspan" font-weight="normal">Principles</tspan></tspan></text></g></g></g></g></g></g><defs><filter id="ge170ef0c-1c10-4601-a86b-e3950ff56b7d-dark-drop-shadow" height="130%" width="130%"><feDropShadow dx="4" dy="4" stdDeviation="0" flood-opacity="0.06" flood-color="#000000"></feDropShadow></filter></defs><defs><filter id="ge170ef0c-1c10-4601-a86b-e3950ff56b7d-dark-drop-shadow-small" height="150%" width="150%"><feDropShadow dx="2" dy="2" stdDeviation="0" flood-opacity="0.06" flood-color="#000000"></feDropShadow></filter></defs><linearGradient id="ge170ef0c-1c10-4601-a86b-e3950ff56b7d-dark-gradient" gradientUnits="objectBoundingBox" x1="0%" y1="0%" x2="100%" y2="0%"><stop offset="0%" stop-color="#555555" stop-opacity="1"></stop><stop offset="100%" stop-color="#555555" stop-opacity="1"></stop></linearGradient></svg>