<svg id="g0d43979b-e5e8-4320-98da-ecf2f8ff716c-dark" width="100%" xmlns="http://www.w3.org/2000/svg" xmlns:xlink="http://www.w3.org/1999/xlink" class="flowchart" style="max-width: 733.6234741210938px;" viewBox="0 0 733.6234741210938 820.4000244140625" role="graphics-document document" aria-roledescription="flowchart-v2"><style>#g0d43979b-e5e8-4320-98da-ecf2f8ff716c-dark{font-family:"trebuchet ms",verdana,arial,sans-serif;font-size:16px;fill:#e5e5e5;}@keyframes edge-animation-frame{from{stroke-dashoffset:0;}}@keyframes dash{to{stroke-dashoffset:0;}}#g0d43979b-e5e8-4320-98da-ecf2f8ff716c-dark .edge-animation-slow{stroke-dasharray:9,5!important;stroke-dashoffset:900;animation:dash 50s linear infinite;stroke-linecap:round;}#g0d43979b-e5e8-4320-98da-ecf2f8ff716c-dark .edge-animation-fast{stroke-dasharray:9,5!important;stroke-dashoffset:900;animation:dash 20s linear infinite;stroke-linecap:round;}#g0d43979b-e5e8-4320-98da-ecf2f8ff716c-dark .error-icon{fill:#252525;}#g0d43979b-e5e8-4320-98da-ecf2f8ff716c-dark .error-text{fill:#cccccc;stroke:#cccccc;}#g0d43979b-e5e8-4320-98da-ecf2f8ff716c-dark .edge-thickness-normal{stroke-width:1px;}#g0d43979b-e5e8-4320-98da-ecf2f8ff716c-dark .edge-thickness-thick{stroke-width:3.5px;}#g0d43979b-e5e8-4320-98da-ecf2f8ff716c-dark .edge-pattern-solid{stroke-dasharray:0;}#g0d43979b-e5e8-4320-98da-ecf2f8ff716c-dark .edge-thickness-invisible{stroke-width:0;fill:none;}#g0d43979b-e5e8-4320-98da-ecf2f8ff716c-dark .edge-pattern-dashed{stroke-dasharray:3;}#g0d43979b-e5e8-4320-98da-ecf2f8ff716c-dark .edge-pattern-dotted{stroke-dasharray:2;}#g0d43979b-e5e8-4320-98da-ecf2f8ff716c-dark .marker{fill:#cccccc;stroke:#cccccc;}#g0d43979b-e5e8-4320-98da-ecf2f8ff716c-dark .marker.cross{stroke:#cccccc;}#g0d43979b-e5e8-4320-98da-ecf2f8ff716c-dark svg{font-family:"trebuchet ms",verdana,arial,sans-serif;font-size:16px;}#g0d43979b-e5e8-4320-98da-ecf2f8ff716c-dark p{margin:0;}#g0d43979b-e5e8-4320-98da-ecf2f8ff716c-dark .label{font-family:"trebuchet ms",verdana,arial,sans-serif;color:#e5e5e5;}#g0d43979b-e5e8-4320-98da-ecf2f8ff716c-dark .cluster-label text{fill:#e5e5e5;}#g0d43979b-e5e8-4320-98da-ecf2f8ff716c-dark .cluster-label span{color:#e5e5e5;}#g0d43979b-e5e8-4320-98da-ecf2f8ff716c-dark .cluster-label span p{background-color:transparent;}#g0d43979b-e5e8-4320-98da-ecf2f8ff716c-dark .label text,#g0d43979b-e5e8-4320-98da-ecf2f8ff716c-dark span{fill:#e5e5e5;color:#e5e5e5;}#g0d43979b-e5e8-4320-98da-ecf2f8ff716c-dark .node rect,#g0d43979b-e5e8-4320-98da-ecf2f8ff716c-dark .node circle,#g0d43979b-e5e8-4320-98da-ecf2f8ff716c-dark .node ellipse,#g0d43979b-e5e8-4320-98da-ecf2f8ff716c-dark .node polygon,#g0d43979b-e5e8-4320-98da-ecf2f8ff716c-dark .node path{fill:#2d2d2d;stroke:#555555;stroke-width:1px;}#g0d43979b-e5e8-4320-98da-ecf2f8ff716c-dark .rough-node .label text,#g0d43979b-e5e8-4320-98da-ecf2f8ff716c-dark .node .label text,#g0d43979b-e5e8-4320-98da-ecf2f8ff716c-dark .image-shape .label,#g0d43979b-e5e8-4320-98da-ecf2f8ff716c-dark .icon-shape .label{text-anchor:middle;}#g0d43979b-e5e8-4320-98da-ecf2f8ff716c-dark .node .katex path{fill:#000;stroke:#000;stroke-width:1px;}#g0d43979b-e5e8-4320-98da-ecf2f8ff716c-dark .rough-node .label,#g0d43979b-e5e8-4320-98da-ecf2f8ff716c-dark .node .label,#g0d43979b-e5e8-4320-98da-ecf2f8ff716c-dark .image-shape .label,#g0d43979b-e5e8-4320-98da-ecf2f8ff716c-dark .icon-shape .label{text-align:center;}#g0d43979b-e5e8-4320-98da-ecf2f8ff716c-dark .node.clickable{cursor:pointer;}#g0d43979b-e5e8-4320-98da-ecf2f8ff716c-dark .root .anchor path{fill:#cccccc!important;stroke-width:0;stroke:#cccccc;}#g0d43979b-e5e8-4320-98da-ecf2f8ff716c-dark .arrowheadPath{fill:#cccccc;}#g0d43979b-e5e8-4320-98da-ecf2f8ff716c-dark .edgePath .path{stroke:#cccccc;stroke-width:1px;}#g0d43979b-e5e8-4320-98da-ecf2f8ff716c-dark .flowchart-link{stroke:#cccccc;fill:none;}#g0d43979b-e5e8-4320-98da-ecf2f8ff716c-dark .edgeLabel{background-color:#1e1e1e;text-align:center;}#g0d43979b-e5e8-4320-98da-ecf2f8ff716c-dark .edgeLabel p{background-color:#1e1e1e;}#g0d43979b-e5e8-4320-98da-ecf2f8ff716c-dark .edgeLabel rect{opacity:0.5;background-color:#1e1e1e;fill:#1e1e1e;}#g0d43979b-e5e8-4320-98da-ecf2f8ff716c-dark .labelBkg{background-color:rgba(30, 30, 30, 0.5);}#g0d43979b-e5e8-4320-98da-ecf2f8ff716c-dark .cluster rect{fill:#1e1e1e;stroke:#555555;stroke-width:1px;}#g0d43979b-e5e8-4320-98da-ecf2f8ff716c-dark .cluster text{fill:#e5e5e5;}#g0d43979b-e5e8-4320-98da-ecf2f8ff716c-dark .cluster span{color:#e5e5e5;}#g0d43979b-e5e8-4320-98da-ecf2f8ff716c-dark div.mermaidTooltip{position:absolute;text-align:center;max-width:200px;padding:2px;font-family:"trebuchet ms",verdana,arial,sans-serif;font-size:12px;background:#252525;border:1px solid #555555;border-radius:2px;pointer-events:none;z-index:100;}#g0d43979b-e5e8-4320-98da-ecf2f8ff716c-dark .flowchartTitleText{text-anchor:middle;font-size:18px;fill:#e5e5e5;}#g0d43979b-e5e8-4320-98da-ecf2f8ff716c-dark rect.text{fill:none;stroke-width:0;}#g0d43979b-e5e8-4320-98da-ecf2f8ff716c-dark .icon-shape,#g0d43979b-e5e8-4320-98da-ecf2f8ff716c-dark .image-shape{background-color:#1e1e1e;text-align:center;}#g0d43979b-e5e8-4320-98da-ecf2f8ff716c-dark .icon-shape p,#g0d43979b-e5e8-4320-98da-ecf2f8ff716c-dark .image-shape p{background-color:#1e1e1e;padding:2px;}#g0d43979b-e5e8-4320-98da-ecf2f8ff716c-dark .icon-shape .label rect,#g0d43979b-e5e8-4320-98da-ecf2f8ff716c-dark .image-shape .label rect{opacity:0.5;background-color:#1e1e1e;fill:#1e1e1e;}#g0d43979b-e5e8-4320-98da-ecf2f8ff716c-dark .label-icon{display:inline-block;height:1em;overflow:visible;vertical-align:-0.125em;}#g0d43979b-e5e8-4320-98da-ecf2f8ff716c-dark .node .label-icon path{fill:currentColor;stroke:revert;stroke-width:revert;}#g0d43979b-e5e8-4320-98da-ecf2f8ff716c-dark .node .neo-node{stroke:#555555;}#g0d43979b-e5e8-4320-98da-ecf2f8ff716c-dark [data-look="neo"].node rect,#g0d43979b-e5e8-4320-98da-ecf2f8ff716c-dark [data-look="neo"].cluster rect,#g0d43979b-e5e8-4320-98da-ecf2f8ff716c-dark [data-look="neo"].node polygon{stroke:url(#g0d43979b-e5e8-4320-98da-ecf2f8ff716c-dark-gradient);filter:drop-shadow( 1px 2px 2px rgba(185,185,185,1));}#g0d43979b-e5e8-4320-98da-ecf2f8ff716c-dark [data-look="neo"].node path{stroke:url(#g0d43979b-e5e8-4320-98da-ecf2f8ff716c-dark-gradient);stroke-width:1px;}#g0d43979b-e5e8-4320-98da-ecf2f8ff716c-dark [data-look="neo"].node .outer-path{filter:drop-shadow( 1px 2px 2px rgba(185,185,185,1));}#g0d43979b-e5e8-4320-98da-ecf2f8ff716c-dark [data-look="neo"].node .neo-line path{stroke:#555555;filter:none;}#g0d43979b-e5e8-4320-98da-ecf2f8ff716c-dark [data-look="neo"].node circle{stroke:url(#g0d43979b-e5e8-4320-98da-ecf2f8ff716c-dark-gradient);filter:drop-shadow( 1px 2px 2px rgba(185,185,185,1));}#g0d43979b-e5e8-4320-98da-ecf2f8ff716c-dark [data-look="neo"].node circle .state-start{fill:#000000;}#g0d43979b-e5e8-4320-98da-ecf2f8ff716c-dark [data-look="neo"].icon-shape .icon{fill:url(#g0d43979b-e5e8-4320-98da-ecf2f8ff716c-dark-gradient);filter:drop-shadow( 1px 2px 2px rgba(185,185,185,1));}#g0d43979b-e5e8-4320-98da-ecf2f8ff716c-dark [data-look="neo"].icon-shape .icon-neo path{stroke:url(#g0d43979b-e5e8-4320-98da-ecf2f8ff716c-dark-gradient);filter:drop-shadow( 1px 2px 2px rgba(185,185,185,1));}#g0d43979b-e5e8-4320-98da-ecf2f8ff716c-dark :root{--mermaid-font-family:"trebuchet ms",verdana,arial,sans-serif;}#g0d43979b-e5e8-4320-98da-ecf2f8ff716c-dark .rootNode rect{fill:#1F4870!important;stroke:#0E2C4A!important;color:#ffffff!important;stroke-width:2px!important;}#g0d43979b-e5e8-4320-98da-ecf2f8ff716c-dark .rootNode polygon{fill:#1F4870!important;stroke:#0E2C4A!important;color:#ffffff!important;stroke-width:2px!important;}#g0d43979b-e5e8-4320-98da-ecf2f8ff716c-dark .rootNode ellipse{fill:#1F4870!important;stroke:#0E2C4A!important;color:#ffffff!important;stroke-width:2px!important;}#g0d43979b-e5e8-4320-98da-ecf2f8ff716c-dark .rootNode circle{fill:#1F4870!important;stroke:#0E2C4A!important;color:#ffffff!important;stroke-width:2px!important;}#g0d43979b-e5e8-4320-98da-ecf2f8ff716c-dark .rootNode path{fill:#1F4870!important;stroke:#0E2C4A!important;color:#ffffff!important;stroke-width:2px!important;}#g0d43979b-e5e8-4320-98da-ecf2f8ff716c-dark .rootNode tspan{fill:#ffffff!important;}#g0d43979b-e5e8-4320-98da-ecf2f8ff716c-dark .primary rect{fill:#2E5A88!important;stroke:#1F4870!important;color:#ffffff!important;}#g0d43979b-e5e8-4320-98da-ecf2f8ff716c-dark .primary polygon{fill:#2E5A88!important;stroke:#1F4870!important;color:#ffffff!important;}#g0d43979b-e5e8-4320-98da-ecf2f8ff716c-dark .primary ellipse{fill:#2E5A88!important;stroke:#1F4870!important;color:#ffffff!important;}#g0d43979b-e5e8-4320-98da-ecf2f8ff716c-dark .primary circle{fill:#2E5A88!important;stroke:#1F4870!important;color:#ffffff!important;}#g0d43979b-e5e8-4320-98da-ecf2f8ff716c-dark .primary path{fill:#2E5A88!important;stroke:#1F4870!important;color:#ffffff!important;}#g0d43979b-e5e8-4320-98da-ecf2f8ff716c-dark .primary tspan{fill:#ffffff!important;}</style><g><marker id="g0d43979b-e5e8-4320-98da-ecf2f8ff716c-dark_flowchart-v2-pointEnd" class="marker flowchart-v2" viewBox="0 0 10 10" refX="5" refY="5" markerUnits="userSpaceOnUse" markerWidth="8" markerHeight="8" orient="auto"><path d="M 0 0 L 10 5 L 0 10 z" class="arrowMarkerPath" style="stroke-width: 1; stroke-dasharray: 1, 0;"></path></marker><marker id="g0d43979b-e5e8-4320-98da-ecf2f8ff716c-dark_flowchart-v2-pointStart" class="marker flowchart-v2" viewBox="0 0 10 10" refX="4.5" refY="5" markerUnits="userSpaceOnUse" markerWidth="8" markerHeight="8" orient="auto"><path d="M 0 5 L 10 10 L 10 0 z" class="arrowMarkerPath" style="stroke-width: 1; stroke-dasharray: 1, 0;"></path></marker><marker id="g0d43979b-e5e8-4320-98da-ecf2f8ff716c-dark_flowchart-v2-pointEnd-margin" class="marker flowchart-v2" viewBox="0 0 11.5 14" refX="11.5" refY="7" markerUnits="userSpaceOnUse" markerWidth="10.5" markerHeight="14" orient="auto"><path d="M 0 0 L 11.5 7 L 0 14 z" class="arrowMarkerPath" style="stroke-width: 0; stroke-dasharray: 1, 0;"></path></marker><marker id="g0d43979b-e5e8-4320-98da-ecf2f8ff716c-dark_flowchart-v2-pointStart-margin" class="marker flowchart-v2" viewBox="0 0 11.5 14" refX="1" refY="7" markerUnits="userSpaceOnUse" markerWidth="11.5" markerHeight="14" orient="auto"><polygon points="0,7 11.5,14 11.5,0" class="arrowMarkerPath" style="stroke-width: 0; stroke-dasharray: 1, 0;"></polygon></marker><marker id="g0d43979b-e5e8-4320-98da-ecf2f8ff716c-dark_flowchart-v2-circleEnd" class="marker flowchart-v2" viewBox="0 0 10 10" refX="11" refY="5" markerUnits="userSpaceOnUse" markerWidth="11" markerHeight="11" orient="auto"><circle cx="5" cy="5" r="5" class="arrowMarkerPath" style="stroke-width: 1; stroke-dasharray: 1, 0;"></circle></marker><marker id="g0d43979b-e5e8-4320-98da-ecf2f8ff716c-dark_flowchart-v2-circleStart" class="marker flowchart-v2" viewBox="0 0 10 10" refX="-1" refY="5" markerUnits="userSpaceOnUse" markerWidth="11" markerHeight="11" orient="auto"><circle cx="5" cy="5" r="5" class="arrowMarkerPath" style="stroke-width: 1; stroke-dasharray: 1, 0;"></circle></marker><marker id="g0d43979b-e5e8-4320-98da-ecf2f8ff716c-dark_flowchart-v2-circleEnd-margin" class="marker flowchart-v2" viewBox="0 0 10 10" refY="5" refX="12.25" markerUnits="userSpaceOnUse" markerWidth="14" markerHeight="14" orient="auto"><circle cx="5" cy="5" r="5" class="arrowMarkerPath" style="stroke-width: 0; stroke-dasharray: 1, 0;"></circle></marker><marker id="g0d43979b-e5e8-4320-98da-ecf2f8ff716c-dark_flowchart-v2-circleStart-margin" class="marker flowchart-v2" viewBox="0 0 10 10" refX="-2" refY="5" markerUnits="userSpaceOnUse" markerWidth="14" markerHeight="14" orient="auto"><circle cx="5" cy="5" r="5" class="arrowMarkerPath" style="stroke-width: 0; stroke-dasharray: 1, 0;"></circle></marker><marker id="g0d43979b-e5e8-4320-98da-ecf2f8ff716c-dark_flowchart-v2-crossEnd" class="marker cross flowchart-v2" viewBox="0 0 11 11" refX="12" refY="5.2" markerUnits="userSpaceOnUse" markerWidth="11" markerHeight="11" orient="auto"><path d="M 1,1 l 9,9 M 10,1 l -9,9" class="arrowMarkerPath" style="stroke-width: 2; stroke-dasharray: 1, 0;"></path></marker><marker id="g0d43979b-e5e8-4320-98da-ecf2f8ff716c-dark_flowchart-v2-crossStart" class="marker cross flowchart-v2" viewBox="0 0 11 11" refX="-1" refY="5.2" markerUnits="userSpaceOnUse" markerWidth="11" markerHeight="11" orient="auto"><path d="M 1,1 l 9,9 M 10,1 l -9,9" class="arrowMarkerPath" style="stroke-width: 2; stroke-dasharray: 1, 0;"></path></marker><marker id="g0d43979b-e5e8-4320-98da-ecf2f8ff716c-dark_flowchart-v2-crossEnd-margin" class="marker cross flowchart-v2" viewBox="0 0 15 15" refX="17.7" refY="7.5" markerUnits="userSpaceOnUse" markerWidth="12" markerHeight="12" orient="auto"><path d="M 1,1 L 14,14 M 1,14 L 14,1" class="arrowMarkerPath" style="stroke-width: 2.5;"></path></marker><marker id="g0d43979b-e5e8-4320-98da-ecf2f8ff716c-dark_flowchart-v2-crossStart-margin" class="marker cross flowchart-v2" viewBox="0 0 15 15" refX="-3.5" refY="7.5" markerUnits="userSpaceOnUse" markerWidth="12" markerHeight="12" orient="auto"><path d="M 1,1 L 14,14 M 1,14 L 14,1" class="arrowMarkerPath" style="stroke-width: 2.5; stroke-dasharray: 1, 0;"></path></marker><g class="root"><g class="clusters"></g><g class="edgePaths"><path d="M66.52,393.2L78.378,343.733C90.237,294.267,113.954,195.333,131.751,145.867C149.548,96.4,161.426,96.4,167.364,96.4L173.303,96.4" id="g0d43979b-e5e8-4320-98da-ecf2f8ff716c-dark-L_root_node_runtime_0" class="edge-thickness-normal edge-pattern-solid edge-thickness-normal edge-pattern-solid flowchart-link" style=";" data-edge="true" data-et="edge" data-id="L_root_node_runtime_0" data-points="W3sieCI6NjYuNTIwMDc4ODE0MDQ1MDQsInkiOjM5My4yMDAwMDA3NjI5Mzk0NX0seyJ4IjoxMzcuNjcwMzY0Mzc5ODgyOCwieSI6OTYuNDAwMDAxNTI1ODc4OX0seyJ4IjoxNzcuMzAzMTc2ODc5ODgyOCwieSI6OTYuNDAwMDAxNTI1ODc4OX1d" data-look="classic" marker-end="url(#g0d43979b-e5e8-4320-98da-ecf2f8ff716c-dark_flowchart-v2-pointEnd)"></path><path d="M79.41,393.2L89.12,380.067C98.83,366.933,118.25,340.667,134.65,327.533C151.051,314.4,164.431,314.4,171.121,314.4L177.811,314.4" id="g0d43979b-e5e8-4320-98da-ecf2f8ff716c-dark-L_root_node_output_0" class="edge-thickness-normal edge-pattern-solid edge-thickness-normal edge-pattern-solid flowchart-link" style=";" data-edge="true" data-et="edge" data-id="L_root_node_output_0" data-points="W3sieCI6NzkuNDEwMjA3NzIxNTM0MTksInkiOjM5My4yMDAwMDA3NjI5Mzk0NX0seyJ4IjoxMzcuNjcwMzY0Mzc5ODgyOCwieSI6MzE0LjQwMDAwMTUyNTg3ODl9LHsieCI6MTgxLjgxMDk4OTM3OTg4MjgsInkiOjMxNC40MDAwMDE1MjU4Nzg5fV0=" data-look="classic" marker-end="url(#g0d43979b-e5e8-4320-98da-ecf2f8ff716c-dark_flowchart-v2-pointEnd)"></path><path d="M79.41,444.8L89.12,457.933C98.83,471.067,118.25,497.333,138.361,510.467C158.472,523.6,179.275,523.6,189.676,523.6L200.077,523.6" id="g0d43979b-e5e8-4320-98da-ecf2f8ff716c-dark-L_root_node_build_0" class="edge-thickness-normal edge-pattern-solid edge-thickness-normal edge-pattern-solid flowchart-link" style=";" data-edge="true" data-et="edge" data-id="L_root_node_build_0" data-points="W3sieCI6NzkuNDEwMjA3NzIxNTM0MTksInkiOjQ0NC43OTk5OTkyMzcwNjA1NX0seyJ4IjoxMzcuNjcwMzY0Mzc5ODgyOCwieSI6NTIzLjU5OTk5ODQ3NDEyMTF9LHsieCI6MjA0LjA3NjYxNDM3OTg4MjgsInkiOjUyMy41OTk5OTg0NzQxMjExfV0=" data-look="classic" marker-end="url(#g0d43979b-e5e8-4320-98da-ecf2f8ff716c-dark_flowchart-v2-pointEnd)"></path><path d="M66.694,444.8L78.523,492.8C90.352,540.8,114.011,636.8,129.341,684.8C144.67,732.8,151.67,732.8,155.17,732.8L158.67,732.8" id="g0d43979b-e5e8-4320-98da-ecf2f8ff716c-dark-L_root_node_config_0" class="edge-thickness-normal edge-pattern-solid edge-thickness-normal edge-pattern-solid flowchart-link" style=";" data-edge="true" data-et="edge" data-id="L_root_node_config_0" data-points="W3sieCI6NjYuNjkzNTI0MDMzODA1NjcsInkiOjQ0NC43OTk5OTkyMzcwNjA1NX0seyJ4IjoxMzcuNjcwMzY0Mzc5ODgyOCwieSI6NzMyLjc5OTk5NTQyMjM2MzN9LHsieCI6MTYyLjY3MDM2NDM3OTg4MjgsInkiOjczMi43OTk5OTU0MjIzNjMzfV0=" data-look="classic" marker-end="url(#g0d43979b-e5e8-4320-98da-ecf2f8ff716c-dark_flowchart-v2-pointEnd)"></path></g><g class="edgeLabels"><g class="edgeLabel"><g class="label" data-id="L_root_node_runtime_0" transform="translate(0, 0)"><text y="-10.1" text-anchor="middle"><tspan class="text-outer-tspan row" x="0" y="-0.1em" dy="1.1em" text-anchor="middle"></tspan></text></g></g><g><rect class="background" style="stroke: none"></rect></g><g class="edgeLabel"><g class="label" data-id="L_root_node_output_0" transform="translate(0, 0)"><text y="-10.1" text-anchor="middle"><tspan class="text-outer-tspan row" x="0" y="-0.1em" dy="1.1em" text-anchor="middle"></tspan></text></g></g><g><rect class="background" style="stroke: none"></rect></g><g class="edgeLabel"><g class="label" data-id="L_root_node_build_0" transform="translate(0, 0)"><text y="-10.1" text-anchor="middle"><tspan class="text-outer-tspan row" x="0" y="-0.1em" dy="1.1em" text-anchor="middle"></tspan></text></g></g><g><rect class="background" style="stroke: none"></rect></g><g class="edgeLabel"><g class="label" data-id="L_root_node_config_0" transform="translate(0, 0)"><text y="-10.1" text-anchor="middle"><tspan class="text-outer-tspan row" x="0" y="-0.1em" dy="1.1em" text-anchor="middle"></tspan></text></g></g><g><rect class="background" style="stroke: none"></rect></g></g><g class="nodes"><g class="root" transform="translate(154.6703643798828, 645.1999969482422)"><g class="clusters"><g class="cluster" id="g0d43979b-e5e8-4320-98da-ecf2f8ff716c-dark-config" data-look="classic"><rect style="" x="8" y="8" width="562.953125" height="159.1999969482422"></rect><g class="cluster-label" transform="translate(266.7734375, 8)"><g><rect class="background" style="stroke: none"></rect><text y="-10.1" style=""><tspan class="text-outer-tspan row" x="0" y="-0.1em" dy="1.1em"><tspan font-style="normal" class="text-inner-tspan" font-weight="normal">Config</tspan></tspan></text></g></g></g></g><g class="edgePaths"></g><g class="edgeLabels"></g><g class="nodes"><g class="node default primary" id="g0d43979b-e5e8-4320-98da-ecf2f8ff716c-dark-flowchart-layered-7" data-look="classic" transform="translate(162.796875, 87.5999984741211)"><rect class="basic label-container" style="fill:#2E5A88 !important;stroke:#1F4870 !important" x="-119.796875" y="-42.099998474121094" width="239.59375" height="84.19999694824219"></rect><g class="label" style="color:#ffffff !important" transform="translate(0, -27.099998474121094)"><rect></rect><g><rect class="background" style="stroke: none"></rect><text y="-10.1" style="fill:#404040 !important"><tspan class="text-outer-tspan row" x="0" y="-0.1em" dy="1.1em"><tspan font-style="normal" class="text-inner-tspan" font-weight="normal">Layered</tspan><tspan font-style="normal" class="text-inner-tspan" font-weight="normal"> Config</tspan></tspan><tspan class="text-outer-tspan row" x="0" y="1em" dy="1.1em"><tspan font-style="normal" class="text-inner-tspan" font-weight="normal">Defaults</tspan><tspan font-style="normal" class="text-inner-tspan" font-weight="normal"> to</tspan><tspan font-style="normal" class="text-inner-tspan" font-weight="normal"> Global</tspan><tspan font-style="normal" class="text-inner-tspan" font-weight="normal"> to</tspan><tspan font-style="normal" class="text-inner-tspan" font-weight="normal"> Env</tspan></tspan><tspan class="text-outer-tspan row" x="0" y="2.1em" dy="1.1em"><tspan font-style="normal" class="text-inner-tspan" font-weight="normal">to</tspan><tspan font-style="normal" class="text-inner-tspan" font-weight="normal"> Local</tspan><tspan font-style="normal" class="text-inner-tspan" font-weight="normal"> to</tspan><tspan font-style="normal" class="text-inner-tspan" font-weight="normal"> CLI</tspan></tspan></text></g></g></g><g class="node default primary" id="g0d43979b-e5e8-4320-98da-ecf2f8ff716c-dark-flowchart-ext-8" data-look="classic" transform="translate(434.2734375, 87.5999984741211)"><rect class="basic label-container" style="fill:#2E5A88 !important;stroke:#1F4870 !important" x="-101.6796875" y="-33.29999923706055" width="203.359375" height="66.5999984741211"></rect><g class="label" style="color:#ffffff !important" transform="translate(0, -18.299999237060547)"><rect></rect><g><rect class="background" style="stroke: none"></rect><text y="-10.1" style="fill:#404040 !important"><tspan class="text-outer-tspan row" x="0" y="-0.1em" dy="1.1em"><tspan font-style="normal" class="text-inner-tspan" font-weight="normal">Extension</tspan><tspan font-style="normal" class="text-inner-tspan" font-weight="normal"> Detection</tspan></tspan><tspan class="text-outer-tspan row" x="0" y="1em" dy="1.1em"><tspan font-style="normal" class="text-inner-tspan" font-weight="normal">Longest</tspan><tspan font-style="normal" class="text-inner-tspan" font-weight="normal"> match</tspan><tspan font-style="normal" class="text-inner-tspan" font-weight="normal"> first</tspan></tspan></text></g></g></g></g></g><g class="root" transform="translate(196.0766143798828, 436)"><g class="clusters"><g class="cluster" id="g0d43979b-e5e8-4320-98da-ecf2f8ff716c-dark-build" data-look="classic"><rect style="" x="8" y="8" width="480.140625" height="159.1999969482422"></rect><g class="cluster-label" transform="translate(230.0703125, 8)"><g><rect class="background" style="stroke: none"></rect><text y="-10.1" style=""><tspan class="text-outer-tspan row" x="0" y="-0.1em" dy="1.1em"><tspan font-style="normal" class="text-inner-tspan" font-weight="normal">Build</tspan></tspan></text></g></g></g></g><g class="edgePaths"></g><g class="edgeLabels"></g><g class="nodes"><g class="node default primary" id="g0d43979b-e5e8-4320-98da-ecf2f8ff716c-dark-flowchart-incremental-5" data-look="classic" transform="translate(139.7890625, 87.5999984741211)"><rect class="basic label-container" style="fill:#2E5A88 !important;stroke:#1F4870 !important" x="-96.7890625" y="-42.099998474121094" width="193.578125" height="84.19999694824219"></rect><g class="label" style="color:#ffffff !important" transform="translate(0, -27.099998474121094)"><rect></rect><g><rect class="background" style="stroke: none"></rect><text y="-10.1" style="fill:#404040 !important"><tspan class="text-outer-tspan row" x="0" y="-0.1em" dy="1.1em"><tspan font-style="normal" class="text-inner-tspan" font-weight="normal">Incremental</tspan><tspan font-style="normal" class="text-inner-tspan" font-weight="normal"> Builds</tspan></tspan><tspan class="text-outer-tspan row" x="0" y="1em" dy="1.1em"><tspan font-style="normal" class="text-inner-tspan" font-weight="normal">SHA-256</tspan><tspan font-style="normal" class="text-inner-tspan" font-weight="normal"> manifest</tspan></tspan><tspan class="text-outer-tspan row" x="0" y="2.1em" dy="1.1em"><tspan font-style="normal" class="text-inner-tspan" font-weight="normal">Skip</tspan><tspan font-style="normal" class="text-inner-tspan" font-weight="normal"> unchanged</tspan></tspan></text></g></g></g><g class="node default primary" id="g0d43979b-e5e8-4320-98da-ecf2f8ff716c-dark-flowchart-atomic-6" data-look="classic" transform="translate(369.859375, 87.5999984741211)"><rect class="basic label-container" style="fill:#2E5A88 !important;stroke:#1F4870 !important" x="-83.28125" y="-33.29999923706055" width="166.5625" height="66.5999984741211"></rect><g class="label" style="color:#ffffff !important" transform="translate(0, -18.299999237060547)"><rect></rect><g><rect class="background" style="stroke: none"></rect><text y="-10.1" style="fill:#404040 !important"><tspan class="text-outer-tspan row" x="0" y="-0.1em" dy="1.1em"><tspan font-style="normal" class="text-inner-tspan" font-weight="normal">Atomic</tspan><tspan font-style="normal" class="text-inner-tspan" font-weight="normal"> Writes</tspan></tspan><tspan class="text-outer-tspan row" x="0" y="1em" dy="1.1em"><tspan font-style="normal" class="text-inner-tspan" font-weight="normal">.tmp</tspan><tspan font-style="normal" class="text-inner-tspan" font-weight="normal"> +</tspan><tspan font-style="normal" class="text-inner-tspan" font-weight="normal"> rename</tspan></tspan></text></g></g></g></g></g><g class="root" transform="translate(173.8109893798828, 226.8000030517578)"><g class="clusters"><g class="cluster" id="g0d43979b-e5e8-4320-98da-ecf2f8ff716c-dark-output" data-look="classic"><rect style="" x="8" y="8" width="524.671875" height="159.1999969482422"></rect><g class="cluster-label" transform="translate(245.3984375, 8)"><g><rect class="background" style="stroke: none"></rect><text y="-10.1" style=""><tspan class="text-outer-tspan row" x="0" y="-0.1em" dy="1.1em"><tspan font-style="normal" class="text-inner-tspan" font-weight="normal">Output</tspan></tspan></text></g></g></g></g><g class="edgePaths"></g><g class="edgeLabels"></g><g class="nodes"><g class="node default primary" id="g0d43979b-e5e8-4320-98da-ecf2f8ff716c-dark-flowchart-svgFirst-3" data-look="classic" transform="translate(140.4296875, 87.5999984741211)"><rect class="basic label-container" style="fill:#2E5A88 !important;stroke:#1F4870 !important" x="-97.4296875" y="-42.099998474121094" width="194.859375" height="84.19999694824219"></rect><g class="label" style="color:#ffffff !important" transform="translate(0, -27.099998474121094)"><rect></rect><g><rect class="background" style="stroke: none"></rect><text y="-10.1" style="fill:#404040 !important"><tspan class="text-outer-tspan row" x="0" y="-0.1em" dy="1.1em"><tspan font-style="normal" class="text-inner-tspan" font-weight="normal">SVG-First</tspan></tspan><tspan class="text-outer-tspan row" x="0" y="1em" dy="1.1em"><tspan font-style="normal" class="text-inner-tspan" font-weight="normal">Vector</tspan><tspan font-style="normal" class="text-inner-tspan" font-weight="normal"> is</tspan><tspan font-style="normal" class="text-inner-tspan" font-weight="normal"> canonical</tspan></tspan><tspan class="text-outer-tspan row" x="0" y="2.1em" dy="1.1em"><tspan font-style="normal" class="text-inner-tspan" font-weight="normal">Raster</tspan><tspan font-style="normal" class="text-inner-tspan" font-weight="normal"> via</tspan><tspan font-style="normal" class="text-inner-tspan" font-weight="normal"> sharp</tspan></tspan></text></g></g></g><g class="node default primary" id="g0d43979b-e5e8-4320-98da-ecf2f8ff716c-dark-flowchart-themes-4" data-look="classic" transform="translate(392.765625, 87.5999984741211)"><rect class="basic label-container" style="fill:#2E5A88 !important;stroke:#1F4870 !important" x="-104.90625" y="-42.099998474121094" width="209.8125" height="84.19999694824219"></rect><g class="label" style="color:#ffffff !important" transform="translate(0, -27.099998474121094)"><rect></rect><g><rect class="background" style="stroke: none"></rect><text y="-10.1" style="fill:#404040 !important"><tspan class="text-outer-tspan row" x="0" y="-0.1em" dy="1.1em"><tspan font-style="normal" class="text-inner-tspan" font-weight="normal">Light</tspan><tspan font-style="normal" class="text-inner-tspan" font-weight="normal"> +</tspan><tspan font-style="normal" class="text-inner-tspan" font-weight="normal"> Dark</tspan></tspan><tspan class="text-outer-tspan row" x="0" y="1em" dy="1.1em"><tspan font-style="normal" class="text-inner-tspan" font-weight="normal">Both</tspan><tspan font-style="normal" class="text-inner-tspan" font-weight="normal"> themes</tspan><tspan font-style="normal" class="text-inner-tspan" font-weight="normal"> default</tspan></tspan><tspan class="text-outer-tspan row" x="0" y="2.1em" dy="1.1em"><tspan font-style="normal" class="text-inner-tspan" font-weight="normal">Theme</tspan><tspan font-style="normal" class="text-inner-tspan" font-weight="normal"> suffix</tspan><tspan font-style="normal" class="text-inner-tspan" font-weight="normal"> naming</tspan></tspan></text></g></g></g></g></g><g class="root" transform="translate(169.3031768798828, 0)"><g class="clusters"><g class="cluster" id="g0d43979b-e5e8-4320-98da-ecf2f8ff716c-dark-runtime" data-look="classic"><rect style="" x="8" y="8" width="533.6875" height="176.8000030517578"></rect><g class="cluster-label" transform="translate(245.21875, 8)"><g><rect class="background" style="stroke: none"></rect><text y="-10.1" style=""><tspan class="text-outer-tspan row" x="0" y="-0.1em" dy="1.1em"><tspan font-style="normal" class="text-inner-tspan" font-weight="normal">Runtime</tspan></tspan></text></g></g></g></g><g class="edgePaths"></g><g class="edgeLabels"></g><g class="nodes"><g class="node default primary" id="g0d43979b-e5e8-4320-98da-ecf2f8ff716c-dark-flowchart-chromium-1" data-look="classic" transform="translate(152.625, 96.4000015258789)"><rect class="basic label-container" style="fill:#2E5A88 !important;stroke:#1F4870 !important" x="-109.625" y="-42.099998474121094" width="219.25" height="84.19999694824219"></rect><g class="label" style="color:#ffffff !important" transform="translate(0, -27.099998474121094)"><rect></rect><g><rect class="background" style="stroke: none"></rect><text y="-10.1" style="fill:#404040 !important"><tspan class="text-outer-tspan row" x="0" y="-0.1em" dy="1.1em"><tspan font-style="normal" class="text-inner-tspan" font-weight="normal">One</tspan><tspan font-style="normal" class="text-inner-tspan" font-weight="normal"> Chromium</tspan></tspan><tspan class="text-outer-tspan row" x="0" y="1em" dy="1.1em"><tspan font-style="normal" class="text-inner-tspan" font-weight="normal">Shared</tspan><tspan font-style="normal" class="text-inner-tspan" font-weight="normal"> BrowserPool</tspan></tspan><tspan class="text-outer-tspan row" x="0" y="2.1em" dy="1.1em"><tspan font-style="normal" class="text-inner-tspan" font-weight="normal">Graphviz</tspan><tspan font-style="normal" class="text-inner-tspan" font-weight="normal"> is</tspan><tspan font-style="normal" class="text-inner-tspan" font-weight="normal"> WASM</tspan><tspan font-style="normal" class="text-inner-tspan" font-weight="normal"> only</tspan></tspan></text></g></g></g><g class="node default primary" id="g0d43979b-e5e8-4320-98da-ecf2f8ff716c-dark-flowchart-registry-2" data-look="classic" transform="translate(409.46875, 96.4000015258789)"><rect class="basic label-container" style="fill:#2E5A88 !important;stroke:#1F4870 !important" x="-97.21875" y="-50.900001525878906" width="194.4375" height="101.80000305175781"></rect><g class="label" style="color:#ffffff !important" transform="translate(0, -35.900001525878906)"><rect></rect><g><rect class="background" style="stroke: none"></rect><text y="-10.1" style="fill:#404040 !important"><tspan class="text-outer-tspan row" x="0" y="-0.1em" dy="1.1em"><tspan font-style="normal" class="text-inner-tspan" font-weight="normal">Engine</tspan><tspan font-style="normal" class="text-inner-tspan" font-weight="normal"> Registry</tspan></tspan><tspan class="text-outer-tspan row" x="0" y="1em" dy="1.1em"><tspan font-style="normal" class="text-inner-tspan" font-weight="normal">Extension</tspan><tspan font-style="normal" class="text-inner-tspan" font-weight="normal"> mapping</tspan></tspan><tspan class="text-outer-tspan row" x="0" y="2.1em" dy="1.1em"><tspan font-style="normal" class="text-inner-tspan" font-weight="normal">Engine</tspan><tspan font-style="normal" class="text-inner-tspan" font-weight="normal"> profiles</tspan></tspan><tspan class="text-outer-tspan row" x="0" y="3.2em" dy="1.1em"><tspan font-style="normal" class="text-inner-tspan" font-weight="normal">Renderer</tspan><tspan font-style="normal" class="text-inner-tspan" font-weight="normal"> dispatch</tspan></tspan></text></g></g></g></g></g><g class="node default rootNode" id="g0d43979b-e5e8-4320-98da-ecf2f8ff716c-dark-flowchart-root_node-0" data-look="classic" transform="translate(60.335182189941406, 419)"><g class="basic label-container outer-path"><path d="M-26.54843807220459 -25.799999237060547 C-5.471444297322865 -25.799999237060547, 15.60554947755886 -25.799999237060547, 26.54843807220459 -25.799999237060547 C26.54843807220459 -25.799999237060547, 26.54843807220459 -25.799999237060547, 26.54843807220459 -25.799999237060547 C27.0305208273524 -25.784539781420115, 27.512603582500212 -25.769080325779683, 28.201449698825282 -25.746990371586765 C28.704635633085992 -25.69844862967826, 29.207821567346702 -25.649906887769756, 29.84766874610231 -25.58818159996402 C30.380457051279635 -25.502044518617968, 30.913245356456958 -25.415907437271912, 31.48033054685753 -25.32422550149928 C32.03032625066942 -25.1986925711616, 32.580321954481306 -25.073159640823917, 33.092726143546784 -24.956206728419545 C33.711642808354874 -24.772515511064373, 34.330559473162964 -24.5888242937092, 34.678229856805515 -24.48563754880318 C35.11254235189883 -24.325806535868146, 35.54685484699215 -24.16597552293311, 36.23032651178644 -23.914451632345997 C36.83418628636137 -23.64714082300544, 37.43804606093631 -23.379830013664886, 37.74263821041056 -23.24499610449772 C38.038383517557556 -23.090705967193045, 38.33412882470454 -22.936415829888368, 39.2089505395184 -22.480021901620034 C39.620225587406736 -22.230704550669667, 40.031500635295075 -21.9813871997193, 40.62323810722664 -21.62267246679901 C40.903224906344505 -21.427365796167575, 41.18321170546237 -21.23205912553614, 41.97968930255584 -20.67647083276321 C42.43225188306844 -20.31556421800046, 42.884814463581044 -19.95465760323771, 43.272730176586506 -19.64530514498651 C43.59558307199629 -19.35209868759486, 43.91843596740607 -19.05889223020321, 44.49704734701088 -18.533412684464313 C44.85908786440075 -18.159576126180003, 45.22112838179062 -17.78573956789569, 45.64760983196044 -17.345362455817106 C46.06192463693675 -16.858684710711668, 46.476239441913066 -16.37200696560623, 46.71968972338968 -16.086036412270357 C46.944676635105125 -15.784574447300969, 47.16966354682057 -15.483112482331581, 47.70888161506427 -14.76060939466161 C48.024128377148465 -14.276305712491775, 48.33937513923265 -13.79200203032194, 48.61112070532037 -13.374527866909407 C48.8769639205111 -12.902496318793663, 49.142807135701844 -12.430464770677919, 49.422699500206406 -11.93348753532484 C49.58881401094608 -11.58854719949276, 49.754928521685756 -11.24360686366068, 50.14028304837108 -10.443409943732584 C50.34600434644679 -9.93527436013486, 50.5517256445225 -9.427138776537138, 50.760922645093814 -8.910418140577123 C50.95119202918933 -8.33735707099089, 51.141461413284844 -7.764296001404658, 51.2820679491449 -7.340811518003323 C51.40467205112006 -6.873268940218129, 51.527276153095215 -6.405726362432934, 51.70157746268467 -5.741039926302914 C51.82773472581592 -5.093249043470926, 51.95389198894718 -4.445458160638937, 52.01772733113747 -4.117677170096137 C52.0785147051267 -3.646222301260392, 52.13930207911593 -3.1747674324246473, 52.22921842687991 -2.4773939951584394 C52.257008610670596 -2.044539450785921, 52.28479879446128 -1.6116849064134025, 52.33518168763487 -0.8269306768952902 C52.33518168763487 -0.4435407569148596, 52.33518168763487 -0.06015083693442902, 52.33518168763487 0.826930676895284 C52.29738191450027 1.4156926548944355, 52.25958214136566 2.0044546328935873, 52.22921842687991 2.4773939951584216 C52.17327538464382 2.9112771835383064, 52.117332342407735 3.3451603719181913, 52.01772733113748 4.117677170096119 C51.94074903338171 4.512944459703014, 51.863770735625934 4.90821174930991, 51.70157746268467 5.741039926302909 C51.53398046478164 6.380159916305535, 51.36638346687861 7.019279906308162, 51.28206794914491 7.340811518003306 C51.119597942124166 7.830145293069577, 50.957127935103415 8.319479068135848, 50.76092264509383 8.910418140577105 C50.59390009071673 9.322967079049945, 50.42687753633964 9.735516017522786, 50.14028304837109 10.443409943732577 C49.95502949807032 10.828092904723125, 49.76977594776954 11.21277586571367, 49.422699500206406 11.933487535324835 C49.117906779516375 12.474677874519692, 48.81311405882634 13.01586821371455, 48.611120705320374 13.374527866909402 C48.30772626893653 13.840623194008428, 48.00433183255268 14.306718521107454, 47.708881615064286 14.760609394661596 C47.440252521803025 15.120547907017844, 47.17162342854176 15.480486419374092, 46.71968972338968 16.086036412270353 C46.41048962700475 16.44924043946799, 46.10128953061982 16.812444466665625, 45.64760983196045 17.345362455817092 C45.35275166138752 17.649827725239657, 45.05789349081459 17.954292994662225, 44.49704734701088 18.533412684464306 C44.06722370240787 18.923767145982314, 43.63740005780487 19.314121607500322, 43.272730176586535 19.64530514498649 C42.99840302631496 19.864073747176015, 42.72407587604339 20.082842349365535, 41.97968930255585 20.676470832763208 C41.48835249311604 21.019206121400742, 40.99701568367623 21.36194141003828, 40.623238107226655 21.622672466799003 C40.2758486904686 21.833261972724554, 39.92845927371054 22.043851478650105, 39.208950539518405 22.48002190162003 C38.750123349834205 22.719391752585437, 38.291296160150004 22.95876160355084, 37.74263821041057 23.244996104497716 C37.42975538993121 23.383500047784825, 37.11687256945186 23.522003991071934, 36.23032651178645 23.914451632345994 C35.772282563912626 24.0830160392754, 35.3142386160388 24.251580446204805, 34.67822985680553 24.485637548803172 C34.19321801309521 24.629586518137277, 33.7082061693849 24.773535487471378, 33.09272614354681 24.95620672841954 C32.6785681499916 25.050735587815037, 32.264410156436384 25.145264447210533, 31.480330546857545 25.324225501499278 C31.133395523825808 25.38031526550176, 30.786460500794075 25.436405029504247, 29.84766874610233 25.588181599964017 C29.414163078503513 25.63000137035043, 28.980657410904698 25.671821140736846, 28.201449698825282 25.746990371586765 C27.854804012812664 25.758106624032294, 27.508158326800043 25.769222876477823, 26.548438072204593 25.799999237060547 C26.548438072204593 25.799999237060547, 26.54843807220459 25.799999237060547, 26.54843807220459 25.799999237060547 C14.390842138265025 25.799999237060547, 2.233246204325461 25.799999237060547, -26.548438072204586 25.799999237060547 C-27.14507007230595 25.780866410091033, -27.74170207240731 25.761733583121522, -28.20144969882527 25.746990371586765 C-28.548043884230854 25.713554847361184, -28.894638069636436 25.6801193231356, -29.84766874610232 25.588181599964017 C-30.26052944372818 25.521433484154397, -30.67339014135404 25.454685368344776, -31.480330546857534 25.324225501499278 C-31.943573146083008 25.218493401166533, -32.406815745308485 25.112761300833785, -33.092726143546784 24.956206728419545 C-33.608681071586474 24.80307401408005, -34.12463599962617 24.649941299740554, -34.6782298568055 24.485637548803183 C-35.21710676815264 24.287325864103874, -35.75598367949978 24.089014179404565, -36.230326511786444 23.914451632345997 C-36.73739721284963 23.68998647470324, -37.244467913912814 23.46552131706048, -37.74263821041056 23.244996104497723 C-38.28362738818206 22.962762396974437, -38.82461656595356 22.680528689451155, -39.2089505395184 22.480021901620038 C-39.58471042727761 22.252234049450195, -39.960470315036815 22.02444619728035, -40.623238107226626 21.622672466799017 C-40.92426605355244 21.412688402731902, -41.22529399987825 21.20270433866479, -41.97968930255584 20.67647083276321 C-42.36370801067493 20.37022613220524, -42.74772671879402 20.063981431647267, -43.272730176586506 19.645305144986512 C-43.74923736911705 19.212553920419708, -44.225744561647595 18.779802695852904, -44.49704734701086 18.533412684464324 C-44.799178849614506 18.22143710256838, -45.10131035221815 17.909461520672437, -45.64760983196044 17.3453624558171 C-46.01291128148498 16.916258586964247, -46.378212731009526 16.48715471811139, -46.71968972338967 16.08603641227036 C-47.00592793508428 15.702503285437118, -47.2921661467789 15.318970158603875, -47.70888161506427 14.760609394661614 C-47.95721696237278 14.379099613817871, -48.2055523096813 13.99758983297413, -48.61112070532036 13.374527866909418 C-48.86604548705686 12.921883103002948, -49.12097026879336 12.469238339096478, -49.4226995002064 11.933487535324842 C-49.70086879703841 11.355863038583689, -49.97903809387042 10.778238541842537, -50.14028304837108 10.443409943732586 C-50.34167244838798 9.945974232091661, -50.54306184840489 9.448538520450734, -50.760922645093814 8.910418140577127 C-50.91652606725142 8.441765425076923, -51.07212948940902 7.97311270957672, -51.2820679491449 7.340811518003316 C-51.37167718299956 6.999092672427887, -51.461286416854215 6.6573738268524565, -51.70157746268467 5.741039926302918 C-51.80821469965578 5.193480252244291, -51.91485193662689 4.645920578185665, -52.01772733113747 4.117677170096139 C-52.06124002753605 3.7802012893825587, -52.10475272393463 3.4427254086689776, -52.22921842687991 2.477393995158454 C-52.259946813721726 1.9987745665897458, -52.29067520056354 1.5201551380210374, -52.33518168763487 0.8269306768952934 C-52.33518168763487 0.3270515061583795, -52.33518168763487 -0.17282766457853438, -52.33518168763487 -0.8269306768952809 C-52.304806623906835 -1.300046812769627, -52.2744315601788 -1.7731629486439733, -52.22921842687991 -2.4773939951584185 C-52.1848275613186 -2.8216807824840715, -52.14043669575729 -3.1659675698097245, -52.01772733113748 -4.117677170096128 C-51.89881190832925 -4.728282733432855, -51.77989648552102 -5.338888296769582, -51.70157746268467 -5.741039926302906 C-51.56242125866169 -6.271702842922843, -51.42326505463872 -6.80236575954278, -51.28206794914491 -7.340811518003303 C-51.154589757019174 -7.724755521794386, -51.02711156489343 -8.10869952558547, -50.76092264509383 -8.910418140577093 C-50.56948786482344 -9.38326574898465, -50.378053084553045 -9.856113357392207, -50.14028304837109 -10.443409943732574 C-49.97983510279411 -10.776583535759237, -49.819387157217136 -11.109757127785901, -49.422699500206406 -11.933487535324831 C-49.1545605794538 -12.409595341131073, -48.886421658701195 -12.885703146937317, -48.61112070532037 -13.374527866909409 C-48.37592051864611 -13.735858513734433, -48.140720331971856 -14.097189160559456, -47.70888161506428 -14.760609394661605 C-47.49916561052698 -15.041609735220534, -47.28944960598968 -15.322610075779465, -46.71968972338968 -16.086036412270353 C-46.478375196115515 -16.369498187192175, -46.23706066884135 -16.652959962114, -45.64760983196045 -17.345362455817092 C-45.363258528555406 -17.63897852225898, -45.07890722515036 -17.93259458870087, -44.49704734701089 -18.5334126844643 C-44.05695897429182 -18.933089300467493, -43.61687060157275 -19.332765916470688, -43.272730176586535 -19.645305144986487 C-42.9539868957362 -19.899494429349698, -42.63524361488587 -20.153683713712905, -41.97968930255585 -20.676470832763204 C-41.6822286266384 -20.883966523418092, -41.384767950720956 -21.091462214072983, -40.62323810722666 -21.622672466799 C-40.156000269343934 -21.90591478991782, -39.68876243146121 -22.189157113036643, -39.208950539518405 -22.480021901620027 C-38.81557959719294 -22.68524327026511, -38.42220865486747 -22.890464638910196, -37.742638210410576 -23.244996104497716 C-37.3969777963869 -23.39800971613413, -37.051317382363216 -23.55102332777054, -36.23032651178645 -23.91445163234599 C-35.88551412615173 -24.04134577767032, -35.540701740517015 -24.168239922994648, -34.67822985680553 -24.485637548803172 C-34.07532765087924 -24.66457575882384, -33.47242544495294 -24.843513968844505, -33.09272614354682 -24.956206728419538 C-32.65573484533711 -25.055947140601184, -32.218743547127396 -25.155687552782833, -31.480330546857545 -25.324225501499278 C-30.96917410052618 -25.40686531166469, -30.458017654194812 -25.4895051218301, -29.84766874610233 -25.588181599964017 C-29.331916519543608 -25.637935596977336, -28.816164292984887 -25.68768959399065, -28.201449698825286 -25.746990371586765 C-27.64338708741005 -25.764886353331875, -27.08532447599482 -25.782782335076984, -26.548438072204597 -25.799999237060547 C-26.548438072204593 -25.799999237060547, -26.54843807220459 -25.799999237060547, -26.54843807220459 -25.799999237060547" stroke="none" stroke-width="0" fill="#1F4870" style="fill:#1F4870 !important;stroke:#0E2C4A !important;stroke-width:2px !important"></path><path d="M-26.54843807220459 -25.799999237060547 C-9.314614823202962 -25.799999237060547, 7.919208425798665 -25.799999237060547, 26.54843807220459 -25.799999237060547 M-26.54843807220459 -25.799999237060547 C-6.859915535887392 -25.799999237060547, 12.828607000429805 -25.799999237060547, 26.54843807220459 -25.799999237060547 M26.54843807220459 -25.799999237060547 C26.54843807220459 -25.799999237060547, 26.54843807220459 -25.799999237060547, 26.54843807220459 -25.799999237060547 M26.54843807220459 -25.799999237060547 C26.54843807220459 -25.799999237060547, 26.54843807220459 -25.799999237060547, 26.54843807220459 -25.799999237060547 M26.54843807220459 -25.799999237060547 C27.072176271301842 -25.78320397241006, 27.595914470399094 -25.766408707759574, 28.201449698825282 -25.746990371586765 M26.54843807220459 -25.799999237060547 C26.95297459197879 -25.787026538253958, 27.357511111752995 -25.774053839447365, 28.201449698825282 -25.746990371586765 M28.201449698825282 -25.746990371586765 C28.553709000862973 -25.713008340372983, 28.905968302900664 -25.6790263091592, 29.84766874610231 -25.58818159996402 M28.201449698825282 -25.746990371586765 C28.53420754289793 -25.714889622568936, 28.86696538697058 -25.682788873551107, 29.84766874610231 -25.58818159996402 M29.84766874610231 -25.58818159996402 C30.190349860294106 -25.53277957495322, 30.5330309744859 -25.477377549942425, 31.48033054685753 -25.32422550149928 M29.84766874610231 -25.58818159996402 C30.25606613172668 -25.5221550778253, 30.66446351735105 -25.45612855568658, 31.48033054685753 -25.32422550149928 M31.48033054685753 -25.32422550149928 C31.898973725045835 -25.228672927979847, 32.31761690323414 -25.133120354460413, 33.092726143546784 -24.956206728419545 M31.48033054685753 -25.32422550149928 C32.080696403894166 -25.18719591238402, 32.68106226093081 -25.050166323268755, 33.092726143546784 -24.956206728419545 M33.092726143546784 -24.956206728419545 C33.69768667428695 -24.77665761839849, 34.30264720502711 -24.59710850837744, 34.678229856805515 -24.48563754880318 M33.092726143546784 -24.956206728419545 C33.6369833059874 -24.794674059471316, 34.181240468428015 -24.633141390523086, 34.678229856805515 -24.48563754880318 M34.678229856805515 -24.48563754880318 C35.14314226080285 -24.31454548652901, 35.60805466480018 -24.143453424254837, 36.23032651178644 -23.914451632345997 M34.678229856805515 -24.48563754880318 C35.21370626710861 -24.288577279921963, 35.74918267741171 -24.091517011040747, 36.23032651178644 -23.914451632345997 M36.23032651178644 -23.914451632345997 C36.54077277056954 -23.77702628264379, 36.85121902935264 -23.639600932941576, 37.74263821041056 -23.24499610449772 M36.23032651178644 -23.914451632345997 C36.56914521333928 -23.764466643868232, 36.907963914892136 -23.614481655390463, 37.74263821041056 -23.24499610449772 M37.74263821041056 -23.24499610449772 C38.236876469318574 -22.987152321400124, 38.731114728226586 -22.729308538302526, 39.2089505395184 -22.480021901620034 M37.74263821041056 -23.24499610449772 C38.25193427129878 -22.979296675752032, 38.761230332187004 -22.713597247006344, 39.2089505395184 -22.480021901620034 M39.2089505395184 -22.480021901620034 C39.68958284699662 -22.188659772317777, 40.17021515447485 -21.897297643015524, 40.62323810722664 -21.62267246679901 M39.2089505395184 -22.480021901620034 C39.535267737770226 -22.282206498387062, 39.86158493602206 -22.084391095154086, 40.62323810722664 -21.62267246679901 M40.62323810722664 -21.62267246679901 C41.027021389463336 -21.341010728607262, 41.43080467170003 -21.05934899041551, 41.97968930255584 -20.67647083276321 M40.62323810722664 -21.62267246679901 C41.04506314758193 -21.32842557915885, 41.466888187937215 -21.034178691518694, 41.97968930255584 -20.67647083276321 M41.97968930255584 -20.67647083276321 C42.405400989431584 -20.33697709114357, 42.83111267630732 -19.997483349523925, 43.272730176586506 -19.64530514498651 M41.97968930255584 -20.67647083276321 C42.4297501254819 -20.317559303101163, 42.879810948407965 -19.95864777343911, 43.272730176586506 -19.64530514498651 M43.272730176586506 -19.64530514498651 C43.63284921219928 -19.31825456507054, 43.99296824781206 -18.99120398515457, 44.49704734701088 -18.533412684464313 M43.272730176586506 -19.64530514498651 C43.692949904578654 -19.26367270642877, 44.11316963257081 -18.882040267871034, 44.49704734701088 -18.533412684464313 M44.49704734701088 -18.533412684464313 C44.87742943457305 -18.14063694910618, 45.25781152213523 -17.74786121374805, 45.64760983196044 -17.345362455817106 M44.49704734701088 -18.533412684464313 C44.92467064054813 -18.09185652536177, 45.35229393408538 -17.65030036625923, 45.64760983196044 -17.345362455817106 M45.64760983196044 -17.345362455817106 C45.99401370570541 -16.93845675477746, 46.34041757945038 -16.531551053737815, 46.71968972338968 -16.086036412270357 M45.64760983196044 -17.345362455817106 C46.04451761027319 -16.879131994718563, 46.44142538858595 -16.41290153362002, 46.71968972338968 -16.086036412270357 M46.71968972338968 -16.086036412270357 C47.104076319225285 -15.57099339218992, 47.488462915060886 -15.05595037210948, 47.70888161506427 -14.76060939466161 M46.71968972338968 -16.086036412270357 C46.970159076473905 -15.750430297364971, 47.22062842955813 -15.414824182459588, 47.70888161506427 -14.76060939466161 M47.70888161506427 -14.76060939466161 C48.03316744617898 -14.262419275131004, 48.35745327729369 -13.764229155600397, 48.61112070532037 -13.374527866909407 M47.70888161506427 -14.76060939466161 C48.05225030683391 -14.233102876699453, 48.39561899860355 -13.705596358737296, 48.61112070532037 -13.374527866909407 M48.61112070532037 -13.374527866909407 C48.90194982205946 -12.858131320497677, 49.19277893879855 -12.341734774085946, 49.422699500206406 -11.93348753532484 M48.61112070532037 -13.374527866909407 C48.922988455399995 -12.820775096608912, 49.23485620547962 -12.267022326308416, 49.422699500206406 -11.93348753532484 M49.422699500206406 -11.93348753532484 C49.57824817940419 -11.610487374762071, 49.73379685860198 -11.287487214199302, 50.14028304837108 -10.443409943732584 M49.422699500206406 -11.93348753532484 C49.62811408906722 -11.506939746387244, 49.83352867792804 -11.080391957449649, 50.14028304837108 -10.443409943732584 M50.14028304837108 -10.443409943732584 C50.292385280870604 -10.067714488762148, 50.44448751337013 -9.69201903379171, 50.760922645093814 -8.910418140577123 M50.14028304837108 -10.443409943732584 C50.36437747182181 -9.889892385238337, 50.58847189527255 -9.33637482674409, 50.760922645093814 -8.910418140577123 M50.760922645093814 -8.910418140577123 C50.918990585299646 -8.434342689383286, 51.07705852550548 -7.958267238189448, 51.2820679491449 -7.340811518003323 M50.760922645093814 -8.910418140577123 C50.88192176092464 -8.545988082285692, 51.002920876755475 -8.18155802399426, 51.2820679491449 -7.340811518003323 M51.2820679491449 -7.340811518003323 C51.4117944229148 -6.8461082497093155, 51.5415208966847 -6.351404981415307, 51.70157746268467 -5.741039926302914 M51.2820679491449 -7.340811518003323 C51.384883460083856 -6.948731414268771, 51.487698971022816 -6.556651310534218, 51.70157746268467 -5.741039926302914 M51.70157746268467 -5.741039926302914 C51.79400596328648 -5.266439110483146, 51.886434463888286 -4.791838294663379, 52.01772733113747 -4.117677170096137 M51.70157746268467 -5.741039926302914 C51.821409826115556 -5.125726066664287, 51.94124218954644 -4.51041220702566, 52.01772733113747 -4.117677170096137 M52.01772733113747 -4.117677170096137 C52.06528214764628 -3.748851404014516, 52.112836964155086 -3.380025637932896, 52.22921842687991 -2.4773939951584394 M52.01772733113747 -4.117677170096137 C52.06550107462836 -3.7471534495735095, 52.11327481811925 -3.376629729050882, 52.22921842687991 -2.4773939951584394 M52.22921842687991 -2.4773939951584394 C52.26440940919866 -1.9292660398941788, 52.299600391517416 -1.381138084629918, 52.33518168763487 -0.8269306768952902 M52.22921842687991 -2.4773939951584394 C52.2665905023346 -1.8952937537552215, 52.3039625777893 -1.3131935123520038, 52.33518168763487 -0.8269306768952902 M52.33518168763487 -0.8269306768952902 C52.33518168763487 -0.37113383680270484, 52.33518168763487 0.08466300328988052, 52.33518168763487 0.826930676895284 M52.33518168763487 -0.8269306768952902 C52.33518168763487 -0.2854166236318989, 52.33518168763487 0.2560974296314924, 52.33518168763487 0.826930676895284 M52.33518168763487 0.826930676895284 C52.30879781794685 1.2378807439625656, 52.28241394825882 1.648830811029847, 52.22921842687991 2.4773939951584216 M52.33518168763487 0.826930676895284 C52.31370064655862 1.1615152308420922, 52.29221960548238 1.4960997847889002, 52.22921842687991 2.4773939951584216 M52.22921842687991 2.4773939951584216 C52.159878200590114 3.0151830974856426, 52.09053797430032 3.5529721998128636, 52.01772733113748 4.117677170096119 M52.22921842687991 2.4773939951584216 C52.1532824826033 3.066338183719539, 52.077346538326694 3.6552823722806567, 52.01772733113748 4.117677170096119 M52.01772733113748 4.117677170096119 C51.89215558711141 4.762461536072463, 51.76658384308534 5.407245902048806, 51.70157746268467 5.741039926302909 M52.01772733113748 4.117677170096119 C51.93359672025585 4.5496700759623625, 51.84946610937423 4.981662981828605, 51.70157746268467 5.741039926302909 M51.70157746268467 5.741039926302909 C51.57151790204465 6.237013399193466, 51.441458341404626 6.732986872084023, 51.28206794914491 7.340811518003306 M51.70157746268467 5.741039926302909 C51.55677525026799 6.29323351992355, 51.41197303785131 6.845427113544193, 51.28206794914491 7.340811518003306 M51.28206794914491 7.340811518003306 C51.101920988765876 7.883385460144701, 50.92177402838684 8.425959402286097, 50.76092264509383 8.910418140577105 M51.28206794914491 7.340811518003306 C51.11709313211351 7.8376893817343785, 50.95211831508212 8.33456724546545, 50.76092264509383 8.910418140577105 M50.76092264509383 8.910418140577105 C50.56205712379203 9.401619822995842, 50.36319160249023 9.89282150541458, 50.14028304837109 10.443409943732577 M50.76092264509383 8.910418140577105 C50.52308778911173 9.497874833077022, 50.28525293312963 10.085331525576937, 50.14028304837109 10.443409943732577 M50.14028304837109 10.443409943732577 C49.87299454699528 10.998440235897203, 49.60570604561946 11.553470528061828, 49.422699500206406 11.933487535324835 M50.14028304837109 10.443409943732577 C49.89917071518453 10.944084862571932, 49.65805838199798 11.444759781411289, 49.422699500206406 11.933487535324835 M49.422699500206406 11.933487535324835 C49.10556006452722 12.496600717223405, 48.78842062884803 13.059713899121975, 48.611120705320374 13.374527866909402 M49.422699500206406 11.933487535324835 C49.15401366324221 12.410566446246026, 48.885327826278015 12.887645357167218, 48.611120705320374 13.374527866909402 M48.611120705320374 13.374527866909402 C48.28610856806818 13.873833787707692, 47.961096430815985 14.373139708505981, 47.708881615064286 14.760609394661596 M48.611120705320374 13.374527866909402 C48.31737270058237 13.82580368457082, 48.02362469584437 14.277079502232237, 47.708881615064286 14.760609394661596 M47.708881615064286 14.760609394661596 C47.419694332740555 15.148094007471995, 47.13050705041683 15.535578620282394, 46.71968972338968 16.086036412270353 M47.708881615064286 14.760609394661596 C47.49937820758406 15.041324874532037, 47.28987480010384 15.322040354402477, 46.71968972338968 16.086036412270353 M46.71968972338968 16.086036412270353 C46.34330406067553 16.528160428645318, 45.96691839796138 16.970284445020287, 45.64760983196045 17.345362455817092 M46.71968972338968 16.086036412270353 C46.427928364925414 16.428755905614082, 46.13616700646115 16.77147539895781, 45.64760983196045 17.345362455817092 M45.64760983196045 17.345362455817092 C45.217478550628215 17.78950831822758, 44.78734726929598 18.233654180638066, 44.49704734701088 18.533412684464306 M45.64760983196045 17.345362455817092 C45.32959761307192 17.67373618110824, 45.011585394183385 18.002109906399387, 44.49704734701088 18.533412684464306 M44.49704734701088 18.533412684464306 C44.2218550788165 18.783335021250018, 43.94666281062213 19.03325735803573, 43.272730176586535 19.64530514498649 M44.49704734701088 18.533412684464306 C44.09533338257146 18.898238678199128, 43.693619418132045 19.26306467193395, 43.272730176586535 19.64530514498649 M43.272730176586535 19.64530514498649 C42.85253973462728 19.980395840711733, 42.43234929266802 20.31548653643698, 41.97968930255585 20.676470832763208 M43.272730176586535 19.64530514498649 C42.996670611960354 19.86545530152233, 42.720611047334174 20.085605458058172, 41.97968930255585 20.676470832763208 M41.97968930255585 20.676470832763208 C41.683147637305844 20.883325461359817, 41.38660597205584 21.09018008995643, 40.623238107226655 21.622672466799003 M41.97968930255585 20.676470832763208 C41.52482244678627 20.99376626047924, 41.069955591016694 21.31106168819527, 40.623238107226655 21.622672466799003 M40.623238107226655 21.622672466799003 C40.077013943833606 21.953796764617355, 39.53078978044056 22.284921062435707, 39.208950539518405 22.48002190162003 M40.623238107226655 21.622672466799003 C40.315810910877616 21.80903663986853, 40.00838371452858 21.99540081293806, 39.208950539518405 22.48002190162003 M39.208950539518405 22.48002190162003 C38.71424796423969 22.738107918270813, 38.21954538896098 22.996193934921596, 37.74263821041057 23.244996104497716 M39.208950539518405 22.48002190162003 C38.72919763572346 22.730308684233453, 38.249444731928506 22.98059546684688, 37.74263821041057 23.244996104497716 M37.74263821041057 23.244996104497716 C37.31215319875563 23.4355590492732, 36.8816681871007 23.626121994048685, 36.23032651178645 23.914451632345994 M37.74263821041057 23.244996104497716 C37.342059354039094 23.42232048146379, 36.94148049766763 23.59964485842986, 36.23032651178645 23.914451632345994 M36.23032651178645 23.914451632345994 C35.892274821330766 24.038857779349257, 35.55422313087508 24.163263926352517, 34.67822985680553 24.485637548803172 M36.23032651178645 23.914451632345994 C35.81717760201685 24.066494250247864, 35.40402869224725 24.218536868149734, 34.67822985680553 24.485637548803172 M34.67822985680553 24.485637548803172 C34.23492524361191 24.61720803104564, 33.791620630418294 24.74877851328811, 33.09272614354681 24.95620672841954 M34.67822985680553 24.485637548803172 C34.13791614249404 24.64599982304626, 33.59760242818256 24.806362097289348, 33.09272614354681 24.95620672841954 M33.09272614354681 24.95620672841954 C32.594245875923946 25.069981596616717, 32.095765608301086 25.18375646481389, 31.480330546857545 25.324225501499278 M33.09272614354681 24.95620672841954 C32.615517151470556 25.06512656678125, 32.1383081593943 25.174046405142953, 31.480330546857545 25.324225501499278 M31.480330546857545 25.324225501499278 C30.934926695652507 25.412402166492072, 30.389522844447473 25.500578831484866, 29.84766874610233 25.588181599964017 M31.480330546857545 25.324225501499278 C30.914191327253686 25.41575450004961, 30.348052107649828 25.507283498599943, 29.84766874610233 25.588181599964017 M29.84766874610233 25.588181599964017 C29.480240132892597 25.6236269963828, 29.112811519682865 25.659072392801583, 28.201449698825282 25.746990371586765 M29.84766874610233 25.588181599964017 C29.427493524667483 25.628715398241198, 29.00731830323264 25.669249196518383, 28.201449698825282 25.746990371586765 M28.201449698825282 25.746990371586765 C27.64931602336056 25.764696223895914, 27.09718234789584 25.782402076205067, 26.548438072204593 25.799999237060547 M28.201449698825282 25.746990371586765 C27.804176488714436 25.759730150189625, 27.406903278603593 25.77246992879249, 26.548438072204593 25.799999237060547 M26.548438072204593 25.799999237060547 C26.548438072204593 25.799999237060547, 26.54843807220459 25.799999237060547, 26.54843807220459 25.799999237060547 M26.548438072204593 25.799999237060547 C26.548438072204593 25.799999237060547, 26.54843807220459 25.799999237060547, 26.54843807220459 25.799999237060547 M26.54843807220459 25.799999237060547 C7.351352197085848 25.799999237060547, -11.845733678032893 25.799999237060547, -26.548438072204586 25.799999237060547 M26.54843807220459 25.799999237060547 C15.7288815650563 25.799999237060547, 4.90932505790801 25.799999237060547, -26.548438072204586 25.799999237060547 M-26.548438072204586 25.799999237060547 C-27.140659385860655 25.781007852220455, -27.732880699516723 25.762016467380363, -28.20144969882527 25.746990371586765 M-26.548438072204586 25.799999237060547 C-27.004876322500383 25.78536215077672, -27.461314572796184 25.77072506449289, -28.20144969882527 25.746990371586765 M-28.20144969882527 25.746990371586765 C-28.74471181040956 25.69458252905051, -29.287973921993846 25.642174686514252, -29.84766874610232 25.588181599964017 M-28.20144969882527 25.746990371586765 C-28.6733838367382 25.701463452886145, -29.14531797465113 25.655936534185525, -29.84766874610232 25.588181599964017 M-29.84766874610232 25.588181599964017 C-30.3099157278895 25.513449092727548, -30.77216270967668 25.43871658549108, -31.480330546857534 25.324225501499278 M-29.84766874610232 25.588181599964017 C-30.215580953431722 25.52870040748478, -30.58349316076113 25.46921921500554, -31.480330546857534 25.324225501499278 M-31.480330546857534 25.324225501499278 C-31.81477676284421 25.247890335165838, -32.14922297883089 25.171555168832402, -33.092726143546784 24.956206728419545 M-31.480330546857534 25.324225501499278 C-32.02614261875968 25.199647457844247, -32.571954690661826 25.075069414189215, -33.092726143546784 24.956206728419545 M-33.092726143546784 24.956206728419545 C-33.603553754091806 24.804595774998628, -34.11438136463683 24.65298482157771, -34.6782298568055 24.485637548803183 M-33.092726143546784 24.956206728419545 C-33.449979002852736 24.850175955036065, -33.80723186215868 24.744145181652588, -34.6782298568055 24.485637548803183 M-34.6782298568055 24.485637548803183 C-35.10802860597402 24.327467636093086, -35.53782735514254 24.169297723382986, -36.230326511786444 23.914451632345997 M-34.6782298568055 24.485637548803183 C-35.081971349278646 24.337056947427623, -35.48571284175179 24.18847634605206, -36.230326511786444 23.914451632345997 M-36.230326511786444 23.914451632345997 C-36.67783977264792 23.716350786771844, -37.1253530335094 23.518249941197688, -37.74263821041056 23.244996104497723 M-36.230326511786444 23.914451632345997 C-36.574666453985095 23.76202255441612, -36.91900639618374 23.609593476486243, -37.74263821041056 23.244996104497723 M-37.74263821041056 23.244996104497723 C-38.21074618173484 23.000784475695315, -38.67885415305911 22.756572846892904, -39.2089505395184 22.480021901620038 M-37.74263821041056 23.244996104497723 C-38.307210854217914 22.950458917849467, -38.871783498025266 22.655921731201207, -39.2089505395184 22.480021901620038 M-39.2089505395184 22.480021901620038 C-39.764458572848405 22.143269667287825, -40.31996660617841 21.806517432955612, -40.623238107226626 21.622672466799017 M-39.2089505395184 22.480021901620038 C-39.70843501958559 22.177231474506684, -40.20791949965279 21.87444104739333, -40.623238107226626 21.622672466799017 M-40.623238107226626 21.622672466799017 C-41.029352765945795 21.339384461296756, -41.435467424664964 21.056096455794496, -41.97968930255584 20.67647083276321 M-40.623238107226626 21.622672466799017 C-41.129028343632235 21.26985509318891, -41.634818580037845 20.917037719578804, -41.97968930255584 20.67647083276321 M-41.97968930255584 20.67647083276321 C-42.307505683302715 20.415045992677836, -42.635322064049596 20.153621152592457, -43.272730176586506 19.645305144986512 M-41.97968930255584 20.67647083276321 C-42.41713673100257 20.3276181495419, -42.85458415944931 19.978765466320592, -43.272730176586506 19.645305144986512 M-43.272730176586506 19.645305144986512 C-43.696106728787306 19.26080576220747, -44.119483280988106 18.876306379428428, -44.49704734701086 18.533412684464324 M-43.272730176586506 19.645305144986512 C-43.66726236054753 19.287001454262672, -44.06179454450856 18.92869776353883, -44.49704734701086 18.533412684464324 M-44.49704734701086 18.533412684464324 C-44.90622399035403 18.11090420618532, -45.315400633697195 17.688395727906318, -45.64760983196044 17.3453624558171 M-44.49704734701086 18.533412684464324 C-44.83557384127528 18.183856285594246, -45.17410033553969 17.834299886724168, -45.64760983196044 17.3453624558171 M-45.64760983196044 17.3453624558171 C-46.04321996936337 16.88065627756909, -46.438830106766304 16.415950099321087, -46.71968972338967 16.08603641227036 M-45.64760983196044 17.3453624558171 C-45.86417984649821 17.0909669935581, -46.08074986103599 16.8365715312991, -46.71968972338967 16.08603641227036 M-46.71968972338967 16.08603641227036 C-46.919818480203425 15.817882110244742, -47.119947237017186 15.549727808219123, -47.70888161506427 14.760609394661614 M-46.71968972338967 16.08603641227036 C-46.94281291029986 15.787071668751205, -47.16593609721004 15.48810692523205, -47.70888161506427 14.760609394661614 M-47.70888161506427 14.760609394661614 C-48.02887662128741 14.26901113441228, -48.34887162751054 13.777412874162945, -48.61112070532036 13.374527866909418 M-47.70888161506427 14.760609394661614 C-47.891934880890894 14.479390421667462, -48.074988146717516 14.198171448673312, -48.61112070532036 13.374527866909418 M-48.61112070532036 13.374527866909418 C-48.77579212633217 13.082137084113421, -48.940463547343974 12.789746301317425, -49.4226995002064 11.933487535324842 M-48.61112070532036 13.374527866909418 C-48.810389366051 13.020706181642227, -49.009658026781636 12.666884496375037, -49.4226995002064 11.933487535324842 M-49.4226995002064 11.933487535324842 C-49.57060981008524 11.626348612087787, -49.718520119964076 11.319209688850732, -50.14028304837108 10.443409943732586 M-49.4226995002064 11.933487535324842 C-49.695677483484744 11.366642912254193, -49.96865546676309 10.799798289183544, -50.14028304837108 10.443409943732586 M-50.14028304837108 10.443409943732586 C-50.34473206002294 9.938416932199743, -50.54918107167481 9.4334239206669, -50.760922645093814 8.910418140577127 M-50.14028304837108 10.443409943732586 C-50.30600975141182 10.034061783114122, -50.47173645445256 9.624713622495658, -50.760922645093814 8.910418140577127 M-50.760922645093814 8.910418140577127 C-50.88747941336351 8.529249318631498, -51.0140361816332 8.14808049668587, -51.2820679491449 7.340811518003316 M-50.760922645093814 8.910418140577127 C-50.945747748128795 8.353754378116824, -51.130572851163784 7.797090615656522, -51.2820679491449 7.340811518003316 M-51.2820679491449 7.340811518003316 C-51.44886829382117 6.704729512026023, -51.615668638497446 6.068647506048729, -51.70157746268467 5.741039926302918 M-51.2820679491449 7.340811518003316 C-51.44758166745423 6.709635975990575, -51.61309538576356 6.078460433977834, -51.70157746268467 5.741039926302918 M-51.70157746268467 5.741039926302918 C-51.79583226960785 5.2570614135128855, -51.89008707653103 4.773082900722853, -52.01772733113747 4.117677170096139 M-51.70157746268467 5.741039926302918 C-51.77625555962568 5.35758368173218, -51.8509336565667 4.974127437161442, -52.01772733113747 4.117677170096139 M-52.01772733113747 4.117677170096139 C-52.08445305106851 3.6001656627947902, -52.15117877099954 3.082654155493441, -52.22921842687991 2.477393995158454 M-52.01772733113747 4.117677170096139 C-52.06873052381679 3.722106479394962, -52.1197337164961 3.3265357886937847, -52.22921842687991 2.477393995158454 M-52.22921842687991 2.477393995158454 C-52.2707011776904 1.8312666670113726, -52.31218392850088 1.185139338864291, -52.33518168763487 0.8269306768952934 M-52.22921842687991 2.477393995158454 C-52.26954568476093 1.8492644020848779, -52.30987294264195 1.2211348090113017, -52.33518168763487 0.8269306768952934 M-52.33518168763487 0.8269306768952934 C-52.33518168763487 0.26002979193503695, -52.33518168763487 -0.30687109302521953, -52.33518168763487 -0.8269306768952809 M-52.33518168763487 0.8269306768952934 C-52.33518168763487 0.45638110900758494, -52.33518168763487 0.08583154111987645, -52.33518168763487 -0.8269306768952809 M-52.33518168763487 -0.8269306768952809 C-52.309658546505204 -1.2244742018985766, -52.28413540537554 -1.6220177269018723, -52.22921842687991 -2.4773939951584185 M-52.33518168763487 -0.8269306768952809 C-52.30400516880765 -1.312530122862312, -52.272828649980426 -1.798129568829343, -52.22921842687991 -2.4773939951584185 M-52.22921842687991 -2.4773939951584185 C-52.18548776037821 -2.8165604089487557, -52.141757093876514 -3.1557268227390924, -52.01772733113748 -4.117677170096128 M-52.22921842687991 -2.4773939951584185 C-52.169093074636955 -2.943714354061042, -52.108967722394006 -3.4100347129636663, -52.01772733113748 -4.117677170096128 M-52.01772733113748 -4.117677170096128 C-51.94181984524454 -4.507446067103535, -51.8659123593516 -4.897214964110941, -51.70157746268467 -5.741039926302906 M-52.01772733113748 -4.117677170096128 C-51.906708540998544 -4.687735193629936, -51.79568975085961 -5.257793217163745, -51.70157746268467 -5.741039926302906 M-51.70157746268467 -5.741039926302906 C-51.606997818162064 -6.1017131019448225, -51.51241817363947 -6.462386277586739, -51.28206794914491 -7.340811518003303 M-51.70157746268467 -5.741039926302906 C-51.55534687923002 -6.298680517751254, -51.40911629577537 -6.856321109199603, -51.28206794914491 -7.340811518003303 M-51.28206794914491 -7.340811518003303 C-51.16429320717968 -7.695530275945743, -51.04651846521446 -8.050249033888184, -50.76092264509383 -8.910418140577093 M-51.28206794914491 -7.340811518003303 C-51.17713430906364 -7.65685492302302, -51.07220066898236 -7.972898328042737, -50.76092264509383 -8.910418140577093 M-50.76092264509383 -8.910418140577093 C-50.61051786112354 -9.28192086486239, -50.460113077153245 -9.653423589147685, -50.14028304837109 -10.443409943732574 M-50.76092264509383 -8.910418140577093 C-50.586595271170246 -9.341010124558837, -50.412267897246664 -9.771602108540582, -50.14028304837109 -10.443409943732574 M-50.14028304837109 -10.443409943732574 C-49.93585262707908 -10.86791408765573, -49.73142220578707 -11.292418231578889, -49.422699500206406 -11.933487535324831 M-50.14028304837109 -10.443409943732574 C-49.85372495091397 -11.038453964463333, -49.56716685345686 -11.633497985194094, -49.422699500206406 -11.933487535324831 M-49.422699500206406 -11.933487535324831 C-49.21663343745608 -12.299378696189567, -49.01056737470576 -12.665269857054305, -48.61112070532037 -13.374527866909409 M-49.422699500206406 -11.933487535324831 C-49.110282916757484 -12.488214814847915, -48.79786633330856 -13.042942094370998, -48.61112070532037 -13.374527866909409 M-48.61112070532037 -13.374527866909409 C-48.412996519523915 -13.67889982008588, -48.21487233372746 -13.983271773262352, -47.70888161506428 -14.760609394661605 M-48.61112070532037 -13.374527866909409 C-48.3900525830648 -13.714147867796687, -48.16898446080923 -14.053767868683963, -47.70888161506428 -14.760609394661605 M-47.70888161506428 -14.760609394661605 C-47.31461380108998 -15.28889234685039, -46.920345987115695 -15.817175299039176, -46.71968972338968 -16.086036412270353 M-47.70888161506428 -14.760609394661605 C-47.34983294152747 -15.241701907193864, -46.990784267990655 -15.722794419726123, -46.71968972338968 -16.086036412270353 M-46.71968972338968 -16.086036412270353 C-46.36552317826766 -16.502060588817994, -46.011356633145645 -16.918084765365634, -45.64760983196045 -17.345362455817092 M-46.71968972338968 -16.086036412270353 C-46.40553463745385 -16.455060852141376, -46.09137955151801 -16.824085292012402, -45.64760983196045 -17.345362455817092 M-45.64760983196045 -17.345362455817092 C-45.348711414185935 -17.653999612185764, -45.04981299641141 -17.962636768554436, -44.49704734701089 -18.5334126844643 M-45.64760983196045 -17.345362455817092 C-45.26396130982774 -17.74151105304857, -44.880312787695026 -18.137659650280046, -44.49704734701089 -18.5334126844643 M-44.49704734701089 -18.5334126844643 C-44.12008509901955 -18.875759824215507, -43.743122851028204 -19.21810696396672, -43.272730176586535 -19.645305144986487 M-44.49704734701089 -18.5334126844643 C-44.1130793563081 -18.882122254384253, -43.7291113656053 -19.230831824304207, -43.272730176586535 -19.645305144986487 M-43.272730176586535 -19.645305144986487 C-42.89926008110247 -19.943137607678402, -42.5257899856184 -20.240970070370317, -41.97968930255585 -20.676470832763204 M-43.272730176586535 -19.645305144986487 C-42.98032162350304 -19.87849318475218, -42.68791307041955 -20.111681224517874, -41.97968930255585 -20.676470832763204 M-41.97968930255585 -20.676470832763204 C-41.6009891800682 -20.940635644546507, -41.22228905758055 -21.204800456329814, -40.62323810722666 -21.622672466799 M-41.97968930255585 -20.676470832763204 C-41.6829102777765 -20.883491033092355, -41.38613125299716 -21.090511233421505, -40.62323810722666 -21.622672466799 M-40.62323810722666 -21.622672466799 C-40.20864926201024 -21.873998661163682, -39.79406041679382 -22.12532485552837, -39.208950539518405 -22.480021901620027 M-40.62323810722666 -21.622672466799 C-40.30511020647722 -21.81552346976037, -39.98698230572777 -22.00837447272174, -39.208950539518405 -22.480021901620027 M-39.208950539518405 -22.480021901620027 C-38.82489874538499 -22.680381476622514, -38.44084695125159 -22.880741051625, -37.742638210410576 -23.244996104497716 M-39.208950539518405 -22.480021901620027 C-38.76277894605303 -22.71278933614437, -38.31660735258767 -22.945556770668706, -37.742638210410576 -23.244996104497716 M-37.742638210410576 -23.244996104497716 C-37.289570651415005 -23.445555673093434, -36.836503092419434 -23.64611524168915, -36.23032651178645 -23.91445163234599 M-37.742638210410576 -23.244996104497716 C-37.35581397344351 -23.416231719469746, -36.96898973647644 -23.587467334441772, -36.23032651178645 -23.91445163234599 M-36.23032651178645 -23.91445163234599 C-35.75417096260271 -24.089681275979256, -35.27801541341896 -24.26491091961252, -34.67822985680553 -24.485637548803172 M-36.23032651178645 -23.91445163234599 C-35.70437706405632 -24.108005890934077, -35.17842761632619 -24.301560149522167, -34.67822985680553 -24.485637548803172 M-34.67822985680553 -24.485637548803172 C-34.0736008970787 -24.665088250287923, -33.46897193735186 -24.844538951772673, -33.09272614354682 -24.956206728419538 M-34.67822985680553 -24.485637548803172 C-34.208223411045644 -24.62513299479053, -33.73821696528575 -24.764628440777887, -33.09272614354682 -24.956206728419538 M-33.09272614354682 -24.956206728419538 C-32.466699485836344 -25.09909322783623, -31.840672828125868 -25.24197972725292, -31.480330546857545 -25.324225501499278 M-33.09272614354682 -24.956206728419538 C-32.55249283200185 -25.07951145642786, -32.01225952045689 -25.202816184436177, -31.480330546857545 -25.324225501499278 M-31.480330546857545 -25.324225501499278 C-30.98301042111829 -25.404628362653625, -30.485690295379037 -25.485031223807972, -29.84766874610233 -25.588181599964017 M-31.480330546857545 -25.324225501499278 C-31.09283749021208 -25.38687237384418, -30.705344433566616 -25.449519246189087, -29.84766874610233 -25.588181599964017 M-29.84766874610233 -25.588181599964017 C-29.495410668725 -25.622163513036288, -29.14315259134767 -25.65614542610856, -28.201449698825286 -25.746990371586765 M-29.84766874610233 -25.588181599964017 C-29.27285697892986 -25.643632999830853, -28.69804521175739 -25.69908439969769, -28.201449698825286 -25.746990371586765 M-28.201449698825286 -25.746990371586765 C-27.591573267076697 -25.766547921700482, -26.98169683532811 -25.7861054718142, -26.548438072204597 -25.799999237060547 M-28.201449698825286 -25.746990371586765 C-27.56882673488011 -25.767277358714587, -26.93620377093493 -25.78756434584241, -26.548438072204597 -25.799999237060547 M-26.548438072204597 -25.799999237060547 C-26.548438072204593 -25.799999237060547, -26.548438072204593 -25.799999237060547, -26.54843807220459 -25.799999237060547 M-26.548438072204597 -25.799999237060547 C-26.548438072204593 -25.799999237060547, -26.548438072204593 -25.799999237060547, -26.54843807220459 -25.799999237060547" stroke="#0E2C4A" stroke-width="2" fill="none" stroke-dasharray="0 0" style="fill:#1F4870 !important;stroke:#0E2C4A !important;stroke-width:2px !important"></path></g><g class="label" style="color:#ffffff !important" transform="translate(0, -18.299999237060547)"><rect></rect><g><rect class="background" style="stroke: none"></rect><text y="-10.1" style="fill:#404040 !important"><tspan class="text-outer-tspan row" x="0" y="-0.1em" dy="1.1em"><tspan font-style="normal" class="text-inner-tspan" font-weight="normal">diagramkit</tspan></tspan><tspan class="text-outer-tspan row" x="0" y="1em" dy="1.1em"><tspan font-style="normal" class="text-inner-tspan" font-weight="normal">Principles</tspan></tspan></text></g></g></g></g></g></g><defs><filter id="g0d43979b-e5e8-4320-98da-ecf2f8ff716c-dark-drop-shadow" height="130%" width="130%"><feDropShadow dx="4" dy="4" stdDeviation="0" flood-opacity="0.06" flood-color="#000000"></feDropShadow></filter></defs><defs><filter id="g0d43979b-e5e8-4320-98da-ecf2f8ff716c-dark-drop-shadow-small" height="150%" width="150%"><feDropShadow dx="2" dy="2" stdDeviation="0" flood-opacity="0.06" flood-color="#000000"></feDropShadow></filter></defs><linearGradient id="g0d43979b-e5e8-4320-98da-ecf2f8ff716c-dark-gradient" gradientUnits="objectBoundingBox" x1="0%" y1="0%" x2="100%" y2="0%"><stop offset="0%" stop-color="#555555" stop-opacity="1"></stop><stop offset="100%" stop-color="#555555" stop-opacity="1"></stop></linearGradient></svg>