<svg id="g14da9879-59f3-4542-b75e-05d1f917badc-light" width="100%" xmlns="http://www.w3.org/2000/svg" xmlns:xlink="http://www.w3.org/1999/xlink" class="flowchart" style="max-width: 733.6234741210938px;" viewBox="0 0 733.6234741210938 820.4000244140625" role="graphics-document document" aria-roledescription="flowchart-v2"><style>#g14da9879-59f3-4542-b75e-05d1f917badc-light{font-family:"trebuchet ms",verdana,arial,sans-serif;font-size:16px;fill:#333;}@keyframes edge-animation-frame{from{stroke-dashoffset:0;}}@keyframes dash{to{stroke-dashoffset:0;}}#g14da9879-59f3-4542-b75e-05d1f917badc-light .edge-animation-slow{stroke-dasharray:9,5!important;stroke-dashoffset:900;animation:dash 50s linear infinite;stroke-linecap:round;}#g14da9879-59f3-4542-b75e-05d1f917badc-light .edge-animation-fast{stroke-dasharray:9,5!important;stroke-dashoffset:900;animation:dash 20s linear infinite;stroke-linecap:round;}#g14da9879-59f3-4542-b75e-05d1f917badc-light .error-icon{fill:#552222;}#g14da9879-59f3-4542-b75e-05d1f917badc-light .error-text{fill:#552222;stroke:#552222;}#g14da9879-59f3-4542-b75e-05d1f917badc-light .edge-thickness-normal{stroke-width:1px;}#g14da9879-59f3-4542-b75e-05d1f917badc-light .edge-thickness-thick{stroke-width:3.5px;}#g14da9879-59f3-4542-b75e-05d1f917badc-light .edge-pattern-solid{stroke-dasharray:0;}#g14da9879-59f3-4542-b75e-05d1f917badc-light .edge-thickness-invisible{stroke-width:0;fill:none;}#g14da9879-59f3-4542-b75e-05d1f917badc-light .edge-pattern-dashed{stroke-dasharray:3;}#g14da9879-59f3-4542-b75e-05d1f917badc-light .edge-pattern-dotted{stroke-dasharray:2;}#g14da9879-59f3-4542-b75e-05d1f917badc-light .marker{fill:#333333;stroke:#333333;}#g14da9879-59f3-4542-b75e-05d1f917badc-light .marker.cross{stroke:#333333;}#g14da9879-59f3-4542-b75e-05d1f917badc-light svg{font-family:"trebuchet ms",verdana,arial,sans-serif;font-size:16px;}#g14da9879-59f3-4542-b75e-05d1f917badc-light p{margin:0;}#g14da9879-59f3-4542-b75e-05d1f917badc-light .label{font-family:"trebuchet ms",verdana,arial,sans-serif;color:#333;}#g14da9879-59f3-4542-b75e-05d1f917badc-light .cluster-label text{fill:#333;}#g14da9879-59f3-4542-b75e-05d1f917badc-light .cluster-label span{color:#333;}#g14da9879-59f3-4542-b75e-05d1f917badc-light .cluster-label span p{background-color:transparent;}#g14da9879-59f3-4542-b75e-05d1f917badc-light .label text,#g14da9879-59f3-4542-b75e-05d1f917badc-light span{fill:#333;color:#333;}#g14da9879-59f3-4542-b75e-05d1f917badc-light .node rect,#g14da9879-59f3-4542-b75e-05d1f917badc-light .node circle,#g14da9879-59f3-4542-b75e-05d1f917badc-light .node ellipse,#g14da9879-59f3-4542-b75e-05d1f917badc-light .node polygon,#g14da9879-59f3-4542-b75e-05d1f917badc-light .node path{fill:#ECECFF;stroke:#9370DB;stroke-width:1px;}#g14da9879-59f3-4542-b75e-05d1f917badc-light .rough-node .label text,#g14da9879-59f3-4542-b75e-05d1f917badc-light .node .label text,#g14da9879-59f3-4542-b75e-05d1f917badc-light .image-shape .label,#g14da9879-59f3-4542-b75e-05d1f917badc-light .icon-shape .label{text-anchor:middle;}#g14da9879-59f3-4542-b75e-05d1f917badc-light .node .katex path{fill:#000;stroke:#000;stroke-width:1px;}#g14da9879-59f3-4542-b75e-05d1f917badc-light .rough-node .label,#g14da9879-59f3-4542-b75e-05d1f917badc-light .node .label,#g14da9879-59f3-4542-b75e-05d1f917badc-light .image-shape .label,#g14da9879-59f3-4542-b75e-05d1f917badc-light .icon-shape .label{text-align:center;}#g14da9879-59f3-4542-b75e-05d1f917badc-light .node.clickable{cursor:pointer;}#g14da9879-59f3-4542-b75e-05d1f917badc-light .root .anchor path{fill:#333333!important;stroke-width:0;stroke:#333333;}#g14da9879-59f3-4542-b75e-05d1f917badc-light .arrowheadPath{fill:#333333;}#g14da9879-59f3-4542-b75e-05d1f917badc-light .edgePath .path{stroke:#333333;stroke-width:1px;}#g14da9879-59f3-4542-b75e-05d1f917badc-light .flowchart-link{stroke:#333333;fill:none;}#g14da9879-59f3-4542-b75e-05d1f917badc-light .edgeLabel{background-color:rgba(232,232,232, 0.8);text-align:center;}#g14da9879-59f3-4542-b75e-05d1f917badc-light .edgeLabel p{background-color:rgba(232,232,232, 0.8);}#g14da9879-59f3-4542-b75e-05d1f917badc-light .edgeLabel rect{opacity:0.5;background-color:rgba(232,232,232, 0.8);fill:rgba(232,232,232, 0.8);}#g14da9879-59f3-4542-b75e-05d1f917badc-light .labelBkg{background-color:rgba(232, 232, 232, 0.5);}#g14da9879-59f3-4542-b75e-05d1f917badc-light .cluster rect{fill:#ffffde;stroke:#aaaa33;stroke-width:1px;}#g14da9879-59f3-4542-b75e-05d1f917badc-light .cluster text{fill:#333;}#g14da9879-59f3-4542-b75e-05d1f917badc-light .cluster span{color:#333;}#g14da9879-59f3-4542-b75e-05d1f917badc-light div.mermaidTooltip{position:absolute;text-align:center;max-width:200px;padding:2px;font-family:"trebuchet ms",verdana,arial,sans-serif;font-size:12px;background:hsl(80, 100%, 96.2745098039%);border:1px solid #aaaa33;border-radius:2px;pointer-events:none;z-index:100;}#g14da9879-59f3-4542-b75e-05d1f917badc-light .flowchartTitleText{text-anchor:middle;font-size:18px;fill:#333;}#g14da9879-59f3-4542-b75e-05d1f917badc-light rect.text{fill:none;stroke-width:0;}#g14da9879-59f3-4542-b75e-05d1f917badc-light .icon-shape,#g14da9879-59f3-4542-b75e-05d1f917badc-light .image-shape{background-color:rgba(232,232,232, 0.8);text-align:center;}#g14da9879-59f3-4542-b75e-05d1f917badc-light .icon-shape p,#g14da9879-59f3-4542-b75e-05d1f917badc-light .image-shape p{background-color:rgba(232,232,232, 0.8);padding:2px;}#g14da9879-59f3-4542-b75e-05d1f917badc-light .icon-shape .label rect,#g14da9879-59f3-4542-b75e-05d1f917badc-light .image-shape .label rect{opacity:0.5;background-color:rgba(232,232,232, 0.8);fill:rgba(232,232,232, 0.8);}#g14da9879-59f3-4542-b75e-05d1f917badc-light .label-icon{display:inline-block;height:1em;overflow:visible;vertical-align:-0.125em;}#g14da9879-59f3-4542-b75e-05d1f917badc-light .node .label-icon path{fill:currentColor;stroke:revert;stroke-width:revert;}#g14da9879-59f3-4542-b75e-05d1f917badc-light .node .neo-node{stroke:#9370DB;}#g14da9879-59f3-4542-b75e-05d1f917badc-light [data-look="neo"].node rect,#g14da9879-59f3-4542-b75e-05d1f917badc-light [data-look="neo"].cluster rect,#g14da9879-59f3-4542-b75e-05d1f917badc-light [data-look="neo"].node polygon{stroke:#9370DB;filter:drop-shadow(1px 2px 2px rgba(185, 185, 185, 1));}#g14da9879-59f3-4542-b75e-05d1f917badc-light [data-look="neo"].node path{stroke:#9370DB;stroke-width:1px;}#g14da9879-59f3-4542-b75e-05d1f917badc-light [data-look="neo"].node .outer-path{filter:drop-shadow(1px 2px 2px rgba(185, 185, 185, 1));}#g14da9879-59f3-4542-b75e-05d1f917badc-light [data-look="neo"].node .neo-line path{stroke:#9370DB;filter:none;}#g14da9879-59f3-4542-b75e-05d1f917badc-light [data-look="neo"].node circle{stroke:#9370DB;filter:drop-shadow(1px 2px 2px rgba(185, 185, 185, 1));}#g14da9879-59f3-4542-b75e-05d1f917badc-light [data-look="neo"].node circle .state-start{fill:#000000;}#g14da9879-59f3-4542-b75e-05d1f917badc-light [data-look="neo"].icon-shape .icon{fill:#9370DB;filter:drop-shadow(1px 2px 2px rgba(185, 185, 185, 1));}#g14da9879-59f3-4542-b75e-05d1f917badc-light [data-look="neo"].icon-shape .icon-neo path{stroke:#9370DB;filter:drop-shadow(1px 2px 2px rgba(185, 185, 185, 1));}#g14da9879-59f3-4542-b75e-05d1f917badc-light :root{--mermaid-font-family:"trebuchet ms",verdana,arial,sans-serif;}#g14da9879-59f3-4542-b75e-05d1f917badc-light .rootNode rect{fill:#1F4870!important;stroke:#0E2C4A!important;color:#ffffff!important;stroke-width:2px!important;}#g14da9879-59f3-4542-b75e-05d1f917badc-light .rootNode polygon{fill:#1F4870!important;stroke:#0E2C4A!important;color:#ffffff!important;stroke-width:2px!important;}#g14da9879-59f3-4542-b75e-05d1f917badc-light .rootNode ellipse{fill:#1F4870!important;stroke:#0E2C4A!important;color:#ffffff!important;stroke-width:2px!important;}#g14da9879-59f3-4542-b75e-05d1f917badc-light .rootNode circle{fill:#1F4870!important;stroke:#0E2C4A!important;color:#ffffff!important;stroke-width:2px!important;}#g14da9879-59f3-4542-b75e-05d1f917badc-light .rootNode path{fill:#1F4870!important;stroke:#0E2C4A!important;color:#ffffff!important;stroke-width:2px!important;}#g14da9879-59f3-4542-b75e-05d1f917badc-light .rootNode tspan{fill:#ffffff!important;}#g14da9879-59f3-4542-b75e-05d1f917badc-light .primary rect{fill:#2E5A88!important;stroke:#1F4870!important;color:#ffffff!important;}#g14da9879-59f3-4542-b75e-05d1f917badc-light .primary polygon{fill:#2E5A88!important;stroke:#1F4870!important;color:#ffffff!important;}#g14da9879-59f3-4542-b75e-05d1f917badc-light .primary ellipse{fill:#2E5A88!important;stroke:#1F4870!important;color:#ffffff!important;}#g14da9879-59f3-4542-b75e-05d1f917badc-light .primary circle{fill:#2E5A88!important;stroke:#1F4870!important;color:#ffffff!important;}#g14da9879-59f3-4542-b75e-05d1f917badc-light .primary path{fill:#2E5A88!important;stroke:#1F4870!important;color:#ffffff!important;}#g14da9879-59f3-4542-b75e-05d1f917badc-light .primary tspan{fill:#ffffff!important;}</style><g><marker id="g14da9879-59f3-4542-b75e-05d1f917badc-light_flowchart-v2-pointEnd" class="marker flowchart-v2" viewBox="0 0 10 10" refX="5" refY="5" markerUnits="userSpaceOnUse" markerWidth="8" markerHeight="8" orient="auto"><path d="M 0 0 L 10 5 L 0 10 z" class="arrowMarkerPath" style="stroke-width: 1; stroke-dasharray: 1, 0;"></path></marker><marker id="g14da9879-59f3-4542-b75e-05d1f917badc-light_flowchart-v2-pointStart" class="marker flowchart-v2" viewBox="0 0 10 10" refX="4.5" refY="5" markerUnits="userSpaceOnUse" markerWidth="8" markerHeight="8" orient="auto"><path d="M 0 5 L 10 10 L 10 0 z" class="arrowMarkerPath" style="stroke-width: 1; stroke-dasharray: 1, 0;"></path></marker><marker id="g14da9879-59f3-4542-b75e-05d1f917badc-light_flowchart-v2-pointEnd-margin" class="marker flowchart-v2" viewBox="0 0 11.5 14" refX="11.5" refY="7" markerUnits="userSpaceOnUse" markerWidth="10.5" markerHeight="14" orient="auto"><path d="M 0 0 L 11.5 7 L 0 14 z" class="arrowMarkerPath" style="stroke-width: 0; stroke-dasharray: 1, 0;"></path></marker><marker id="g14da9879-59f3-4542-b75e-05d1f917badc-light_flowchart-v2-pointStart-margin" class="marker flowchart-v2" viewBox="0 0 11.5 14" refX="1" refY="7" markerUnits="userSpaceOnUse" markerWidth="11.5" markerHeight="14" orient="auto"><polygon points="0,7 11.5,14 11.5,0" class="arrowMarkerPath" style="stroke-width: 0; stroke-dasharray: 1, 0;"></polygon></marker><marker id="g14da9879-59f3-4542-b75e-05d1f917badc-light_flowchart-v2-circleEnd" class="marker flowchart-v2" viewBox="0 0 10 10" refX="11" refY="5" markerUnits="userSpaceOnUse" markerWidth="11" markerHeight="11" orient="auto"><circle cx="5" cy="5" r="5" class="arrowMarkerPath" style="stroke-width: 1; stroke-dasharray: 1, 0;"></circle></marker><marker id="g14da9879-59f3-4542-b75e-05d1f917badc-light_flowchart-v2-circleStart" class="marker flowchart-v2" viewBox="0 0 10 10" refX="-1" refY="5" markerUnits="userSpaceOnUse" markerWidth="11" markerHeight="11" orient="auto"><circle cx="5" cy="5" r="5" class="arrowMarkerPath" style="stroke-width: 1; stroke-dasharray: 1, 0;"></circle></marker><marker id="g14da9879-59f3-4542-b75e-05d1f917badc-light_flowchart-v2-circleEnd-margin" class="marker flowchart-v2" viewBox="0 0 10 10" refY="5" refX="12.25" markerUnits="userSpaceOnUse" markerWidth="14" markerHeight="14" orient="auto"><circle cx="5" cy="5" r="5" class="arrowMarkerPath" style="stroke-width: 0; stroke-dasharray: 1, 0;"></circle></marker><marker id="g14da9879-59f3-4542-b75e-05d1f917badc-light_flowchart-v2-circleStart-margin" class="marker flowchart-v2" viewBox="0 0 10 10" refX="-2" refY="5" markerUnits="userSpaceOnUse" markerWidth="14" markerHeight="14" orient="auto"><circle cx="5" cy="5" r="5" class="arrowMarkerPath" style="stroke-width: 0; stroke-dasharray: 1, 0;"></circle></marker><marker id="g14da9879-59f3-4542-b75e-05d1f917badc-light_flowchart-v2-crossEnd" class="marker cross flowchart-v2" viewBox="0 0 11 11" refX="12" refY="5.2" markerUnits="userSpaceOnUse" markerWidth="11" markerHeight="11" orient="auto"><path d="M 1,1 l 9,9 M 10,1 l -9,9" class="arrowMarkerPath" style="stroke-width: 2; stroke-dasharray: 1, 0;"></path></marker><marker id="g14da9879-59f3-4542-b75e-05d1f917badc-light_flowchart-v2-crossStart" class="marker cross flowchart-v2" viewBox="0 0 11 11" refX="-1" refY="5.2" markerUnits="userSpaceOnUse" markerWidth="11" markerHeight="11" orient="auto"><path d="M 1,1 l 9,9 M 10,1 l -9,9" class="arrowMarkerPath" style="stroke-width: 2; stroke-dasharray: 1, 0;"></path></marker><marker id="g14da9879-59f3-4542-b75e-05d1f917badc-light_flowchart-v2-crossEnd-margin" class="marker cross flowchart-v2" viewBox="0 0 15 15" refX="17.7" refY="7.5" markerUnits="userSpaceOnUse" markerWidth="12" markerHeight="12" orient="auto"><path d="M 1,1 L 14,14 M 1,14 L 14,1" class="arrowMarkerPath" style="stroke-width: 2.5;"></path></marker><marker id="g14da9879-59f3-4542-b75e-05d1f917badc-light_flowchart-v2-crossStart-margin" class="marker cross flowchart-v2" viewBox="0 0 15 15" refX="-3.5" refY="7.5" markerUnits="userSpaceOnUse" markerWidth="12" markerHeight="12" orient="auto"><path d="M 1,1 L 14,14 M 1,14 L 14,1" class="arrowMarkerPath" style="stroke-width: 2.5; stroke-dasharray: 1, 0;"></path></marker><g class="root"><g class="clusters"></g><g class="edgePaths"><path d="M66.52,393.2L78.378,343.733C90.237,294.267,113.954,195.333,131.751,145.867C149.548,96.4,161.426,96.4,167.364,96.4L173.303,96.4" id="g14da9879-59f3-4542-b75e-05d1f917badc-light-L_root_node_runtime_0" class="edge-thickness-normal edge-pattern-solid edge-thickness-normal edge-pattern-solid flowchart-link" style=";" data-edge="true" data-et="edge" data-id="L_root_node_runtime_0" data-points="W3sieCI6NjYuNTIwMDc4ODE0MDQ1MDQsInkiOjM5My4yMDAwMDA3NjI5Mzk0NX0seyJ4IjoxMzcuNjcwMzY0Mzc5ODgyOCwieSI6OTYuNDAwMDAxNTI1ODc4OX0seyJ4IjoxNzcuMzAzMTc2ODc5ODgyOCwieSI6OTYuNDAwMDAxNTI1ODc4OX1d" data-look="classic" marker-end="url(#g14da9879-59f3-4542-b75e-05d1f917badc-light_flowchart-v2-pointEnd)"></path><path d="M79.41,393.2L89.12,380.067C98.83,366.933,118.25,340.667,134.65,327.533C151.051,314.4,164.431,314.4,171.121,314.4L177.811,314.4" id="g14da9879-59f3-4542-b75e-05d1f917badc-light-L_root_node_output_0" class="edge-thickness-normal edge-pattern-solid edge-thickness-normal edge-pattern-solid flowchart-link" style=";" data-edge="true" data-et="edge" data-id="L_root_node_output_0" data-points="W3sieCI6NzkuNDEwMjA3NzIxNTM0MTksInkiOjM5My4yMDAwMDA3NjI5Mzk0NX0seyJ4IjoxMzcuNjcwMzY0Mzc5ODgyOCwieSI6MzE0LjQwMDAwMTUyNTg3ODl9LHsieCI6MTgxLjgxMDk4OTM3OTg4MjgsInkiOjMxNC40MDAwMDE1MjU4Nzg5fV0=" data-look="classic" marker-end="url(#g14da9879-59f3-4542-b75e-05d1f917badc-light_flowchart-v2-pointEnd)"></path><path d="M79.41,444.8L89.12,457.933C98.83,471.067,118.25,497.333,138.361,510.467C158.472,523.6,179.275,523.6,189.676,523.6L200.077,523.6" id="g14da9879-59f3-4542-b75e-05d1f917badc-light-L_root_node_build_0" class="edge-thickness-normal edge-pattern-solid edge-thickness-normal edge-pattern-solid flowchart-link" style=";" data-edge="true" data-et="edge" data-id="L_root_node_build_0" data-points="W3sieCI6NzkuNDEwMjA3NzIxNTM0MTksInkiOjQ0NC43OTk5OTkyMzcwNjA1NX0seyJ4IjoxMzcuNjcwMzY0Mzc5ODgyOCwieSI6NTIzLjU5OTk5ODQ3NDEyMTF9LHsieCI6MjA0LjA3NjYxNDM3OTg4MjgsInkiOjUyMy41OTk5OTg0NzQxMjExfV0=" data-look="classic" marker-end="url(#g14da9879-59f3-4542-b75e-05d1f917badc-light_flowchart-v2-pointEnd)"></path><path d="M66.694,444.8L78.523,492.8C90.352,540.8,114.011,636.8,129.341,684.8C144.67,732.8,151.67,732.8,155.17,732.8L158.67,732.8" id="g14da9879-59f3-4542-b75e-05d1f917badc-light-L_root_node_config_0" class="edge-thickness-normal edge-pattern-solid edge-thickness-normal edge-pattern-solid flowchart-link" style=";" data-edge="true" data-et="edge" data-id="L_root_node_config_0" data-points="W3sieCI6NjYuNjkzNTI0MDMzODA1NjcsInkiOjQ0NC43OTk5OTkyMzcwNjA1NX0seyJ4IjoxMzcuNjcwMzY0Mzc5ODgyOCwieSI6NzMyLjc5OTk5NTQyMjM2MzN9LHsieCI6MTYyLjY3MDM2NDM3OTg4MjgsInkiOjczMi43OTk5OTU0MjIzNjMzfV0=" data-look="classic" marker-end="url(#g14da9879-59f3-4542-b75e-05d1f917badc-light_flowchart-v2-pointEnd)"></path></g><g class="edgeLabels"><g class="edgeLabel"><g class="label" data-id="L_root_node_runtime_0" transform="translate(0, 0)"><text y="-10.1" text-anchor="middle"><tspan class="text-outer-tspan row" x="0" y="-0.1em" dy="1.1em" text-anchor="middle"></tspan></text></g></g><g><rect class="background" style="stroke: none"></rect></g><g class="edgeLabel"><g class="label" data-id="L_root_node_output_0" transform="translate(0, 0)"><text y="-10.1" text-anchor="middle"><tspan class="text-outer-tspan row" x="0" y="-0.1em" dy="1.1em" text-anchor="middle"></tspan></text></g></g><g><rect class="background" style="stroke: none"></rect></g><g class="edgeLabel"><g class="label" data-id="L_root_node_build_0" transform="translate(0, 0)"><text y="-10.1" text-anchor="middle"><tspan class="text-outer-tspan row" x="0" y="-0.1em" dy="1.1em" text-anchor="middle"></tspan></text></g></g><g><rect class="background" style="stroke: none"></rect></g><g class="edgeLabel"><g class="label" data-id="L_root_node_config_0" transform="translate(0, 0)"><text y="-10.1" text-anchor="middle"><tspan class="text-outer-tspan row" x="0" y="-0.1em" dy="1.1em" text-anchor="middle"></tspan></text></g></g><g><rect class="background" style="stroke: none"></rect></g></g><g class="nodes"><g class="root" transform="translate(154.6703643798828, 645.1999969482422)"><g class="clusters"><g class="cluster" id="g14da9879-59f3-4542-b75e-05d1f917badc-light-config" data-look="classic"><rect style="" x="8" y="8" width="562.953125" height="159.1999969482422"></rect><g class="cluster-label" transform="translate(266.7734375, 8)"><g><rect class="background" style="stroke: none"></rect><text y="-10.1" style=""><tspan class="text-outer-tspan row" x="0" y="-0.1em" dy="1.1em"><tspan font-style="normal" class="text-inner-tspan" font-weight="normal">Config</tspan></tspan></text></g></g></g></g><g class="edgePaths"></g><g class="edgeLabels"></g><g class="nodes"><g class="node default primary" id="g14da9879-59f3-4542-b75e-05d1f917badc-light-flowchart-layered-7" data-look="classic" transform="translate(162.796875, 87.5999984741211)"><rect class="basic label-container" style="fill:#2E5A88 !important;stroke:#1F4870 !important" x="-119.796875" y="-42.099998474121094" width="239.59375" height="84.19999694824219"></rect><g class="label" style="color:#ffffff !important" transform="translate(0, -27.099998474121094)"><rect></rect><g><rect class="background" style="stroke: none"></rect><text y="-10.1" style="fill:#ffffff !important"><tspan class="text-outer-tspan row" x="0" y="-0.1em" dy="1.1em"><tspan font-style="normal" class="text-inner-tspan" font-weight="normal">Layered</tspan><tspan font-style="normal" class="text-inner-tspan" font-weight="normal"> Config</tspan></tspan><tspan class="text-outer-tspan row" x="0" y="1em" dy="1.1em"><tspan font-style="normal" class="text-inner-tspan" font-weight="normal">Defaults</tspan><tspan font-style="normal" class="text-inner-tspan" font-weight="normal"> to</tspan><tspan font-style="normal" class="text-inner-tspan" font-weight="normal"> Global</tspan><tspan font-style="normal" class="text-inner-tspan" font-weight="normal"> to</tspan><tspan font-style="normal" class="text-inner-tspan" font-weight="normal"> Env</tspan></tspan><tspan class="text-outer-tspan row" x="0" y="2.1em" dy="1.1em"><tspan font-style="normal" class="text-inner-tspan" font-weight="normal">to</tspan><tspan font-style="normal" class="text-inner-tspan" font-weight="normal"> Local</tspan><tspan font-style="normal" class="text-inner-tspan" font-weight="normal"> to</tspan><tspan font-style="normal" class="text-inner-tspan" font-weight="normal"> CLI</tspan></tspan></text></g></g></g><g class="node default primary" id="g14da9879-59f3-4542-b75e-05d1f917badc-light-flowchart-ext-8" data-look="classic" transform="translate(434.2734375, 87.5999984741211)"><rect class="basic label-container" style="fill:#2E5A88 !important;stroke:#1F4870 !important" x="-101.6796875" y="-33.29999923706055" width="203.359375" height="66.5999984741211"></rect><g class="label" style="color:#ffffff !important" transform="translate(0, -18.299999237060547)"><rect></rect><g><rect class="background" style="stroke: none"></rect><text y="-10.1" style="fill:#ffffff !important"><tspan class="text-outer-tspan row" x="0" y="-0.1em" dy="1.1em"><tspan font-style="normal" class="text-inner-tspan" font-weight="normal">Extension</tspan><tspan font-style="normal" class="text-inner-tspan" font-weight="normal"> Detection</tspan></tspan><tspan class="text-outer-tspan row" x="0" y="1em" dy="1.1em"><tspan font-style="normal" class="text-inner-tspan" font-weight="normal">Longest</tspan><tspan font-style="normal" class="text-inner-tspan" font-weight="normal"> match</tspan><tspan font-style="normal" class="text-inner-tspan" font-weight="normal"> first</tspan></tspan></text></g></g></g></g></g><g class="root" transform="translate(196.0766143798828, 436)"><g class="clusters"><g class="cluster" id="g14da9879-59f3-4542-b75e-05d1f917badc-light-build" data-look="classic"><rect style="" x="8" y="8" width="480.140625" height="159.1999969482422"></rect><g class="cluster-label" transform="translate(230.0703125, 8)"><g><rect class="background" style="stroke: none"></rect><text y="-10.1" style=""><tspan class="text-outer-tspan row" x="0" y="-0.1em" dy="1.1em"><tspan font-style="normal" class="text-inner-tspan" font-weight="normal">Build</tspan></tspan></text></g></g></g></g><g class="edgePaths"></g><g class="edgeLabels"></g><g class="nodes"><g class="node default primary" id="g14da9879-59f3-4542-b75e-05d1f917badc-light-flowchart-incremental-5" data-look="classic" transform="translate(139.7890625, 87.5999984741211)"><rect class="basic label-container" style="fill:#2E5A88 !important;stroke:#1F4870 !important" x="-96.7890625" y="-42.099998474121094" width="193.578125" height="84.19999694824219"></rect><g class="label" style="color:#ffffff !important" transform="translate(0, -27.099998474121094)"><rect></rect><g><rect class="background" style="stroke: none"></rect><text y="-10.1" style="fill:#ffffff !important"><tspan class="text-outer-tspan row" x="0" y="-0.1em" dy="1.1em"><tspan font-style="normal" class="text-inner-tspan" font-weight="normal">Incremental</tspan><tspan font-style="normal" class="text-inner-tspan" font-weight="normal"> Builds</tspan></tspan><tspan class="text-outer-tspan row" x="0" y="1em" dy="1.1em"><tspan font-style="normal" class="text-inner-tspan" font-weight="normal">SHA-256</tspan><tspan font-style="normal" class="text-inner-tspan" font-weight="normal"> manifest</tspan></tspan><tspan class="text-outer-tspan row" x="0" y="2.1em" dy="1.1em"><tspan font-style="normal" class="text-inner-tspan" font-weight="normal">Skip</tspan><tspan font-style="normal" class="text-inner-tspan" font-weight="normal"> unchanged</tspan></tspan></text></g></g></g><g class="node default primary" id="g14da9879-59f3-4542-b75e-05d1f917badc-light-flowchart-atomic-6" data-look="classic" transform="translate(369.859375, 87.5999984741211)"><rect class="basic label-container" style="fill:#2E5A88 !important;stroke:#1F4870 !important" x="-83.28125" y="-33.29999923706055" width="166.5625" height="66.5999984741211"></rect><g class="label" style="color:#ffffff !important" transform="translate(0, -18.299999237060547)"><rect></rect><g><rect class="background" style="stroke: none"></rect><text y="-10.1" style="fill:#ffffff !important"><tspan class="text-outer-tspan row" x="0" y="-0.1em" dy="1.1em"><tspan font-style="normal" class="text-inner-tspan" font-weight="normal">Atomic</tspan><tspan font-style="normal" class="text-inner-tspan" font-weight="normal"> Writes</tspan></tspan><tspan class="text-outer-tspan row" x="0" y="1em" dy="1.1em"><tspan font-style="normal" class="text-inner-tspan" font-weight="normal">.tmp</tspan><tspan font-style="normal" class="text-inner-tspan" font-weight="normal"> +</tspan><tspan font-style="normal" class="text-inner-tspan" font-weight="normal"> rename</tspan></tspan></text></g></g></g></g></g><g class="root" transform="translate(173.8109893798828, 226.8000030517578)"><g class="clusters"><g class="cluster" id="g14da9879-59f3-4542-b75e-05d1f917badc-light-output" data-look="classic"><rect style="" x="8" y="8" width="524.671875" height="159.1999969482422"></rect><g class="cluster-label" transform="translate(245.3984375, 8)"><g><rect class="background" style="stroke: none"></rect><text y="-10.1" style=""><tspan class="text-outer-tspan row" x="0" y="-0.1em" dy="1.1em"><tspan font-style="normal" class="text-inner-tspan" font-weight="normal">Output</tspan></tspan></text></g></g></g></g><g class="edgePaths"></g><g class="edgeLabels"></g><g class="nodes"><g class="node default primary" id="g14da9879-59f3-4542-b75e-05d1f917badc-light-flowchart-svgFirst-3" data-look="classic" transform="translate(140.4296875, 87.5999984741211)"><rect class="basic label-container" style="fill:#2E5A88 !important;stroke:#1F4870 !important" x="-97.4296875" y="-42.099998474121094" width="194.859375" height="84.19999694824219"></rect><g class="label" style="color:#ffffff !important" transform="translate(0, -27.099998474121094)"><rect></rect><g><rect class="background" style="stroke: none"></rect><text y="-10.1" style="fill:#ffffff !important"><tspan class="text-outer-tspan row" x="0" y="-0.1em" dy="1.1em"><tspan font-style="normal" class="text-inner-tspan" font-weight="normal">SVG-First</tspan></tspan><tspan class="text-outer-tspan row" x="0" y="1em" dy="1.1em"><tspan font-style="normal" class="text-inner-tspan" font-weight="normal">Vector</tspan><tspan font-style="normal" class="text-inner-tspan" font-weight="normal"> is</tspan><tspan font-style="normal" class="text-inner-tspan" font-weight="normal"> canonical</tspan></tspan><tspan class="text-outer-tspan row" x="0" y="2.1em" dy="1.1em"><tspan font-style="normal" class="text-inner-tspan" font-weight="normal">Raster</tspan><tspan font-style="normal" class="text-inner-tspan" font-weight="normal"> via</tspan><tspan font-style="normal" class="text-inner-tspan" font-weight="normal"> sharp</tspan></tspan></text></g></g></g><g class="node default primary" id="g14da9879-59f3-4542-b75e-05d1f917badc-light-flowchart-themes-4" data-look="classic" transform="translate(392.765625, 87.5999984741211)"><rect class="basic label-container" style="fill:#2E5A88 !important;stroke:#1F4870 !important" x="-104.90625" y="-42.099998474121094" width="209.8125" height="84.19999694824219"></rect><g class="label" style="color:#ffffff !important" transform="translate(0, -27.099998474121094)"><rect></rect><g><rect class="background" style="stroke: none"></rect><text y="-10.1" style="fill:#ffffff !important"><tspan class="text-outer-tspan row" x="0" y="-0.1em" dy="1.1em"><tspan font-style="normal" class="text-inner-tspan" font-weight="normal">Light</tspan><tspan font-style="normal" class="text-inner-tspan" font-weight="normal"> +</tspan><tspan font-style="normal" class="text-inner-tspan" font-weight="normal"> Dark</tspan></tspan><tspan class="text-outer-tspan row" x="0" y="1em" dy="1.1em"><tspan font-style="normal" class="text-inner-tspan" font-weight="normal">Both</tspan><tspan font-style="normal" class="text-inner-tspan" font-weight="normal"> themes</tspan><tspan font-style="normal" class="text-inner-tspan" font-weight="normal"> default</tspan></tspan><tspan class="text-outer-tspan row" x="0" y="2.1em" dy="1.1em"><tspan font-style="normal" class="text-inner-tspan" font-weight="normal">Theme</tspan><tspan font-style="normal" class="text-inner-tspan" font-weight="normal"> suffix</tspan><tspan font-style="normal" class="text-inner-tspan" font-weight="normal"> naming</tspan></tspan></text></g></g></g></g></g><g class="root" transform="translate(169.3031768798828, 0)"><g class="clusters"><g class="cluster" id="g14da9879-59f3-4542-b75e-05d1f917badc-light-runtime" data-look="classic"><rect style="" x="8" y="8" width="533.6875" height="176.8000030517578"></rect><g class="cluster-label" transform="translate(245.21875, 8)"><g><rect class="background" style="stroke: none"></rect><text y="-10.1" style=""><tspan class="text-outer-tspan row" x="0" y="-0.1em" dy="1.1em"><tspan font-style="normal" class="text-inner-tspan" font-weight="normal">Runtime</tspan></tspan></text></g></g></g></g><g class="edgePaths"></g><g class="edgeLabels"></g><g class="nodes"><g class="node default primary" id="g14da9879-59f3-4542-b75e-05d1f917badc-light-flowchart-chromium-1" data-look="classic" transform="translate(152.625, 96.4000015258789)"><rect class="basic label-container" style="fill:#2E5A88 !important;stroke:#1F4870 !important" x="-109.625" y="-42.099998474121094" width="219.25" height="84.19999694824219"></rect><g class="label" style="color:#ffffff !important" transform="translate(0, -27.099998474121094)"><rect></rect><g><rect class="background" style="stroke: none"></rect><text y="-10.1" style="fill:#ffffff !important"><tspan class="text-outer-tspan row" x="0" y="-0.1em" dy="1.1em"><tspan font-style="normal" class="text-inner-tspan" font-weight="normal">One</tspan><tspan font-style="normal" class="text-inner-tspan" font-weight="normal"> Chromium</tspan></tspan><tspan class="text-outer-tspan row" x="0" y="1em" dy="1.1em"><tspan font-style="normal" class="text-inner-tspan" font-weight="normal">Shared</tspan><tspan font-style="normal" class="text-inner-tspan" font-weight="normal"> BrowserPool</tspan></tspan><tspan class="text-outer-tspan row" x="0" y="2.1em" dy="1.1em"><tspan font-style="normal" class="text-inner-tspan" font-weight="normal">Graphviz</tspan><tspan font-style="normal" class="text-inner-tspan" font-weight="normal"> is</tspan><tspan font-style="normal" class="text-inner-tspan" font-weight="normal"> WASM</tspan><tspan font-style="normal" class="text-inner-tspan" font-weight="normal"> only</tspan></tspan></text></g></g></g><g class="node default primary" id="g14da9879-59f3-4542-b75e-05d1f917badc-light-flowchart-registry-2" data-look="classic" transform="translate(409.46875, 96.4000015258789)"><rect class="basic label-container" style="fill:#2E5A88 !important;stroke:#1F4870 !important" x="-97.21875" y="-50.900001525878906" width="194.4375" height="101.80000305175781"></rect><g class="label" style="color:#ffffff !important" transform="translate(0, -35.900001525878906)"><rect></rect><g><rect class="background" style="stroke: none"></rect><text y="-10.1" style="fill:#ffffff !important"><tspan class="text-outer-tspan row" x="0" y="-0.1em" dy="1.1em"><tspan font-style="normal" class="text-inner-tspan" font-weight="normal">Engine</tspan><tspan font-style="normal" class="text-inner-tspan" font-weight="normal"> Registry</tspan></tspan><tspan class="text-outer-tspan row" x="0" y="1em" dy="1.1em"><tspan font-style="normal" class="text-inner-tspan" font-weight="normal">Extension</tspan><tspan font-style="normal" class="text-inner-tspan" font-weight="normal"> mapping</tspan></tspan><tspan class="text-outer-tspan row" x="0" y="2.1em" dy="1.1em"><tspan font-style="normal" class="text-inner-tspan" font-weight="normal">Engine</tspan><tspan font-style="normal" class="text-inner-tspan" font-weight="normal"> profiles</tspan></tspan><tspan class="text-outer-tspan row" x="0" y="3.2em" dy="1.1em"><tspan font-style="normal" class="text-inner-tspan" font-weight="normal">Renderer</tspan><tspan font-style="normal" class="text-inner-tspan" font-weight="normal"> dispatch</tspan></tspan></text></g></g></g></g></g><g class="node default rootNode" id="g14da9879-59f3-4542-b75e-05d1f917badc-light-flowchart-root_node-0" data-look="classic" transform="translate(60.335182189941406, 419)"><g class="basic label-container outer-path"><path d="M-26.54843807220459 -25.799999237060547 C-15.535529630257741 -25.799999237060547, -4.522621188310893 -25.799999237060547, 26.54843807220459 -25.799999237060547 C26.54843807220459 -25.799999237060547, 26.54843807220459 -25.799999237060547, 26.54843807220459 -25.799999237060547 C26.965822229543434 -25.78661453952367, 27.38320638688228 -25.77322984198679, 28.201449698825282 -25.746990371586765 C28.619389695079597 -25.706672202794497, 29.037329691333913 -25.66635403400223, 29.84766874610231 -25.58818159996402 C30.175336793133305 -25.535206771223706, 30.5030048401643 -25.48223194248339, 31.48033054685753 -25.32422550149928 C31.90880874101182 -25.226428149765088, 32.33728693516611 -25.128630798030894, 33.092726143546784 -24.956206728419545 C33.704942866441606 -24.77450401865552, 34.31715958933643 -24.592801308891495, 34.678229856805515 -24.48563754880318 C35.25693064335648 -24.27267030990099, 35.83563142990745 -24.059703070998808, 36.23032651178644 -23.914451632345997 C36.74864802169526 -23.685006075370662, 37.266969531604076 -23.45556051839533, 37.74263821041056 -23.24499610449772 C38.05959187393047 -23.079641581257896, 38.376545537450376 -22.91428705801807, 39.2089505395184 -22.480021901620034 C39.67253654197426 -22.198993342597543, 40.13612254443012 -21.91796478357505, 40.62323810722664 -21.62267246679901 C41.03839434908814 -21.333077444300482, 41.45355059094965 -21.04348242180195, 41.97968930255584 -20.67647083276321 C42.31037041094659 -20.412761448615452, 42.64105151933734 -20.149052064467693, 43.272730176586506 -19.64530514498651 C43.7616912748952 -19.201243612704282, 44.25065237320389 -18.757182080422055, 44.49704734701088 -18.533412684464313 C44.84016398440399 -18.17911658595609, 45.18328062179711 -17.824820487447873, 45.64760983196044 -17.345362455817106 C45.99059801396167 -16.942469020658017, 46.333586195962916 -16.539575585498923, 46.71968972338968 -16.086036412270357 C47.08016736789738 -15.603029208819034, 47.44064501240508 -15.120022005367712, 47.70888161506427 -14.76060939466161 C47.95322056181394 -14.385239158260063, 48.197559508563614 -14.009868921858516, 48.61112070532037 -13.374527866909407 C48.851446044846135 -12.947805891001927, 49.091771384371896 -12.521083915094447, 49.422699500206406 -11.93348753532484 C49.610852888035154 -11.542782999660869, 49.7990062758639 -11.152078463996897, 50.14028304837108 -10.443409943732584 C50.37301684761602 -9.868552959995672, 50.60575064686096 -9.293695976258759, 50.760922645093814 -8.910418140577123 C50.94030868054666 -8.370135983076493, 51.11969471599951 -7.829853825575861, 51.2820679491449 -7.340811518003323 C51.410701174737525 -6.850277278826031, 51.53933440033015 -6.3597430396487376, 51.70157746268467 -5.741039926302914 C51.76959256528691 -5.391796749437454, 51.837607667889145 -5.042553572571993, 52.01772733113747 -4.117677170096137 C52.08029536368036 -3.6324118651490496, 52.14286339622324 -3.1471465602019624, 52.22921842687991 -2.4773939951584394 C52.26189057928031 -1.9684988490354312, 52.29456273168071 -1.4596037029124227, 52.33518168763487 -0.8269306768952902 C52.33518168763487 -0.2758147968470097, 52.33518168763487 0.2753010832012708, 52.33518168763487 0.826930676895284 C52.30198867047906 1.3439387120182475, 52.26879565332325 1.8609467471412109, 52.22921842687991 2.4773939951584216 C52.16413456642262 2.9821715646032487, 52.099050705965325 3.486949134048076, 52.01772733113748 4.117677170096119 C51.93897258130823 4.5220661656470345, 51.860217831478984 4.92645516119795, 51.70157746268467 5.741039926302909 C51.6010983829609 6.124210205198267, 51.50061930323713 6.507380484093624, 51.28206794914491 7.340811518003306 C51.10776359975429 7.865788446741241, 50.93345925036367 8.390765375479175, 50.76092264509383 8.910418140577105 C50.60991461322659 9.283410898830867, 50.45890658135935 9.656403657084628, 50.14028304837109 10.443409943732577 C49.89751801627966 10.94751672720999, 49.65475298418824 11.451623510687403, 49.422699500206406 11.933487535324835 C49.17991242285005 12.364580576028521, 48.93712534549369 12.795673616732206, 48.611120705320374 13.374527866909402 C48.26313928058108 13.909120781405191, 47.91515785584178 14.44371369590098, 47.708881615064286 14.760609394661596 C47.49353280374456 15.049157183149728, 47.27818399242483 15.337704971637859, 46.71968972338968 16.086036412270353 C46.30414662761505 16.57415697763922, 45.88860353184042 17.062277543008086, 45.64760983196045 17.345362455817092 C45.24700448592686 17.759020365907357, 44.846399139893265 18.172678275997626, 44.49704734701088 18.533412684464306 C44.24116668763239 18.765796729080595, 43.98528602825392 18.998180773696884, 43.272730176586535 19.64530514498649 C42.887864641659085 19.95222516738912, 42.50299910673164 20.259145189791752, 41.97968930255585 20.676470832763208 C41.64421254417072 20.910484896857863, 41.3087357857856 21.144498960952514, 40.623238107226655 21.622672466799003 C40.071176656508975 21.957335362497258, 39.51911520579129 22.29199825819551, 39.208950539518405 22.48002190162003 C38.77941714033276 22.70410920084591, 38.34988374114712 22.928196500071785, 37.74263821041057 23.244996104497716 C37.28450313466255 23.447798912437197, 36.82636805891454 23.65060172037668, 36.23032651178645 23.914451632345994 C35.61338752926186 24.141490880836482, 34.99644854673726 24.36853012932697, 34.67822985680553 24.485637548803172 C34.14270269019307 24.64457920081429, 33.6071755235806 24.80352085282541, 33.09272614354681 24.95620672841954 C32.68477689975798 25.04931848119674, 32.27682765596914 25.142430233973936, 31.480330546857545 25.324225501499278 C30.966603990551697 25.407280827113862, 30.45287743424585 25.490336152728446, 29.84766874610233 25.588181599964017 C29.514712689526597 25.620301470303634, 29.181756632950865 25.65242134064325, 28.201449698825282 25.746990371586765 C27.631060644328507 25.765281638369533, 27.060671589831728 25.7835729051523, 26.548438072204593 25.799999237060547 C26.548438072204593 25.799999237060547, 26.548438072204593 25.799999237060547, 26.54843807220459 25.799999237060547 C13.527534497880211 25.799999237060547, 0.5066309235558322 25.799999237060547, -26.548438072204586 25.799999237060547 C-26.961039010278217 25.786767928055532, -27.373639948351848 25.773536619050518, -28.20144969882527 25.746990371586765 C-28.707515908376784 25.698170772984994, -29.2135821179283 25.649351174383224, -29.84766874610232 25.588181599964017 C-30.411245557060287 25.497066871771775, -30.97482236801826 25.405952143579537, -31.480330546857534 25.324225501499278 C-31.870205101353765 25.235239178604747, -32.26007965585 25.146252855710216, -33.092726143546784 24.956206728419545 C-33.48320824320472 24.840313690923438, -33.87369034286266 24.72442065342733, -34.6782298568055 24.485637548803183 C-35.104230215467716 24.328865478911343, -35.530230574129924 24.1720934090195, -36.230326511786444 23.914451632345997 C-36.56445575077873 23.766542529835828, -36.89858498977101 23.618633427325662, -37.74263821041056 23.244996104497723 C-38.29982346502993 22.954312914056985, -38.85700871964931 22.663629723616246, -39.2089505395184 22.480021901620038 C-39.54911406430925 22.27381277386906, -39.889277589100104 22.067603646118084, -40.623238107226626 21.622672466799017 C-41.099909249600735 21.29016731264002, -41.576580391974844 20.957662158481025, -41.97968930255584 20.67647083276321 C-42.248821915198576 20.461844736100236, -42.51795452784131 20.247218639437257, -43.272730176586506 19.645305144986512 C-43.55112050688151 19.392478412817095, -43.829510837176514 19.13965168064768, -44.49704734701086 18.533412684464324 C-44.81702764089603 18.203006760157194, -45.13700793478119 17.87260083585006, -45.64760983196044 17.3453624558171 C-45.983645998598845 16.950635253484073, -46.319682165237246 16.555908051151047, -46.71968972338967 16.08603641227036 C-46.948781447118414 15.779074373159224, -47.177873170847164 15.472112334048088, -47.70888161506427 14.760609394661614 C-48.001802388059346 14.310604427100161, -48.29472316105442 13.86059945953871, -48.61112070532036 13.374527866909418 C-48.86846159611016 12.917593056721245, -49.12580248689995 12.460658246533072, -49.4226995002064 11.933487535324842 C-49.573191341195695 11.620988007501001, -49.723683182185 11.30848847967716, -50.14028304837108 10.443409943732586 C-50.26494144199487 10.135501301375745, -50.38959983561866 9.827592659018904, -50.760922645093814 8.910418140577127 C-50.92574688090563 8.413993803487575, -51.09057111671745 7.917569466398022, -51.2820679491449 7.340811518003316 C-51.37662279436528 6.9802329128488605, -51.47117763958566 6.619654307694404, -51.70157746268467 5.741039926302918 C-51.78135302919084 5.3314092528656865, -51.86112859569701 4.921778579428455, -52.01772733113747 4.117677170096139 C-52.09547107016414 3.514712082443045, -52.1732148091908 2.911746994789951, -52.22921842687991 2.477393995158454 C-52.26217530825514 1.9640639654234076, -52.29513218963037 1.450733935688361, -52.33518168763487 0.8269306768952934 C-52.33518168763487 0.4320390046318625, -52.33518168763487 0.037147332368431596, -52.33518168763487 -0.8269306768952809 C-52.30611286520856 -1.2797010501162611, -52.277044042782244 -1.7324714233372416, -52.22921842687991 -2.4773939951584185 C-52.15475909371701 -3.0548858795114637, -52.08029976055411 -3.6323777638645094, -52.01772733113748 -4.117677170096128 C-51.92641559483182 -4.586543637283357, -51.83510385852617 -5.055410104470586, -51.70157746268467 -5.741039926302906 C-51.59193085412325 -6.159169965888353, -51.48228424556183 -6.577300005473799, -51.28206794914491 -7.340811518003303 C-51.15503457279252 -7.723415807556822, -51.02800119644014 -8.106020097110342, -50.76092264509383 -8.910418140577093 C-50.58810769699004 -9.337274403543173, -50.41529274888626 -9.764130666509253, -50.14028304837109 -10.443409943732574 C-49.88992761304727 -10.963278361930659, -49.63957217772346 -11.483146780128745, -49.422699500206406 -11.933487535324831 C-49.16606272886603 -12.389172110130735, -48.909425957525656 -12.844856684936637, -48.61112070532037 -13.374527866909409 C-48.38484925288136 -13.722141580248241, -48.15857780044235 -14.069755293587074, -47.70888161506428 -14.760609394661605 C-47.35788537834756 -15.230912375447025, -47.00688914163084 -15.701215356232444, -46.71968972338968 -16.086036412270353 C-46.423353535363916 -16.434129760732194, -46.12701734733815 -16.78222310919404, -45.64760983196045 -17.345362455817092 C-45.21466618907852 -17.792412312426816, -44.7817225461966 -18.23946216903654, -44.49704734701089 -18.5334126844643 C-44.06420910072186 -18.926504927471566, -43.631370854432824 -19.319597170478833, -43.272730176586535 -19.645305144986487 C-42.98532940562434 -19.874499611773125, -42.69792863466215 -20.103694078559762, -41.97968930255585 -20.676470832763204 C-41.62410060245171 -20.92451411676912, -41.26851190234757 -21.172557400775034, -40.62323810722666 -21.622672466799 C-40.13528576389775 -21.918472044851246, -39.64733342056883 -22.214271622903496, -39.208950539518405 -22.480021901620027 C-38.66771243231946 -22.762385475466164, -38.126474325120526 -23.0447490493123, -37.742638210410576 -23.244996104497716 C-37.24304506965495 -23.466151168006263, -36.743451928899326 -23.687306231514807, -36.23032651178645 -23.91445163234599 C-35.69356554513627 -24.11198462983724, -35.156804578486096 -24.309517627328493, -34.67822985680553 -24.485637548803172 C-34.347724137074906 -24.5837299115593, -34.01721841734428 -24.681822274315422, -33.09272614354682 -24.956206728419538 C-32.555886812776336 -25.078736802463876, -32.01904748200585 -25.201266876508214, -31.480330546857545 -25.324225501499278 C-31.1355989526281 -25.379959032220853, -30.790867358398657 -25.435692562942428, -29.84766874610233 -25.588181599964017 C-29.47747667882605 -25.62389358347306, -29.107284611549773 -25.659605566982105, -28.201449698825286 -25.746990371586765 C-27.66770797503128 -25.764106429803597, -27.13396625123728 -25.78122248802043, -26.548438072204597 -25.799999237060547 C-26.548438072204593 -25.799999237060547, -26.548438072204593 -25.799999237060547, -26.54843807220459 -25.799999237060547" stroke="none" stroke-width="0" fill="#1F4870" style="fill:#1F4870 !important;stroke:#0E2C4A !important;stroke-width:2px !important"></path><path d="M-26.54843807220459 -25.799999237060547 C-7.663277250761279 -25.799999237060547, 11.221883570682031 -25.799999237060547, 26.54843807220459 -25.799999237060547 M-26.54843807220459 -25.799999237060547 C-11.28892741392447 -25.799999237060547, 3.970583244355648 -25.799999237060547, 26.54843807220459 -25.799999237060547 M26.54843807220459 -25.799999237060547 C26.54843807220459 -25.799999237060547, 26.54843807220459 -25.799999237060547, 26.54843807220459 -25.799999237060547 M26.54843807220459 -25.799999237060547 C26.54843807220459 -25.799999237060547, 26.54843807220459 -25.799999237060547, 26.54843807220459 -25.799999237060547 M26.54843807220459 -25.799999237060547 C27.01224781778633 -25.785125761270642, 27.476057563368073 -25.77025228548074, 28.201449698825282 -25.746990371586765 M26.54843807220459 -25.799999237060547 C26.989526099212938 -25.78585440256015, 27.43061412622129 -25.77170956805975, 28.201449698825282 -25.746990371586765 M28.201449698825282 -25.746990371586765 C28.842639436495688 -25.685135568737184, 29.483829174166093 -25.6232807658876, 29.84766874610231 -25.58818159996402 M28.201449698825282 -25.746990371586765 C28.744919013693067 -25.694562540398948, 29.28838832856085 -25.642134709211135, 29.84766874610231 -25.58818159996402 M29.84766874610231 -25.58818159996402 C30.401548089716762 -25.498634683086898, 30.95542743333121 -25.409087766209776, 31.48033054685753 -25.32422550149928 M29.84766874610231 -25.58818159996402 C30.343107225270558 -25.508082948834886, 30.838545704438808 -25.427984297705756, 31.48033054685753 -25.32422550149928 M31.48033054685753 -25.32422550149928 C31.946512512329072 -25.217822510002026, 32.41269447780061 -25.111419518504775, 33.092726143546784 -24.956206728419545 M31.48033054685753 -25.32422550149928 C31.82825422051921 -25.244814193400153, 32.17617789418089 -25.165402885301027, 33.092726143546784 -24.956206728419545 M33.092726143546784 -24.956206728419545 C33.49280485776648 -24.837465466095164, 33.89288357198618 -24.718724203770787, 34.678229856805515 -24.48563754880318 M33.092726143546784 -24.956206728419545 C33.55488542480701 -24.81904027966508, 34.01704470606723 -24.68187383091062, 34.678229856805515 -24.48563754880318 M34.678229856805515 -24.48563754880318 C35.15460190697871 -24.310328230804483, 35.63097395715191 -24.135018912805787, 36.23032651178644 -23.914451632345997 M34.678229856805515 -24.48563754880318 C35.024088646798546 -24.358358317002136, 35.36994743679158 -24.23107908520109, 36.23032651178644 -23.914451632345997 M36.23032651178644 -23.914451632345997 C36.80102895327584 -23.661818590785067, 37.37173139476524 -23.409185549224137, 37.74263821041056 -23.24499610449772 M36.23032651178644 -23.914451632345997 C36.534403308119025 -23.779845854727238, 36.83848010445161 -23.645240077108483, 37.74263821041056 -23.24499610449772 M37.74263821041056 -23.24499610449772 C38.23220231002574 -22.98959082730925, 38.72176640964092 -22.734185550120785, 39.2089505395184 -22.480021901620034 M37.74263821041056 -23.24499610449772 C38.04776355529284 -23.085812407514744, 38.352888900175124 -22.92662871053177, 39.2089505395184 -22.480021901620034 M39.2089505395184 -22.480021901620034 C39.690804674593565 -22.187919093248258, 40.17265880966873 -21.89581628487648, 40.62323810722664 -21.62267246679901 M39.2089505395184 -22.480021901620034 C39.74700794560748 -22.15384834007254, 40.285065351696566 -21.827674778525044, 40.62323810722664 -21.62267246679901 M40.62323810722664 -21.62267246679901 C41.14542942388954 -21.258414409592735, 41.667620740552444 -20.894156352386464, 41.97968930255584 -20.67647083276321 M40.62323810722664 -21.62267246679901 C41.10265853351046 -21.28824953119918, 41.58207895979427 -20.953826595599352, 41.97968930255584 -20.67647083276321 M41.97968930255584 -20.67647083276321 C42.25092024742621 -20.460171371987663, 42.52215119229657 -20.243871911212118, 43.272730176586506 -19.64530514498651 M41.97968930255584 -20.67647083276321 C42.405764519056625 -20.33668718594153, 42.8318397355574 -19.996903539119845, 43.272730176586506 -19.64530514498651 M43.272730176586506 -19.64530514498651 C43.54363709495911 -19.399274649524788, 43.81454401333171 -19.153244154063067, 44.49704734701088 -18.533412684464313 M43.272730176586506 -19.64530514498651 C43.7458625094346 -19.215618878689412, 44.21899484228269 -18.78593261239232, 44.49704734701088 -18.533412684464313 M44.49704734701088 -18.533412684464313 C44.7507061056529 -18.27148919039503, 45.004364864294935 -18.009565696325744, 45.64760983196044 -17.345362455817106 M44.49704734701088 -18.533412684464313 C44.73346118625708 -18.28929598550543, 44.969875025503285 -18.045179286546546, 45.64760983196044 -17.345362455817106 M45.64760983196044 -17.345362455817106 C45.98466189514661 -16.949441923592925, 46.32171395833277 -16.553521391368744, 46.71968972338968 -16.086036412270357 M45.64760983196044 -17.345362455817106 C45.90796960801638 -17.03952904797085, 46.16832938407233 -16.73369564012459, 46.71968972338968 -16.086036412270357 M46.71968972338968 -16.086036412270357 C47.11230423250878 -15.559968737968354, 47.50491874162788 -15.033901063666352, 47.70888161506427 -14.76060939466161 M46.71968972338968 -16.086036412270357 C47.034060429235474 -15.664808306197463, 47.34843113508128 -15.243580200124569, 47.70888161506427 -14.76060939466161 M47.70888161506427 -14.76060939466161 C48.05736635770256 -14.22524324871319, 48.405851100340854 -13.689877102764768, 48.61112070532037 -13.374527866909407 M47.70888161506427 -14.76060939466161 C47.9977685459981 -14.316801491744492, 48.28665547693193 -13.872993588827374, 48.61112070532037 -13.374527866909407 M48.61112070532037 -13.374527866909407 C48.862787006861254 -12.927668864547142, 49.11445330840215 -12.480809862184877, 49.422699500206406 -11.93348753532484 M48.61112070532037 -13.374527866909407 C48.856673030410334 -12.938524848843008, 49.102225355500295 -12.502521830776608, 49.422699500206406 -11.93348753532484 M49.422699500206406 -11.93348753532484 C49.69532471837903 -11.367375436544192, 49.96794993655164 -10.801263337763544, 50.14028304837108 -10.443409943732584 M49.422699500206406 -11.93348753532484 C49.601626376864864 -11.561942047521688, 49.78055325352332 -11.190396559718536, 50.14028304837108 -10.443409943732584 M50.14028304837108 -10.443409943732584 C50.37768392367201 -9.857025191905603, 50.615084798972944 -9.27064044007862, 50.760922645093814 -8.910418140577123 M50.14028304837108 -10.443409943732584 C50.35816855684333 -9.905228525276385, 50.57605406531559 -9.367047106820186, 50.760922645093814 -8.910418140577123 M50.760922645093814 -8.910418140577123 C50.8927741704075 -8.513302354019961, 51.024625695721184 -8.116186567462798, 51.2820679491449 -7.340811518003323 M50.760922645093814 -8.910418140577123 C50.885399046249496 -8.535515052917422, 51.00987544740517 -8.160611965257722, 51.2820679491449 -7.340811518003323 M51.2820679491449 -7.340811518003323 C51.4250176229935 -6.795682456838073, 51.56796729684209 -6.250553395672824, 51.70157746268467 -5.741039926302914 M51.2820679491449 -7.340811518003323 C51.42949195972084 -6.778619871706922, 51.576915970296774 -6.21642822541052, 51.70157746268467 -5.741039926302914 M51.70157746268467 -5.741039926302914 C51.80385132933366 -5.215885236649711, 51.90612519598265 -4.690730546996507, 52.01772733113747 -4.117677170096137 M51.70157746268467 -5.741039926302914 C51.791674713347135 -5.278409586211831, 51.881771964009594 -4.815779246120748, 52.01772733113747 -4.117677170096137 M52.01772733113747 -4.117677170096137 C52.09040609323624 -3.553995043303006, 52.16308485533501 -2.990312916509876, 52.22921842687991 -2.4773939951584394 M52.01772733113747 -4.117677170096137 C52.094226653315225 -3.524363533785321, 52.17072597549298 -2.9310498974745047, 52.22921842687991 -2.4773939951584394 M52.22921842687991 -2.4773939951584394 C52.26347816196238 -1.943770967288545, 52.29773789704485 -1.4101479394186505, 52.33518168763487 -0.8269306768952902 M52.22921842687991 -2.4773939951584394 C52.25839807595096 -2.0228974074880406, 52.28757772502201 -1.5684008198176418, 52.33518168763487 -0.8269306768952902 M52.33518168763487 -0.8269306768952902 C52.33518168763487 -0.4435213038325657, 52.33518168763487 -0.060111930769841226, 52.33518168763487 0.826930676895284 M52.33518168763487 -0.8269306768952902 C52.33518168763487 -0.3551437602404558, 52.33518168763487 0.11664315641437861, 52.33518168763487 0.826930676895284 M52.33518168763487 0.826930676895284 C52.30788126953546 1.2521567252945278, 52.28058085143604 1.6773827736937716, 52.22921842687991 2.4773939951584216 M52.33518168763487 0.826930676895284 C52.30380208249318 1.3156933561385022, 52.27242247735149 1.8044560353817203, 52.22921842687991 2.4773939951584216 M52.22921842687991 2.4773939951584216 C52.155094742858836 3.052282651048885, 52.08097105883776 3.6271713069393483, 52.01772733113748 4.117677170096119 M52.22921842687991 2.4773939951584216 C52.1843784392944 2.8251640842145957, 52.13953845170888 3.17293417327077, 52.01772733113748 4.117677170096119 M52.01772733113748 4.117677170096119 C51.89857842883573 4.729481601286181, 51.779429526533974 5.3412860324762415, 51.70157746268467 5.741039926302909 M52.01772733113748 4.117677170096119 C51.946724485769266 4.482261774605204, 51.87572164040105 4.84684637911429, 51.70157746268467 5.741039926302909 M51.70157746268467 5.741039926302909 C51.54806306449493 6.326456860161425, 51.3945486663052 6.911873794019941, 51.28206794914491 7.340811518003306 M51.70157746268467 5.741039926302909 C51.61082240709329 6.087128286762737, 51.520067351501915 6.433216647222565, 51.28206794914491 7.340811518003306 M51.28206794914491 7.340811518003306 C51.155578017778225 7.72177903784609, 51.02908808641154 8.102746557688876, 50.76092264509383 8.910418140577105 M51.28206794914491 7.340811518003306 C51.17394062286194 7.666473797017749, 51.065813296578966 7.992136076032191, 50.76092264509383 8.910418140577105 M50.76092264509383 8.910418140577105 C50.63010677724795 9.233535863309168, 50.49929090940208 9.556653586041229, 50.14028304837109 10.443409943732577 M50.76092264509383 8.910418140577105 C50.543818571345 9.446669400158422, 50.32671449759618 9.98292065973974, 50.14028304837109 10.443409943732577 M50.14028304837109 10.443409943732577 C49.95389812826546 10.830442218330338, 49.76751320815983 11.217474492928101, 49.422699500206406 11.933487535324835 M50.14028304837109 10.443409943732577 C49.86681612736536 11.011269856455728, 49.59334920635963 11.579129769178879, 49.422699500206406 11.933487535324835 M49.422699500206406 11.933487535324835 C49.25858031500839 12.2248977675135, 49.09446112981038 12.516307999702166, 48.611120705320374 13.374527866909402 M49.422699500206406 11.933487535324835 C49.154439835402755 12.409809734420374, 48.8861801705991 12.886131933515914, 48.611120705320374 13.374527866909402 M48.611120705320374 13.374527866909402 C48.280522534693745 13.882415435030813, 47.949924364067115 14.390303003152225, 47.708881615064286 14.760609394661596 M48.611120705320374 13.374527866909402 C48.404168926344234 13.692461373750545, 48.19721714736809 14.010394880591688, 47.708881615064286 14.760609394661596 M47.708881615064286 14.760609394661596 C47.314249908618784 15.289379929610512, 46.91961820217329 15.818150464559428, 46.71968972338968 16.086036412270353 M47.708881615064286 14.760609394661596 C47.4493344278399 15.10837898030709, 47.18978724061551 15.456148565952587, 46.71968972338968 16.086036412270353 M46.71968972338968 16.086036412270353 C46.392196327696524 16.47072878975365, 46.06470293200337 16.855421167236948, 45.64760983196045 17.345362455817092 M46.71968972338968 16.086036412270353 C46.49971091619298 16.34443603635232, 46.279732108996285 16.602835660434284, 45.64760983196045 17.345362455817092 M45.64760983196045 17.345362455817092 C45.233711582937026 17.772746379612, 44.819813333913594 18.2001303034069, 44.49704734701088 18.533412684464306 M45.64760983196045 17.345362455817092 C45.36748982688848 17.63460935933403, 45.08736982181651 17.92385626285096, 44.49704734701088 18.533412684464306 M44.49704734701088 18.533412684464306 C44.14009008821095 18.857591822334882, 43.78313282941102 19.181770960205462, 43.272730176586535 19.64530514498649 M44.49704734701088 18.533412684464306 C44.03534542791639 18.95271815142256, 43.573643508821895 19.372023618380812, 43.272730176586535 19.64530514498649 M43.272730176586535 19.64530514498649 C42.98043434970946 19.878403288602332, 42.688138522832396 20.111501432218173, 41.97968930255585 20.676470832763208 M43.272730176586535 19.64530514498649 C42.972303540671206 19.884887392440426, 42.671876904755884 20.12446963989436, 41.97968930255585 20.676470832763208 M41.97968930255585 20.676470832763208 C41.53125091047298 20.9892820424951, 41.082812518390114 21.30209325222699, 40.623238107226655 21.622672466799003 M41.97968930255585 20.676470832763208 C41.57488854452682 20.95884231802187, 41.1700877864978 21.24121380328053, 40.623238107226655 21.622672466799003 M40.623238107226655 21.622672466799003 C40.10186494244703 21.93873194321722, 39.580491777667405 22.254791419635435, 39.208950539518405 22.48002190162003 M40.623238107226655 21.622672466799003 C40.207529134071386 21.874677689302818, 39.79182016091612 22.126682911806636, 39.208950539518405 22.48002190162003 M39.208950539518405 22.48002190162003 C38.7567861212884 22.71591578898549, 38.304621703058395 22.95180967635095, 37.74263821041057 23.244996104497716 M39.208950539518405 22.48002190162003 C38.79448148277543 22.69625014304274, 38.38001242603246 22.912478384465444, 37.74263821041057 23.244996104497716 M37.74263821041057 23.244996104497716 C37.14556907894246 23.509300897572153, 36.54849994747434 23.77360569064659, 36.23032651178645 23.914451632345994 M37.74263821041057 23.244996104497716 C37.17501044173914 23.49626807960906, 36.60738267306771 23.747540054720403, 36.23032651178645 23.914451632345994 M36.23032651178645 23.914451632345994 C35.85089105077906 24.054087389459664, 35.47145558977167 24.193723146573337, 34.67822985680553 24.485637548803172 M36.23032651178645 23.914451632345994 C35.80198238660106 24.072086229983906, 35.373638261415664 24.22972082762182, 34.67822985680553 24.485637548803172 M34.67822985680553 24.485637548803172 C34.06865210894769 24.66655702462849, 33.459074361089854 24.8474765004538, 33.09272614354681 24.95620672841954 M34.67822985680553 24.485637548803172 C34.24864972131954 24.61313467810327, 33.81906958583355 24.740631807403368, 33.09272614354681 24.95620672841954 M33.09272614354681 24.95620672841954 C32.52384480283895 25.08605018213843, 31.95496346213109 25.215893635857316, 31.480330546857545 25.324225501499278 M33.09272614354681 24.95620672841954 C32.737736812694095 25.0372307266648, 32.38274748184138 25.11825472491006, 31.480330546857545 25.324225501499278 M31.480330546857545 25.324225501499278 C30.856727261764764 25.425044844517377, 30.233123976671987 25.525864187535472, 29.84766874610233 25.588181599964017 M31.480330546857545 25.324225501499278 C31.053757686651156 25.39319049341551, 30.62718482644477 25.46215548533174, 29.84766874610233 25.588181599964017 M29.84766874610233 25.588181599964017 C29.483908625196875 25.623273101342214, 29.120148504291425 25.65836460272041, 28.201449698825282 25.746990371586765 M29.84766874610233 25.588181599964017 C29.322897244137085 25.638805675628536, 28.79812574217184 25.689429751293055, 28.201449698825282 25.746990371586765 M28.201449698825282 25.746990371586765 C27.56504311875173 25.767398691919464, 26.92863653867818 25.78780701225216, 26.548438072204593 25.799999237060547 M28.201449698825282 25.746990371586765 C27.561819693905296 25.767502060880272, 26.922189688985313 25.78801375017378, 26.548438072204593 25.799999237060547 M26.548438072204593 25.799999237060547 C26.548438072204593 25.799999237060547, 26.54843807220459 25.799999237060547, 26.54843807220459 25.799999237060547 M26.548438072204593 25.799999237060547 C26.548438072204593 25.799999237060547, 26.54843807220459 25.799999237060547, 26.54843807220459 25.799999237060547 M26.54843807220459 25.799999237060547 C12.08873536847064 25.799999237060547, -2.370967335263309 25.799999237060547, -26.548438072204586 25.799999237060547 M26.54843807220459 25.799999237060547 C12.224557716245673 25.799999237060547, -2.099322639713243 25.799999237060547, -26.548438072204586 25.799999237060547 M-26.548438072204586 25.799999237060547 C-27.00119272663299 25.785480276526503, -27.453947381061393 25.770961315992455, -28.20144969882527 25.746990371586765 M-26.548438072204586 25.799999237060547 C-27.112320573513056 25.78191662277429, -27.676203074821526 25.763834008488033, -28.20144969882527 25.746990371586765 M-28.20144969882527 25.746990371586765 C-28.80950428514104 25.688332076937513, -29.4175588714568 25.629673782288265, -29.84766874610232 25.588181599964017 M-28.20144969882527 25.746990371586765 C-28.81489406005205 25.687812131834, -29.428338421278834 25.62863389208124, -29.84766874610232 25.588181599964017 M-29.84766874610232 25.588181599964017 C-30.35793336566129 25.505685973434947, -30.86819798522026 25.423190346905876, -31.480330546857534 25.324225501499278 M-29.84766874610232 25.588181599964017 C-30.231384431231945 25.52614542375184, -30.61510011636157 25.464109247539664, -31.480330546857534 25.324225501499278 M-31.480330546857534 25.324225501499278 C-31.94287200383846 25.21865343230847, -32.40541346081938 25.11308136311766, -33.092726143546784 24.956206728419545 M-31.480330546857534 25.324225501499278 C-31.903309478558327 25.227683320534055, -32.32628841025912 25.131141139568832, -33.092726143546784 24.956206728419545 M-33.092726143546784 24.956206728419545 C-33.588482519669824 24.809068838264547, -34.084238895792865 24.661930948109553, -34.6782298568055 24.485637548803183 M-33.092726143546784 24.956206728419545 C-33.59667598583553 24.806637060514948, -34.10062582812428 24.65706739261035, -34.6782298568055 24.485637548803183 M-34.6782298568055 24.485637548803183 C-35.04839141626295 24.349414673186896, -35.4185529757204 24.213191797570605, -36.230326511786444 23.914451632345997 M-34.6782298568055 24.485637548803183 C-35.11844078655167 24.323635857391363, -35.55865171629785 24.161634165979546, -36.230326511786444 23.914451632345997 M-36.230326511786444 23.914451632345997 C-36.7919082177574 23.66585606984208, -37.353489923728354 23.41726050733816, -37.74263821041056 23.244996104497723 M-36.230326511786444 23.914451632345997 C-36.79130572058823 23.666122777466427, -37.35228492939001 23.417793922586856, -37.74263821041056 23.244996104497723 M-37.74263821041056 23.244996104497723 C-38.30332457285392 22.95248638834778, -38.86401093529728 22.659976672197836, -39.2089505395184 22.480021901620038 M-37.74263821041056 23.244996104497723 C-38.17581846671656 23.019006242248082, -38.608998723022545 22.793016379998445, -39.2089505395184 22.480021901620038 M-39.2089505395184 22.480021901620038 C-39.63475789602232 22.221894979785574, -40.06056525252625 21.96376805795111, -40.623238107226626 21.622672466799017 M-39.2089505395184 22.480021901620038 C-39.501452125777455 22.302705721099677, -39.79395371203651 22.125389540579317, -40.623238107226626 21.622672466799017 M-40.623238107226626 21.622672466799017 C-40.97168911260249 21.37960812964972, -41.32014011797836 21.136543792500426, -41.97968930255584 20.67647083276321 M-40.623238107226626 21.622672466799017 C-40.89897515408067 21.430330239378016, -41.17471220093471 21.237988011957015, -41.97968930255584 20.67647083276321 M-41.97968930255584 20.67647083276321 C-42.37664755706303 20.359907188296518, -42.77360581157023 20.043343543829824, -43.272730176586506 19.645305144986512 M-41.97968930255584 20.67647083276321 C-42.344751449873975 20.385343484988734, -42.7098135971921 20.094216137214257, -43.272730176586506 19.645305144986512 M-43.272730176586506 19.645305144986512 C-43.59910471302889 19.348900426386567, -43.92547924947127 19.052495707786626, -44.49704734701086 18.533412684464324 M-43.272730176586506 19.645305144986512 C-43.56267446612721 19.38198541273116, -43.85261875566791 19.11866568047581, -44.49704734701086 18.533412684464324 M-44.49704734701086 18.533412684464324 C-44.94158130980477 18.074394870962518, -45.38611527259868 17.615377057460712, -45.64760983196044 17.3453624558171 M-44.49704734701086 18.533412684464324 C-44.849190744128606 18.16979571542967, -45.20133414124634 17.80617874639502, -45.64760983196044 17.3453624558171 M-45.64760983196044 17.3453624558171 C-45.97531988580279 16.960415579343554, -46.30302993964515 16.575468702870005, -46.71968972338967 16.08603641227036 M-45.64760983196044 17.3453624558171 C-46.05208656182817 16.870241073536537, -46.4565632916959 16.395119691255974, -46.71968972338967 16.08603641227036 M-46.71968972338967 16.08603641227036 C-47.11013115206478 15.562880467791608, -47.50057258073989 15.039724523312854, -47.70888161506427 14.760609394661614 M-46.71968972338967 16.08603641227036 C-47.07844922489186 15.605331363920374, -47.437208726394054 15.124626315570389, -47.70888161506427 14.760609394661614 M-47.70888161506427 14.760609394661614 C-47.99486566300844 14.321261099549838, -48.28084971095261 13.881912804438063, -48.61112070532036 13.374527866909418 M-47.70888161506427 14.760609394661614 C-48.007521673203115 14.301818069276235, -48.30616173134195 13.843026743890857, -48.61112070532036 13.374527866909418 M-48.61112070532036 13.374527866909418 C-48.78304229871757 13.069263668883577, -48.95496389211478 12.763999470857735, -49.4226995002064 11.933487535324842 M-48.61112070532036 13.374527866909418 C-48.84193659305916 12.964690885586108, -49.07275248079795 12.5548539042628, -49.4226995002064 11.933487535324842 M-49.4226995002064 11.933487535324842 C-49.615459235901156 11.533217819757052, -49.80821897159591 11.13294810418926, -50.14028304837108 10.443409943732586 M-49.4226995002064 11.933487535324842 C-49.60245854893201 11.560214024418611, -49.78221759765763 11.186940513512383, -50.14028304837108 10.443409943732586 M-50.14028304837108 10.443409943732586 C-50.2757016602992 10.108923354129379, -50.41112027222732 9.774436764526172, -50.760922645093814 8.910418140577127 M-50.14028304837108 10.443409943732586 C-50.34549890181286 9.936522818152769, -50.550714755254646 9.42963569257295, -50.760922645093814 8.910418140577127 M-50.760922645093814 8.910418140577127 C-50.921712613953176 8.426144372775216, -51.08250258281254 7.941870604973305, -51.2820679491449 7.340811518003316 M-50.760922645093814 8.910418140577127 C-50.95309279752417 8.33163225961265, -51.14526294995453 7.752846378648174, -51.2820679491449 7.340811518003316 M-51.2820679491449 7.340811518003316 C-51.43674757629506 6.750951061105303, -51.591427203445214 6.161090604207288, -51.70157746268467 5.741039926302918 M-51.2820679491449 7.340811518003316 C-51.38466007806306 6.949583266728472, -51.4872522069812 6.5583550154536265, -51.70157746268467 5.741039926302918 M-51.70157746268467 5.741039926302918 C-51.777069108622555 5.353406279576874, -51.85256075456045 4.965772632850832, -52.01772733113747 4.117677170096139 M-51.70157746268467 5.741039926302918 C-51.82044774473939 5.130666151194927, -51.93931802679411 4.520292376086937, -52.01772733113747 4.117677170096139 M-52.01772733113747 4.117677170096139 C-52.091742410334625 3.5436308317735867, -52.16575748953178 2.969584493451034, -52.22921842687991 2.477393995158454 M-52.01772733113747 4.117677170096139 C-52.09020792033873 3.555532033162458, -52.16268850953998 2.993386896228777, -52.22921842687991 2.477393995158454 M-52.22921842687991 2.477393995158454 C-52.26366676231138 1.9408333646174007, -52.29811509774285 1.4042727340763472, -52.33518168763487 0.8269306768952934 M-52.22921842687991 2.477393995158454 C-52.2509183181416 2.1394006729206807, -52.27261820940329 1.8014073506829074, -52.33518168763487 0.8269306768952934 M-52.33518168763487 0.8269306768952934 C-52.33518168763487 0.4637468533427798, -52.33518168763487 0.10056302979026621, -52.33518168763487 -0.8269306768952809 M-52.33518168763487 0.8269306768952934 C-52.33518168763487 0.39344290023957557, -52.33518168763487 -0.040044876416142294, -52.33518168763487 -0.8269306768952809 M-52.33518168763487 -0.8269306768952809 C-52.30082962721364 -1.3619917464400908, -52.2664775667924 -1.8970528159849007, -52.22921842687991 -2.4773939951584185 M-52.33518168763487 -0.8269306768952809 C-52.30334195225609 -1.3228602559916651, -52.2715022168773 -1.8187898350880496, -52.22921842687991 -2.4773939951584185 M-52.22921842687991 -2.4773939951584185 C-52.17074639391332 -2.9308915362384207, -52.11227436094672 -3.3843890773184233, -52.01772733113748 -4.117677170096128 M-52.22921842687991 -2.4773939951584185 C-52.14533017850262 -3.128014683964372, -52.061441930125326 -3.778635372770326, -52.01772733113748 -4.117677170096128 M-52.01772733113748 -4.117677170096128 C-51.91729097031014 -4.633396655712125, -51.816854609482796 -5.149116141328123, -51.70157746268467 -5.741039926302906 M-52.01772733113748 -4.117677170096128 C-51.90512211633954 -4.695881148962929, -51.79251690154161 -5.27408512782973, -51.70157746268467 -5.741039926302906 M-51.70157746268467 -5.741039926302906 C-51.560546208639614 -6.278853221308856, -51.41951495459456 -6.816666516314807, -51.28206794914491 -7.340811518003303 M-51.70157746268467 -5.741039926302906 C-51.54701113889975 -6.3304683083632876, -51.39244481511483 -6.919896690423669, -51.28206794914491 -7.340811518003303 M-51.28206794914491 -7.340811518003303 C-51.11699542712253 -7.837983653600027, -50.951922905100155 -8.335155789196751, -50.76092264509383 -8.910418140577093 M-51.28206794914491 -7.340811518003303 C-51.08035948383929 -7.948325277624288, -50.878651018533674 -8.555839037245272, -50.76092264509383 -8.910418140577093 M-50.76092264509383 -8.910418140577093 C-50.51685564850415 -9.513268340867985, -50.27278865191446 -10.116118541158876, -50.14028304837109 -10.443409943732574 M-50.76092264509383 -8.910418140577093 C-50.62407229453326 -9.248441152283222, -50.4872219439727 -9.586464163989353, -50.14028304837109 -10.443409943732574 M-50.14028304837109 -10.443409943732574 C-49.912178216365255 -10.91707450805423, -49.684073384359415 -11.390739072375887, -49.422699500206406 -11.933487535324831 M-50.14028304837109 -10.443409943732574 C-49.985458374088466 -10.764906692597789, -49.83063369980584 -11.086403441463002, -49.422699500206406 -11.933487535324831 M-49.422699500206406 -11.933487535324831 C-49.10138771986517 -12.504009137666568, -48.78007593952395 -13.074530740008305, -48.61112070532037 -13.374527866909409 M-49.422699500206406 -11.933487535324831 C-49.16864079942032 -12.38459448480365, -48.91458209863422 -12.83570143428247, -48.61112070532037 -13.374527866909409 M-48.61112070532037 -13.374527866909409 C-48.27381908593021 -13.892713732459638, -47.936517466540046 -14.410899598009868, -47.70888161506428 -14.760609394661605 M-48.61112070532037 -13.374527866909409 C-48.40937581297176 -13.684462197645834, -48.20763092062315 -13.994396528382259, -47.70888161506428 -14.760609394661605 M-47.70888161506428 -14.760609394661605 C-47.371281372620125 -15.212962963521973, -47.03368113017597 -15.665316532382342, -46.71968972338968 -16.086036412270353 M-47.70888161506428 -14.760609394661605 C-47.41659370724562 -15.152248563162422, -47.124305799426956 -15.543887731663238, -46.71968972338968 -16.086036412270353 M-46.71968972338968 -16.086036412270353 C-46.45356528202757 -16.39864132400398, -46.18744084066547 -16.711246235737605, -45.64760983196045 -17.345362455817092 M-46.71968972338968 -16.086036412270353 C-46.367399750565035 -16.499856260217506, -46.0151097777404 -16.91367610816466, -45.64760983196045 -17.345362455817092 M-45.64760983196045 -17.345362455817092 C-45.393442002335206 -17.60781160747206, -45.13927417270995 -17.87026075912702, -44.49704734701089 -18.5334126844643 M-45.64760983196045 -17.345362455817092 C-45.36741040942076 -17.63469136438974, -45.087210986881075 -17.924020272962395, -44.49704734701089 -18.5334126844643 M-44.49704734701089 -18.5334126844643 C-44.03545078003338 -18.952622473417374, -43.57385421305587 -19.37183226237045, -43.272730176586535 -19.645305144986487 M-44.49704734701089 -18.5334126844643 C-44.10947036669915 -18.88539984325847, -43.7218933863874 -19.237387002052635, -43.272730176586535 -19.645305144986487 M-43.272730176586535 -19.645305144986487 C-42.80719252542565 -20.016559033310113, -42.34165487426476 -20.387812921633742, -41.97968930255585 -20.676470832763204 M-43.272730176586535 -19.645305144986487 C-43.00474429353307 -19.859016755317775, -42.73675841047961 -20.072728365649063, -41.97968930255585 -20.676470832763204 M-41.97968930255585 -20.676470832763204 C-41.63901290249382 -20.91411194180281, -41.298336502431795 -21.15175305084241, -40.62323810722666 -21.622672466799 M-41.97968930255585 -20.676470832763204 C-41.4998124471806 -21.011212153538718, -41.01993559180536 -21.345953474314232, -40.62323810722666 -21.622672466799 M-40.62323810722666 -21.622672466799 C-40.13872122617891 -21.916389447427388, -39.65420434513116 -22.210106428055774, -39.208950539518405 -22.480021901620027 M-40.62323810722666 -21.622672466799 C-40.17955129842602 -21.89163801768705, -39.735864489625385 -22.1606035685751, -39.208950539518405 -22.480021901620027 M-39.208950539518405 -22.480021901620027 C-38.84229436177981 -22.671306194691766, -38.4756381840412 -22.862590487763505, -37.742638210410576 -23.244996104497716 M-39.208950539518405 -22.480021901620027 C-38.63594341133083 -22.778959353366904, -38.06293628314326 -23.07789680511378, -37.742638210410576 -23.244996104497716 M-37.742638210410576 -23.244996104497716 C-37.293467678479736 -23.443830574813074, -36.844297146548904 -23.642665045128435, -36.23032651178645 -23.91445163234599 M-37.742638210410576 -23.244996104497716 C-37.221969113096314 -23.47548086877873, -36.70130001578206 -23.705965633059744, -36.23032651178645 -23.91445163234599 M-36.23032651178645 -23.91445163234599 C-35.914949736944315 -24.030513200798843, -35.59957296210219 -24.1465747692517, -34.67822985680553 -24.485637548803172 M-36.23032651178645 -23.91445163234599 C-35.758254053723036 -24.088178660703292, -35.28618159565962 -24.261905689060598, -34.67822985680553 -24.485637548803172 M-34.67822985680553 -24.485637548803172 C-34.10913030877729 -24.654543307393467, -33.540030760749055 -24.823449065983763, -33.09272614354682 -24.956206728419538 M-34.67822985680553 -24.485637548803172 C-34.285894525202295 -24.60208061581283, -33.89355919359906 -24.718523682822493, -33.09272614354682 -24.956206728419538 M-33.09272614354682 -24.956206728419538 C-32.664783082963794 -25.053881939408164, -32.23684002238077 -25.151557150396787, -31.480330546857545 -25.324225501499278 M-33.09272614354682 -24.956206728419538 C-32.59481318038889 -25.0698521130746, -32.09690021723096 -25.183497497729658, -31.480330546857545 -25.324225501499278 M-31.480330546857545 -25.324225501499278 C-30.963352429863782 -25.407806514229655, -30.44637431287002 -25.49138752696003, -29.84766874610233 -25.588181599964017 M-31.480330546857545 -25.324225501499278 C-30.91077187808908 -25.416307330072318, -30.341213209320617 -25.50838915864536, -29.84766874610233 -25.588181599964017 M-29.84766874610233 -25.588181599964017 C-29.432781541534812 -25.62820526961378, -29.017894336967295 -25.668228939263543, -28.201449698825286 -25.746990371586765 M-29.84766874610233 -25.588181599964017 C-29.291588141829937 -25.641826027073403, -28.735507537557545 -25.695470454182786, -28.201449698825286 -25.746990371586765 M-28.201449698825286 -25.746990371586765 C-27.651165675511955 -25.764636909151548, -27.100881652198623 -25.782283446716335, -26.548438072204597 -25.799999237060547 M-28.201449698825286 -25.746990371586765 C-27.630253010243198 -25.765307537622686, -27.05905632166111 -25.783624703658607, -26.548438072204597 -25.799999237060547 M-26.548438072204597 -25.799999237060547 C-26.548438072204593 -25.799999237060547, -26.548438072204593 -25.799999237060547, -26.54843807220459 -25.799999237060547 M-26.548438072204597 -25.799999237060547 C-26.548438072204593 -25.799999237060547, -26.548438072204593 -25.799999237060547, -26.54843807220459 -25.799999237060547" stroke="#0E2C4A" stroke-width="2" fill="none" stroke-dasharray="0 0" style="fill:#1F4870 !important;stroke:#0E2C4A !important;stroke-width:2px !important"></path></g><g class="label" style="color:#ffffff !important" transform="translate(0, -18.299999237060547)"><rect></rect><g><rect class="background" style="stroke: none"></rect><text y="-10.1" style="fill:#ffffff !important"><tspan class="text-outer-tspan row" x="0" y="-0.1em" dy="1.1em"><tspan font-style="normal" class="text-inner-tspan" font-weight="normal">diagramkit</tspan></tspan><tspan class="text-outer-tspan row" x="0" y="1em" dy="1.1em"><tspan font-style="normal" class="text-inner-tspan" font-weight="normal">Principles</tspan></tspan></text></g></g></g></g></g></g><defs><filter id="g14da9879-59f3-4542-b75e-05d1f917badc-light-drop-shadow" height="130%" width="130%"><feDropShadow dx="4" dy="4" stdDeviation="0" flood-opacity="0.06" flood-color="#000000"></feDropShadow></filter></defs><defs><filter id="g14da9879-59f3-4542-b75e-05d1f917badc-light-drop-shadow-small" height="150%" width="150%"><feDropShadow dx="2" dy="2" stdDeviation="0" flood-opacity="0.06" flood-color="#000000"></feDropShadow></filter></defs></svg>