<svg id="g0d43979b-e5e8-4320-98da-ecf2f8ff716c-flip" width="100%" xmlns="http://www.w3.org/2000/svg" xmlns:xlink="http://www.w3.org/1999/xlink" class="flowchart" style="max-width: 733.6234741210938px;" viewBox="0 0 733.6234741210938 820.4000244140625" role="graphics-document document" aria-roledescription="flowchart-v2"><style>#g0d43979b-e5e8-4320-98da-ecf2f8ff716c-flip{font-family:"trebuchet ms",verdana,arial,sans-serif;font-size:16px;fill:#333;}@keyframes edge-animation-frame{from{stroke-dashoffset:0;}}@keyframes dash{to{stroke-dashoffset:0;}}#g0d43979b-e5e8-4320-98da-ecf2f8ff716c-flip .edge-animation-slow{stroke-dasharray:9,5!important;stroke-dashoffset:900;animation:dash 50s linear infinite;stroke-linecap:round;}#g0d43979b-e5e8-4320-98da-ecf2f8ff716c-flip .edge-animation-fast{stroke-dasharray:9,5!important;stroke-dashoffset:900;animation:dash 20s linear infinite;stroke-linecap:round;}#g0d43979b-e5e8-4320-98da-ecf2f8ff716c-flip .error-icon{fill:#552222;}#g0d43979b-e5e8-4320-98da-ecf2f8ff716c-flip .error-text{fill:#552222;stroke:#552222;}#g0d43979b-e5e8-4320-98da-ecf2f8ff716c-flip .edge-thickness-normal{stroke-width:1px;}#g0d43979b-e5e8-4320-98da-ecf2f8ff716c-flip .edge-thickness-thick{stroke-width:3.5px;}#g0d43979b-e5e8-4320-98da-ecf2f8ff716c-flip .edge-pattern-solid{stroke-dasharray:0;}#g0d43979b-e5e8-4320-98da-ecf2f8ff716c-flip .edge-thickness-invisible{stroke-width:0;fill:none;}#g0d43979b-e5e8-4320-98da-ecf2f8ff716c-flip .edge-pattern-dashed{stroke-dasharray:3;}#g0d43979b-e5e8-4320-98da-ecf2f8ff716c-flip .edge-pattern-dotted{stroke-dasharray:2;}#g0d43979b-e5e8-4320-98da-ecf2f8ff716c-flip .marker{fill:#333333;stroke:#333333;}#g0d43979b-e5e8-4320-98da-ecf2f8ff716c-flip .marker.cross{stroke:#333333;}#g0d43979b-e5e8-4320-98da-ecf2f8ff716c-flip svg{font-family:"trebuchet ms",verdana,arial,sans-serif;font-size:16px;}#g0d43979b-e5e8-4320-98da-ecf2f8ff716c-flip p{margin:0;}#g0d43979b-e5e8-4320-98da-ecf2f8ff716c-flip .label{font-family:"trebuchet ms",verdana,arial,sans-serif;color:#333;}#g0d43979b-e5e8-4320-98da-ecf2f8ff716c-flip .cluster-label text{fill:#333;}#g0d43979b-e5e8-4320-98da-ecf2f8ff716c-flip .cluster-label span{color:#333;}#g0d43979b-e5e8-4320-98da-ecf2f8ff716c-flip .cluster-label span p{background-color:transparent;}#g0d43979b-e5e8-4320-98da-ecf2f8ff716c-flip .label text,#g0d43979b-e5e8-4320-98da-ecf2f8ff716c-flip span{fill:#333;color:#333;}#g0d43979b-e5e8-4320-98da-ecf2f8ff716c-flip .node rect,#g0d43979b-e5e8-4320-98da-ecf2f8ff716c-flip .node circle,#g0d43979b-e5e8-4320-98da-ecf2f8ff716c-flip .node ellipse,#g0d43979b-e5e8-4320-98da-ecf2f8ff716c-flip .node polygon,#g0d43979b-e5e8-4320-98da-ecf2f8ff716c-flip .node path{fill:#ECECFF;stroke:#9370DB;stroke-width:1px;}#g0d43979b-e5e8-4320-98da-ecf2f8ff716c-flip .rough-node .label text,#g0d43979b-e5e8-4320-98da-ecf2f8ff716c-flip .node .label text,#g0d43979b-e5e8-4320-98da-ecf2f8ff716c-flip .image-shape .label,#g0d43979b-e5e8-4320-98da-ecf2f8ff716c-flip .icon-shape .label{text-anchor:middle;}#g0d43979b-e5e8-4320-98da-ecf2f8ff716c-flip .node .katex path{fill:#000;stroke:#000;stroke-width:1px;}#g0d43979b-e5e8-4320-98da-ecf2f8ff716c-flip .rough-node .label,#g0d43979b-e5e8-4320-98da-ecf2f8ff716c-flip .node .label,#g0d43979b-e5e8-4320-98da-ecf2f8ff716c-flip .image-shape .label,#g0d43979b-e5e8-4320-98da-ecf2f8ff716c-flip .icon-shape .label{text-align:center;}#g0d43979b-e5e8-4320-98da-ecf2f8ff716c-flip .node.clickable{cursor:pointer;}#g0d43979b-e5e8-4320-98da-ecf2f8ff716c-flip .root .anchor path{fill:#333333!important;stroke-width:0;stroke:#333333;}#g0d43979b-e5e8-4320-98da-ecf2f8ff716c-flip .arrowheadPath{fill:#333333;}#g0d43979b-e5e8-4320-98da-ecf2f8ff716c-flip .edgePath .path{stroke:#333333;stroke-width:1px;}#g0d43979b-e5e8-4320-98da-ecf2f8ff716c-flip .flowchart-link{stroke:#333333;fill:none;}#g0d43979b-e5e8-4320-98da-ecf2f8ff716c-flip .edgeLabel{background-color:rgba(232,232,232, 0.8);text-align:center;}#g0d43979b-e5e8-4320-98da-ecf2f8ff716c-flip .edgeLabel p{background-color:rgba(232,232,232, 0.8);}#g0d43979b-e5e8-4320-98da-ecf2f8ff716c-flip .edgeLabel rect{opacity:0.5;background-color:rgba(232,232,232, 0.8);fill:rgba(232,232,232, 0.8);}#g0d43979b-e5e8-4320-98da-ecf2f8ff716c-flip .labelBkg{background-color:rgba(232, 232, 232, 0.5);}#g0d43979b-e5e8-4320-98da-ecf2f8ff716c-flip .cluster rect{fill:#ffffde;stroke:#aaaa33;stroke-width:1px;}#g0d43979b-e5e8-4320-98da-ecf2f8ff716c-flip .cluster text{fill:#333;}#g0d43979b-e5e8-4320-98da-ecf2f8ff716c-flip .cluster span{color:#333;}#g0d43979b-e5e8-4320-98da-ecf2f8ff716c-flip div.mermaidTooltip{position:absolute;text-align:center;max-width:200px;padding:2px;font-family:"trebuchet ms",verdana,arial,sans-serif;font-size:12px;background:hsl(80, 100%, 96.2745098039%);border:1px solid #aaaa33;border-radius:2px;pointer-events:none;z-index:100;}#g0d43979b-e5e8-4320-98da-ecf2f8ff716c-flip .flowchartTitleText{text-anchor:middle;font-size:18px;fill:#333;}#g0d43979b-e5e8-4320-98da-ecf2f8ff716c-flip rect.text{fill:none;stroke-width:0;}#g0d43979b-e5e8-4320-98da-ecf2f8ff716c-flip .icon-shape,#g0d43979b-e5e8-4320-98da-ecf2f8ff716c-flip .image-shape{background-color:rgba(232,232,232, 0.8);text-align:center;}#g0d43979b-e5e8-4320-98da-ecf2f8ff716c-flip .icon-shape p,#g0d43979b-e5e8-4320-98da-ecf2f8ff716c-flip .image-shape p{background-color:rgba(232,232,232, 0.8);padding:2px;}#g0d43979b-e5e8-4320-98da-ecf2f8ff716c-flip .icon-shape .label rect,#g0d43979b-e5e8-4320-98da-ecf2f8ff716c-flip .image-shape .label rect{opacity:0.5;background-color:rgba(232,232,232, 0.8);fill:rgba(232,232,232, 0.8);}#g0d43979b-e5e8-4320-98da-ecf2f8ff716c-flip .label-icon{display:inline-block;height:1em;overflow:visible;vertical-align:-0.125em;}#g0d43979b-e5e8-4320-98da-ecf2f8ff716c-flip .node .label-icon path{fill:currentColor;stroke:revert;stroke-width:revert;}#g0d43979b-e5e8-4320-98da-ecf2f8ff716c-flip .node .neo-node{stroke:#9370DB;}#g0d43979b-e5e8-4320-98da-ecf2f8ff716c-flip [data-look="neo"].node rect,#g0d43979b-e5e8-4320-98da-ecf2f8ff716c-flip [data-look="neo"].cluster rect,#g0d43979b-e5e8-4320-98da-ecf2f8ff716c-flip [data-look="neo"].node polygon{stroke:#9370DB;filter:drop-shadow(1px 2px 2px rgba(185, 185, 185, 1));}#g0d43979b-e5e8-4320-98da-ecf2f8ff716c-flip [data-look="neo"].node path{stroke:#9370DB;stroke-width:1px;}#g0d43979b-e5e8-4320-98da-ecf2f8ff716c-flip [data-look="neo"].node .outer-path{filter:drop-shadow(1px 2px 2px rgba(185, 185, 185, 1));}#g0d43979b-e5e8-4320-98da-ecf2f8ff716c-flip [data-look="neo"].node .neo-line path{stroke:#9370DB;filter:none;}#g0d43979b-e5e8-4320-98da-ecf2f8ff716c-flip [data-look="neo"].node circle{stroke:#9370DB;filter:drop-shadow(1px 2px 2px rgba(185, 185, 185, 1));}#g0d43979b-e5e8-4320-98da-ecf2f8ff716c-flip [data-look="neo"].node circle .state-start{fill:#000000;}#g0d43979b-e5e8-4320-98da-ecf2f8ff716c-flip [data-look="neo"].icon-shape .icon{fill:#9370DB;filter:drop-shadow(1px 2px 2px rgba(185, 185, 185, 1));}#g0d43979b-e5e8-4320-98da-ecf2f8ff716c-flip [data-look="neo"].icon-shape .icon-neo path{stroke:#9370DB;filter:drop-shadow(1px 2px 2px rgba(185, 185, 185, 1));}#g0d43979b-e5e8-4320-98da-ecf2f8ff716c-flip :root{--mermaid-font-family:"trebuchet ms",verdana,arial,sans-serif;}#g0d43979b-e5e8-4320-98da-ecf2f8ff716c-flip .rootNode rect{fill:#1F4870!important;stroke:#0E2C4A!important;color:#ffffff!important;stroke-width:2px!important;}#g0d43979b-e5e8-4320-98da-ecf2f8ff716c-flip .rootNode polygon{fill:#1F4870!important;stroke:#0E2C4A!important;color:#ffffff!important;stroke-width:2px!important;}#g0d43979b-e5e8-4320-98da-ecf2f8ff716c-flip .rootNode ellipse{fill:#1F4870!important;stroke:#0E2C4A!important;color:#ffffff!important;stroke-width:2px!important;}#g0d43979b-e5e8-4320-98da-ecf2f8ff716c-flip .rootNode circle{fill:#1F4870!important;stroke:#0E2C4A!important;color:#ffffff!important;stroke-width:2px!important;}#g0d43979b-e5e8-4320-98da-ecf2f8ff716c-flip .rootNode path{fill:#1F4870!important;stroke:#0E2C4A!important;color:#ffffff!important;stroke-width:2px!important;}#g0d43979b-e5e8-4320-98da-ecf2f8ff716c-flip .rootNode tspan{fill:#ffffff!important;}#g0d43979b-e5e8-4320-98da-ecf2f8ff716c-flip .primary rect{fill:#2E5A88!important;stroke:#1F4870!important;color:#ffffff!important;}#g0d43979b-e5e8-4320-98da-ecf2f8ff716c-flip .primary polygon{fill:#2E5A88!important;stroke:#1F4870!important;color:#ffffff!important;}#g0d43979b-e5e8-4320-98da-ecf2f8ff716c-flip .primary ellipse{fill:#2E5A88!important;stroke:#1F4870!important;color:#ffffff!important;}#g0d43979b-e5e8-4320-98da-ecf2f8ff716c-flip .primary circle{fill:#2E5A88!important;stroke:#1F4870!important;color:#ffffff!important;}#g0d43979b-e5e8-4320-98da-ecf2f8ff716c-flip .primary path{fill:#2E5A88!important;stroke:#1F4870!important;color:#ffffff!important;}#g0d43979b-e5e8-4320-98da-ecf2f8ff716c-flip .primary tspan{fill:#ffffff!important;}</style><g><marker id="g0d43979b-e5e8-4320-98da-ecf2f8ff716c-flip_flowchart-v2-pointEnd" class="marker flowchart-v2" viewBox="0 0 10 10" refX="5" refY="5" markerUnits="userSpaceOnUse" markerWidth="8" markerHeight="8" orient="auto"><path d="M 0 0 L 10 5 L 0 10 z" class="arrowMarkerPath" style="stroke-width: 1; stroke-dasharray: 1, 0;"></path></marker><marker id="g0d43979b-e5e8-4320-98da-ecf2f8ff716c-flip_flowchart-v2-pointStart" class="marker flowchart-v2" viewBox="0 0 10 10" refX="4.5" refY="5" markerUnits="userSpaceOnUse" markerWidth="8" markerHeight="8" orient="auto"><path d="M 0 5 L 10 10 L 10 0 z" class="arrowMarkerPath" style="stroke-width: 1; stroke-dasharray: 1, 0;"></path></marker><marker id="g0d43979b-e5e8-4320-98da-ecf2f8ff716c-flip_flowchart-v2-pointEnd-margin" class="marker flowchart-v2" viewBox="0 0 11.5 14" refX="11.5" refY="7" markerUnits="userSpaceOnUse" markerWidth="10.5" markerHeight="14" orient="auto"><path d="M 0 0 L 11.5 7 L 0 14 z" class="arrowMarkerPath" style="stroke-width: 0; stroke-dasharray: 1, 0;"></path></marker><marker id="g0d43979b-e5e8-4320-98da-ecf2f8ff716c-flip_flowchart-v2-pointStart-margin" class="marker flowchart-v2" viewBox="0 0 11.5 14" refX="1" refY="7" markerUnits="userSpaceOnUse" markerWidth="11.5" markerHeight="14" orient="auto"><polygon points="0,7 11.5,14 11.5,0" class="arrowMarkerPath" style="stroke-width: 0; stroke-dasharray: 1, 0;"></polygon></marker><marker id="g0d43979b-e5e8-4320-98da-ecf2f8ff716c-flip_flowchart-v2-circleEnd" class="marker flowchart-v2" viewBox="0 0 10 10" refX="11" refY="5" markerUnits="userSpaceOnUse" markerWidth="11" markerHeight="11" orient="auto"><circle cx="5" cy="5" r="5" class="arrowMarkerPath" style="stroke-width: 1; stroke-dasharray: 1, 0;"></circle></marker><marker id="g0d43979b-e5e8-4320-98da-ecf2f8ff716c-flip_flowchart-v2-circleStart" class="marker flowchart-v2" viewBox="0 0 10 10" refX="-1" refY="5" markerUnits="userSpaceOnUse" markerWidth="11" markerHeight="11" orient="auto"><circle cx="5" cy="5" r="5" class="arrowMarkerPath" style="stroke-width: 1; stroke-dasharray: 1, 0;"></circle></marker><marker id="g0d43979b-e5e8-4320-98da-ecf2f8ff716c-flip_flowchart-v2-circleEnd-margin" class="marker flowchart-v2" viewBox="0 0 10 10" refY="5" refX="12.25" markerUnits="userSpaceOnUse" markerWidth="14" markerHeight="14" orient="auto"><circle cx="5" cy="5" r="5" class="arrowMarkerPath" style="stroke-width: 0; stroke-dasharray: 1, 0;"></circle></marker><marker id="g0d43979b-e5e8-4320-98da-ecf2f8ff716c-flip_flowchart-v2-circleStart-margin" class="marker flowchart-v2" viewBox="0 0 10 10" refX="-2" refY="5" markerUnits="userSpaceOnUse" markerWidth="14" markerHeight="14" orient="auto"><circle cx="5" cy="5" r="5" class="arrowMarkerPath" style="stroke-width: 0; stroke-dasharray: 1, 0;"></circle></marker><marker id="g0d43979b-e5e8-4320-98da-ecf2f8ff716c-flip_flowchart-v2-crossEnd" class="marker cross flowchart-v2" viewBox="0 0 11 11" refX="12" refY="5.2" markerUnits="userSpaceOnUse" markerWidth="11" markerHeight="11" orient="auto"><path d="M 1,1 l 9,9 M 10,1 l -9,9" class="arrowMarkerPath" style="stroke-width: 2; stroke-dasharray: 1, 0;"></path></marker><marker id="g0d43979b-e5e8-4320-98da-ecf2f8ff716c-flip_flowchart-v2-crossStart" class="marker cross flowchart-v2" viewBox="0 0 11 11" refX="-1" refY="5.2" markerUnits="userSpaceOnUse" markerWidth="11" markerHeight="11" orient="auto"><path d="M 1,1 l 9,9 M 10,1 l -9,9" class="arrowMarkerPath" style="stroke-width: 2; stroke-dasharray: 1, 0;"></path></marker><marker id="g0d43979b-e5e8-4320-98da-ecf2f8ff716c-flip_flowchart-v2-crossEnd-margin" class="marker cross flowchart-v2" viewBox="0 0 15 15" refX="17.7" refY="7.5" markerUnits="userSpaceOnUse" markerWidth="12" markerHeight="12" orient="auto"><path d="M 1,1 L 14,14 M 1,14 L 14,1" class="arrowMarkerPath" style="stroke-width: 2.5;"></path></marker><marker id="g0d43979b-e5e8-4320-98da-ecf2f8ff716c-flip_flowchart-v2-crossStart-margin" class="marker cross flowchart-v2" viewBox="0 0 15 15" refX="-3.5" refY="7.5" markerUnits="userSpaceOnUse" markerWidth="12" markerHeight="12" orient="auto"><path d="M 1,1 L 14,14 M 1,14 L 14,1" class="arrowMarkerPath" style="stroke-width: 2.5; stroke-dasharray: 1, 0;"></path></marker><g class="root"><g class="clusters"></g><g class="edgePaths"><path d="M66.52,393.2L78.378,343.733C90.237,294.267,113.954,195.333,131.751,145.867C149.548,96.4,161.426,96.4,167.364,96.4L173.303,96.4" id="g0d43979b-e5e8-4320-98da-ecf2f8ff716c-flip-L_root_node_runtime_0" class="edge-thickness-normal edge-pattern-solid edge-thickness-normal edge-pattern-solid flowchart-link" style=";" data-edge="true" data-et="edge" data-id="L_root_node_runtime_0" data-points="W3sieCI6NjYuNTIwMDc4ODE0MDQ1MDQsInkiOjM5My4yMDAwMDA3NjI5Mzk0NX0seyJ4IjoxMzcuNjcwMzY0Mzc5ODgyOCwieSI6OTYuNDAwMDAxNTI1ODc4OX0seyJ4IjoxNzcuMzAzMTc2ODc5ODgyOCwieSI6OTYuNDAwMDAxNTI1ODc4OX1d" data-look="classic" marker-end="url(#g0d43979b-e5e8-4320-98da-ecf2f8ff716c-flip_flowchart-v2-pointEnd)"></path><path d="M79.41,393.2L89.12,380.067C98.83,366.933,118.25,340.667,134.65,327.533C151.051,314.4,164.431,314.4,171.121,314.4L177.811,314.4" id="g0d43979b-e5e8-4320-98da-ecf2f8ff716c-flip-L_root_node_output_0" class="edge-thickness-normal edge-pattern-solid edge-thickness-normal edge-pattern-solid flowchart-link" style=";" data-edge="true" data-et="edge" data-id="L_root_node_output_0" data-points="W3sieCI6NzkuNDEwMjA3NzIxNTM0MTksInkiOjM5My4yMDAwMDA3NjI5Mzk0NX0seyJ4IjoxMzcuNjcwMzY0Mzc5ODgyOCwieSI6MzE0LjQwMDAwMTUyNTg3ODl9LHsieCI6MTgxLjgxMDk4OTM3OTg4MjgsInkiOjMxNC40MDAwMDE1MjU4Nzg5fV0=" data-look="classic" marker-end="url(#g0d43979b-e5e8-4320-98da-ecf2f8ff716c-flip_flowchart-v2-pointEnd)"></path><path d="M79.41,444.8L89.12,457.933C98.83,471.067,118.25,497.333,138.361,510.467C158.472,523.6,179.275,523.6,189.676,523.6L200.077,523.6" id="g0d43979b-e5e8-4320-98da-ecf2f8ff716c-flip-L_root_node_build_0" class="edge-thickness-normal edge-pattern-solid edge-thickness-normal edge-pattern-solid flowchart-link" style=";" data-edge="true" data-et="edge" data-id="L_root_node_build_0" data-points="W3sieCI6NzkuNDEwMjA3NzIxNTM0MTksInkiOjQ0NC43OTk5OTkyMzcwNjA1NX0seyJ4IjoxMzcuNjcwMzY0Mzc5ODgyOCwieSI6NTIzLjU5OTk5ODQ3NDEyMTF9LHsieCI6MjA0LjA3NjYxNDM3OTg4MjgsInkiOjUyMy41OTk5OTg0NzQxMjExfV0=" data-look="classic" marker-end="url(#g0d43979b-e5e8-4320-98da-ecf2f8ff716c-flip_flowchart-v2-pointEnd)"></path><path d="M66.694,444.8L78.523,492.8C90.352,540.8,114.011,636.8,129.341,684.8C144.67,732.8,151.67,732.8,155.17,732.8L158.67,732.8" id="g0d43979b-e5e8-4320-98da-ecf2f8ff716c-flip-L_root_node_config_0" class="edge-thickness-normal edge-pattern-solid edge-thickness-normal edge-pattern-solid flowchart-link" style=";" data-edge="true" data-et="edge" data-id="L_root_node_config_0" data-points="W3sieCI6NjYuNjkzNTI0MDMzODA1NjcsInkiOjQ0NC43OTk5OTkyMzcwNjA1NX0seyJ4IjoxMzcuNjcwMzY0Mzc5ODgyOCwieSI6NzMyLjc5OTk5NTQyMjM2MzN9LHsieCI6MTYyLjY3MDM2NDM3OTg4MjgsInkiOjczMi43OTk5OTU0MjIzNjMzfV0=" data-look="classic" marker-end="url(#g0d43979b-e5e8-4320-98da-ecf2f8ff716c-flip_flowchart-v2-pointEnd)"></path></g><g class="edgeLabels"><g class="edgeLabel"><g class="label" data-id="L_root_node_runtime_0" transform="translate(0, 0)"><text y="-10.1" text-anchor="middle"><tspan class="text-outer-tspan row" x="0" y="-0.1em" dy="1.1em" text-anchor="middle"></tspan></text></g></g><g><rect class="background" style="stroke: none"></rect></g><g class="edgeLabel"><g class="label" data-id="L_root_node_output_0" transform="translate(0, 0)"><text y="-10.1" text-anchor="middle"><tspan class="text-outer-tspan row" x="0" y="-0.1em" dy="1.1em" text-anchor="middle"></tspan></text></g></g><g><rect class="background" style="stroke: none"></rect></g><g class="edgeLabel"><g class="label" data-id="L_root_node_build_0" transform="translate(0, 0)"><text y="-10.1" text-anchor="middle"><tspan class="text-outer-tspan row" x="0" y="-0.1em" dy="1.1em" text-anchor="middle"></tspan></text></g></g><g><rect class="background" style="stroke: none"></rect></g><g class="edgeLabel"><g class="label" data-id="L_root_node_config_0" transform="translate(0, 0)"><text y="-10.1" text-anchor="middle"><tspan class="text-outer-tspan row" x="0" y="-0.1em" dy="1.1em" text-anchor="middle"></tspan></text></g></g><g><rect class="background" style="stroke: none"></rect></g></g><g class="nodes"><g class="root" transform="translate(154.6703643798828, 645.1999969482422)"><g class="clusters"><g class="cluster" id="g0d43979b-e5e8-4320-98da-ecf2f8ff716c-flip-config" data-look="classic"><rect style="" x="8" y="8" width="562.953125" height="159.1999969482422"></rect><g class="cluster-label" transform="translate(266.7734375, 8)"><g><rect class="background" style="stroke: none"></rect><text y="-10.1" style=""><tspan class="text-outer-tspan row" x="0" y="-0.1em" dy="1.1em"><tspan font-style="normal" class="text-inner-tspan" font-weight="normal">Config</tspan></tspan></text></g></g></g></g><g class="edgePaths"></g><g class="edgeLabels"></g><g class="nodes"><g class="node default primary" id="g0d43979b-e5e8-4320-98da-ecf2f8ff716c-flip-flowchart-layered-7" data-look="classic" transform="translate(162.796875, 87.5999984741211)"><rect class="basic label-container" style="fill:#2E5A88 !important;stroke:#1F4870 !important" x="-119.796875" y="-42.099998474121094" width="239.59375" height="84.19999694824219"></rect><g class="label" style="color:#ffffff !important" transform="translate(0, -27.099998474121094)"><rect></rect><g><rect class="background" style="stroke: none"></rect><text y="-10.1" style="fill:#ffffff !important"><tspan class="text-outer-tspan row" x="0" y="-0.1em" dy="1.1em"><tspan font-style="normal" class="text-inner-tspan" font-weight="normal">Layered</tspan><tspan font-style="normal" class="text-inner-tspan" font-weight="normal"> Config</tspan></tspan><tspan class="text-outer-tspan row" x="0" y="1em" dy="1.1em"><tspan font-style="normal" class="text-inner-tspan" font-weight="normal">Defaults</tspan><tspan font-style="normal" class="text-inner-tspan" font-weight="normal"> to</tspan><tspan font-style="normal" class="text-inner-tspan" font-weight="normal"> Global</tspan><tspan font-style="normal" class="text-inner-tspan" font-weight="normal"> to</tspan><tspan font-style="normal" class="text-inner-tspan" font-weight="normal"> Env</tspan></tspan><tspan class="text-outer-tspan row" x="0" y="2.1em" dy="1.1em"><tspan font-style="normal" class="text-inner-tspan" font-weight="normal">to</tspan><tspan font-style="normal" class="text-inner-tspan" font-weight="normal"> Local</tspan><tspan font-style="normal" class="text-inner-tspan" font-weight="normal"> to</tspan><tspan font-style="normal" class="text-inner-tspan" font-weight="normal"> CLI</tspan></tspan></text></g></g></g><g class="node default primary" id="g0d43979b-e5e8-4320-98da-ecf2f8ff716c-flip-flowchart-ext-8" data-look="classic" transform="translate(434.2734375, 87.5999984741211)"><rect class="basic label-container" style="fill:#2E5A88 !important;stroke:#1F4870 !important" x="-101.6796875" y="-33.29999923706055" width="203.359375" height="66.5999984741211"></rect><g class="label" style="color:#ffffff !important" transform="translate(0, -18.299999237060547)"><rect></rect><g><rect class="background" style="stroke: none"></rect><text y="-10.1" style="fill:#ffffff !important"><tspan class="text-outer-tspan row" x="0" y="-0.1em" dy="1.1em"><tspan font-style="normal" class="text-inner-tspan" font-weight="normal">Extension</tspan><tspan font-style="normal" class="text-inner-tspan" font-weight="normal"> Detection</tspan></tspan><tspan class="text-outer-tspan row" x="0" y="1em" dy="1.1em"><tspan font-style="normal" class="text-inner-tspan" font-weight="normal">Longest</tspan><tspan font-style="normal" class="text-inner-tspan" font-weight="normal"> match</tspan><tspan font-style="normal" class="text-inner-tspan" font-weight="normal"> first</tspan></tspan></text></g></g></g></g></g><g class="root" transform="translate(196.0766143798828, 436)"><g class="clusters"><g class="cluster" id="g0d43979b-e5e8-4320-98da-ecf2f8ff716c-flip-build" data-look="classic"><rect style="" x="8" y="8" width="480.140625" height="159.1999969482422"></rect><g class="cluster-label" transform="translate(230.0703125, 8)"><g><rect class="background" style="stroke: none"></rect><text y="-10.1" style=""><tspan class="text-outer-tspan row" x="0" y="-0.1em" dy="1.1em"><tspan font-style="normal" class="text-inner-tspan" font-weight="normal">Build</tspan></tspan></text></g></g></g></g><g class="edgePaths"></g><g class="edgeLabels"></g><g class="nodes"><g class="node default primary" id="g0d43979b-e5e8-4320-98da-ecf2f8ff716c-flip-flowchart-incremental-5" data-look="classic" transform="translate(139.7890625, 87.5999984741211)"><rect class="basic label-container" style="fill:#2E5A88 !important;stroke:#1F4870 !important" x="-96.7890625" y="-42.099998474121094" width="193.578125" height="84.19999694824219"></rect><g class="label" style="color:#ffffff !important" transform="translate(0, -27.099998474121094)"><rect></rect><g><rect class="background" style="stroke: none"></rect><text y="-10.1" style="fill:#ffffff !important"><tspan class="text-outer-tspan row" x="0" y="-0.1em" dy="1.1em"><tspan font-style="normal" class="text-inner-tspan" font-weight="normal">Incremental</tspan><tspan font-style="normal" class="text-inner-tspan" font-weight="normal"> Builds</tspan></tspan><tspan class="text-outer-tspan row" x="0" y="1em" dy="1.1em"><tspan font-style="normal" class="text-inner-tspan" font-weight="normal">SHA-256</tspan><tspan font-style="normal" class="text-inner-tspan" font-weight="normal"> manifest</tspan></tspan><tspan class="text-outer-tspan row" x="0" y="2.1em" dy="1.1em"><tspan font-style="normal" class="text-inner-tspan" font-weight="normal">Skip</tspan><tspan font-style="normal" class="text-inner-tspan" font-weight="normal"> unchanged</tspan></tspan></text></g></g></g><g class="node default primary" id="g0d43979b-e5e8-4320-98da-ecf2f8ff716c-flip-flowchart-atomic-6" data-look="classic" transform="translate(369.859375, 87.5999984741211)"><rect class="basic label-container" style="fill:#2E5A88 !important;stroke:#1F4870 !important" x="-83.28125" y="-33.29999923706055" width="166.5625" height="66.5999984741211"></rect><g class="label" style="color:#ffffff !important" transform="translate(0, -18.299999237060547)"><rect></rect><g><rect class="background" style="stroke: none"></rect><text y="-10.1" style="fill:#ffffff !important"><tspan class="text-outer-tspan row" x="0" y="-0.1em" dy="1.1em"><tspan font-style="normal" class="text-inner-tspan" font-weight="normal">Atomic</tspan><tspan font-style="normal" class="text-inner-tspan" font-weight="normal"> Writes</tspan></tspan><tspan class="text-outer-tspan row" x="0" y="1em" dy="1.1em"><tspan font-style="normal" class="text-inner-tspan" font-weight="normal">.tmp</tspan><tspan font-style="normal" class="text-inner-tspan" font-weight="normal"> +</tspan><tspan font-style="normal" class="text-inner-tspan" font-weight="normal"> rename</tspan></tspan></text></g></g></g></g></g><g class="root" transform="translate(173.8109893798828, 226.8000030517578)"><g class="clusters"><g class="cluster" id="g0d43979b-e5e8-4320-98da-ecf2f8ff716c-flip-output" data-look="classic"><rect style="" x="8" y="8" width="524.671875" height="159.1999969482422"></rect><g class="cluster-label" transform="translate(245.3984375, 8)"><g><rect class="background" style="stroke: none"></rect><text y="-10.1" style=""><tspan class="text-outer-tspan row" x="0" y="-0.1em" dy="1.1em"><tspan font-style="normal" class="text-inner-tspan" font-weight="normal">Output</tspan></tspan></text></g></g></g></g><g class="edgePaths"></g><g class="edgeLabels"></g><g class="nodes"><g class="node default primary" id="g0d43979b-e5e8-4320-98da-ecf2f8ff716c-flip-flowchart-svgFirst-3" data-look="classic" transform="translate(140.4296875, 87.5999984741211)"><rect class="basic label-container" style="fill:#2E5A88 !important;stroke:#1F4870 !important" x="-97.4296875" y="-42.099998474121094" width="194.859375" height="84.19999694824219"></rect><g class="label" style="color:#ffffff !important" transform="translate(0, -27.099998474121094)"><rect></rect><g><rect class="background" style="stroke: none"></rect><text y="-10.1" style="fill:#ffffff !important"><tspan class="text-outer-tspan row" x="0" y="-0.1em" dy="1.1em"><tspan font-style="normal" class="text-inner-tspan" font-weight="normal">SVG-First</tspan></tspan><tspan class="text-outer-tspan row" x="0" y="1em" dy="1.1em"><tspan font-style="normal" class="text-inner-tspan" font-weight="normal">Vector</tspan><tspan font-style="normal" class="text-inner-tspan" font-weight="normal"> is</tspan><tspan font-style="normal" class="text-inner-tspan" font-weight="normal"> canonical</tspan></tspan><tspan class="text-outer-tspan row" x="0" y="2.1em" dy="1.1em"><tspan font-style="normal" class="text-inner-tspan" font-weight="normal">Raster</tspan><tspan font-style="normal" class="text-inner-tspan" font-weight="normal"> via</tspan><tspan font-style="normal" class="text-inner-tspan" font-weight="normal"> sharp</tspan></tspan></text></g></g></g><g class="node default primary" id="g0d43979b-e5e8-4320-98da-ecf2f8ff716c-flip-flowchart-themes-4" data-look="classic" transform="translate(392.765625, 87.5999984741211)"><rect class="basic label-container" style="fill:#2E5A88 !important;stroke:#1F4870 !important" x="-104.90625" y="-42.099998474121094" width="209.8125" height="84.19999694824219"></rect><g class="label" style="color:#ffffff !important" transform="translate(0, -27.099998474121094)"><rect></rect><g><rect class="background" style="stroke: none"></rect><text y="-10.1" style="fill:#ffffff !important"><tspan class="text-outer-tspan row" x="0" y="-0.1em" dy="1.1em"><tspan font-style="normal" class="text-inner-tspan" font-weight="normal">Light</tspan><tspan font-style="normal" class="text-inner-tspan" font-weight="normal"> +</tspan><tspan font-style="normal" class="text-inner-tspan" font-weight="normal"> Dark</tspan></tspan><tspan class="text-outer-tspan row" x="0" y="1em" dy="1.1em"><tspan font-style="normal" class="text-inner-tspan" font-weight="normal">Both</tspan><tspan font-style="normal" class="text-inner-tspan" font-weight="normal"> themes</tspan><tspan font-style="normal" class="text-inner-tspan" font-weight="normal"> default</tspan></tspan><tspan class="text-outer-tspan row" x="0" y="2.1em" dy="1.1em"><tspan font-style="normal" class="text-inner-tspan" font-weight="normal">Theme</tspan><tspan font-style="normal" class="text-inner-tspan" font-weight="normal"> suffix</tspan><tspan font-style="normal" class="text-inner-tspan" font-weight="normal"> naming</tspan></tspan></text></g></g></g></g></g><g class="root" transform="translate(169.3031768798828, 0)"><g class="clusters"><g class="cluster" id="g0d43979b-e5e8-4320-98da-ecf2f8ff716c-flip-runtime" data-look="classic"><rect style="" x="8" y="8" width="533.6875" height="176.8000030517578"></rect><g class="cluster-label" transform="translate(245.21875, 8)"><g><rect class="background" style="stroke: none"></rect><text y="-10.1" style=""><tspan class="text-outer-tspan row" x="0" y="-0.1em" dy="1.1em"><tspan font-style="normal" class="text-inner-tspan" font-weight="normal">Runtime</tspan></tspan></text></g></g></g></g><g class="edgePaths"></g><g class="edgeLabels"></g><g class="nodes"><g class="node default primary" id="g0d43979b-e5e8-4320-98da-ecf2f8ff716c-flip-flowchart-chromium-1" data-look="classic" transform="translate(152.625, 96.4000015258789)"><rect class="basic label-container" style="fill:#2E5A88 !important;stroke:#1F4870 !important" x="-109.625" y="-42.099998474121094" width="219.25" height="84.19999694824219"></rect><g class="label" style="color:#ffffff !important" transform="translate(0, -27.099998474121094)"><rect></rect><g><rect class="background" style="stroke: none"></rect><text y="-10.1" style="fill:#ffffff !important"><tspan class="text-outer-tspan row" x="0" y="-0.1em" dy="1.1em"><tspan font-style="normal" class="text-inner-tspan" font-weight="normal">One</tspan><tspan font-style="normal" class="text-inner-tspan" font-weight="normal"> Chromium</tspan></tspan><tspan class="text-outer-tspan row" x="0" y="1em" dy="1.1em"><tspan font-style="normal" class="text-inner-tspan" font-weight="normal">Shared</tspan><tspan font-style="normal" class="text-inner-tspan" font-weight="normal"> BrowserPool</tspan></tspan><tspan class="text-outer-tspan row" x="0" y="2.1em" dy="1.1em"><tspan font-style="normal" class="text-inner-tspan" font-weight="normal">Graphviz</tspan><tspan font-style="normal" class="text-inner-tspan" font-weight="normal"> is</tspan><tspan font-style="normal" class="text-inner-tspan" font-weight="normal"> WASM</tspan><tspan font-style="normal" class="text-inner-tspan" font-weight="normal"> only</tspan></tspan></text></g></g></g><g class="node default primary" id="g0d43979b-e5e8-4320-98da-ecf2f8ff716c-flip-flowchart-registry-2" data-look="classic" transform="translate(409.46875, 96.4000015258789)"><rect class="basic label-container" style="fill:#2E5A88 !important;stroke:#1F4870 !important" x="-97.21875" y="-50.900001525878906" width="194.4375" height="101.80000305175781"></rect><g class="label" style="color:#ffffff !important" transform="translate(0, -35.900001525878906)"><rect></rect><g><rect class="background" style="stroke: none"></rect><text y="-10.1" style="fill:#ffffff !important"><tspan class="text-outer-tspan row" x="0" y="-0.1em" dy="1.1em"><tspan font-style="normal" class="text-inner-tspan" font-weight="normal">Engine</tspan><tspan font-style="normal" class="text-inner-tspan" font-weight="normal"> Registry</tspan></tspan><tspan class="text-outer-tspan row" x="0" y="1em" dy="1.1em"><tspan font-style="normal" class="text-inner-tspan" font-weight="normal">Extension</tspan><tspan font-style="normal" class="text-inner-tspan" font-weight="normal"> mapping</tspan></tspan><tspan class="text-outer-tspan row" x="0" y="2.1em" dy="1.1em"><tspan font-style="normal" class="text-inner-tspan" font-weight="normal">Engine</tspan><tspan font-style="normal" class="text-inner-tspan" font-weight="normal"> profiles</tspan></tspan><tspan class="text-outer-tspan row" x="0" y="3.2em" dy="1.1em"><tspan font-style="normal" class="text-inner-tspan" font-weight="normal">Renderer</tspan><tspan font-style="normal" class="text-inner-tspan" font-weight="normal"> dispatch</tspan></tspan></text></g></g></g></g></g><g class="node default rootNode" id="g0d43979b-e5e8-4320-98da-ecf2f8ff716c-flip-flowchart-root_node-0" data-look="classic" transform="translate(60.335182189941406, 419)"><g class="basic label-container outer-path"><path d="M-26.54843807220459 -25.799999237060547 C-11.455420452364557 -25.799999237060547, 3.6375971674754766 -25.799999237060547, 26.54843807220459 -25.799999237060547 C26.54843807220459 -25.799999237060547, 26.54843807220459 -25.799999237060547, 26.54843807220459 -25.799999237060547 C26.88017216379369 -25.789361170424524, 27.211906255382793 -25.778723103788497, 28.201449698825282 -25.746990371586765 C28.668431999762188 -25.70194115064377, 29.13541430069909 -25.65689192970077, 29.84766874610231 -25.58818159996402 C30.498885273469657 -25.482897962078862, 31.150101800837007 -25.377614324193708, 31.48033054685753 -25.32422550149928 C31.984727776006455 -25.209100125445566, 32.48912500515538 -25.09397474939185, 33.092726143546784 -24.956206728419545 C33.44404991799256 -24.851935676300165, 33.79537369243834 -24.747664624180782, 34.678229856805515 -24.48563754880318 C35.07578344531568 -24.33933415328635, 35.473337033825835 -24.193030757769524, 36.23032651178644 -23.914451632345997 C36.57133029379037 -23.763499373570646, 36.912334075794305 -23.61254711479529, 37.74263821041056 -23.24499610449772 C38.086195658520694 -23.065762403877713, 38.42975310663083 -22.886528703257703, 39.2089505395184 -22.480021901620034 C39.55410838591987 -22.27078518675881, 39.89926623232134 -22.061548471897588, 40.62323810722664 -21.62267246679901 C41.07526597553038 -21.30735739384136, 41.52729384383412 -20.992042320883712, 41.97968930255584 -20.67647083276321 C42.401987643394364 -20.3396991437753, 42.82428598423288 -20.00292745478739, 43.272730176586506 -19.64530514498651 C43.671206285837876 -19.283419685664526, 44.06968239508924 -18.921534226342544, 44.49704734701088 -18.533412684464313 C44.86551630874902 -18.15293822960531, 45.23398527048717 -17.77246377474631, 45.64760983196044 -17.345362455817106 C45.971977840715915 -16.964341335670355, 46.2963458494714 -16.583320215523603, 46.71968972338968 -16.086036412270357 C46.936563632603296 -15.795445131543689, 47.15343754181691 -15.504853850817021, 47.70888161506427 -14.76060939466161 C48.00666018132655 -14.303141552141591, 48.30443874758883 -13.845673709621574, 48.61112070532037 -13.374527866909407 C48.814325417299564 -13.013717324081997, 49.01753012927876 -12.652906781254586, 49.422699500206406 -11.93348753532484 C49.70916880304091 -11.338627898527827, 49.995638105875415 -10.743768261730814, 50.14028304837108 -10.443409943732584 C50.36581143845441 -9.886350459931977, 50.59133982853773 -9.32929097613137, 50.760922645093814 -8.910418140577123 C50.927533969239256 -8.408611378160556, 51.0941452933847 -7.9068046157439875, 51.2820679491449 -7.340811518003323 C51.38273687369031 -6.956917278523793, 51.48340579823572 -6.573023039044263, 51.70157746268467 -5.741039926302914 C51.824203169040324 -5.111382841118832, 51.94682887539598 -4.481725755934751, 52.01772733113747 -4.117677170096137 C52.06571817970163 -3.7454696254974595, 52.113709028265795 -3.373262080898782, 52.22921842687991 -2.4773939951584394 C52.26234090675811 -1.9614846350708617, 52.29546338663632 -1.4455752749832838, 52.33518168763487 -0.8269306768952902 C52.33518168763487 -0.4496572129993529, 52.33518168763487 -0.0723837491034156, 52.33518168763487 0.826930676895284 C52.29758555823422 1.4125207393599155, 52.25998942883356 1.998110801824547, 52.22921842687991 2.4773939951584216 C52.161470864560194 3.0028307102407936, 52.09372330224048 3.528267425323166, 52.01772733113748 4.117677170096119 C51.89155860986053 4.765526888084534, 51.76538988858359 5.41337660607295, 51.70157746268467 5.741039926302909 C51.60281497200309 6.117664107205998, 51.50405248132151 6.494288288109088, 51.28206794914491 7.340811518003306 C51.16137609807329 7.704316143795991, 51.04068424700167 8.067820769588675, 50.76092264509383 8.910418140577105 C50.52805476474578 9.485606307230968, 50.29518688439774 10.060794473884833, 50.14028304837109 10.443409943732577 C49.902023702592935 10.938160573174246, 49.663764356814774 11.432911202615914, 49.422699500206406 11.933487535324835 C49.14214985649656 12.43163183646364, 48.861600212786705 12.929776137602442, 48.611120705320374 13.374527866909402 C48.367582148331074 13.748668489704274, 48.124043591341774 14.122809112499146, 47.708881615064286 14.760609394661596 C47.43132497912661 15.132510000888374, 47.15376834318892 15.504410607115153, 46.71968972338968 16.086036412270353 C46.353466219615015 16.516223378511768, 45.98724271584036 16.946410344753186, 45.64760983196045 17.345362455817092 C45.369866725535104 17.632155016334377, 45.09212361910976 17.918947576851664, 44.49704734701088 18.533412684464306 C44.08565748949134 18.90702606828439, 43.6742676319718 19.280639452104477, 43.272730176586535 19.64530514498649 C42.86483393255358 19.970591545027855, 42.456937688520625 20.29587794506922, 41.97968930255585 20.676470832763208 C41.52259954059524 20.995316863610046, 41.06550977863462 21.31416289445689, 40.623238107226655 21.622672466799003 C40.06247295847033 21.962611595396886, 39.50170780971401 22.30255072399477, 39.208950539518405 22.48002190162003 C38.721476965900955 22.734336552734526, 38.23400339228351 22.988651203849024, 37.74263821041057 23.244996104497716 C37.2157586871472 23.478230040120664, 36.68887916388383 23.71146397574361, 36.23032651178645 23.914451632345994 C35.726732684841785 24.099778815831936, 35.223138857897126 24.285105999317878, 34.67822985680553 24.485637548803172 C34.05166291229197 24.67159932901779, 33.425095967778404 24.857561109232414, 33.09272614354681 24.95620672841954 C32.76421712646584 25.031186767846595, 32.43570810938486 25.106166807273652, 31.480330546857545 25.324225501499278 C31.003632417023127 25.401294358281696, 30.52693428718871 25.478363215064117, 29.84766874610233 25.588181599964017 C29.44625703864979 25.626905304613754, 29.044845331197248 25.66562900926349, 28.201449698825282 25.746990371586765 C27.696777149312158 25.763174237964126, 27.192104599799038 25.779358104341483, 26.548438072204593 25.799999237060547 C26.548438072204593 25.799999237060547, 26.54843807220459 25.799999237060547, 26.54843807220459 25.799999237060547 C10.883805859833847 25.799999237060547, -4.780826352536895 25.799999237060547, -26.548438072204586 25.799999237060547 C-26.90472630325565 25.78857376696371, -27.261014534306717 25.777148296866873, -28.20144969882527 25.746990371586765 C-28.793160005341104 25.68990878995294, -29.384870311856936 25.632827208319117, -29.84766874610232 25.588181599964017 C-30.33387760062728 25.509575122970404, -30.820086455152243 25.430968645976787, -31.480330546857534 25.324225501499278 C-32.08832090893219 25.185455668863632, -32.69631127100684 25.04668583622799, -33.092726143546784 24.956206728419545 C-33.56076273074463 24.817295926113406, -34.02879931794247 24.678385123807267, -34.6782298568055 24.485637548803183 C-34.9899902125683 24.370906856001337, -35.301750568331094 24.25617616319949, -36.230326511786444 23.914451632345997 C-36.64317046527971 23.731697860715286, -37.05601441877298 23.548944089084575, -37.74263821041056 23.244996104497723 C-38.29626663872464 22.956168508062206, -38.84989506703871 22.667340911626685, -39.2089505395184 22.480021901620038 C-39.63649124524624 22.220844213299745, -40.06403195097408 21.961666524979453, -40.623238107226626 21.622672466799017 C-41.0056199513251 21.355939445399166, -41.38800179542358 21.089206423999315, -41.97968930255584 20.67647083276321 C-42.28241501621767 20.435055131987465, -42.585140729879505 20.19363943121172, -43.272730176586506 19.645305144986512 C-43.72205985201312 19.2372358223758, -44.17138952743972 18.829166499765094, -44.49704734701086 18.533412684464324 C-44.86012486820476 18.158505334612762, -45.22320238939865 17.7835979847612, -45.64760983196044 17.3453624558171 C-46.03084360261663 16.89519426218503, -46.414077373272825 16.445026068552963, -46.71968972338967 16.08603641227036 C-47.0392343242078 15.657875758286082, -47.358778925025916 15.229715104301803, -47.70888161506427 14.760609394661614 C-47.962953331566254 14.3702870103059, -48.21702504806823 13.979964625950185, -48.61112070532036 13.374527866909418 C-48.92338417047475 12.820072464423184, -49.23564763562914 12.265617061936949, -49.4226995002064 11.933487535324842 C-49.65546609466168 11.450142721531165, -49.888232689116975 10.966797907737488, -50.14028304837108 10.443409943732586 C-50.31839020167807 10.003481831596764, -50.49649735498507 9.563553719460941, -50.760922645093814 8.910418140577127 C-50.894162472958826 8.509121007931338, -51.02740230082384 8.10782387528555, -51.2820679491449 7.340811518003316 C-51.44469455312964 6.720645794193502, -51.60732115711438 6.100480070383689, -51.70157746268467 5.741039926302918 C-51.76502710983062 5.415239398296146, -51.82847675697656 5.089438870289374, -52.01772733113747 4.117677170096139 C-52.07672267068016 3.6601209665505174, -52.13571801022286 3.2025647630048955, -52.22921842687991 2.477393995158454 C-52.26568639659311 1.9093759304599627, -52.30215436630632 1.3413578657614715, -52.33518168763487 0.8269306768952934 C-52.33518168763487 0.3545955184240072, -52.33518168763487 -0.11773964004727899, -52.33518168763487 -0.8269306768952809 C-52.29427546124936 -1.4640781717611937, -52.25336923486386 -2.1012256666271067, -52.22921842687991 -2.4773939951584185 C-52.15556295816111 -3.0486512656239833, -52.081907489442315 -3.6199085360895475, -52.01772733113748 -4.117677170096128 C-51.9425440950117 -4.50372719761943, -51.86736085888591 -4.889777225142732, -51.70157746268467 -5.741039926302906 C-51.57538325549784 -6.22227313122164, -51.44918904831102 -6.703506336140373, -51.28206794914491 -7.340811518003303 C-51.118618880088015 -7.83309407193009, -50.955169811031126 -8.325376625856878, -50.76092264509383 -8.910418140577093 C-50.61338560057521 -9.274837492972804, -50.46584855605658 -9.639256845368514, -50.14028304837109 -10.443409943732574 C-49.98552401330061 -10.764770391369305, -49.830764978230135 -11.086130839006037, -49.422699500206406 -11.933487535324831 C-49.17425506813453 -12.374625782195208, -48.92581063606265 -12.815764029065587, -48.61112070532037 -13.374527866909409 C-48.29967112599119 -13.852998056681205, -47.98822154666202 -14.331468246453001, -47.70888161506428 -14.760609394661605 C-47.31928690199829 -15.282630817361518, -46.92969218893229 -15.804652240061431, -46.71968972338968 -16.086036412270353 C-46.31849678473356 -16.557300466540738, -45.91730384607745 -17.028564520811127, -45.64760983196045 -17.345362455817092 C-45.289796785321485 -17.714833803469293, -44.93198373868252 -18.08430515112149, -44.49704734701089 -18.5334126844643 C-44.013704001226934 -18.97237232254115, -43.530360655442976 -19.411331960618, -43.272730176586535 -19.645305144986487 C-42.93462387242309 -19.914935925170212, -42.59651756825965 -20.18456670535394, -41.97968930255585 -20.676470832763204 C-41.625472625913986 -20.923557052595775, -41.271255949272124 -21.170643272428343, -40.62323810722666 -21.622672466799 C-40.28939861609245 -21.82504792818317, -39.955559124958235 -22.027423389567343, -39.208950539518405 -22.480021901620027 C-38.67647030138357 -22.757816500785104, -38.14399006324874 -23.035611099950177, -37.742638210410576 -23.244996104497716 C-37.16157199768209 -23.50221688015584, -36.580505784953594 -23.75943765581396, -36.23032651178645 -23.91445163234599 C-35.869686599576454 -24.047170453758074, -35.50904668736646 -24.179889275170158, -34.67822985680553 -24.485637548803172 C-34.323450001619044 -24.59093434754506, -33.968670146432565 -24.696231146286944, -33.09272614354682 -24.956206728419538 C-32.52340527425281 -25.086150501670023, -31.954084404958806 -25.216094274920508, -31.480330546857545 -25.324225501499278 C-30.86787496595201 -25.42324257015612, -30.25541938504647 -25.52225963881296, -29.84766874610233 -25.588181599964017 C-29.401800492130388 -25.63119397418966, -28.955932238158447 -25.674206348415304, -28.201449698825286 -25.746990371586765 C-27.827486030343984 -25.75898265855884, -27.45352236186268 -25.77097494553091, -26.548438072204597 -25.799999237060547 C-26.548438072204597 -25.799999237060547, -26.548438072204593 -25.799999237060547, -26.54843807220459 -25.799999237060547" stroke="none" stroke-width="0" fill="#1F4870" style="fill:#1F4870 !important;stroke:#0E2C4A !important;stroke-width:2px !important"></path><path d="M-26.54843807220459 -25.799999237060547 C-15.891270867068895 -25.799999237060547, -5.234103661933201 -25.799999237060547, 26.54843807220459 -25.799999237060547 M-26.54843807220459 -25.799999237060547 C-11.225709856020028 -25.799999237060547, 4.097018360164533 -25.799999237060547, 26.54843807220459 -25.799999237060547 M26.54843807220459 -25.799999237060547 C26.54843807220459 -25.799999237060547, 26.54843807220459 -25.799999237060547, 26.54843807220459 -25.799999237060547 M26.54843807220459 -25.799999237060547 C26.54843807220459 -25.799999237060547, 26.54843807220459 -25.799999237060547, 26.54843807220459 -25.799999237060547 M26.54843807220459 -25.799999237060547 C27.17220229369199 -25.77999633256085, 27.79596651517939 -25.75999342806115, 28.201449698825282 -25.746990371586765 M26.54843807220459 -25.799999237060547 C27.057288765783934 -25.783681385735246, 27.56613945936328 -25.76736353440995, 28.201449698825282 -25.746990371586765 M28.201449698825282 -25.746990371586765 C28.855322735767277 -25.683912026110352, 29.50919577270927 -25.62083368063394, 29.84766874610231 -25.58818159996402 M28.201449698825282 -25.746990371586765 C28.530994978463685 -25.715199534796234, 28.860540258102088 -25.683408698005703, 29.84766874610231 -25.58818159996402 M29.84766874610231 -25.58818159996402 C30.42164091611589 -25.495386230736884, 30.99561308612947 -25.402590861509744, 31.48033054685753 -25.32422550149928 M29.84766874610231 -25.58818159996402 C30.374447935340463 -25.50301602588162, 30.901227124578615 -25.41785045179922, 31.48033054685753 -25.32422550149928 M31.48033054685753 -25.32422550149928 C32.09325934548663 -25.184328502946393, 32.70618814411573 -25.044431504393508, 33.092726143546784 -24.956206728419545 M31.48033054685753 -25.32422550149928 C32.11775845868788 -25.178736740229862, 32.75518637051824 -25.033247978960443, 33.092726143546784 -24.956206728419545 M33.092726143546784 -24.956206728419545 C33.42476150726436 -24.857660375357362, 33.75679687098193 -24.759114022295176, 34.678229856805515 -24.48563754880318 M33.092726143546784 -24.956206728419545 C33.50103394046074 -24.835023117546847, 33.90934173737469 -24.713839506674148, 34.678229856805515 -24.48563754880318 M34.678229856805515 -24.48563754880318 C35.172556114821205 -24.30372091635157, 35.666882372836895 -24.121804283899955, 36.23032651178644 -23.914451632345997 M34.678229856805515 -24.48563754880318 C35.08089986257509 -24.33745126443925, 35.48356986834465 -24.189264980075315, 36.23032651178644 -23.914451632345997 M36.23032651178644 -23.914451632345997 C36.713860542331076 -23.700405460551277, 37.19739457287571 -23.486359288756557, 37.74263821041056 -23.24499610449772 M36.23032651178644 -23.914451632345997 C36.75424813533388 -23.682527071184314, 37.278169758881326 -23.45060251002263, 37.74263821041056 -23.24499610449772 M37.74263821041056 -23.24499610449772 C38.15375391242689 -23.030517306087976, 38.564869614443225 -22.81603850767823, 39.2089505395184 -22.480021901620034 M37.74263821041056 -23.24499610449772 C38.26045563830266 -22.974851084044303, 38.77827306619476 -22.70470606359089, 39.2089505395184 -22.480021901620034 M39.2089505395184 -22.480021901620034 C39.644436057430426 -22.21602802146479, 40.07992157534246 -21.95203414130955, 40.62323810722664 -21.62267246679901 M39.2089505395184 -22.480021901620034 C39.63122193912716 -22.224038497635014, 40.05349333873592 -21.96805509364999, 40.62323810722664 -21.62267246679901 M40.62323810722664 -21.62267246679901 C41.00233969831262 -21.35822760790081, 41.38144128939859 -21.093782749002617, 41.97968930255584 -20.67647083276321 M40.62323810722664 -21.62267246679901 C41.10725638005159 -21.285042272489658, 41.59127465287653 -20.94741207818031, 41.97968930255584 -20.67647083276321 M41.97968930255584 -20.67647083276321 C42.46690291254355 -20.287930944096676, 42.95411652253127 -19.899391055430144, 43.272730176586506 -19.64530514498651 M41.97968930255584 -20.67647083276321 C42.27648954997163 -20.439780533635407, 42.57328979738742 -20.203090234507602, 43.272730176586506 -19.64530514498651 M43.272730176586506 -19.64530514498651 C43.712278613358286 -19.246118884524723, 44.151827050130066 -18.846932624062934, 44.49704734701088 -18.533412684464313 M43.272730176586506 -19.64530514498651 C43.70652259487072 -19.25134634821923, 44.14031501315493 -18.857387551451946, 44.49704734701088 -18.533412684464313 M44.49704734701088 -18.533412684464313 C44.764750693049145 -18.25698700082634, 45.03245403908742 -17.980561317188364, 45.64760983196044 -17.345362455817106 M44.49704734701088 -18.533412684464313 C44.763747303737816 -18.258023082670082, 45.030447260464754 -17.982633480875855, 45.64760983196044 -17.345362455817106 M45.64760983196044 -17.345362455817106 C46.0214287681183 -16.90625346250604, 46.39524770427615 -16.467144469194974, 46.71968972338968 -16.086036412270357 M45.64760983196044 -17.345362455817106 C46.06554717081685 -16.854429476288086, 46.48348450967326 -16.36349649675907, 46.71968972338968 -16.086036412270357 M46.71968972338968 -16.086036412270357 C47.102824685261695 -15.572670467674923, 47.48595964713372 -15.059304523079488, 47.70888161506427 -14.76060939466161 M46.71968972338968 -16.086036412270357 C46.96936582339331 -15.751493184226122, 47.21904192339695 -15.416949956181886, 47.70888161506427 -14.76060939466161 M47.70888161506427 -14.76060939466161 C47.99414940752512 -14.322361460313743, 48.27941719998597 -13.884113525965878, 48.61112070532037 -13.374527866909407 M47.70888161506427 -14.76060939466161 C48.03520605042264 -14.259287431570854, 48.36153048578101 -13.757965468480098, 48.61112070532037 -13.374527866909407 M48.61112070532037 -13.374527866909407 C48.891777729828576 -12.87619290028964, 49.172434754336784 -12.377857933669873, 49.422699500206406 -11.93348753532484 M48.61112070532037 -13.374527866909407 C48.77656213390736 -13.08076985769195, 48.94200356249436 -12.787011848474494, 49.422699500206406 -11.93348753532484 M49.422699500206406 -11.93348753532484 C49.59966751394776 -11.566009668282012, 49.77663552768911 -11.198531801239184, 50.14028304837108 -10.443409943732584 M49.422699500206406 -11.93348753532484 C49.66324567454052 -11.433988257456434, 49.903791848874626 -10.934488979588028, 50.14028304837108 -10.443409943732584 M50.14028304837108 -10.443409943732584 C50.269453805651715 -10.124355675902713, 50.398624562932355 -9.805301408072843, 50.760922645093814 -8.910418140577123 M50.14028304837108 -10.443409943732584 C50.33174537872112 -9.970494286095638, 50.523207709071166 -9.497578628458694, 50.760922645093814 -8.910418140577123 M50.760922645093814 -8.910418140577123 C50.886838859068284 -8.531178566110235, 51.01275507304276 -8.151938991643346, 51.2820679491449 -7.340811518003323 M50.760922645093814 -8.910418140577123 C50.95394330507919 -8.329070666366901, 51.14696396506457 -7.747723192156679, 51.2820679491449 -7.340811518003323 M51.2820679491449 -7.340811518003323 C51.36899139024594 -7.00933476422739, 51.45591483134697 -6.677858010451457, 51.70157746268467 -5.741039926302914 M51.2820679491449 -7.340811518003323 C51.43634036120642 -6.752503948726439, 51.59061277326793 -6.164196379449553, 51.70157746268467 -5.741039926302914 M51.70157746268467 -5.741039926302914 C51.81288471083551 -5.169500731843578, 51.92419195898635 -4.597961537384242, 52.01772733113747 -4.117677170096137 M51.70157746268467 -5.741039926302914 C51.79963059179616 -5.237557831851578, 51.89768372090765 -4.73407573740024, 52.01772733113747 -4.117677170096137 M52.01772733113747 -4.117677170096137 C52.09106345234332 -3.548896695878705, 52.164399573549176 -2.980116221661273, 52.22921842687991 -2.4773939951584394 M52.01772733113747 -4.117677170096137 C52.09447095295534 -3.522468794019004, 52.17121457477321 -2.927260417941871, 52.22921842687991 -2.4773939951584394 M52.22921842687991 -2.4773939951584394 C52.25334251644946 -2.1016418274981454, 52.277466606019004 -1.725889659837851, 52.33518168763487 -0.8269306768952902 M52.22921842687991 -2.4773939951584394 C52.253542925882684 -2.098520288808086, 52.27786742488545 -1.7196465824577332, 52.33518168763487 -0.8269306768952902 M52.33518168763487 -0.8269306768952902 C52.33518168763487 -0.4281648199781043, 52.33518168763487 -0.02939896306091838, 52.33518168763487 0.826930676895284 M52.33518168763487 -0.8269306768952902 C52.33518168763487 -0.46838885023606425, 52.33518168763487 -0.10984702357683829, 52.33518168763487 0.826930676895284 M52.33518168763487 0.826930676895284 C52.300886212631916 1.3611103828754618, 52.26659073762897 1.8952900888556397, 52.22921842687991 2.4773939951584216 M52.33518168763487 0.826930676895284 C52.31061909557127 1.2095128748533501, 52.286056503507666 1.5920950728114165, 52.22921842687991 2.4773939951584216 M52.22921842687991 2.4773939951584216 C52.17095617635684 2.9292645050326973, 52.11269392583377 3.3811350149069734, 52.01772733113748 4.117677170096119 M52.22921842687991 2.4773939951584216 C52.172449923534046 2.9176792969000203, 52.11568142018818 3.3579645986416193, 52.01772733113748 4.117677170096119 M52.01772733113748 4.117677170096119 C51.95009886715931 4.464935039343079, 51.882470403181145 4.812192908590038, 51.70157746268467 5.741039926302909 M52.01772733113748 4.117677170096119 C51.90090124046917 4.717554454474885, 51.784075149800856 5.317431738853651, 51.70157746268467 5.741039926302909 M51.70157746268467 5.741039926302909 C51.546363492208556 6.332938065888659, 51.391149521732444 6.92483620547441, 51.28206794914491 7.340811518003306 M51.70157746268467 5.741039926302909 C51.568600815181455 6.248137515676263, 51.43562416767824 6.755235105049618, 51.28206794914491 7.340811518003306 M51.28206794914491 7.340811518003306 C51.15782865987843 7.715000462431379, 51.033589370611956 8.089189406859452, 50.76092264509383 8.910418140577105 M51.28206794914491 7.340811518003306 C51.13757948786064 7.775987742281538, 50.99309102657638 8.21116396655977, 50.76092264509383 8.910418140577105 M50.76092264509383 8.910418140577105 C50.62836660406438 9.237834124716544, 50.49581056303494 9.565250108855983, 50.14028304837109 10.443409943732577 M50.76092264509383 8.910418140577105 C50.52165249225284 9.501420044068055, 50.282382339411846 10.092421947559004, 50.14028304837109 10.443409943732577 M50.14028304837109 10.443409943732577 C49.95717614551866 10.823635345365746, 49.77406924266622 11.203860746998913, 49.422699500206406 11.933487535324835 M50.14028304837109 10.443409943732577 C49.94814533670562 10.842388013094357, 49.75600762504016 11.241366082456139, 49.422699500206406 11.933487535324835 M49.422699500206406 11.933487535324835 C49.23916512150446 12.259371409581258, 49.055630742802514 12.585255283837682, 48.611120705320374 13.374527866909402 M49.422699500206406 11.933487535324835 C49.22878074766711 12.277809916861353, 49.03486199512781 12.62213229839787, 48.611120705320374 13.374527866909402 M48.611120705320374 13.374527866909402 C48.38918264262614 13.715484329922187, 48.167244579931904 14.056440792934973, 47.708881615064286 14.760609394661596 M48.611120705320374 13.374527866909402 C48.34102365022465 13.789469474751057, 48.07092659512892 14.204411082592713, 47.708881615064286 14.760609394661596 M47.708881615064286 14.760609394661596 C47.51000394963744 15.027087348205525, 47.311126284210594 15.293565301749453, 46.71968972338968 16.086036412270353 M47.708881615064286 14.760609394661596 C47.330562361032705 15.267522729470851, 46.95224310700112 15.774436064280108, 46.71968972338968 16.086036412270353 M46.71968972338968 16.086036412270353 C46.50224131795436 16.34146368245947, 46.28479291251903 16.596890952648586, 45.64760983196045 17.345362455817092 M46.71968972338968 16.086036412270353 C46.42206927768141 16.4356383228824, 46.12444883197314 16.785240233494445, 45.64760983196045 17.345362455817092 M45.64760983196045 17.345362455817092 C45.23084494902611 17.775706414480037, 44.81408006609177 18.206050373142983, 44.49704734701088 18.533412684464306 M45.64760983196045 17.345362455817092 C45.274177791400945 17.730961697035497, 44.90074575084144 18.1165609382539, 44.49704734701088 18.533412684464306 M44.49704734701088 18.533412684464306 C44.069450916748636 18.921744448846898, 43.64185448648639 19.310076213229493, 43.272730176586535 19.64530514498649 M44.49704734701088 18.533412684464306 C44.23932380848601 18.76747038316143, 43.98160026996114 19.001528081858556, 43.272730176586535 19.64530514498649 M43.272730176586535 19.64530514498649 C42.932071456172544 19.916971409207378, 42.59141273575855 20.188637673428268, 41.97968930255585 20.676470832763208 M43.272730176586535 19.64530514498649 C42.75553215348065 20.05775680519602, 42.23833413037477 20.47020846540555, 41.97968930255585 20.676470832763208 M41.97968930255585 20.676470832763208 C41.53858472085846 20.984166293845725, 41.097480139161064 21.29186175492824, 40.623238107226655 21.622672466799003 M41.97968930255585 20.676470832763208 C41.44121975466908 21.05208387939798, 40.90275020678231 21.427696926032755, 40.623238107226655 21.622672466799003 M40.623238107226655 21.622672466799003 C40.18218287621641 21.89004273976565, 39.74112764520616 22.157413012732302, 39.208950539518405 22.48002190162003 M40.623238107226655 21.622672466799003 C40.21422240333871 21.870620190138954, 39.805206699450764 22.118567913478902, 39.208950539518405 22.48002190162003 M39.208950539518405 22.48002190162003 C38.793575653437976 22.696722713627878, 38.37820076735755 22.913423525635725, 37.74263821041057 23.244996104497716 M39.208950539518405 22.48002190162003 C38.784404279240654 22.701507413672076, 38.359858018962896 22.922992925724124, 37.74263821041057 23.244996104497716 M37.74263821041057 23.244996104497716 C37.439160479898746 23.379336693448277, 37.13568274938692 23.51367728239884, 36.23032651178645 23.914451632345994 M37.74263821041057 23.244996104497716 C37.433698315895384 23.381754631423227, 37.12475842138021 23.51851315834874, 36.23032651178645 23.914451632345994 M36.23032651178645 23.914451632345994 C35.87449101507933 24.045402384441488, 35.5186555183722 24.176353136536985, 34.67822985680553 24.485637548803172 M36.23032651178645 23.914451632345994 C35.73877555784808 24.095346927242524, 35.24722460390971 24.27624222213905, 34.67822985680553 24.485637548803172 M34.67822985680553 24.485637548803172 C34.23273676633293 24.61785755961449, 33.78724367586033 24.75007757042581, 33.09272614354681 24.95620672841954 M34.67822985680553 24.485637548803172 C34.28645518351297 24.60191421536918, 33.894680510220404 24.71819088193519, 33.09272614354681 24.95620672841954 M33.09272614354681 24.95620672841954 C32.6107763636867 25.06620862065638, 32.128826583826594 25.17621051289322, 31.480330546857545 25.324225501499278 M33.09272614354681 24.95620672841954 C32.535078720611295 25.083486113715058, 31.977431297675786 25.21076549901057, 31.480330546857545 25.324225501499278 M31.480330546857545 25.324225501499278 C31.06827302643593 25.390843765847247, 30.656215506014313 25.457462030195217, 29.84766874610233 25.588181599964017 M31.480330546857545 25.324225501499278 C30.992898811717513 25.403029684347157, 30.505467076577478 25.481833867195036, 29.84766874610233 25.588181599964017 M29.84766874610233 25.588181599964017 C29.308381436333185 25.640205998149565, 28.769094126564042 25.692230396335113, 28.201449698825282 25.746990371586765 M29.84766874610233 25.588181599964017 C29.457015078768514 25.625867489421935, 29.0663614114347 25.663553378879858, 28.201449698825282 25.746990371586765 M28.201449698825282 25.746990371586765 C27.616618970685813 25.765744754734243, 27.031788242546344 25.78449913788172, 26.548438072204593 25.799999237060547 M28.201449698825282 25.746990371586765 C27.868958244812873 25.757652725361588, 27.536466790800464 25.76831507913641, 26.548438072204593 25.799999237060547 M26.548438072204593 25.799999237060547 C26.548438072204593 25.799999237060547, 26.54843807220459 25.799999237060547, 26.54843807220459 25.799999237060547 M26.548438072204593 25.799999237060547 C26.548438072204593 25.799999237060547, 26.54843807220459 25.799999237060547, 26.54843807220459 25.799999237060547 M26.54843807220459 25.799999237060547 C13.44939863911867 25.799999237060547, 0.35035920603274917 25.799999237060547, -26.548438072204586 25.799999237060547 M26.54843807220459 25.799999237060547 C12.084581482918077 25.799999237060547, -2.3792751063684356 25.799999237060547, -26.548438072204586 25.799999237060547 M-26.548438072204586 25.799999237060547 C-27.008387779615113 25.785249545181685, -27.468337487025636 25.770499853302827, -28.20144969882527 25.746990371586765 M-26.548438072204586 25.799999237060547 C-27.15415714803828 25.78057500525922, -27.759876223871977 25.76115077345789, -28.20144969882527 25.746990371586765 M-28.20144969882527 25.746990371586765 C-28.74050806056465 25.694988059742297, -29.279566422304033 25.642985747897832, -29.84766874610232 25.588181599964017 M-28.20144969882527 25.746990371586765 C-28.61504789356081 25.707091051165232, -29.028646088296348 25.6671917307437, -29.84766874610232 25.588181599964017 M-29.84766874610232 25.588181599964017 C-30.47209912333475 25.487228539102976, -31.09652950056718 25.386275478241934, -31.480330546857534 25.324225501499278 M-29.84766874610232 25.588181599964017 C-30.36106108152317 25.505180308590198, -30.874453416944025 25.422179017216376, -31.480330546857534 25.324225501499278 M-31.480330546857534 25.324225501499278 C-31.937720056904457 25.21982933057656, -32.395109566951376 25.115433159653843, -33.092726143546784 24.956206728419545 M-31.480330546857534 25.324225501499278 C-31.808875328502435 25.24923729904389, -32.13742011014734 25.174249096588508, -33.092726143546784 24.956206728419545 M-33.092726143546784 24.956206728419545 C-33.54705729964519 24.821363626122444, -34.00138845574359 24.686520523825344, -34.6782298568055 24.485637548803183 M-33.092726143546784 24.956206728419545 C-33.58408265462812 24.810374695113566, -34.07543916570945 24.664542661807584, -34.6782298568055 24.485637548803183 M-34.6782298568055 24.485637548803183 C-35.23702817717475 24.279994601432254, -35.79582649754399 24.07435165406132, -36.230326511786444 23.914451632345997 M-34.6782298568055 24.485637548803183 C-35.03787895321312 24.353283356765377, -35.39752804962073 24.220929164727572, -36.230326511786444 23.914451632345997 M-36.230326511786444 23.914451632345997 C-36.722734905636976 23.696477043164393, -37.2151432994875 23.478502453982788, -37.74263821041056 23.244996104497723 M-36.230326511786444 23.914451632345997 C-36.59530227441641 23.75288768885104, -36.96027803704638 23.591323745356082, -37.74263821041056 23.244996104497723 M-37.74263821041056 23.244996104497723 C-38.232358883139135 22.98950914321629, -38.722079555867715 22.73402218193485, -39.2089505395184 22.480021901620038 M-37.74263821041056 23.244996104497723 C-38.2977978848619 22.955369657933204, -38.85295755931323 22.665743211368685, -39.2089505395184 22.480021901620038 M-39.2089505395184 22.480021901620038 C-39.71756492979196 22.171696869286276, -40.22617932006552 21.863371836952513, -40.623238107226626 21.622672466799017 M-39.2089505395184 22.480021901620038 C-39.587629044249915 22.250464766689884, -39.96630754898144 22.02090763175973, -40.623238107226626 21.622672466799017 M-40.623238107226626 21.622672466799017 C-41.15122690013109 21.25437034113533, -41.67921569303556 20.886068215471646, -41.97968930255584 20.67647083276321 M-40.623238107226626 21.622672466799017 C-41.02982985992108 21.339051661192663, -41.43642161261553 21.05543085558631, -41.97968930255584 20.67647083276321 M-41.97968930255584 20.67647083276321 C-42.39956117805197 20.341634185314906, -42.81943305354809 20.0067975378666, -43.272730176586506 19.645305144986512 M-41.97968930255584 20.67647083276321 C-42.321995123858365 20.40349104941491, -42.664300945160896 20.130511266066613, -43.272730176586506 19.645305144986512 M-43.272730176586506 19.645305144986512 C-43.667299037703046 19.286968145040458, -44.061867898819585 18.928631145094407, -44.49704734701086 18.533412684464324 M-43.272730176586506 19.645305144986512 C-43.60390306117569 19.344542693556978, -43.93507594576488 19.04378024212744, -44.49704734701086 18.533412684464324 M-44.49704734701086 18.533412684464324 C-44.82362633034906 18.196193071534463, -45.150205313687245 17.8589734586046, -45.64760983196044 17.3453624558171 M-44.49704734701086 18.533412684464324 C-44.7407778904164 18.281740887748338, -44.98450843382195 18.030069091032356, -45.64760983196044 17.3453624558171 M-45.64760983196044 17.3453624558171 C-45.88813164310445 17.062831850368575, -46.128653454248465 16.780301244920054, -46.71968972338967 16.08603641227036 M-45.64760983196044 17.3453624558171 C-46.00123723059212 16.92997159141532, -46.35486462922379 16.51458072701354, -46.71968972338967 16.08603641227036 M-46.71968972338967 16.08603641227036 C-47.03645722920308 15.661596812593842, -47.35322473501648 15.237157212917325, -47.70888161506427 14.760609394661614 M-46.71968972338967 16.08603641227036 C-46.981191554970216 15.735647781259376, -47.24269338655077 15.385259150248391, -47.70888161506427 14.760609394661614 M-47.70888161506427 14.760609394661614 C-47.89830667362252 14.469601636965765, -48.08773173218077 14.178593879269913, -48.61112070532036 13.374527866909418 M-47.70888161506427 14.760609394661614 C-48.00639647606398 14.303546674239676, -48.303911337063695 13.846483953817739, -48.61112070532036 13.374527866909418 M-48.61112070532036 13.374527866909418 C-48.89448288437822 12.871389624460136, -49.17784506343608 12.368251382010856, -49.4226995002064 11.933487535324842 M-48.61112070532036 13.374527866909418 C-48.91175678124966 12.840718071393166, -49.212392857178955 12.306908275876916, -49.4226995002064 11.933487535324842 M-49.4226995002064 11.933487535324842 C-49.64298318725302 11.476063745856688, -49.86326687429964 11.018639956388535, -50.14028304837108 10.443409943732586 M-49.4226995002064 11.933487535324842 C-49.56918669201173 11.629303747217264, -49.715673883817075 11.325119959109688, -50.14028304837108 10.443409943732586 M-50.14028304837108 10.443409943732586 C-50.36746262400959 9.882271999687166, -50.594642199648106 9.321134055641744, -50.760922645093814 8.910418140577127 M-50.14028304837108 10.443409943732586 C-50.371500020095056 9.872299553298323, -50.60271699181904 9.301189162864059, -50.760922645093814 8.910418140577127 M-50.760922645093814 8.910418140577127 C-50.86989108811112 8.582222551972635, -50.97885953112842 8.254026963368142, -51.2820679491449 7.340811518003316 M-50.760922645093814 8.910418140577127 C-50.87095136426302 8.579029169135158, -50.98098008343223 8.24764019769319, -51.2820679491449 7.340811518003316 M-51.2820679491449 7.340811518003316 C-51.40010029819125 6.89070301554594, -51.51813264723759 6.440594513088564, -51.70157746268467 5.741039926302918 M-51.2820679491449 7.340811518003316 C-51.40897807464181 6.856848206287281, -51.53588820013872 6.3728848945712455, -51.70157746268467 5.741039926302918 M-51.70157746268467 5.741039926302918 C-51.76740722326169 5.403018018864724, -51.83323698383872 5.06499611142653, -52.01772733113747 4.117677170096139 M-51.70157746268467 5.741039926302918 C-51.81273541513021 5.170267333736622, -51.92389336757576 4.599494741170327, -52.01772733113747 4.117677170096139 M-52.01772733113747 4.117677170096139 C-52.09797501955185 3.495291945452655, -52.178222707966235 2.872906720809171, -52.22921842687991 2.477393995158454 M-52.01772733113747 4.117677170096139 C-52.09803143708759 3.494854382186374, -52.17833554303771 2.872031594276608, -52.22921842687991 2.477393995158454 M-52.22921842687991 2.477393995158454 C-52.26354859276116 1.942673950746867, -52.297878758642405 1.4079539063352804, -52.33518168763487 0.8269306768952934 M-52.22921842687991 2.477393995158454 C-52.270975181841386 1.8269988311875025, -52.31273193680286 1.1766036672165507, -52.33518168763487 0.8269306768952934 M-52.33518168763487 0.8269306768952934 C-52.33518168763487 0.2009209451578282, -52.33518168763487 -0.425088786579637, -52.33518168763487 -0.8269306768952809 M-52.33518168763487 0.8269306768952934 C-52.33518168763487 0.3540269578384892, -52.33518168763487 -0.11887676121831503, -52.33518168763487 -0.8269306768952809 M-52.33518168763487 -0.8269306768952809 C-52.298315573133344 -1.4011501680485832, -52.261449458631816 -1.9753696592018855, -52.22921842687991 -2.4773939951584185 M-52.33518168763487 -0.8269306768952809 C-52.303465287701734 -1.320939206871194, -52.27174888776859 -1.8149477368471074, -52.22921842687991 -2.4773939951584185 M-52.22921842687991 -2.4773939951584185 C-52.151967292877394 -3.076538535520077, -52.074716158874885 -3.675683075881736, -52.01772733113748 -4.117677170096128 M-52.22921842687991 -2.4773939951584185 C-52.152257583231766 -3.0742871008558748, -52.07529673958363 -3.6711802065533305, -52.01772733113748 -4.117677170096128 M-52.01772733113748 -4.117677170096128 C-51.92326343723425 -4.60272930033815, -51.82879954333102 -5.087781430580172, -51.70157746268467 -5.741039926302906 M-52.01772733113748 -4.117677170096128 C-51.95272115776668 -4.451470131295538, -51.88771498439589 -4.785263092494947, -51.70157746268467 -5.741039926302906 M-51.70157746268467 -5.741039926302906 C-51.60409535771643 -6.112781441558348, -51.506613252748195 -6.484522956813789, -51.28206794914491 -7.340811518003303 M-51.70157746268467 -5.741039926302906 C-51.583716015813806 -6.190496704695694, -51.46585456894295 -6.639953483088482, -51.28206794914491 -7.340811518003303 M-51.28206794914491 -7.340811518003303 C-51.113425389713505 -7.848736037467808, -50.9447828302821 -8.356660556932313, -50.76092264509383 -8.910418140577093 M-51.28206794914491 -7.340811518003303 C-51.1630481505793 -7.699280188053268, -51.0440283520137 -8.057748858103233, -50.76092264509383 -8.910418140577093 M-50.76092264509383 -8.910418140577093 C-50.57201096130216 -9.377033651901453, -50.383099277510496 -9.843649163225814, -50.14028304837109 -10.443409943732574 M-50.76092264509383 -8.910418140577093 C-50.53073817422147 -9.478978233945822, -50.3005537033491 -10.047538327314552, -50.14028304837109 -10.443409943732574 M-50.14028304837109 -10.443409943732574 C-49.878360059019116 -10.987298635376138, -49.616437069667136 -11.531187327019701, -49.422699500206406 -11.933487535324831 M-50.14028304837109 -10.443409943732574 C-49.94085242507041 -10.857531900148187, -49.74142180176973 -11.2716538565638, -49.422699500206406 -11.933487535324831 M-49.422699500206406 -11.933487535324831 C-49.23454087570459 -12.267582226254582, -49.04638225120278 -12.601676917184335, -48.61112070532037 -13.374527866909409 M-49.422699500206406 -11.933487535324831 C-49.24368629740871 -12.251343603944562, -49.064673094611 -12.569199672564292, -48.61112070532037 -13.374527866909409 M-48.61112070532037 -13.374527866909409 C-48.30184033598299 -13.849665567619363, -47.99255996664561 -14.324803268329315, -47.70888161506428 -14.760609394661605 M-48.61112070532037 -13.374527866909409 C-48.29129193918829 -13.86587073773716, -47.97146317305622 -14.357213608564912, -47.70888161506428 -14.760609394661605 M-47.70888161506428 -14.760609394661605 C-47.42482935310429 -15.141213547994568, -47.14077709114431 -15.521817701327528, -46.71968972338968 -16.086036412270353 M-47.70888161506428 -14.760609394661605 C-47.46792361171409 -15.083471167425161, -47.226965608363905 -15.406332940188715, -46.71968972338968 -16.086036412270353 M-46.71968972338968 -16.086036412270353 C-46.4555382740579 -16.396323735298726, -46.19138682472612 -16.7066110583271, -45.64760983196045 -17.345362455817092 M-46.71968972338968 -16.086036412270353 C-46.432301037100764 -16.423619516064818, -46.14491235081185 -16.761202619859287, -45.64760983196045 -17.345362455817092 M-45.64760983196045 -17.345362455817092 C-45.39668208790343 -17.60446595310689, -45.14575434384641 -17.86356945039669, -44.49704734701089 -18.5334126844643 M-45.64760983196045 -17.345362455817092 C-45.28967163833939 -17.714963028003062, -44.931733444718326 -18.084563600189036, -44.49704734701089 -18.5334126844643 M-44.49704734701089 -18.5334126844643 C-44.11550545665185 -18.879918934243147, -43.73396356629282 -19.226425184022, -43.272730176586535 -19.645305144986487 M-44.49704734701089 -18.5334126844643 C-44.22513912112289 -18.780352540918358, -43.953230895234896 -19.027292397372413, -43.272730176586535 -19.645305144986487 M-43.272730176586535 -19.645305144986487 C-42.93333813157793 -19.915961269279226, -42.59394608656933 -20.18661739357196, -41.97968930255585 -20.676470832763204 M-43.272730176586535 -19.645305144986487 C-42.827211675519784 -20.000594293842, -42.381693174453034 -20.355883442697507, -41.97968930255585 -20.676470832763204 M-41.97968930255585 -20.676470832763204 C-41.64974270760282 -20.906627294244547, -41.31979611264978 -21.136783755725894, -40.62323810722666 -21.622672466799 M-41.97968930255585 -20.676470832763204 C-41.50412556713022 -21.008203507773818, -41.02856183170459 -21.339936182784434, -40.62323810722666 -21.622672466799 M-40.62323810722666 -21.622672466799 C-40.30265328397981 -21.81701287061678, -39.982068460732954 -22.011353274434562, -39.208950539518405 -22.480021901620027 M-40.62323810722666 -21.622672466799 C-40.27737014866007 -21.832339655827802, -39.931502190093475 -22.0420068448566, -39.208950539518405 -22.480021901620027 M-39.208950539518405 -22.480021901620027 C-38.84930527100882 -22.66764860783769, -38.48966000249923 -22.85527531405536, -37.742638210410576 -23.244996104497716 M-39.208950539518405 -22.480021901620027 C-38.76390215507727 -22.712203358715872, -38.31885377063614 -22.94438481581172, -37.742638210410576 -23.244996104497716 M-37.742638210410576 -23.244996104497716 C-37.18389193180449 -23.49233650741717, -36.62514565319841 -23.739676910336623, -36.23032651178645 -23.91445163234599 M-37.742638210410576 -23.244996104497716 C-37.35846148503769 -23.415059744622642, -36.9742847596648 -23.58512338474757, -36.23032651178645 -23.91445163234599 M-36.23032651178645 -23.91445163234599 C-35.776366914912344 -24.081512960352175, -35.32240731803823 -24.248574288358363, -34.67822985680553 -24.485637548803172 M-36.23032651178645 -23.91445163234599 C-35.79497369915104 -24.074665491753105, -35.359620886515636 -24.23487935116022, -34.67822985680553 -24.485637548803172 M-34.67822985680553 -24.485637548803172 C-34.20907609615449 -24.62487992232606, -33.73992233550346 -24.764122295848942, -33.09272614354682 -24.956206728419538 M-34.67822985680553 -24.485637548803172 C-34.17485097557011 -24.63503775846418, -33.67147209433468 -24.784437968125186, -33.09272614354682 -24.956206728419538 M-33.09272614354682 -24.956206728419538 C-32.66127983663757 -25.054681532521304, -32.22983352972832 -25.15315633662307, -31.480330546857545 -25.324225501499278 M-33.09272614354682 -24.956206728419538 C-32.63707613062137 -25.06020587047556, -32.18142611769592 -25.164205012531582, -31.480330546857545 -25.324225501499278 M-31.480330546857545 -25.324225501499278 C-31.0284161534943 -25.397287515969783, -30.576501760131055 -25.47034953044029, -29.84766874610233 -25.588181599964017 M-31.480330546857545 -25.324225501499278 C-30.976988569526426 -25.40560192891884, -30.473646592195312 -25.4869783563384, -29.84766874610233 -25.588181599964017 M-29.84766874610233 -25.588181599964017 C-29.447873010185162 -25.626749413783227, -29.048077274267996 -25.665317227602436, -28.201449698825286 -25.746990371586765 M-29.84766874610233 -25.588181599964017 C-29.327657078458742 -25.638346500136063, -28.807645410815155 -25.688511400308112, -28.201449698825286 -25.746990371586765 M-28.201449698825286 -25.746990371586765 C-27.803997539784696 -25.759735888733502, -27.406545380744106 -25.772481405880235, -26.548438072204597 -25.799999237060547 M-28.201449698825286 -25.746990371586765 C-27.867111492571937 -25.75771194711147, -27.532773286318587 -25.768433522636176, -26.548438072204597 -25.799999237060547 M-26.548438072204597 -25.799999237060547 C-26.548438072204593 -25.799999237060547, -26.54843807220459 -25.799999237060547, -26.54843807220459 -25.799999237060547 M-26.548438072204597 -25.799999237060547 C-26.548438072204593 -25.799999237060547, -26.548438072204593 -25.799999237060547, -26.54843807220459 -25.799999237060547" stroke="#0E2C4A" stroke-width="2" fill="none" stroke-dasharray="0 0" style="fill:#1F4870 !important;stroke:#0E2C4A !important;stroke-width:2px !important"></path></g><g class="label" style="color:#ffffff !important" transform="translate(0, -18.299999237060547)"><rect></rect><g><rect class="background" style="stroke: none"></rect><text y="-10.1" style="fill:#ffffff !important"><tspan class="text-outer-tspan row" x="0" y="-0.1em" dy="1.1em"><tspan font-style="normal" class="text-inner-tspan" font-weight="normal">diagramkit</tspan></tspan><tspan class="text-outer-tspan row" x="0" y="1em" dy="1.1em"><tspan font-style="normal" class="text-inner-tspan" font-weight="normal">Principles</tspan></tspan></text></g></g></g></g></g></g><defs><filter id="g0d43979b-e5e8-4320-98da-ecf2f8ff716c-flip-drop-shadow" height="130%" width="130%"><feDropShadow dx="4" dy="4" stdDeviation="0" flood-opacity="0.06" flood-color="#000000"></feDropShadow></filter></defs><defs><filter id="g0d43979b-e5e8-4320-98da-ecf2f8ff716c-flip-drop-shadow-small" height="150%" width="150%"><feDropShadow dx="2" dy="2" stdDeviation="0" flood-opacity="0.06" flood-color="#000000"></feDropShadow></filter></defs></svg>