<svg id="ge170ef0c-1c10-4601-a86b-e3950ff56b7d-light" width="100%" xmlns="http://www.w3.org/2000/svg" xmlns:xlink="http://www.w3.org/1999/xlink" class="flowchart" style="max-width: 733.6234741210938px;" viewBox="0 0 733.6234741210938 820.4000244140625" role="graphics-document document" aria-roledescription="flowchart-v2"><style>#ge170ef0c-1c10-4601-a86b-e3950ff56b7d-light{font-family:"trebuchet ms",verdana,arial,sans-serif;font-size:16px;fill:#333;}@keyframes edge-animation-frame{from{stroke-dashoffset:0;}}@keyframes dash{to{stroke-dashoffset:0;}}#ge170ef0c-1c10-4601-a86b-e3950ff56b7d-light .edge-animation-slow{stroke-dasharray:9,5!important;stroke-dashoffset:900;animation:dash 50s linear infinite;stroke-linecap:round;}#ge170ef0c-1c10-4601-a86b-e3950ff56b7d-light .edge-animation-fast{stroke-dasharray:9,5!important;stroke-dashoffset:900;animation:dash 20s linear infinite;stroke-linecap:round;}#ge170ef0c-1c10-4601-a86b-e3950ff56b7d-light .error-icon{fill:#552222;}#ge170ef0c-1c10-4601-a86b-e3950ff56b7d-light .error-text{fill:#552222;stroke:#552222;}#ge170ef0c-1c10-4601-a86b-e3950ff56b7d-light .edge-thickness-normal{stroke-width:1px;}#ge170ef0c-1c10-4601-a86b-e3950ff56b7d-light .edge-thickness-thick{stroke-width:3.5px;}#ge170ef0c-1c10-4601-a86b-e3950ff56b7d-light .edge-pattern-solid{stroke-dasharray:0;}#ge170ef0c-1c10-4601-a86b-e3950ff56b7d-light .edge-thickness-invisible{stroke-width:0;fill:none;}#ge170ef0c-1c10-4601-a86b-e3950ff56b7d-light .edge-pattern-dashed{stroke-dasharray:3;}#ge170ef0c-1c10-4601-a86b-e3950ff56b7d-light .edge-pattern-dotted{stroke-dasharray:2;}#ge170ef0c-1c10-4601-a86b-e3950ff56b7d-light .marker{fill:#333333;stroke:#333333;}#ge170ef0c-1c10-4601-a86b-e3950ff56b7d-light .marker.cross{stroke:#333333;}#ge170ef0c-1c10-4601-a86b-e3950ff56b7d-light svg{font-family:"trebuchet ms",verdana,arial,sans-serif;font-size:16px;}#ge170ef0c-1c10-4601-a86b-e3950ff56b7d-light p{margin:0;}#ge170ef0c-1c10-4601-a86b-e3950ff56b7d-light .label{font-family:"trebuchet ms",verdana,arial,sans-serif;color:#333;}#ge170ef0c-1c10-4601-a86b-e3950ff56b7d-light .cluster-label text{fill:#333;}#ge170ef0c-1c10-4601-a86b-e3950ff56b7d-light .cluster-label span{color:#333;}#ge170ef0c-1c10-4601-a86b-e3950ff56b7d-light .cluster-label span p{background-color:transparent;}#ge170ef0c-1c10-4601-a86b-e3950ff56b7d-light .label text,#ge170ef0c-1c10-4601-a86b-e3950ff56b7d-light span{fill:#333;color:#333;}#ge170ef0c-1c10-4601-a86b-e3950ff56b7d-light .node rect,#ge170ef0c-1c10-4601-a86b-e3950ff56b7d-light .node circle,#ge170ef0c-1c10-4601-a86b-e3950ff56b7d-light .node ellipse,#ge170ef0c-1c10-4601-a86b-e3950ff56b7d-light .node polygon,#ge170ef0c-1c10-4601-a86b-e3950ff56b7d-light .node path{fill:#ECECFF;stroke:#9370DB;stroke-width:1px;}#ge170ef0c-1c10-4601-a86b-e3950ff56b7d-light .rough-node .label text,#ge170ef0c-1c10-4601-a86b-e3950ff56b7d-light .node .label text,#ge170ef0c-1c10-4601-a86b-e3950ff56b7d-light .image-shape .label,#ge170ef0c-1c10-4601-a86b-e3950ff56b7d-light .icon-shape .label{text-anchor:middle;}#ge170ef0c-1c10-4601-a86b-e3950ff56b7d-light .node .katex path{fill:#000;stroke:#000;stroke-width:1px;}#ge170ef0c-1c10-4601-a86b-e3950ff56b7d-light .rough-node .label,#ge170ef0c-1c10-4601-a86b-e3950ff56b7d-light .node .label,#ge170ef0c-1c10-4601-a86b-e3950ff56b7d-light .image-shape .label,#ge170ef0c-1c10-4601-a86b-e3950ff56b7d-light .icon-shape .label{text-align:center;}#ge170ef0c-1c10-4601-a86b-e3950ff56b7d-light .node.clickable{cursor:pointer;}#ge170ef0c-1c10-4601-a86b-e3950ff56b7d-light .root .anchor path{fill:#333333!important;stroke-width:0;stroke:#333333;}#ge170ef0c-1c10-4601-a86b-e3950ff56b7d-light .arrowheadPath{fill:#333333;}#ge170ef0c-1c10-4601-a86b-e3950ff56b7d-light .edgePath .path{stroke:#333333;stroke-width:1px;}#ge170ef0c-1c10-4601-a86b-e3950ff56b7d-light .flowchart-link{stroke:#333333;fill:none;}#ge170ef0c-1c10-4601-a86b-e3950ff56b7d-light .edgeLabel{background-color:rgba(232,232,232, 0.8);text-align:center;}#ge170ef0c-1c10-4601-a86b-e3950ff56b7d-light .edgeLabel p{background-color:rgba(232,232,232, 0.8);}#ge170ef0c-1c10-4601-a86b-e3950ff56b7d-light .edgeLabel rect{opacity:0.5;background-color:rgba(232,232,232, 0.8);fill:rgba(232,232,232, 0.8);}#ge170ef0c-1c10-4601-a86b-e3950ff56b7d-light .labelBkg{background-color:rgba(232, 232, 232, 0.5);}#ge170ef0c-1c10-4601-a86b-e3950ff56b7d-light .cluster rect{fill:#ffffde;stroke:#aaaa33;stroke-width:1px;}#ge170ef0c-1c10-4601-a86b-e3950ff56b7d-light .cluster text{fill:#333;}#ge170ef0c-1c10-4601-a86b-e3950ff56b7d-light .cluster span{color:#333;}#ge170ef0c-1c10-4601-a86b-e3950ff56b7d-light div.mermaidTooltip{position:absolute;text-align:center;max-width:200px;padding:2px;font-family:"trebuchet ms",verdana,arial,sans-serif;font-size:12px;background:hsl(80, 100%, 96.2745098039%);border:1px solid #aaaa33;border-radius:2px;pointer-events:none;z-index:100;}#ge170ef0c-1c10-4601-a86b-e3950ff56b7d-light .flowchartTitleText{text-anchor:middle;font-size:18px;fill:#333;}#ge170ef0c-1c10-4601-a86b-e3950ff56b7d-light rect.text{fill:none;stroke-width:0;}#ge170ef0c-1c10-4601-a86b-e3950ff56b7d-light .icon-shape,#ge170ef0c-1c10-4601-a86b-e3950ff56b7d-light .image-shape{background-color:rgba(232,232,232, 0.8);text-align:center;}#ge170ef0c-1c10-4601-a86b-e3950ff56b7d-light .icon-shape p,#ge170ef0c-1c10-4601-a86b-e3950ff56b7d-light .image-shape p{background-color:rgba(232,232,232, 0.8);padding:2px;}#ge170ef0c-1c10-4601-a86b-e3950ff56b7d-light .icon-shape .label rect,#ge170ef0c-1c10-4601-a86b-e3950ff56b7d-light .image-shape .label rect{opacity:0.5;background-color:rgba(232,232,232, 0.8);fill:rgba(232,232,232, 0.8);}#ge170ef0c-1c10-4601-a86b-e3950ff56b7d-light .label-icon{display:inline-block;height:1em;overflow:visible;vertical-align:-0.125em;}#ge170ef0c-1c10-4601-a86b-e3950ff56b7d-light .node .label-icon path{fill:currentColor;stroke:revert;stroke-width:revert;}#ge170ef0c-1c10-4601-a86b-e3950ff56b7d-light .node .neo-node{stroke:#9370DB;}#ge170ef0c-1c10-4601-a86b-e3950ff56b7d-light [data-look="neo"].node rect,#ge170ef0c-1c10-4601-a86b-e3950ff56b7d-light [data-look="neo"].cluster rect,#ge170ef0c-1c10-4601-a86b-e3950ff56b7d-light [data-look="neo"].node polygon{stroke:#9370DB;filter:drop-shadow(1px 2px 2px rgba(185, 185, 185, 1));}#ge170ef0c-1c10-4601-a86b-e3950ff56b7d-light [data-look="neo"].node path{stroke:#9370DB;stroke-width:1px;}#ge170ef0c-1c10-4601-a86b-e3950ff56b7d-light [data-look="neo"].node .outer-path{filter:drop-shadow(1px 2px 2px rgba(185, 185, 185, 1));}#ge170ef0c-1c10-4601-a86b-e3950ff56b7d-light [data-look="neo"].node .neo-line path{stroke:#9370DB;filter:none;}#ge170ef0c-1c10-4601-a86b-e3950ff56b7d-light [data-look="neo"].node circle{stroke:#9370DB;filter:drop-shadow(1px 2px 2px rgba(185, 185, 185, 1));}#ge170ef0c-1c10-4601-a86b-e3950ff56b7d-light [data-look="neo"].node circle .state-start{fill:#000000;}#ge170ef0c-1c10-4601-a86b-e3950ff56b7d-light [data-look="neo"].icon-shape .icon{fill:#9370DB;filter:drop-shadow(1px 2px 2px rgba(185, 185, 185, 1));}#ge170ef0c-1c10-4601-a86b-e3950ff56b7d-light [data-look="neo"].icon-shape .icon-neo path{stroke:#9370DB;filter:drop-shadow(1px 2px 2px rgba(185, 185, 185, 1));}#ge170ef0c-1c10-4601-a86b-e3950ff56b7d-light :root{--mermaid-font-family:"trebuchet ms",verdana,arial,sans-serif;}#ge170ef0c-1c10-4601-a86b-e3950ff56b7d-light .rootNode rect{fill:#1F4870!important;stroke:#0E2C4A!important;color:#ffffff!important;stroke-width:2px!important;}#ge170ef0c-1c10-4601-a86b-e3950ff56b7d-light .rootNode polygon{fill:#1F4870!important;stroke:#0E2C4A!important;color:#ffffff!important;stroke-width:2px!important;}#ge170ef0c-1c10-4601-a86b-e3950ff56b7d-light .rootNode ellipse{fill:#1F4870!important;stroke:#0E2C4A!important;color:#ffffff!important;stroke-width:2px!important;}#ge170ef0c-1c10-4601-a86b-e3950ff56b7d-light .rootNode circle{fill:#1F4870!important;stroke:#0E2C4A!important;color:#ffffff!important;stroke-width:2px!important;}#ge170ef0c-1c10-4601-a86b-e3950ff56b7d-light .rootNode path{fill:#1F4870!important;stroke:#0E2C4A!important;color:#ffffff!important;stroke-width:2px!important;}#ge170ef0c-1c10-4601-a86b-e3950ff56b7d-light .rootNode tspan{fill:#ffffff!important;}#ge170ef0c-1c10-4601-a86b-e3950ff56b7d-light .primary rect{fill:#2E5A88!important;stroke:#1F4870!important;color:#ffffff!important;}#ge170ef0c-1c10-4601-a86b-e3950ff56b7d-light .primary polygon{fill:#2E5A88!important;stroke:#1F4870!important;color:#ffffff!important;}#ge170ef0c-1c10-4601-a86b-e3950ff56b7d-light .primary ellipse{fill:#2E5A88!important;stroke:#1F4870!important;color:#ffffff!important;}#ge170ef0c-1c10-4601-a86b-e3950ff56b7d-light .primary circle{fill:#2E5A88!important;stroke:#1F4870!important;color:#ffffff!important;}#ge170ef0c-1c10-4601-a86b-e3950ff56b7d-light .primary path{fill:#2E5A88!important;stroke:#1F4870!important;color:#ffffff!important;}#ge170ef0c-1c10-4601-a86b-e3950ff56b7d-light .primary tspan{fill:#ffffff!important;}</style><g><marker id="ge170ef0c-1c10-4601-a86b-e3950ff56b7d-light_flowchart-v2-pointEnd" class="marker flowchart-v2" viewBox="0 0 10 10" refX="5" refY="5" markerUnits="userSpaceOnUse" markerWidth="8" markerHeight="8" orient="auto"><path d="M 0 0 L 10 5 L 0 10 z" class="arrowMarkerPath" style="stroke-width: 1; stroke-dasharray: 1, 0;"></path></marker><marker id="ge170ef0c-1c10-4601-a86b-e3950ff56b7d-light_flowchart-v2-pointStart" class="marker flowchart-v2" viewBox="0 0 10 10" refX="4.5" refY="5" markerUnits="userSpaceOnUse" markerWidth="8" markerHeight="8" orient="auto"><path d="M 0 5 L 10 10 L 10 0 z" class="arrowMarkerPath" style="stroke-width: 1; stroke-dasharray: 1, 0;"></path></marker><marker id="ge170ef0c-1c10-4601-a86b-e3950ff56b7d-light_flowchart-v2-pointEnd-margin" class="marker flowchart-v2" viewBox="0 0 11.5 14" refX="11.5" refY="7" markerUnits="userSpaceOnUse" markerWidth="10.5" markerHeight="14" orient="auto"><path d="M 0 0 L 11.5 7 L 0 14 z" class="arrowMarkerPath" style="stroke-width: 0; stroke-dasharray: 1, 0;"></path></marker><marker id="ge170ef0c-1c10-4601-a86b-e3950ff56b7d-light_flowchart-v2-pointStart-margin" class="marker flowchart-v2" viewBox="0 0 11.5 14" refX="1" refY="7" markerUnits="userSpaceOnUse" markerWidth="11.5" markerHeight="14" orient="auto"><polygon points="0,7 11.5,14 11.5,0" class="arrowMarkerPath" style="stroke-width: 0; stroke-dasharray: 1, 0;"></polygon></marker><marker id="ge170ef0c-1c10-4601-a86b-e3950ff56b7d-light_flowchart-v2-circleEnd" class="marker flowchart-v2" viewBox="0 0 10 10" refX="11" refY="5" markerUnits="userSpaceOnUse" markerWidth="11" markerHeight="11" orient="auto"><circle cx="5" cy="5" r="5" class="arrowMarkerPath" style="stroke-width: 1; stroke-dasharray: 1, 0;"></circle></marker><marker id="ge170ef0c-1c10-4601-a86b-e3950ff56b7d-light_flowchart-v2-circleStart" class="marker flowchart-v2" viewBox="0 0 10 10" refX="-1" refY="5" markerUnits="userSpaceOnUse" markerWidth="11" markerHeight="11" orient="auto"><circle cx="5" cy="5" r="5" class="arrowMarkerPath" style="stroke-width: 1; stroke-dasharray: 1, 0;"></circle></marker><marker id="ge170ef0c-1c10-4601-a86b-e3950ff56b7d-light_flowchart-v2-circleEnd-margin" class="marker flowchart-v2" viewBox="0 0 10 10" refY="5" refX="12.25" markerUnits="userSpaceOnUse" markerWidth="14" markerHeight="14" orient="auto"><circle cx="5" cy="5" r="5" class="arrowMarkerPath" style="stroke-width: 0; stroke-dasharray: 1, 0;"></circle></marker><marker id="ge170ef0c-1c10-4601-a86b-e3950ff56b7d-light_flowchart-v2-circleStart-margin" class="marker flowchart-v2" viewBox="0 0 10 10" refX="-2" refY="5" markerUnits="userSpaceOnUse" markerWidth="14" markerHeight="14" orient="auto"><circle cx="5" cy="5" r="5" class="arrowMarkerPath" style="stroke-width: 0; stroke-dasharray: 1, 0;"></circle></marker><marker id="ge170ef0c-1c10-4601-a86b-e3950ff56b7d-light_flowchart-v2-crossEnd" class="marker cross flowchart-v2" viewBox="0 0 11 11" refX="12" refY="5.2" markerUnits="userSpaceOnUse" markerWidth="11" markerHeight="11" orient="auto"><path d="M 1,1 l 9,9 M 10,1 l -9,9" class="arrowMarkerPath" style="stroke-width: 2; stroke-dasharray: 1, 0;"></path></marker><marker id="ge170ef0c-1c10-4601-a86b-e3950ff56b7d-light_flowchart-v2-crossStart" class="marker cross flowchart-v2" viewBox="0 0 11 11" refX="-1" refY="5.2" markerUnits="userSpaceOnUse" markerWidth="11" markerHeight="11" orient="auto"><path d="M 1,1 l 9,9 M 10,1 l -9,9" class="arrowMarkerPath" style="stroke-width: 2; stroke-dasharray: 1, 0;"></path></marker><marker id="ge170ef0c-1c10-4601-a86b-e3950ff56b7d-light_flowchart-v2-crossEnd-margin" class="marker cross flowchart-v2" viewBox="0 0 15 15" refX="17.7" refY="7.5" markerUnits="userSpaceOnUse" markerWidth="12" markerHeight="12" orient="auto"><path d="M 1,1 L 14,14 M 1,14 L 14,1" class="arrowMarkerPath" style="stroke-width: 2.5;"></path></marker><marker id="ge170ef0c-1c10-4601-a86b-e3950ff56b7d-light_flowchart-v2-crossStart-margin" class="marker cross flowchart-v2" viewBox="0 0 15 15" refX="-3.5" refY="7.5" markerUnits="userSpaceOnUse" markerWidth="12" markerHeight="12" orient="auto"><path d="M 1,1 L 14,14 M 1,14 L 14,1" class="arrowMarkerPath" style="stroke-width: 2.5; stroke-dasharray: 1, 0;"></path></marker><g class="root"><g class="clusters"></g><g class="edgePaths"><path d="M66.52,393.2L78.378,343.733C90.237,294.267,113.954,195.333,131.751,145.867C149.548,96.4,161.426,96.4,167.364,96.4L173.303,96.4" id="ge170ef0c-1c10-4601-a86b-e3950ff56b7d-light-L_root_node_runtime_0" class="edge-thickness-normal edge-pattern-solid edge-thickness-normal edge-pattern-solid flowchart-link" style=";" data-edge="true" data-et="edge" data-id="L_root_node_runtime_0" data-points="W3sieCI6NjYuNTIwMDc4ODE0MDQ1MDQsInkiOjM5My4yMDAwMDA3NjI5Mzk0NX0seyJ4IjoxMzcuNjcwMzY0Mzc5ODgyOCwieSI6OTYuNDAwMDAxNTI1ODc4OX0seyJ4IjoxNzcuMzAzMTc2ODc5ODgyOCwieSI6OTYuNDAwMDAxNTI1ODc4OX1d" data-look="classic" marker-end="url(#ge170ef0c-1c10-4601-a86b-e3950ff56b7d-light_flowchart-v2-pointEnd)"></path><path d="M79.41,393.2L89.12,380.067C98.83,366.933,118.25,340.667,134.65,327.533C151.051,314.4,164.431,314.4,171.121,314.4L177.811,314.4" id="ge170ef0c-1c10-4601-a86b-e3950ff56b7d-light-L_root_node_output_0" class="edge-thickness-normal edge-pattern-solid edge-thickness-normal edge-pattern-solid flowchart-link" style=";" data-edge="true" data-et="edge" data-id="L_root_node_output_0" data-points="W3sieCI6NzkuNDEwMjA3NzIxNTM0MTksInkiOjM5My4yMDAwMDA3NjI5Mzk0NX0seyJ4IjoxMzcuNjcwMzY0Mzc5ODgyOCwieSI6MzE0LjQwMDAwMTUyNTg3ODl9LHsieCI6MTgxLjgxMDk4OTM3OTg4MjgsInkiOjMxNC40MDAwMDE1MjU4Nzg5fV0=" data-look="classic" marker-end="url(#ge170ef0c-1c10-4601-a86b-e3950ff56b7d-light_flowchart-v2-pointEnd)"></path><path d="M79.41,444.8L89.12,457.933C98.83,471.067,118.25,497.333,138.361,510.467C158.472,523.6,179.275,523.6,189.676,523.6L200.077,523.6" id="ge170ef0c-1c10-4601-a86b-e3950ff56b7d-light-L_root_node_build_0" class="edge-thickness-normal edge-pattern-solid edge-thickness-normal edge-pattern-solid flowchart-link" style=";" data-edge="true" data-et="edge" data-id="L_root_node_build_0" data-points="W3sieCI6NzkuNDEwMjA3NzIxNTM0MTksInkiOjQ0NC43OTk5OTkyMzcwNjA1NX0seyJ4IjoxMzcuNjcwMzY0Mzc5ODgyOCwieSI6NTIzLjU5OTk5ODQ3NDEyMTF9LHsieCI6MjA0LjA3NjYxNDM3OTg4MjgsInkiOjUyMy41OTk5OTg0NzQxMjExfV0=" data-look="classic" marker-end="url(#ge170ef0c-1c10-4601-a86b-e3950ff56b7d-light_flowchart-v2-pointEnd)"></path><path d="M66.694,444.8L78.523,492.8C90.352,540.8,114.011,636.8,129.341,684.8C144.67,732.8,151.67,732.8,155.17,732.8L158.67,732.8" id="ge170ef0c-1c10-4601-a86b-e3950ff56b7d-light-L_root_node_config_0" class="edge-thickness-normal edge-pattern-solid edge-thickness-normal edge-pattern-solid flowchart-link" style=";" data-edge="true" data-et="edge" data-id="L_root_node_config_0" data-points="W3sieCI6NjYuNjkzNTI0MDMzODA1NjcsInkiOjQ0NC43OTk5OTkyMzcwNjA1NX0seyJ4IjoxMzcuNjcwMzY0Mzc5ODgyOCwieSI6NzMyLjc5OTk5NTQyMjM2MzN9LHsieCI6MTYyLjY3MDM2NDM3OTg4MjgsInkiOjczMi43OTk5OTU0MjIzNjMzfV0=" data-look="classic" marker-end="url(#ge170ef0c-1c10-4601-a86b-e3950ff56b7d-light_flowchart-v2-pointEnd)"></path></g><g class="edgeLabels"><g class="edgeLabel"><g class="label" data-id="L_root_node_runtime_0" transform="translate(0, 0)"><text y="-10.1" text-anchor="middle"><tspan class="text-outer-tspan row" x="0" y="-0.1em" dy="1.1em" text-anchor="middle"></tspan></text></g></g><g><rect class="background" style="stroke: none"></rect></g><g class="edgeLabel"><g class="label" data-id="L_root_node_output_0" transform="translate(0, 0)"><text y="-10.1" text-anchor="middle"><tspan class="text-outer-tspan row" x="0" y="-0.1em" dy="1.1em" text-anchor="middle"></tspan></text></g></g><g><rect class="background" style="stroke: none"></rect></g><g class="edgeLabel"><g class="label" data-id="L_root_node_build_0" transform="translate(0, 0)"><text y="-10.1" text-anchor="middle"><tspan class="text-outer-tspan row" x="0" y="-0.1em" dy="1.1em" text-anchor="middle"></tspan></text></g></g><g><rect class="background" style="stroke: none"></rect></g><g class="edgeLabel"><g class="label" data-id="L_root_node_config_0" transform="translate(0, 0)"><text y="-10.1" text-anchor="middle"><tspan class="text-outer-tspan row" x="0" y="-0.1em" dy="1.1em" text-anchor="middle"></tspan></text></g></g><g><rect class="background" style="stroke: none"></rect></g></g><g class="nodes"><g class="root" transform="translate(154.6703643798828, 645.1999969482422)"><g class="clusters"><g class="cluster" id="ge170ef0c-1c10-4601-a86b-e3950ff56b7d-light-config" data-look="classic"><rect style="" x="8" y="8" width="562.953125" height="159.1999969482422"></rect><g class="cluster-label" transform="translate(266.7734375, 8)"><g><rect class="background" style="stroke: none"></rect><text y="-10.1" style=""><tspan class="text-outer-tspan row" x="0" y="-0.1em" dy="1.1em"><tspan font-style="normal" class="text-inner-tspan" font-weight="normal">Config</tspan></tspan></text></g></g></g></g><g class="edgePaths"></g><g class="edgeLabels"></g><g class="nodes"><g class="node default primary" id="ge170ef0c-1c10-4601-a86b-e3950ff56b7d-light-flowchart-layered-7" data-look="classic" transform="translate(162.796875, 87.5999984741211)"><rect class="basic label-container" style="fill:#2E5A88 !important;stroke:#1F4870 !important" x="-119.796875" y="-42.099998474121094" width="239.59375" height="84.19999694824219"></rect><g class="label" style="color:#ffffff !important" transform="translate(0, -27.099998474121094)"><rect></rect><g><rect class="background" style="stroke: none"></rect><text y="-10.1" style="fill:#ffffff !important"><tspan class="text-outer-tspan row" x="0" y="-0.1em" dy="1.1em"><tspan font-style="normal" class="text-inner-tspan" font-weight="normal">Layered</tspan><tspan font-style="normal" class="text-inner-tspan" font-weight="normal"> Config</tspan></tspan><tspan class="text-outer-tspan row" x="0" y="1em" dy="1.1em"><tspan font-style="normal" class="text-inner-tspan" font-weight="normal">Defaults</tspan><tspan font-style="normal" class="text-inner-tspan" font-weight="normal"> to</tspan><tspan font-style="normal" class="text-inner-tspan" font-weight="normal"> Global</tspan><tspan font-style="normal" class="text-inner-tspan" font-weight="normal"> to</tspan><tspan font-style="normal" class="text-inner-tspan" font-weight="normal"> Env</tspan></tspan><tspan class="text-outer-tspan row" x="0" y="2.1em" dy="1.1em"><tspan font-style="normal" class="text-inner-tspan" font-weight="normal">to</tspan><tspan font-style="normal" class="text-inner-tspan" font-weight="normal"> Local</tspan><tspan font-style="normal" class="text-inner-tspan" font-weight="normal"> to</tspan><tspan font-style="normal" class="text-inner-tspan" font-weight="normal"> CLI</tspan></tspan></text></g></g></g><g class="node default primary" id="ge170ef0c-1c10-4601-a86b-e3950ff56b7d-light-flowchart-ext-8" data-look="classic" transform="translate(434.2734375, 87.5999984741211)"><rect class="basic label-container" style="fill:#2E5A88 !important;stroke:#1F4870 !important" x="-101.6796875" y="-33.29999923706055" width="203.359375" height="66.5999984741211"></rect><g class="label" style="color:#ffffff !important" transform="translate(0, -18.299999237060547)"><rect></rect><g><rect class="background" style="stroke: none"></rect><text y="-10.1" style="fill:#ffffff !important"><tspan class="text-outer-tspan row" x="0" y="-0.1em" dy="1.1em"><tspan font-style="normal" class="text-inner-tspan" font-weight="normal">Extension</tspan><tspan font-style="normal" class="text-inner-tspan" font-weight="normal"> Detection</tspan></tspan><tspan class="text-outer-tspan row" x="0" y="1em" dy="1.1em"><tspan font-style="normal" class="text-inner-tspan" font-weight="normal">Longest</tspan><tspan font-style="normal" class="text-inner-tspan" font-weight="normal"> match</tspan><tspan font-style="normal" class="text-inner-tspan" font-weight="normal"> first</tspan></tspan></text></g></g></g></g></g><g class="root" transform="translate(196.0766143798828, 436)"><g class="clusters"><g class="cluster" id="ge170ef0c-1c10-4601-a86b-e3950ff56b7d-light-build" data-look="classic"><rect style="" x="8" y="8" width="480.140625" height="159.1999969482422"></rect><g class="cluster-label" transform="translate(230.0703125, 8)"><g><rect class="background" style="stroke: none"></rect><text y="-10.1" style=""><tspan class="text-outer-tspan row" x="0" y="-0.1em" dy="1.1em"><tspan font-style="normal" class="text-inner-tspan" font-weight="normal">Build</tspan></tspan></text></g></g></g></g><g class="edgePaths"></g><g class="edgeLabels"></g><g class="nodes"><g class="node default primary" id="ge170ef0c-1c10-4601-a86b-e3950ff56b7d-light-flowchart-incremental-5" data-look="classic" transform="translate(139.7890625, 87.5999984741211)"><rect class="basic label-container" style="fill:#2E5A88 !important;stroke:#1F4870 !important" x="-96.7890625" y="-42.099998474121094" width="193.578125" height="84.19999694824219"></rect><g class="label" style="color:#ffffff !important" transform="translate(0, -27.099998474121094)"><rect></rect><g><rect class="background" style="stroke: none"></rect><text y="-10.1" style="fill:#ffffff !important"><tspan class="text-outer-tspan row" x="0" y="-0.1em" dy="1.1em"><tspan font-style="normal" class="text-inner-tspan" font-weight="normal">Incremental</tspan><tspan font-style="normal" class="text-inner-tspan" font-weight="normal"> Builds</tspan></tspan><tspan class="text-outer-tspan row" x="0" y="1em" dy="1.1em"><tspan font-style="normal" class="text-inner-tspan" font-weight="normal">SHA-256</tspan><tspan font-style="normal" class="text-inner-tspan" font-weight="normal"> manifest</tspan></tspan><tspan class="text-outer-tspan row" x="0" y="2.1em" dy="1.1em"><tspan font-style="normal" class="text-inner-tspan" font-weight="normal">Skip</tspan><tspan font-style="normal" class="text-inner-tspan" font-weight="normal"> unchanged</tspan></tspan></text></g></g></g><g class="node default primary" id="ge170ef0c-1c10-4601-a86b-e3950ff56b7d-light-flowchart-atomic-6" data-look="classic" transform="translate(369.859375, 87.5999984741211)"><rect class="basic label-container" style="fill:#2E5A88 !important;stroke:#1F4870 !important" x="-83.28125" y="-33.29999923706055" width="166.5625" height="66.5999984741211"></rect><g class="label" style="color:#ffffff !important" transform="translate(0, -18.299999237060547)"><rect></rect><g><rect class="background" style="stroke: none"></rect><text y="-10.1" style="fill:#ffffff !important"><tspan class="text-outer-tspan row" x="0" y="-0.1em" dy="1.1em"><tspan font-style="normal" class="text-inner-tspan" font-weight="normal">Atomic</tspan><tspan font-style="normal" class="text-inner-tspan" font-weight="normal"> Writes</tspan></tspan><tspan class="text-outer-tspan row" x="0" y="1em" dy="1.1em"><tspan font-style="normal" class="text-inner-tspan" font-weight="normal">.tmp</tspan><tspan font-style="normal" class="text-inner-tspan" font-weight="normal"> +</tspan><tspan font-style="normal" class="text-inner-tspan" font-weight="normal"> rename</tspan></tspan></text></g></g></g></g></g><g class="root" transform="translate(173.8109893798828, 226.8000030517578)"><g class="clusters"><g class="cluster" id="ge170ef0c-1c10-4601-a86b-e3950ff56b7d-light-output" data-look="classic"><rect style="" x="8" y="8" width="524.671875" height="159.1999969482422"></rect><g class="cluster-label" transform="translate(245.3984375, 8)"><g><rect class="background" style="stroke: none"></rect><text y="-10.1" style=""><tspan class="text-outer-tspan row" x="0" y="-0.1em" dy="1.1em"><tspan font-style="normal" class="text-inner-tspan" font-weight="normal">Output</tspan></tspan></text></g></g></g></g><g class="edgePaths"></g><g class="edgeLabels"></g><g class="nodes"><g class="node default primary" id="ge170ef0c-1c10-4601-a86b-e3950ff56b7d-light-flowchart-svgFirst-3" data-look="classic" transform="translate(140.4296875, 87.5999984741211)"><rect class="basic label-container" style="fill:#2E5A88 !important;stroke:#1F4870 !important" x="-97.4296875" y="-42.099998474121094" width="194.859375" height="84.19999694824219"></rect><g class="label" style="color:#ffffff !important" transform="translate(0, -27.099998474121094)"><rect></rect><g><rect class="background" style="stroke: none"></rect><text y="-10.1" style="fill:#ffffff !important"><tspan class="text-outer-tspan row" x="0" y="-0.1em" dy="1.1em"><tspan font-style="normal" class="text-inner-tspan" font-weight="normal">SVG-First</tspan></tspan><tspan class="text-outer-tspan row" x="0" y="1em" dy="1.1em"><tspan font-style="normal" class="text-inner-tspan" font-weight="normal">Vector</tspan><tspan font-style="normal" class="text-inner-tspan" font-weight="normal"> is</tspan><tspan font-style="normal" class="text-inner-tspan" font-weight="normal"> canonical</tspan></tspan><tspan class="text-outer-tspan row" x="0" y="2.1em" dy="1.1em"><tspan font-style="normal" class="text-inner-tspan" font-weight="normal">Raster</tspan><tspan font-style="normal" class="text-inner-tspan" font-weight="normal"> via</tspan><tspan font-style="normal" class="text-inner-tspan" font-weight="normal"> sharp</tspan></tspan></text></g></g></g><g class="node default primary" id="ge170ef0c-1c10-4601-a86b-e3950ff56b7d-light-flowchart-themes-4" data-look="classic" transform="translate(392.765625, 87.5999984741211)"><rect class="basic label-container" style="fill:#2E5A88 !important;stroke:#1F4870 !important" x="-104.90625" y="-42.099998474121094" width="209.8125" height="84.19999694824219"></rect><g class="label" style="color:#ffffff !important" transform="translate(0, -27.099998474121094)"><rect></rect><g><rect class="background" style="stroke: none"></rect><text y="-10.1" style="fill:#ffffff !important"><tspan class="text-outer-tspan row" x="0" y="-0.1em" dy="1.1em"><tspan font-style="normal" class="text-inner-tspan" font-weight="normal">Light</tspan><tspan font-style="normal" class="text-inner-tspan" font-weight="normal"> +</tspan><tspan font-style="normal" class="text-inner-tspan" font-weight="normal"> Dark</tspan></tspan><tspan class="text-outer-tspan row" x="0" y="1em" dy="1.1em"><tspan font-style="normal" class="text-inner-tspan" font-weight="normal">Both</tspan><tspan font-style="normal" class="text-inner-tspan" font-weight="normal"> themes</tspan><tspan font-style="normal" class="text-inner-tspan" font-weight="normal"> default</tspan></tspan><tspan class="text-outer-tspan row" x="0" y="2.1em" dy="1.1em"><tspan font-style="normal" class="text-inner-tspan" font-weight="normal">Theme</tspan><tspan font-style="normal" class="text-inner-tspan" font-weight="normal"> suffix</tspan><tspan font-style="normal" class="text-inner-tspan" font-weight="normal"> naming</tspan></tspan></text></g></g></g></g></g><g class="root" transform="translate(169.3031768798828, 0)"><g class="clusters"><g class="cluster" id="ge170ef0c-1c10-4601-a86b-e3950ff56b7d-light-runtime" data-look="classic"><rect style="" x="8" y="8" width="533.6875" height="176.8000030517578"></rect><g class="cluster-label" transform="translate(245.21875, 8)"><g><rect class="background" style="stroke: none"></rect><text y="-10.1" style=""><tspan class="text-outer-tspan row" x="0" y="-0.1em" dy="1.1em"><tspan font-style="normal" class="text-inner-tspan" font-weight="normal">Runtime</tspan></tspan></text></g></g></g></g><g class="edgePaths"></g><g class="edgeLabels"></g><g class="nodes"><g class="node default primary" id="ge170ef0c-1c10-4601-a86b-e3950ff56b7d-light-flowchart-chromium-1" data-look="classic" transform="translate(152.625, 96.4000015258789)"><rect class="basic label-container" style="fill:#2E5A88 !important;stroke:#1F4870 !important" x="-109.625" y="-42.099998474121094" width="219.25" height="84.19999694824219"></rect><g class="label" style="color:#ffffff !important" transform="translate(0, -27.099998474121094)"><rect></rect><g><rect class="background" style="stroke: none"></rect><text y="-10.1" style="fill:#ffffff !important"><tspan class="text-outer-tspan row" x="0" y="-0.1em" dy="1.1em"><tspan font-style="normal" class="text-inner-tspan" font-weight="normal">One</tspan><tspan font-style="normal" class="text-inner-tspan" font-weight="normal"> Chromium</tspan></tspan><tspan class="text-outer-tspan row" x="0" y="1em" dy="1.1em"><tspan font-style="normal" class="text-inner-tspan" font-weight="normal">Shared</tspan><tspan font-style="normal" class="text-inner-tspan" font-weight="normal"> BrowserPool</tspan></tspan><tspan class="text-outer-tspan row" x="0" y="2.1em" dy="1.1em"><tspan font-style="normal" class="text-inner-tspan" font-weight="normal">Graphviz</tspan><tspan font-style="normal" class="text-inner-tspan" font-weight="normal"> is</tspan><tspan font-style="normal" class="text-inner-tspan" font-weight="normal"> WASM</tspan><tspan font-style="normal" class="text-inner-tspan" font-weight="normal"> only</tspan></tspan></text></g></g></g><g class="node default primary" id="ge170ef0c-1c10-4601-a86b-e3950ff56b7d-light-flowchart-registry-2" data-look="classic" transform="translate(409.46875, 96.4000015258789)"><rect class="basic label-container" style="fill:#2E5A88 !important;stroke:#1F4870 !important" x="-97.21875" y="-50.900001525878906" width="194.4375" height="101.80000305175781"></rect><g class="label" style="color:#ffffff !important" transform="translate(0, -35.900001525878906)"><rect></rect><g><rect class="background" style="stroke: none"></rect><text y="-10.1" style="fill:#ffffff !important"><tspan class="text-outer-tspan row" x="0" y="-0.1em" dy="1.1em"><tspan font-style="normal" class="text-inner-tspan" font-weight="normal">Engine</tspan><tspan font-style="normal" class="text-inner-tspan" font-weight="normal"> Registry</tspan></tspan><tspan class="text-outer-tspan row" x="0" y="1em" dy="1.1em"><tspan font-style="normal" class="text-inner-tspan" font-weight="normal">Extension</tspan><tspan font-style="normal" class="text-inner-tspan" font-weight="normal"> mapping</tspan></tspan><tspan class="text-outer-tspan row" x="0" y="2.1em" dy="1.1em"><tspan font-style="normal" class="text-inner-tspan" font-weight="normal">Engine</tspan><tspan font-style="normal" class="text-inner-tspan" font-weight="normal"> profiles</tspan></tspan><tspan class="text-outer-tspan row" x="0" y="3.2em" dy="1.1em"><tspan font-style="normal" class="text-inner-tspan" font-weight="normal">Renderer</tspan><tspan font-style="normal" class="text-inner-tspan" font-weight="normal"> dispatch</tspan></tspan></text></g></g></g></g></g><g class="node default rootNode" id="ge170ef0c-1c10-4601-a86b-e3950ff56b7d-light-flowchart-root_node-0" data-look="classic" transform="translate(60.335182189941406, 419)"><g class="basic label-container outer-path"><path d="M-26.54843807220459 -25.799999237060547 C-8.451962764785861 -25.799999237060547, 9.644512542632867 -25.799999237060547, 26.54843807220459 -25.799999237060547 C26.54843807220459 -25.799999237060547, 26.54843807220459 -25.799999237060547, 26.54843807220459 -25.799999237060547 C27.202122065612027 -25.779036863710676, 27.85580605901946 -25.758074490360805, 28.201449698825282 -25.746990371586765 C28.84113368688293 -25.6852808265914, 29.480817674940575 -25.62357128159603, 29.84766874610231 -25.58818159996402 C30.34115839192733 -25.508398021096394, 30.83464803775235 -25.428614442228763, 31.48033054685753 -25.32422550149928 C32.09539058488378 -25.183842061461633, 32.71045062291003 -25.04345862142398, 33.092726143546784 -24.956206728419545 C33.70761479687533 -24.77371100372804, 34.32250345020388 -24.591215279036533, 34.678229856805515 -24.48563754880318 C35.078526123464044 -24.338324822374716, 35.47882239012257 -24.19101209594625, 36.23032651178644 -23.914451632345997 C36.77777909569304 -23.672110613054453, 37.32523167959964 -23.42976959376291, 37.74263821041056 -23.24499610449772 C38.094507270357056 -23.061426241306524, 38.44637633030355 -22.877856378115325, 39.2089505395184 -22.480021901620034 C39.50838079653101 -22.29850552017148, 39.807811053543624 -22.11698913872293, 40.62323810722664 -21.62267246679901 C40.98449653224951 -21.37067422812823, 41.34575495727237 -21.118675989457447, 41.97968930255584 -20.67647083276321 C42.260761238759834 -20.45232344327887, 42.541833174963834 -20.22817605379453, 43.272730176586506 -19.64530514498651 C43.563658784887494 -19.381091480476716, 43.85458739318848 -19.116877815966923, 44.49704734701088 -18.533412684464313 C44.9375993908305 -18.078506529225088, 45.378151434650114 -17.623600373985862, 45.64760983196044 -17.345362455817106 C46.01416563171779 -16.91478515580625, 46.38072143147513 -16.48420785579539, 46.71968972338968 -16.086036412270357 C46.97875861698954 -15.738907696508283, 47.2378275105894 -15.39177898074621, 47.70888161506427 -14.76060939466161 C48.006885938547256 -14.302794728426285, 48.30489026203024 -13.84498006219096, 48.61112070532037 -13.374527866909407 C48.901020357431044 -12.859781679063918, 49.19092000954173 -12.345035491218429, 49.422699500206406 -11.93348753532484 C49.5705841327642 -11.626401931594334, 49.718468765322 -11.319316327863826, 50.14028304837108 -10.443409943732584 C50.36359882325335 -9.891815662256597, 50.586914598135614 -9.340221380780608, 50.760922645093814 -8.910418140577123 C50.87111504996149 -8.578536173891145, 50.981307454829164 -8.246654207205166, 51.2820679491449 -7.340811518003323 C51.396406575090175 -6.904788782600054, 51.51074520103544 -6.468766047196785, 51.70157746268467 -5.741039926302914 C51.78723443272225 -5.301209488766951, 51.872891402759834 -4.86137905123099, 52.01772733113747 -4.117677170096137 C52.07143334707197 -3.7011439159605772, 52.12513936300647 -3.2846106618250177, 52.22921842687991 -2.4773939951584394 C52.2656387755666 -1.9101176663869435, 52.30205912425328 -1.3428413376154473, 52.33518168763487 -0.8269306768952902 C52.33518168763487 -0.41945033803202864, 52.33518168763487 -0.011969999168767065, 52.33518168763487 0.826930676895284 C52.298484160511656 1.3985242835501628, 52.26178663338843 1.9701178902050416, 52.22921842687991 2.4773939951584216 C52.144815189358035 3.132008838073685, 52.06041195183615 3.7866236809889484, 52.01772733113748 4.117677170096119 C51.914389527319464 4.648294952249037, 51.81105172350145 5.178912734401956, 51.70157746268467 5.741039926302909 C51.61346678658956 6.077044121662128, 51.52535611049446 6.413048317021347, 51.28206794914491 7.340811518003306 C51.10808182534965 7.864830001950371, 50.9340957015544 8.388848485897435, 50.76092264509383 8.910418140577105 C50.5576967393179 9.41239005694925, 50.35447083354197 9.914361973321395, 50.14028304837109 10.443409943732577 C49.99047245501857 10.754494846262283, 49.84066186166605 11.06557974879199, 49.422699500206406 11.933487535324835 C49.16957846621014 12.382929562469256, 48.916457432213875 12.832371589613679, 48.611120705320374 13.374527866909402 C48.35553109311926 13.76718214667105, 48.09994148091815 14.159836426432697, 47.708881615064286 14.760609394661596 C47.46620594485692 15.085772684531108, 47.22353027464955 15.41093597440062, 46.71968972338968 16.086036412270353 C46.31853429203317 16.557256408332396, 45.91737886067666 17.02847640439444, 45.64760983196045 17.345362455817092 C45.2971502064524 17.707240792424514, 44.946690580944356 18.06911912903194, 44.49704734701088 18.533412684464306 C44.143277466902 18.854697129341087, 43.78950758679313 19.175981574217868, 43.272730176586535 19.64530514498649 C42.888085450392886 19.952049078299886, 42.50344072419924 20.258793011613278, 41.97968930255585 20.676470832763208 C41.65765351357618 20.901109058450807, 41.3356177245965 21.125747284138406, 40.623238107226655 21.622672466799003 C40.25528319225882 21.8457288985956, 39.88732827729099 22.068785330392195, 39.208950539518405 22.48002190162003 C38.74619791446871 22.721439649701253, 38.283445289419014 22.962857397782475, 37.74263821041057 23.244996104497716 C37.242909086158306 23.466211363866417, 36.743179961906044 23.68742662323512, 36.23032651178645 23.914451632345994 C35.69187959757964 24.11260507412281, 35.15343268337284 24.31075851589963, 34.67822985680553 24.485637548803172 C34.25192836086042 24.61216159509747, 33.82562686491531 24.73868564139176, 33.09272614354681 24.95620672841954 C32.68541916540695 25.049171888253536, 32.278112187267084 25.142137048087534, 31.480330546857545 25.324225501499278 C31.06857083583739 25.390795618332767, 30.65681112481724 25.457365735166256, 29.84766874610233 25.588181599964017 C29.42078387830691 25.629362669756073, 28.99389901051149 25.67054373954813, 28.201449698825282 25.746990371586765 C27.6759749561004 25.763841323811413, 27.15050021337552 25.78069227603606, 26.548438072204593 25.799999237060547 C26.548438072204593 25.799999237060547, 26.54843807220459 25.799999237060547, 26.54843807220459 25.799999237060547 C15.297051075187019 25.799999237060547, 4.045664078169448 25.799999237060547, -26.548438072204586 25.799999237060547 C-27.147624236437935 25.7807845030187, -27.74681040067128 25.761569768976855, -28.20144969882527 25.746990371586765 C-28.600086131589922 25.708534394348412, -28.998722564354576 25.67007841711006, -29.84766874610232 25.588181599964017 C-30.464489718192926 25.488458768714487, -31.08131069028353 25.388735937464958, -31.480330546857534 25.324225501499278 C-31.93787128892798 25.219794812854072, -32.39541203099842 25.115364124208867, -33.092726143546784 24.956206728419545 C-33.4409587548807 24.852853117285918, -33.7891913662146 24.749499506152294, -34.6782298568055 24.485637548803183 C-35.27026987454174 24.267761349518317, -35.86230989227798 24.04988515023345, -36.230326511786444 23.914451632345997 C-36.76059719576326 23.67971653047042, -37.29086787974007 23.44498142859484, -37.74263821041056 23.244996104497723 C-38.235345032104604 22.98795127121372, -38.72805185379865 22.730906437929722, -39.2089505395184 22.480021901620038 C-39.60861404748763 22.237743534405617, -40.00827755545685 21.9954651671912, -40.623238107226626 21.622672466799017 C-40.930957396402356 21.408020811623363, -41.238676685578085 21.19336915644771, -41.97968930255584 20.67647083276321 C-42.492062284069135 20.26786701482402, -43.00443526558244 19.859263196884832, -43.272730176586506 19.645305144986512 C-43.56558817489747 19.37933925951852, -43.858446173208435 19.11337337405053, -44.49704734701086 18.533412684464324 C-44.82710965789766 18.19259624985402, -45.157171968784446 17.851779815243717, -45.64760983196044 17.3453624558171 C-46.06221628190793 16.85834212793345, -46.47682273185542 16.3713218000498, -46.71968972338967 16.08603641227036 C-46.971604486417704 15.748493579719835, -47.22351924944574 15.410950747169307, -47.70888161506427 14.760609394661614 C-48.032068424697265 14.26410766725551, -48.35525523433026 13.767605939849407, -48.61112070532036 13.374527866909418 C-48.8750361097511 12.905919342010051, -49.13895151418184 12.437310817110683, -49.4226995002064 11.933487535324842 C-49.669019445824446 11.42199889784643, -49.915339391442494 10.910510260368019, -50.14028304837108 10.443409943732586 C-50.297052098711 10.056187358469582, -50.453821149050924 9.668964773206579, -50.760922645093814 8.910418140577127 C-50.964429680262896 8.297487375090583, -51.16793671543198 7.68455660960404, -51.2820679491449 7.340811518003316 C-51.37780988866107 6.975706007809107, -51.473551828177236 6.6106004976148975, -51.70157746268467 5.741039926302918 C-51.79321217579699 5.2705150414746145, -51.884846888909316 4.79999015664631, -52.01772733113747 4.117677170096139 C-52.0985918892402 3.490507625964573, -52.17945644734292 2.8633380818330068, -52.22921842687991 2.477393995158454 C-52.260404957174885 1.9916386125000527, -52.29159148746986 1.5058832298416513, -52.33518168763487 0.8269306768952934 C-52.33518168763487 0.37158753761713725, -52.33518168763487 -0.08375560166101892, -52.33518168763487 -0.8269306768952809 C-52.301696971867614 -1.3484821533464089, -52.268212256100355 -1.8700336297975368, -52.22921842687991 -2.4773939951584185 C-52.17137734085189 -2.925998036377388, -52.11353625482388 -3.374602077596358, -52.01772733113748 -4.117677170096128 C-51.90443411582679 -4.699413886186965, -51.7911409005161 -5.281150602277803, -51.70157746268467 -5.741039926302906 C-51.57004682917895 -6.242623237597378, -51.43851619567323 -6.744206548891851, -51.28206794914491 -7.340811518003303 C-51.15306939601717 -7.729334606895781, -51.02407084288943 -8.11785769578826, -50.76092264509383 -8.910418140577093 C-50.60655013261263 -9.291721230995135, -50.45217762013144 -9.673024321413177, -50.14028304837109 -10.443409943732574 C-49.98299945556806 -10.77001268951783, -49.82571586276504 -11.096615435303086, -49.422699500206406 -11.933487535324831 C-49.231980137792505 -12.27212907572033, -49.041260775378596 -12.610770616115827, -48.61112070532037 -13.374527866909409 C-48.288993156716636 -13.869402284923153, -47.966865608112904 -14.364276702936895, -47.70888161506428 -14.760609394661605 C-47.41698999955458 -15.151717567571383, -47.12509838404488 -15.542825740481161, -46.71968972338968 -16.086036412270353 C-46.46360633059124 -16.38684653700924, -46.2075229377928 -16.687656661748132, -45.64760983196045 -17.345362455817092 C-45.26591399400947 -17.739494746312577, -44.884218156058495 -18.133627036808065, -44.49704734701089 -18.5334126844643 C-44.030783977347724 -18.95686074013965, -43.564520607684564 -19.380308795815004, -43.272730176586535 -19.645305144986487 C-42.822134537495636 -20.00464317630794, -42.37153889840474 -20.36398120762939, -41.97968930255585 -20.676470832763204 C-41.614829338907626 -20.93098134887094, -41.249969375259404 -21.18549186497868, -40.62323810722666 -21.622672466799 C-40.14600779256446 -21.91197228806385, -39.66877747790225 -22.201272109328702, -39.208950539518405 -22.480021901620027 C-38.90151223520664 -22.640412268055844, -38.59407393089488 -22.80080263449166, -37.742638210410576 -23.244996104497716 C-37.2322682478799 -23.470921747323015, -36.721898285349226 -23.696847390148317, -36.23032651178645 -23.91445163234599 C-35.632371762025095 -24.134504507691286, -35.03441701226374 -24.35455738303658, -34.67822985680553 -24.485637548803172 C-34.34830003251674 -24.5835589888151, -34.01837020822795 -24.681480428827022, -33.09272614354682 -24.956206728419538 C-32.520171404245026 -25.086888611396326, -31.947616664943236 -25.217570494373113, -31.480330546857545 -25.324225501499278 C-30.83736264625205 -25.428175565378634, -30.19439474564655 -25.53212562925799, -29.84766874610233 -25.588181599964017 C-29.229241610059123 -25.647840522010657, -28.610814474015918 -25.707499444057298, -28.201449698825286 -25.746990371586765 C-27.671693491025255 -25.763978622063007, -27.14193728322523 -25.78096687253925, -26.548438072204597 -25.799999237060547 C-26.548438072204593 -25.799999237060547, -26.548438072204593 -25.799999237060547, -26.54843807220459 -25.799999237060547" stroke="none" stroke-width="0" fill="#1F4870" style="fill:#1F4870 !important;stroke:#0E2C4A !important;stroke-width:2px !important"></path><path d="M-26.54843807220459 -25.799999237060547 C-8.886694435207126 -25.799999237060547, 8.775049201790338 -25.799999237060547, 26.54843807220459 -25.799999237060547 M-26.54843807220459 -25.799999237060547 C-5.383944332248046 -25.799999237060547, 15.780549407708499 -25.799999237060547, 26.54843807220459 -25.799999237060547 M26.54843807220459 -25.799999237060547 C26.54843807220459 -25.799999237060547, 26.54843807220459 -25.799999237060547, 26.54843807220459 -25.799999237060547 M26.54843807220459 -25.799999237060547 C26.54843807220459 -25.799999237060547, 26.54843807220459 -25.799999237060547, 26.54843807220459 -25.799999237060547 M26.54843807220459 -25.799999237060547 C27.168846460549307 -25.780103947598, 27.789254848894025 -25.760208658135458, 28.201449698825282 -25.746990371586765 M26.54843807220459 -25.799999237060547 C27.146332725506728 -25.78082591926049, 27.744227378808862 -25.761652601460433, 28.201449698825282 -25.746990371586765 M28.201449698825282 -25.746990371586765 C28.770840993173262 -25.692061878214236, 29.340232287521246 -25.637133384841707, 29.84766874610231 -25.58818159996402 M28.201449698825282 -25.746990371586765 C28.660491909492492 -25.70270712160273, 29.1195341201597 -25.658423871618695, 29.84766874610231 -25.58818159996402 M29.84766874610231 -25.58818159996402 C30.310099853320843 -25.513419324755723, 30.77253096053937 -25.43865704954743, 31.48033054685753 -25.32422550149928 M29.84766874610231 -25.58818159996402 C30.26073123816722 -25.521400859594433, 30.67379373023213 -25.45462011922485, 31.48033054685753 -25.32422550149928 M31.48033054685753 -25.32422550149928 C32.10851274140545 -25.180847014865634, 32.736694935953366 -25.03746852823199, 33.092726143546784 -24.956206728419545 M31.48033054685753 -25.32422550149928 C31.930835673014986 -25.22140064627453, 32.38134079917244 -25.11857579104978, 33.092726143546784 -24.956206728419545 M33.092726143546784 -24.956206728419545 C33.415803761061156 -24.860318987410302, 33.73888137857553 -24.76443124640106, 34.678229856805515 -24.48563754880318 M33.092726143546784 -24.956206728419545 C33.56434647865519 -24.816232288545027, 34.03596681376359 -24.676257848670513, 34.678229856805515 -24.48563754880318 M34.678229856805515 -24.48563754880318 C35.24211889215062 -24.278121171263077, 35.80600792749573 -24.070604793722975, 36.23032651178644 -23.914451632345997 M34.678229856805515 -24.48563754880318 C35.16375118209073 -24.306961212988288, 35.64927250737595 -24.128284877173396, 36.23032651178644 -23.914451632345997 M36.23032651178644 -23.914451632345997 C36.71469409151567 -23.700036473053615, 37.19906167124489 -23.485621313761236, 37.74263821041056 -23.24499610449772 M36.23032651178644 -23.914451632345997 C36.80710509242569 -23.659128864225696, 37.383883673064936 -23.40380609610539, 37.74263821041056 -23.24499610449772 M37.74263821041056 -23.24499610449772 C38.231030659304594 -22.990202076739997, 38.719423108198626 -22.735408048982276, 39.2089505395184 -22.480021901620034 M37.74263821041056 -23.24499610449772 C38.32206338433488 -22.94271036240094, 38.901488558259196 -22.64042462030416, 39.2089505395184 -22.480021901620034 M39.2089505395184 -22.480021901620034 C39.72978473493277 -22.16428915159837, 40.250618930347144 -21.848556401576705, 40.62323810722664 -21.62267246679901 M39.2089505395184 -22.480021901620034 C39.67293287542796 -22.198753082928796, 40.136915211337524 -21.917484264237558, 40.62323810722664 -21.62267246679901 M40.62323810722664 -21.62267246679901 C41.09559084913686 -21.293179641863077, 41.567943591047076 -20.963686816927147, 41.97968930255584 -20.67647083276321 M40.62323810722664 -21.62267246679901 C41.114488616414214 -21.279997377481557, 41.60573912560179 -20.937322288164104, 41.97968930255584 -20.67647083276321 M41.97968930255584 -20.67647083276321 C42.40972539877237 -20.333528489771652, 42.839761494988906 -19.990586146780096, 43.272730176586506 -19.64530514498651 M41.97968930255584 -20.67647083276321 C42.475363608432936 -20.281183764273468, 42.97103791431003 -19.885896695783728, 43.272730176586506 -19.64530514498651 M43.272730176586506 -19.64530514498651 C43.74959136041401 -19.21223243488991, 44.2264525442415 -18.779159724793306, 44.49704734701088 -18.533412684464313 M43.272730176586506 -19.64530514498651 C43.59599336015552 -19.351726074744278, 43.91925654372453 -19.058147004502043, 44.49704734701088 -18.533412684464313 M44.49704734701088 -18.533412684464313 C44.93693656607651 -18.079190950202502, 45.376825785142145 -17.62496921594069, 45.64760983196044 -17.345362455817106 M44.49704734701088 -18.533412684464313 C44.75611750302898 -18.265901478320245, 45.015187659047086 -17.998390272176174, 45.64760983196044 -17.345362455817106 M45.64760983196044 -17.345362455817106 C46.001400855533674 -16.92977938824844, 46.35519187910692 -16.51419632067978, 46.71968972338968 -16.086036412270357 M45.64760983196044 -17.345362455817106 C45.884862088818416 -17.06667245487587, 46.122114345676394 -16.787982453934635, 46.71968972338968 -16.086036412270357 M46.71968972338968 -16.086036412270357 C47.10134667641776 -15.574650864876423, 47.48300362944585 -15.06326531748249, 47.70888161506427 -14.76060939466161 M46.71968972338968 -16.086036412270357 C46.9830957162608 -15.733096378602662, 47.24650170913192 -15.380156344934967, 47.70888161506427 -14.76060939466161 M47.70888161506427 -14.76060939466161 C47.931902453874905 -14.417989496767941, 48.15492329268554 -14.07536959887427, 48.61112070532037 -13.374527866909407 M47.70888161506427 -14.76060939466161 C47.93593165684636 -14.411799559011305, 48.162981698628435 -14.062989723361, 48.61112070532037 -13.374527866909407 M48.61112070532037 -13.374527866909407 C48.79653487836174 -13.045306227453521, 48.981949051403106 -12.716084587997635, 49.422699500206406 -11.93348753532484 M48.61112070532037 -13.374527866909407 C48.91106738548485 -12.841942163382488, 49.21101406564932 -12.309356459855568, 49.422699500206406 -11.93348753532484 M49.422699500206406 -11.93348753532484 C49.66050362551516 -11.439682180928042, 49.89830775082391 -10.945876826531244, 50.14028304837108 -10.443409943732584 M49.422699500206406 -11.93348753532484 C49.57873846813081 -11.609469279730744, 49.73477743605522 -11.285451024136648, 50.14028304837108 -10.443409943732584 M50.14028304837108 -10.443409943732584 C50.27260749407017 -10.116566004536718, 50.404931939769256 -9.789722065340852, 50.760922645093814 -8.910418140577123 M50.14028304837108 -10.443409943732584 C50.27465928187281 -10.111498048995584, 50.40903551537453 -9.779586154258585, 50.760922645093814 -8.910418140577123 M50.760922645093814 -8.910418140577123 C50.918705328117156 -8.435201838567385, 51.0764880111405 -7.959985536557647, 51.2820679491449 -7.340811518003323 M50.760922645093814 -8.910418140577123 C50.89703663962947 -8.500464475855638, 51.033150634165125 -8.090510811134154, 51.2820679491449 -7.340811518003323 M51.2820679491449 -7.340811518003323 C51.436676530105764 -6.75122199101669, 51.59128511106663 -6.161632464030056, 51.70157746268467 -5.741039926302914 M51.2820679491449 -7.340811518003323 C51.401652745027434 -6.884782862924851, 51.521237540909965 -6.428754207846379, 51.70157746268467 -5.741039926302914 M51.70157746268467 -5.741039926302914 C51.796820105759195 -5.251989083654971, 51.892062748833716 -4.762938241007028, 52.01772733113747 -4.117677170096137 M51.70157746268467 -5.741039926302914 C51.770123015212384 -5.38907300118075, 51.8386685677401 -5.037106076058587, 52.01772733113747 -4.117677170096137 M52.01772733113747 -4.117677170096137 C52.077166206947 -3.656680986851112, 52.13660508275652 -3.1956848036060874, 52.22921842687991 -2.4773939951584394 M52.01772733113747 -4.117677170096137 C52.06271837562116 -3.7687355135673077, 52.10770942010485 -3.4197938570384783, 52.22921842687991 -2.4773939951584394 M52.22921842687991 -2.4773939951584394 C52.270462214931584 -1.83498870486713, 52.31170600298326 -1.1925834145758207, 52.33518168763487 -0.8269306768952902 M52.22921842687991 -2.4773939951584394 C52.26271216444928 -1.9557019968571299, 52.29620590201865 -1.4340099985558203, 52.33518168763487 -0.8269306768952902 M52.33518168763487 -0.8269306768952902 C52.33518168763487 -0.38439278297720825, 52.33518168763487 0.05814511094087371, 52.33518168763487 0.826930676895284 M52.33518168763487 -0.8269306768952902 C52.33518168763487 -0.35898978735963416, 52.33518168763487 0.10895110217602189, 52.33518168763487 0.826930676895284 M52.33518168763487 0.826930676895284 C52.30979003040145 1.2224262340826053, 52.28439837316803 1.6179217912699269, 52.22921842687991 2.4773939951584216 M52.33518168763487 0.826930676895284 C52.310253508264104 1.2152071922591874, 52.28532532889334 1.6034837076230906, 52.22921842687991 2.4773939951584216 M52.22921842687991 2.4773939951584216 C52.17790919776502 2.8753382440202175, 52.126599968650126 3.273282492882014, 52.01772733113748 4.117677170096119 M52.22921842687991 2.4773939951584216 C52.16635658653564 2.964938015394173, 52.103494746191366 3.4524820356299246, 52.01772733113748 4.117677170096119 M52.01772733113748 4.117677170096119 C51.921688662387936 4.610815436345173, 51.8256499936384 5.103953702594227, 51.70157746268467 5.741039926302909 M52.01772733113748 4.117677170096119 C51.940129517594784 4.51612554233414, 51.862531704052095 4.914573914572162, 51.70157746268467 5.741039926302909 M51.70157746268467 5.741039926302909 C51.54757199591187 6.328329517499102, 51.39356652913908 6.915619108695296, 51.28206794914491 7.340811518003306 M51.70157746268467 5.741039926302909 C51.56024642262632 6.2799964353056295, 51.41891538256797 6.81895294430835, 51.28206794914491 7.340811518003306 M51.28206794914491 7.340811518003306 C51.098177768960305 7.89465944179799, 50.91428758877571 8.448507365592675, 50.76092264509383 8.910418140577105 M51.28206794914491 7.340811518003306 C51.0853299198613 7.933355116257425, 50.8885918905777 8.525898714511543, 50.76092264509383 8.910418140577105 M50.76092264509383 8.910418140577105 C50.53907663980541 9.45838206274024, 50.31723063451698 10.006345984903374, 50.14028304837109 10.443409943732577 M50.76092264509383 8.910418140577105 C50.60671341526056 9.29131791969792, 50.45250418542729 9.672217698818736, 50.14028304837109 10.443409943732577 M50.14028304837109 10.443409943732577 C49.865092127505996 11.014849779051387, 49.5899012066409 11.586289614370195, 49.422699500206406 11.933487535324835 M50.14028304837109 10.443409943732577 C49.88432166932089 10.974919224026472, 49.6283602902707 11.506428504320365, 49.422699500206406 11.933487535324835 M49.422699500206406 11.933487535324835 C49.1899376928635 12.34677969395097, 48.95717588552059 12.760071852577106, 48.611120705320374 13.374527866909402 M49.422699500206406 11.933487535324835 C49.234524374214786 12.267611526320694, 49.046349248223166 12.601735517316552, 48.611120705320374 13.374527866909402 M48.611120705320374 13.374527866909402 C48.32025717469961 13.821372357736989, 48.029393644078844 14.268216848564574, 47.708881615064286 14.760609394661596 M48.611120705320374 13.374527866909402 C48.335279413556314 13.798294164817134, 48.05943812179226 14.222060462724869, 47.708881615064286 14.760609394661596 M47.708881615064286 14.760609394661596 C47.49656312870513 15.045096823770848, 47.28424464234597 15.329584252880101, 46.71968972338968 16.086036412270353 M47.708881615064286 14.760609394661596 C47.46532271935368 15.086956126241942, 47.22176382364308 15.41330285782229, 46.71968972338968 16.086036412270353 M46.71968972338968 16.086036412270353 C46.4375898420863 16.41740698478728, 46.155489960782916 16.74877755730421, 45.64760983196045 17.345362455817092 M46.71968972338968 16.086036412270353 C46.3369735271122 16.53559663358637, 45.95425733083472 16.985156854902385, 45.64760983196045 17.345362455817092 M45.64760983196045 17.345362455817092 C45.28633263539596 17.718410822679395, 44.925055438831464 18.0914591895417, 44.49704734701088 18.533412684464306 M45.64760983196045 17.345362455817092 C45.38513111502682 17.616393280954494, 45.1226523980932 17.887424106091892, 44.49704734701088 18.533412684464306 M44.49704734701088 18.533412684464306 C44.14448363219546 18.85360172193495, 43.79191991738005 19.173790759405595, 43.272730176586535 19.64530514498649 M44.49704734701088 18.533412684464306 C44.08937824826811 18.90364697360921, 43.681709149525346 19.27388126275411, 43.272730176586535 19.64530514498649 M43.272730176586535 19.64530514498649 C42.906224066565485 19.937584014591085, 42.539717956544436 20.229862884195676, 41.97968930255585 20.676470832763208 M43.272730176586535 19.64530514498649 C42.93842166032879 19.9119072903788, 42.60411314407105 20.178509435771108, 41.97968930255585 20.676470832763208 M41.97968930255585 20.676470832763208 C41.607228455779264 20.93628339590436, 41.23476760900268 21.196095959045515, 40.623238107226655 21.622672466799003 M41.97968930255585 20.676470832763208 C41.67745056727037 20.887299490794376, 41.37521183198489 21.09812814882555, 40.623238107226655 21.622672466799003 M40.623238107226655 21.622672466799003 C40.13202857026242 21.920446574774378, 39.640819033298186 22.218220682749752, 39.208950539518405 22.48002190162003 M40.623238107226655 21.622672466799003 C40.070033550229425 21.958028320241553, 39.5168289932322 22.293384173684107, 39.208950539518405 22.48002190162003 M39.208950539518405 22.48002190162003 C38.874836444190436 22.65432901114234, 38.54072234886246 22.82863612066465, 37.74263821041057 23.244996104497716 M39.208950539518405 22.48002190162003 C38.676892818686504 22.7575960737788, 38.144835097854596 23.035170245937568, 37.74263821041057 23.244996104497716 M37.74263821041057 23.244996104497716 C37.40555861138266 23.394211243876335, 37.06847901235475 23.543426383254957, 36.23032651178645 23.914451632345994 M37.74263821041057 23.244996104497716 C37.33016214893448 23.42758702124555, 36.91768608745839 23.610177937993388, 36.23032651178645 23.914451632345994 M36.23032651178645 23.914451632345994 C35.72795081001676 24.09933053450732, 35.225575108247064 24.28420943666865, 34.67822985680553 24.485637548803172 M36.23032651178645 23.914451632345994 C35.645787621594934 24.12956734735474, 35.06124873140342 24.344683062363487, 34.67822985680553 24.485637548803172 M34.67822985680553 24.485637548803172 C34.16623130681103 24.63759603090631, 33.654232756816526 24.78955451300945, 33.09272614354681 24.95620672841954 M34.67822985680553 24.485637548803172 C34.19304105880145 24.629639037242814, 33.70785226079737 24.773640525682456, 33.09272614354681 24.95620672841954 M33.09272614354681 24.95620672841954 C32.711112756028385 25.043307493860542, 32.32949936850996 25.130408259301543, 31.480330546857545 25.324225501499278 M33.09272614354681 24.95620672841954 C32.63811826354526 25.059968010436236, 32.183510383543705 25.16372929245293, 31.480330546857545 25.324225501499278 M31.480330546857545 25.324225501499278 C30.97743454451475 25.405529827141315, 30.474538542171956 25.486834152783352, 29.84766874610233 25.588181599964017 M31.480330546857545 25.324225501499278 C31.018462277993923 25.398896781367228, 30.556594009130297 25.47356806123518, 29.84766874610233 25.588181599964017 M29.84766874610233 25.588181599964017 C29.215103562841055 25.649204402422296, 28.582538379579777 25.710227204880574, 28.201449698825282 25.746990371586765 M29.84766874610233 25.588181599964017 C29.307676840573727 25.64027396965508, 28.76768493504512 25.69236633934614, 28.201449698825282 25.746990371586765 M28.201449698825282 25.746990371586765 C27.659142475260072 25.764381108709525, 27.116835251694862 25.78177184583229, 26.548438072204593 25.799999237060547 M28.201449698825282 25.746990371586765 C27.55040861633823 25.76786799192753, 26.89936753385118 25.7887456122683, 26.548438072204593 25.799999237060547 M26.548438072204593 25.799999237060547 C26.548438072204593 25.799999237060547, 26.54843807220459 25.799999237060547, 26.54843807220459 25.799999237060547 M26.548438072204593 25.799999237060547 C26.548438072204593 25.799999237060547, 26.548438072204593 25.799999237060547, 26.54843807220459 25.799999237060547 M26.54843807220459 25.799999237060547 C6.5831029300016155 25.799999237060547, -13.382232212201359 25.799999237060547, -26.548438072204586 25.799999237060547 M26.54843807220459 25.799999237060547 C9.06403034309951 25.799999237060547, -8.420377386005569 25.799999237060547, -26.548438072204586 25.799999237060547 M-26.548438072204586 25.799999237060547 C-27.090342117711568 25.782621429073373, -27.632246163218547 25.765243621086203, -28.20144969882527 25.746990371586765 M-26.548438072204586 25.799999237060547 C-27.125283393584603 25.781500930365194, -27.70212871496462 25.76300262366984, -28.20144969882527 25.746990371586765 M-28.20144969882527 25.746990371586765 C-28.85719477071445 25.68373143315045, -29.512939842603632 25.620472494714132, -29.84766874610232 25.588181599964017 M-28.20144969882527 25.746990371586765 C-28.638746348417577 25.704804889726763, -29.076042998009882 25.66261940786676, -29.84766874610232 25.588181599964017 M-29.84766874610232 25.588181599964017 C-30.472371486727223 25.48718450550189, -31.09707422735213 25.386187411039764, -31.480330546857534 25.324225501499278 M-29.84766874610232 25.588181599964017 C-30.198444306178835 25.53147092771594, -30.549219866255353 25.474760255467867, -31.480330546857534 25.324225501499278 M-31.480330546857534 25.324225501499278 C-31.838031115117964 25.242582681008187, -32.19573168337839 25.160939860517097, -33.092726143546784 24.956206728419545 M-31.480330546857534 25.324225501499278 C-32.01819222715986 25.20146208284575, -32.556053907462186 25.078698664192224, -33.092726143546784 24.956206728419545 M-33.092726143546784 24.956206728419545 C-33.46957987094367 24.844358520273733, -33.846433598340546 24.73251031212792, -34.6782298568055 24.485637548803183 M-33.092726143546784 24.956206728419545 C-33.58693932515128 24.80952685029726, -34.08115250675578 24.66284697217497, -34.6782298568055 24.485637548803183 M-34.6782298568055 24.485637548803183 C-35.069039950111176 24.341815821857796, -35.45985004341685 24.197994094912406, -36.230326511786444 23.914451632345997 M-34.6782298568055 24.485637548803183 C-35.186721235252705 24.298508021091838, -35.695212613699915 24.11137849338049, -36.230326511786444 23.914451632345997 M-36.230326511786444 23.914451632345997 C-36.82925371221175 23.64932432726187, -37.42818091263706 23.384197022177737, -37.74263821041056 23.244996104497723 M-36.230326511786444 23.914451632345997 C-36.82146030404104 23.652774237875803, -37.41259409629563 23.39109684340561, -37.74263821041056 23.244996104497723 M-37.74263821041056 23.244996104497723 C-38.246673129566425 22.982041410023882, -38.750708048722295 22.71908671555004, -39.2089505395184 22.480021901620038 M-37.74263821041056 23.244996104497723 C-38.21798899558591 22.997005904348452, -38.69333978076127 22.749015704199177, -39.2089505395184 22.480021901620038 M-39.2089505395184 22.480021901620038 C-39.690571386710204 22.188060513734104, -40.17219223390201 21.896099125848167, -40.623238107226626 21.622672466799017 M-39.2089505395184 22.480021901620038 C-39.5526608825521 22.271662671806833, -39.89637122558579 22.063303441993625, -40.623238107226626 21.622672466799017 M-40.623238107226626 21.622672466799017 C-41.03135604878625 21.33798705790797, -41.439473990345874 21.053301649016923, -41.97968930255584 20.67647083276321 M-40.623238107226626 21.622672466799017 C-41.126275813730764 21.271775138893076, -41.6293135202349 20.920877810987136, -41.97968930255584 20.67647083276321 M-41.97968930255584 20.67647083276321 C-42.28287701570584 20.434686699689976, -42.58606472885584 20.192902566616738, -43.272730176586506 19.645305144986512 M-41.97968930255584 20.67647083276321 C-42.49325958404814 20.266912199952255, -43.00682986554044 19.857353567141303, -43.272730176586506 19.645305144986512 M-43.272730176586506 19.645305144986512 C-43.569033731040484 19.376210096593855, -43.86533728549446 19.107115048201198, -44.49704734701086 18.533412684464324 M-43.272730176586506 19.645305144986512 C-43.752117061283826 19.20993866018632, -44.231503945981146 18.774572175386126, -44.49704734701086 18.533412684464324 M-44.49704734701086 18.533412684464324 C-44.94723702884033 18.068554876715133, -45.3974267106698 17.603697068965946, -45.64760983196044 17.3453624558171 M-44.49704734701086 18.533412684464324 C-44.833788809326634 18.185699477635072, -45.1705302716424 17.837986270805818, -45.64760983196044 17.3453624558171 M-45.64760983196044 17.3453624558171 C-45.93893104441589 17.003159983020343, -46.23025225687134 16.660957510223586, -46.71968972338967 16.08603641227036 M-45.64760983196044 17.3453624558171 C-45.9619544097255 16.976115428061078, -46.276298987490556 16.606868400305057, -46.71968972338967 16.08603641227036 M-46.71968972338967 16.08603641227036 C-47.06115329778622 15.628506330550561, -47.402616872182776 15.170976248830762, -47.70888161506427 14.760609394661614 M-46.71968972338967 16.08603641227036 C-47.11507040874034 15.5562623138219, -47.51045109409101 15.02648821537344, -47.70888161506427 14.760609394661614 M-47.70888161506427 14.760609394661614 C-47.98646441559963 14.334167671620584, -48.26404721613498 13.907725948579554, -48.61112070532036 13.374527866909418 M-47.70888161506427 14.760609394661614 C-47.9653812685683 14.36655704707838, -48.22188092207233 13.972504699495145, -48.61112070532036 13.374527866909418 M-48.61112070532036 13.374527866909418 C-48.83869543463645 12.970445890568508, -49.06627016395253 12.566363914227598, -49.4226995002064 11.933487535324842 M-48.61112070532036 13.374527866909418 C-48.81438774788808 13.013606649810425, -49.0176547904558 12.652685432711431, -49.4226995002064 11.933487535324842 M-49.4226995002064 11.933487535324842 C-49.62256639057317 11.518459661011871, -49.82243328093993 11.103431786698902, -50.14028304837108 10.443409943732586 M-49.4226995002064 11.933487535324842 C-49.69250345022302 11.37323386023559, -49.962307400239645 10.812980185146337, -50.14028304837108 10.443409943732586 M-50.14028304837108 10.443409943732586 C-50.366826464018764 9.883843327163836, -50.59336987966644 9.324276710595086, -50.760922645093814 8.910418140577127 M-50.14028304837108 10.443409943732586 C-50.28933287533555 10.07525398944797, -50.438382702300025 9.707098035163355, -50.760922645093814 8.910418140577127 M-50.760922645093814 8.910418140577127 C-50.890598143881164 8.519856199214551, -51.020273642668506 8.129294257851974, -51.2820679491449 7.340811518003316 M-50.760922645093814 8.910418140577127 C-50.867066517109826 8.590729709794251, -50.97321038912583 8.271041279011378, -51.2820679491449 7.340811518003316 M-51.2820679491449 7.340811518003316 C-51.379432993606606 6.969516405193646, -51.4767980380683 6.598221292383977, -51.70157746268467 5.741039926302918 M-51.2820679491449 7.340811518003316 C-51.406853756825065 6.864949150807712, -51.53163956450522 6.3890867836121075, -51.70157746268467 5.741039926302918 M-51.70157746268467 5.741039926302918 C-51.81867053210093 5.139791762479396, -51.935763601517195 4.538543598655874, -52.01772733113747 4.117677170096139 M-51.70157746268467 5.741039926302918 C-51.78733594410076 5.300688249292748, -51.873094425516854 4.860336572282579, -52.01772733113747 4.117677170096139 M-52.01772733113747 4.117677170096139 C-52.09337202010201 3.5309919002206254, -52.16901670906654 2.944306630345111, -52.22921842687991 2.477393995158454 M-52.01772733113747 4.117677170096139 C-52.09951029473305 3.483384654321662, -52.18129325832863 2.849092138547185, -52.22921842687991 2.477393995158454 M-52.22921842687991 2.477393995158454 C-52.26608399332985 1.903183040351042, -52.30294955977978 1.32897208554363, -52.33518168763487 0.8269306768952934 M-52.22921842687991 2.477393995158454 C-52.263404570546115 1.94491721299883, -52.29759071421232 1.4124404308392056, -52.33518168763487 0.8269306768952934 M-52.33518168763487 0.8269306768952934 C-52.33518168763487 0.4863952837250502, -52.33518168763487 0.14585989055480697, -52.33518168763487 -0.8269306768952809 M-52.33518168763487 0.8269306768952934 C-52.33518168763487 0.46574936179109966, -52.33518168763487 0.10456804668690589, -52.33518168763487 -0.8269306768952809 M-52.33518168763487 -0.8269306768952809 C-52.302968118961125 -1.3286830113135502, -52.27075455028737 -1.8304353457318194, -52.22921842687991 -2.4773939951584185 M-52.33518168763487 -0.8269306768952809 C-52.306645166310055 -1.2714100307947058, -52.27810864498524 -1.7158893846941305, -52.22921842687991 -2.4773939951584185 M-52.22921842687991 -2.4773939951584185 C-52.16796247030173 -2.9524830980220025, -52.106706513723545 -3.427572200885587, -52.01772733113748 -4.117677170096128 M-52.22921842687991 -2.4773939951584185 C-52.172712494452576 -2.915642848706378, -52.11620656202524 -3.353891702254338, -52.01772733113748 -4.117677170096128 M-52.01772733113748 -4.117677170096128 C-51.89320221925689 -4.757087301211206, -51.768677107376305 -5.396497432326283, -51.70157746268467 -5.741039926302906 M-52.01772733113748 -4.117677170096128 C-51.891725196785764 -4.764671499431638, -51.76572306243405 -5.411665828767148, -51.70157746268467 -5.741039926302906 M-51.70157746268467 -5.741039926302906 C-51.60657932501419 -6.103308997693761, -51.51158118734371 -6.465578069084614, -51.28206794914491 -7.340811518003303 M-51.70157746268467 -5.741039926302906 C-51.538137849691054 -6.364306005823923, -51.374698236697434 -6.987572085344939, -51.28206794914491 -7.340811518003303 M-51.28206794914491 -7.340811518003303 C-51.16464954921426 -7.694457030512996, -51.04723114928361 -8.048102543022688, -50.76092264509383 -8.910418140577093 M-51.28206794914491 -7.340811518003303 C-51.17070673013386 -7.67621376666388, -51.059345511122814 -8.011616015324456, -50.76092264509383 -8.910418140577093 M-50.76092264509383 -8.910418140577093 C-50.582334032689545 -9.3515354659916, -50.40374542028527 -9.792652791406104, -50.14028304837109 -10.443409943732574 M-50.76092264509383 -8.910418140577093 C-50.59276678454706 -9.32576636720001, -50.42461092400029 -9.74111459382293, -50.14028304837109 -10.443409943732574 M-50.14028304837109 -10.443409943732574 C-49.8646419810887 -11.015784517718481, -49.589000913806316 -11.58815909170439, -49.422699500206406 -11.933487535324831 M-50.14028304837109 -10.443409943732574 C-49.91538392283964 -10.910417789969042, -49.69048479730818 -11.377425636205512, -49.422699500206406 -11.933487535324831 M-49.422699500206406 -11.933487535324831 C-49.09937028092151 -12.507591304798886, -48.77604106163662 -13.081695074272941, -48.61112070532037 -13.374527866909409 M-49.422699500206406 -11.933487535324831 C-49.13948375994293 -12.436365760866156, -48.85626801967945 -12.939243986407481, -48.61112070532037 -13.374527866909409 M-48.61112070532037 -13.374527866909409 C-48.405932528980095 -13.689752006508247, -48.200744352639816 -14.004976146107085, -47.70888161506428 -14.760609394661605 M-48.61112070532037 -13.374527866909409 C-48.426656125425964 -13.657914997302562, -48.24219154553156 -13.941302127695717, -47.70888161506428 -14.760609394661605 M-47.70888161506428 -14.760609394661605 C-47.32698028364772 -15.27232238683276, -46.94507895223117 -15.784035379003916, -46.71968972338968 -16.086036412270353 M-47.70888161506428 -14.760609394661605 C-47.489196523104084 -15.054967404164664, -47.2695114311439 -15.349325413667724, -46.71968972338968 -16.086036412270353 M-46.71968972338968 -16.086036412270353 C-46.43898240853962 -16.415771196991926, -46.158275093689575 -16.745505981713503, -45.64760983196045 -17.345362455817092 M-46.71968972338968 -16.086036412270353 C-46.3327255011743 -16.540586606572546, -45.945761278958926 -16.99513680087474, -45.64760983196045 -17.345362455817092 M-45.64760983196045 -17.345362455817092 C-45.20238935460323 -17.805089151969415, -44.757168877246 -18.26481584812174, -44.49704734701089 -18.5334126844643 M-45.64760983196045 -17.345362455817092 C-45.2662900595876 -17.739106427727606, -44.88497028721474 -18.132850399638123, -44.49704734701089 -18.5334126844643 M-44.49704734701089 -18.5334126844643 C-44.234385105487426 -18.771955582553833, -43.971722863963954 -19.010498480643363, -43.272730176586535 -19.645305144986487 M-44.49704734701089 -18.5334126844643 C-44.140876022052815 -18.85687805801437, -43.78470469709474 -19.180343431564445, -43.272730176586535 -19.645305144986487 M-43.272730176586535 -19.645305144986487 C-42.842286009002564 -19.988572914034343, -42.41184184141859 -20.3318406830822, -41.97968930255585 -20.676470832763204 M-43.272730176586535 -19.645305144986487 C-42.8191064324806 -20.007058009476168, -42.36548268837468 -20.368810873965845, -41.97968930255585 -20.676470832763204 M-41.97968930255585 -20.676470832763204 C-41.62654585261098 -20.922808416111184, -41.273402402666115 -21.169145999459165, -40.62323810722666 -21.622672466799 M-41.97968930255585 -20.676470832763204 C-41.66648346331252 -20.894949667757093, -41.35327762406919 -21.113428502750985, -40.62323810722666 -21.622672466799 M-40.62323810722666 -21.622672466799 C-40.14370734978493 -21.913366829995706, -39.664176592343196 -22.20406119319241, -39.208950539518405 -22.480021901620027 M-40.62323810722666 -21.622672466799 C-40.118246822867974 -21.92880115103543, -39.61325553850928 -22.234929835271856, -39.208950539518405 -22.480021901620027 M-39.208950539518405 -22.480021901620027 C-38.69719285903734 -22.747005555730563, -38.18543517855626 -23.013989209841103, -37.742638210410576 -23.244996104497716 M-39.208950539518405 -22.480021901620027 C-38.67754288466614 -22.757256934773608, -38.14613522981387 -23.03449196792719, -37.742638210410576 -23.244996104497716 M-37.742638210410576 -23.244996104497716 C-37.220155829060054 -23.476283555832424, -36.69767344770953 -23.70757100716713, -36.23032651178645 -23.91445163234599 M-37.742638210410576 -23.244996104497716 C-37.21769999265417 -23.477370681759513, -36.692761774897754 -23.709745259021307, -36.23032651178645 -23.91445163234599 M-36.23032651178645 -23.91445163234599 C-35.633932281100364 -24.133930222246306, -35.03753805041427 -24.353408812146622, -34.67822985680553 -24.485637548803172 M-36.23032651178645 -23.91445163234599 C-35.829409466034384 -24.061992811219298, -35.42849242028232 -24.209533990092602, -34.67822985680553 -24.485637548803172 M-34.67822985680553 -24.485637548803172 C-34.19533446481902 -24.62895836637513, -33.71243907283252 -24.772279183947088, -33.09272614354682 -24.956206728419538 M-34.67822985680553 -24.485637548803172 C-34.241132133286094 -24.61536585877097, -33.80403440976666 -24.74509416873877, -33.09272614354682 -24.956206728419538 M-33.09272614354682 -24.956206728419538 C-32.54408111344763 -25.081431376296266, -31.99543608334844 -25.206656024172993, -31.480330546857545 -25.324225501499278 M-33.09272614354682 -24.956206728419538 C-32.473855141700604 -25.097459996080232, -31.854984139854388 -25.238713263740927, -31.480330546857545 -25.324225501499278 M-31.480330546857545 -25.324225501499278 C-31.0128253056329 -25.399808123343185, -30.54532006440826 -25.47539074518709, -29.84766874610233 -25.588181599964017 M-31.480330546857545 -25.324225501499278 C-31.121490806451973 -25.382239927884303, -30.762651066046406 -25.440254354269324, -29.84766874610233 -25.588181599964017 M-29.84766874610233 -25.588181599964017 C-29.361321578098906 -25.63509892634326, -28.874974410095486 -25.682016252722505, -28.201449698825286 -25.746990371586765 M-29.84766874610233 -25.588181599964017 C-29.266187643492067 -25.644276382599486, -28.684706540881805 -25.70037116523496, -28.201449698825286 -25.746990371586765 M-28.201449698825286 -25.746990371586765 C-27.766026539740217 -25.76095354479886, -27.330603380655145 -25.774916718010953, -26.548438072204597 -25.799999237060547 M-28.201449698825286 -25.746990371586765 C-27.594632747948243 -25.76644981010385, -26.987815797071196 -25.785909248620936, -26.548438072204597 -25.799999237060547 M-26.548438072204597 -25.799999237060547 C-26.548438072204593 -25.799999237060547, -26.548438072204593 -25.799999237060547, -26.54843807220459 -25.799999237060547 M-26.548438072204597 -25.799999237060547 C-26.548438072204593 -25.799999237060547, -26.548438072204593 -25.799999237060547, -26.54843807220459 -25.799999237060547" stroke="#0E2C4A" stroke-width="2" fill="none" stroke-dasharray="0 0" style="fill:#1F4870 !important;stroke:#0E2C4A !important;stroke-width:2px !important"></path></g><g class="label" style="color:#ffffff !important" transform="translate(0, -18.299999237060547)"><rect></rect><g><rect class="background" style="stroke: none"></rect><text y="-10.1" style="fill:#ffffff !important"><tspan class="text-outer-tspan row" x="0" y="-0.1em" dy="1.1em"><tspan font-style="normal" class="text-inner-tspan" font-weight="normal">diagramkit</tspan></tspan><tspan class="text-outer-tspan row" x="0" y="1em" dy="1.1em"><tspan font-style="normal" class="text-inner-tspan" font-weight="normal">Principles</tspan></tspan></text></g></g></g></g></g></g><defs><filter id="ge170ef0c-1c10-4601-a86b-e3950ff56b7d-light-drop-shadow" height="130%" width="130%"><feDropShadow dx="4" dy="4" stdDeviation="0" flood-opacity="0.06" flood-color="#000000"></feDropShadow></filter></defs><defs><filter id="ge170ef0c-1c10-4601-a86b-e3950ff56b7d-light-drop-shadow-small" height="150%" width="150%"><feDropShadow dx="2" dy="2" stdDeviation="0" flood-opacity="0.06" flood-color="#000000"></feDropShadow></filter></defs></svg>