<svg id="g14da9879-59f3-4542-b75e-05d1f917badc-dark" width="100%" xmlns="http://www.w3.org/2000/svg" xmlns:xlink="http://www.w3.org/1999/xlink" class="flowchart" style="max-width: 733.6234741210938px;" viewBox="0 0 733.6234741210938 820.4000244140625" role="graphics-document document" aria-roledescription="flowchart-v2"><style>#g14da9879-59f3-4542-b75e-05d1f917badc-dark{font-family:"trebuchet ms",verdana,arial,sans-serif;font-size:16px;fill:#e5e5e5;}@keyframes edge-animation-frame{from{stroke-dashoffset:0;}}@keyframes dash{to{stroke-dashoffset:0;}}#g14da9879-59f3-4542-b75e-05d1f917badc-dark .edge-animation-slow{stroke-dasharray:9,5!important;stroke-dashoffset:900;animation:dash 50s linear infinite;stroke-linecap:round;}#g14da9879-59f3-4542-b75e-05d1f917badc-dark .edge-animation-fast{stroke-dasharray:9,5!important;stroke-dashoffset:900;animation:dash 20s linear infinite;stroke-linecap:round;}#g14da9879-59f3-4542-b75e-05d1f917badc-dark .error-icon{fill:#252525;}#g14da9879-59f3-4542-b75e-05d1f917badc-dark .error-text{fill:#cccccc;stroke:#cccccc;}#g14da9879-59f3-4542-b75e-05d1f917badc-dark .edge-thickness-normal{stroke-width:1px;}#g14da9879-59f3-4542-b75e-05d1f917badc-dark .edge-thickness-thick{stroke-width:3.5px;}#g14da9879-59f3-4542-b75e-05d1f917badc-dark .edge-pattern-solid{stroke-dasharray:0;}#g14da9879-59f3-4542-b75e-05d1f917badc-dark .edge-thickness-invisible{stroke-width:0;fill:none;}#g14da9879-59f3-4542-b75e-05d1f917badc-dark .edge-pattern-dashed{stroke-dasharray:3;}#g14da9879-59f3-4542-b75e-05d1f917badc-dark .edge-pattern-dotted{stroke-dasharray:2;}#g14da9879-59f3-4542-b75e-05d1f917badc-dark .marker{fill:#cccccc;stroke:#cccccc;}#g14da9879-59f3-4542-b75e-05d1f917badc-dark .marker.cross{stroke:#cccccc;}#g14da9879-59f3-4542-b75e-05d1f917badc-dark svg{font-family:"trebuchet ms",verdana,arial,sans-serif;font-size:16px;}#g14da9879-59f3-4542-b75e-05d1f917badc-dark p{margin:0;}#g14da9879-59f3-4542-b75e-05d1f917badc-dark .label{font-family:"trebuchet ms",verdana,arial,sans-serif;color:#e5e5e5;}#g14da9879-59f3-4542-b75e-05d1f917badc-dark .cluster-label text{fill:#e5e5e5;}#g14da9879-59f3-4542-b75e-05d1f917badc-dark .cluster-label span{color:#e5e5e5;}#g14da9879-59f3-4542-b75e-05d1f917badc-dark .cluster-label span p{background-color:transparent;}#g14da9879-59f3-4542-b75e-05d1f917badc-dark .label text,#g14da9879-59f3-4542-b75e-05d1f917badc-dark span{fill:#e5e5e5;color:#e5e5e5;}#g14da9879-59f3-4542-b75e-05d1f917badc-dark .node rect,#g14da9879-59f3-4542-b75e-05d1f917badc-dark .node circle,#g14da9879-59f3-4542-b75e-05d1f917badc-dark .node ellipse,#g14da9879-59f3-4542-b75e-05d1f917badc-dark .node polygon,#g14da9879-59f3-4542-b75e-05d1f917badc-dark .node path{fill:#2d2d2d;stroke:#555555;stroke-width:1px;}#g14da9879-59f3-4542-b75e-05d1f917badc-dark .rough-node .label text,#g14da9879-59f3-4542-b75e-05d1f917badc-dark .node .label text,#g14da9879-59f3-4542-b75e-05d1f917badc-dark .image-shape .label,#g14da9879-59f3-4542-b75e-05d1f917badc-dark .icon-shape .label{text-anchor:middle;}#g14da9879-59f3-4542-b75e-05d1f917badc-dark .node .katex path{fill:#000;stroke:#000;stroke-width:1px;}#g14da9879-59f3-4542-b75e-05d1f917badc-dark .rough-node .label,#g14da9879-59f3-4542-b75e-05d1f917badc-dark .node .label,#g14da9879-59f3-4542-b75e-05d1f917badc-dark .image-shape .label,#g14da9879-59f3-4542-b75e-05d1f917badc-dark .icon-shape .label{text-align:center;}#g14da9879-59f3-4542-b75e-05d1f917badc-dark .node.clickable{cursor:pointer;}#g14da9879-59f3-4542-b75e-05d1f917badc-dark .root .anchor path{fill:#cccccc!important;stroke-width:0;stroke:#cccccc;}#g14da9879-59f3-4542-b75e-05d1f917badc-dark .arrowheadPath{fill:#cccccc;}#g14da9879-59f3-4542-b75e-05d1f917badc-dark .edgePath .path{stroke:#cccccc;stroke-width:1px;}#g14da9879-59f3-4542-b75e-05d1f917badc-dark .flowchart-link{stroke:#cccccc;fill:none;}#g14da9879-59f3-4542-b75e-05d1f917badc-dark .edgeLabel{background-color:#1e1e1e;text-align:center;}#g14da9879-59f3-4542-b75e-05d1f917badc-dark .edgeLabel p{background-color:#1e1e1e;}#g14da9879-59f3-4542-b75e-05d1f917badc-dark .edgeLabel rect{opacity:0.5;background-color:#1e1e1e;fill:#1e1e1e;}#g14da9879-59f3-4542-b75e-05d1f917badc-dark .labelBkg{background-color:rgba(30, 30, 30, 0.5);}#g14da9879-59f3-4542-b75e-05d1f917badc-dark .cluster rect{fill:#1e1e1e;stroke:#555555;stroke-width:1px;}#g14da9879-59f3-4542-b75e-05d1f917badc-dark .cluster text{fill:#e5e5e5;}#g14da9879-59f3-4542-b75e-05d1f917badc-dark .cluster span{color:#e5e5e5;}#g14da9879-59f3-4542-b75e-05d1f917badc-dark div.mermaidTooltip{position:absolute;text-align:center;max-width:200px;padding:2px;font-family:"trebuchet ms",verdana,arial,sans-serif;font-size:12px;background:#252525;border:1px solid #555555;border-radius:2px;pointer-events:none;z-index:100;}#g14da9879-59f3-4542-b75e-05d1f917badc-dark .flowchartTitleText{text-anchor:middle;font-size:18px;fill:#e5e5e5;}#g14da9879-59f3-4542-b75e-05d1f917badc-dark rect.text{fill:none;stroke-width:0;}#g14da9879-59f3-4542-b75e-05d1f917badc-dark .icon-shape,#g14da9879-59f3-4542-b75e-05d1f917badc-dark .image-shape{background-color:#1e1e1e;text-align:center;}#g14da9879-59f3-4542-b75e-05d1f917badc-dark .icon-shape p,#g14da9879-59f3-4542-b75e-05d1f917badc-dark .image-shape p{background-color:#1e1e1e;padding:2px;}#g14da9879-59f3-4542-b75e-05d1f917badc-dark .icon-shape .label rect,#g14da9879-59f3-4542-b75e-05d1f917badc-dark .image-shape .label rect{opacity:0.5;background-color:#1e1e1e;fill:#1e1e1e;}#g14da9879-59f3-4542-b75e-05d1f917badc-dark .label-icon{display:inline-block;height:1em;overflow:visible;vertical-align:-0.125em;}#g14da9879-59f3-4542-b75e-05d1f917badc-dark .node .label-icon path{fill:currentColor;stroke:revert;stroke-width:revert;}#g14da9879-59f3-4542-b75e-05d1f917badc-dark .node .neo-node{stroke:#555555;}#g14da9879-59f3-4542-b75e-05d1f917badc-dark [data-look="neo"].node rect,#g14da9879-59f3-4542-b75e-05d1f917badc-dark [data-look="neo"].cluster rect,#g14da9879-59f3-4542-b75e-05d1f917badc-dark [data-look="neo"].node polygon{stroke:url(#g14da9879-59f3-4542-b75e-05d1f917badc-dark-gradient);filter:drop-shadow( 1px 2px 2px rgba(185,185,185,1));}#g14da9879-59f3-4542-b75e-05d1f917badc-dark [data-look="neo"].node path{stroke:url(#g14da9879-59f3-4542-b75e-05d1f917badc-dark-gradient);stroke-width:1px;}#g14da9879-59f3-4542-b75e-05d1f917badc-dark [data-look="neo"].node .outer-path{filter:drop-shadow( 1px 2px 2px rgba(185,185,185,1));}#g14da9879-59f3-4542-b75e-05d1f917badc-dark [data-look="neo"].node .neo-line path{stroke:#555555;filter:none;}#g14da9879-59f3-4542-b75e-05d1f917badc-dark [data-look="neo"].node circle{stroke:url(#g14da9879-59f3-4542-b75e-05d1f917badc-dark-gradient);filter:drop-shadow( 1px 2px 2px rgba(185,185,185,1));}#g14da9879-59f3-4542-b75e-05d1f917badc-dark [data-look="neo"].node circle .state-start{fill:#000000;}#g14da9879-59f3-4542-b75e-05d1f917badc-dark [data-look="neo"].icon-shape .icon{fill:url(#g14da9879-59f3-4542-b75e-05d1f917badc-dark-gradient);filter:drop-shadow( 1px 2px 2px rgba(185,185,185,1));}#g14da9879-59f3-4542-b75e-05d1f917badc-dark [data-look="neo"].icon-shape .icon-neo path{stroke:url(#g14da9879-59f3-4542-b75e-05d1f917badc-dark-gradient);filter:drop-shadow( 1px 2px 2px rgba(185,185,185,1));}#g14da9879-59f3-4542-b75e-05d1f917badc-dark :root{--mermaid-font-family:"trebuchet ms",verdana,arial,sans-serif;}#g14da9879-59f3-4542-b75e-05d1f917badc-dark .rootNode rect{fill:#1F4870!important;stroke:#0E2C4A!important;color:#ffffff!important;stroke-width:2px!important;}#g14da9879-59f3-4542-b75e-05d1f917badc-dark .rootNode polygon{fill:#1F4870!important;stroke:#0E2C4A!important;color:#ffffff!important;stroke-width:2px!important;}#g14da9879-59f3-4542-b75e-05d1f917badc-dark .rootNode ellipse{fill:#1F4870!important;stroke:#0E2C4A!important;color:#ffffff!important;stroke-width:2px!important;}#g14da9879-59f3-4542-b75e-05d1f917badc-dark .rootNode circle{fill:#1F4870!important;stroke:#0E2C4A!important;color:#ffffff!important;stroke-width:2px!important;}#g14da9879-59f3-4542-b75e-05d1f917badc-dark .rootNode path{fill:#1F4870!important;stroke:#0E2C4A!important;color:#ffffff!important;stroke-width:2px!important;}#g14da9879-59f3-4542-b75e-05d1f917badc-dark .rootNode tspan{fill:#ffffff!important;}#g14da9879-59f3-4542-b75e-05d1f917badc-dark .primary rect{fill:#2E5A88!important;stroke:#1F4870!important;color:#ffffff!important;}#g14da9879-59f3-4542-b75e-05d1f917badc-dark .primary polygon{fill:#2E5A88!important;stroke:#1F4870!important;color:#ffffff!important;}#g14da9879-59f3-4542-b75e-05d1f917badc-dark .primary ellipse{fill:#2E5A88!important;stroke:#1F4870!important;color:#ffffff!important;}#g14da9879-59f3-4542-b75e-05d1f917badc-dark .primary circle{fill:#2E5A88!important;stroke:#1F4870!important;color:#ffffff!important;}#g14da9879-59f3-4542-b75e-05d1f917badc-dark .primary path{fill:#2E5A88!important;stroke:#1F4870!important;color:#ffffff!important;}#g14da9879-59f3-4542-b75e-05d1f917badc-dark .primary tspan{fill:#ffffff!important;}</style><g><marker id="g14da9879-59f3-4542-b75e-05d1f917badc-dark_flowchart-v2-pointEnd" class="marker flowchart-v2" viewBox="0 0 10 10" refX="5" refY="5" markerUnits="userSpaceOnUse" markerWidth="8" markerHeight="8" orient="auto"><path d="M 0 0 L 10 5 L 0 10 z" class="arrowMarkerPath" style="stroke-width: 1; stroke-dasharray: 1, 0;"></path></marker><marker id="g14da9879-59f3-4542-b75e-05d1f917badc-dark_flowchart-v2-pointStart" class="marker flowchart-v2" viewBox="0 0 10 10" refX="4.5" refY="5" markerUnits="userSpaceOnUse" markerWidth="8" markerHeight="8" orient="auto"><path d="M 0 5 L 10 10 L 10 0 z" class="arrowMarkerPath" style="stroke-width: 1; stroke-dasharray: 1, 0;"></path></marker><marker id="g14da9879-59f3-4542-b75e-05d1f917badc-dark_flowchart-v2-pointEnd-margin" class="marker flowchart-v2" viewBox="0 0 11.5 14" refX="11.5" refY="7" markerUnits="userSpaceOnUse" markerWidth="10.5" markerHeight="14" orient="auto"><path d="M 0 0 L 11.5 7 L 0 14 z" class="arrowMarkerPath" style="stroke-width: 0; stroke-dasharray: 1, 0;"></path></marker><marker id="g14da9879-59f3-4542-b75e-05d1f917badc-dark_flowchart-v2-pointStart-margin" class="marker flowchart-v2" viewBox="0 0 11.5 14" refX="1" refY="7" markerUnits="userSpaceOnUse" markerWidth="11.5" markerHeight="14" orient="auto"><polygon points="0,7 11.5,14 11.5,0" class="arrowMarkerPath" style="stroke-width: 0; stroke-dasharray: 1, 0;"></polygon></marker><marker id="g14da9879-59f3-4542-b75e-05d1f917badc-dark_flowchart-v2-circleEnd" class="marker flowchart-v2" viewBox="0 0 10 10" refX="11" refY="5" markerUnits="userSpaceOnUse" markerWidth="11" markerHeight="11" orient="auto"><circle cx="5" cy="5" r="5" class="arrowMarkerPath" style="stroke-width: 1; stroke-dasharray: 1, 0;"></circle></marker><marker id="g14da9879-59f3-4542-b75e-05d1f917badc-dark_flowchart-v2-circleStart" class="marker flowchart-v2" viewBox="0 0 10 10" refX="-1" refY="5" markerUnits="userSpaceOnUse" markerWidth="11" markerHeight="11" orient="auto"><circle cx="5" cy="5" r="5" class="arrowMarkerPath" style="stroke-width: 1; stroke-dasharray: 1, 0;"></circle></marker><marker id="g14da9879-59f3-4542-b75e-05d1f917badc-dark_flowchart-v2-circleEnd-margin" class="marker flowchart-v2" viewBox="0 0 10 10" refY="5" refX="12.25" markerUnits="userSpaceOnUse" markerWidth="14" markerHeight="14" orient="auto"><circle cx="5" cy="5" r="5" class="arrowMarkerPath" style="stroke-width: 0; stroke-dasharray: 1, 0;"></circle></marker><marker id="g14da9879-59f3-4542-b75e-05d1f917badc-dark_flowchart-v2-circleStart-margin" class="marker flowchart-v2" viewBox="0 0 10 10" refX="-2" refY="5" markerUnits="userSpaceOnUse" markerWidth="14" markerHeight="14" orient="auto"><circle cx="5" cy="5" r="5" class="arrowMarkerPath" style="stroke-width: 0; stroke-dasharray: 1, 0;"></circle></marker><marker id="g14da9879-59f3-4542-b75e-05d1f917badc-dark_flowchart-v2-crossEnd" class="marker cross flowchart-v2" viewBox="0 0 11 11" refX="12" refY="5.2" markerUnits="userSpaceOnUse" markerWidth="11" markerHeight="11" orient="auto"><path d="M 1,1 l 9,9 M 10,1 l -9,9" class="arrowMarkerPath" style="stroke-width: 2; stroke-dasharray: 1, 0;"></path></marker><marker id="g14da9879-59f3-4542-b75e-05d1f917badc-dark_flowchart-v2-crossStart" class="marker cross flowchart-v2" viewBox="0 0 11 11" refX="-1" refY="5.2" markerUnits="userSpaceOnUse" markerWidth="11" markerHeight="11" orient="auto"><path d="M 1,1 l 9,9 M 10,1 l -9,9" class="arrowMarkerPath" style="stroke-width: 2; stroke-dasharray: 1, 0;"></path></marker><marker id="g14da9879-59f3-4542-b75e-05d1f917badc-dark_flowchart-v2-crossEnd-margin" class="marker cross flowchart-v2" viewBox="0 0 15 15" refX="17.7" refY="7.5" markerUnits="userSpaceOnUse" markerWidth="12" markerHeight="12" orient="auto"><path d="M 1,1 L 14,14 M 1,14 L 14,1" class="arrowMarkerPath" style="stroke-width: 2.5;"></path></marker><marker id="g14da9879-59f3-4542-b75e-05d1f917badc-dark_flowchart-v2-crossStart-margin" class="marker cross flowchart-v2" viewBox="0 0 15 15" refX="-3.5" refY="7.5" markerUnits="userSpaceOnUse" markerWidth="12" markerHeight="12" orient="auto"><path d="M 1,1 L 14,14 M 1,14 L 14,1" class="arrowMarkerPath" style="stroke-width: 2.5; stroke-dasharray: 1, 0;"></path></marker><g class="root"><g class="clusters"></g><g class="edgePaths"><path d="M66.52,393.2L78.378,343.733C90.237,294.267,113.954,195.333,131.751,145.867C149.548,96.4,161.426,96.4,167.364,96.4L173.303,96.4" id="g14da9879-59f3-4542-b75e-05d1f917badc-dark-L_root_node_runtime_0" class="edge-thickness-normal edge-pattern-solid edge-thickness-normal edge-pattern-solid flowchart-link" style=";" data-edge="true" data-et="edge" data-id="L_root_node_runtime_0" data-points="W3sieCI6NjYuNTIwMDc4ODE0MDQ1MDQsInkiOjM5My4yMDAwMDA3NjI5Mzk0NX0seyJ4IjoxMzcuNjcwMzY0Mzc5ODgyOCwieSI6OTYuNDAwMDAxNTI1ODc4OX0seyJ4IjoxNzcuMzAzMTc2ODc5ODgyOCwieSI6OTYuNDAwMDAxNTI1ODc4OX1d" data-look="classic" marker-end="url(#g14da9879-59f3-4542-b75e-05d1f917badc-dark_flowchart-v2-pointEnd)"></path><path d="M79.41,393.2L89.12,380.067C98.83,366.933,118.25,340.667,134.65,327.533C151.051,314.4,164.431,314.4,171.121,314.4L177.811,314.4" id="g14da9879-59f3-4542-b75e-05d1f917badc-dark-L_root_node_output_0" class="edge-thickness-normal edge-pattern-solid edge-thickness-normal edge-pattern-solid flowchart-link" style=";" data-edge="true" data-et="edge" data-id="L_root_node_output_0" data-points="W3sieCI6NzkuNDEwMjA3NzIxNTM0MTksInkiOjM5My4yMDAwMDA3NjI5Mzk0NX0seyJ4IjoxMzcuNjcwMzY0Mzc5ODgyOCwieSI6MzE0LjQwMDAwMTUyNTg3ODl9LHsieCI6MTgxLjgxMDk4OTM3OTg4MjgsInkiOjMxNC40MDAwMDE1MjU4Nzg5fV0=" data-look="classic" marker-end="url(#g14da9879-59f3-4542-b75e-05d1f917badc-dark_flowchart-v2-pointEnd)"></path><path d="M79.41,444.8L89.12,457.933C98.83,471.067,118.25,497.333,138.361,510.467C158.472,523.6,179.275,523.6,189.676,523.6L200.077,523.6" id="g14da9879-59f3-4542-b75e-05d1f917badc-dark-L_root_node_build_0" class="edge-thickness-normal edge-pattern-solid edge-thickness-normal edge-pattern-solid flowchart-link" style=";" data-edge="true" data-et="edge" data-id="L_root_node_build_0" data-points="W3sieCI6NzkuNDEwMjA3NzIxNTM0MTksInkiOjQ0NC43OTk5OTkyMzcwNjA1NX0seyJ4IjoxMzcuNjcwMzY0Mzc5ODgyOCwieSI6NTIzLjU5OTk5ODQ3NDEyMTF9LHsieCI6MjA0LjA3NjYxNDM3OTg4MjgsInkiOjUyMy41OTk5OTg0NzQxMjExfV0=" data-look="classic" marker-end="url(#g14da9879-59f3-4542-b75e-05d1f917badc-dark_flowchart-v2-pointEnd)"></path><path d="M66.694,444.8L78.523,492.8C90.352,540.8,114.011,636.8,129.341,684.8C144.67,732.8,151.67,732.8,155.17,732.8L158.67,732.8" id="g14da9879-59f3-4542-b75e-05d1f917badc-dark-L_root_node_config_0" class="edge-thickness-normal edge-pattern-solid edge-thickness-normal edge-pattern-solid flowchart-link" style=";" data-edge="true" data-et="edge" data-id="L_root_node_config_0" data-points="W3sieCI6NjYuNjkzNTI0MDMzODA1NjcsInkiOjQ0NC43OTk5OTkyMzcwNjA1NX0seyJ4IjoxMzcuNjcwMzY0Mzc5ODgyOCwieSI6NzMyLjc5OTk5NTQyMjM2MzN9LHsieCI6MTYyLjY3MDM2NDM3OTg4MjgsInkiOjczMi43OTk5OTU0MjIzNjMzfV0=" data-look="classic" marker-end="url(#g14da9879-59f3-4542-b75e-05d1f917badc-dark_flowchart-v2-pointEnd)"></path></g><g class="edgeLabels"><g class="edgeLabel"><g class="label" data-id="L_root_node_runtime_0" transform="translate(0, 0)"><text y="-10.1" text-anchor="middle"><tspan class="text-outer-tspan row" x="0" y="-0.1em" dy="1.1em" text-anchor="middle"></tspan></text></g></g><g><rect class="background" style="stroke: none"></rect></g><g class="edgeLabel"><g class="label" data-id="L_root_node_output_0" transform="translate(0, 0)"><text y="-10.1" text-anchor="middle"><tspan class="text-outer-tspan row" x="0" y="-0.1em" dy="1.1em" text-anchor="middle"></tspan></text></g></g><g><rect class="background" style="stroke: none"></rect></g><g class="edgeLabel"><g class="label" data-id="L_root_node_build_0" transform="translate(0, 0)"><text y="-10.1" text-anchor="middle"><tspan class="text-outer-tspan row" x="0" y="-0.1em" dy="1.1em" text-anchor="middle"></tspan></text></g></g><g><rect class="background" style="stroke: none"></rect></g><g class="edgeLabel"><g class="label" data-id="L_root_node_config_0" transform="translate(0, 0)"><text y="-10.1" text-anchor="middle"><tspan class="text-outer-tspan row" x="0" y="-0.1em" dy="1.1em" text-anchor="middle"></tspan></text></g></g><g><rect class="background" style="stroke: none"></rect></g></g><g class="nodes"><g class="root" transform="translate(154.6703643798828, 645.1999969482422)"><g class="clusters"><g class="cluster" id="g14da9879-59f3-4542-b75e-05d1f917badc-dark-config" data-look="classic"><rect style="" x="8" y="8" width="562.953125" height="159.1999969482422"></rect><g class="cluster-label" transform="translate(266.7734375, 8)"><g><rect class="background" style="stroke: none"></rect><text y="-10.1" style=""><tspan class="text-outer-tspan row" x="0" y="-0.1em" dy="1.1em"><tspan font-style="normal" class="text-inner-tspan" font-weight="normal">Config</tspan></tspan></text></g></g></g></g><g class="edgePaths"></g><g class="edgeLabels"></g><g class="nodes"><g class="node default primary" id="g14da9879-59f3-4542-b75e-05d1f917badc-dark-flowchart-layered-7" data-look="classic" transform="translate(162.796875, 87.5999984741211)"><rect class="basic label-container" style="fill:#2E5A88 !important;stroke:#1F4870 !important" x="-119.796875" y="-42.099998474121094" width="239.59375" height="84.19999694824219"></rect><g class="label" style="color:#ffffff !important" transform="translate(0, -27.099998474121094)"><rect></rect><g><rect class="background" style="stroke: none"></rect><text y="-10.1" style="fill:#404040 !important"><tspan class="text-outer-tspan row" x="0" y="-0.1em" dy="1.1em"><tspan font-style="normal" class="text-inner-tspan" font-weight="normal">Layered</tspan><tspan font-style="normal" class="text-inner-tspan" font-weight="normal"> Config</tspan></tspan><tspan class="text-outer-tspan row" x="0" y="1em" dy="1.1em"><tspan font-style="normal" class="text-inner-tspan" font-weight="normal">Defaults</tspan><tspan font-style="normal" class="text-inner-tspan" font-weight="normal"> to</tspan><tspan font-style="normal" class="text-inner-tspan" font-weight="normal"> Global</tspan><tspan font-style="normal" class="text-inner-tspan" font-weight="normal"> to</tspan><tspan font-style="normal" class="text-inner-tspan" font-weight="normal"> Env</tspan></tspan><tspan class="text-outer-tspan row" x="0" y="2.1em" dy="1.1em"><tspan font-style="normal" class="text-inner-tspan" font-weight="normal">to</tspan><tspan font-style="normal" class="text-inner-tspan" font-weight="normal"> Local</tspan><tspan font-style="normal" class="text-inner-tspan" font-weight="normal"> to</tspan><tspan font-style="normal" class="text-inner-tspan" font-weight="normal"> CLI</tspan></tspan></text></g></g></g><g class="node default primary" id="g14da9879-59f3-4542-b75e-05d1f917badc-dark-flowchart-ext-8" data-look="classic" transform="translate(434.2734375, 87.5999984741211)"><rect class="basic label-container" style="fill:#2E5A88 !important;stroke:#1F4870 !important" x="-101.6796875" y="-33.29999923706055" width="203.359375" height="66.5999984741211"></rect><g class="label" style="color:#ffffff !important" transform="translate(0, -18.299999237060547)"><rect></rect><g><rect class="background" style="stroke: none"></rect><text y="-10.1" style="fill:#404040 !important"><tspan class="text-outer-tspan row" x="0" y="-0.1em" dy="1.1em"><tspan font-style="normal" class="text-inner-tspan" font-weight="normal">Extension</tspan><tspan font-style="normal" class="text-inner-tspan" font-weight="normal"> Detection</tspan></tspan><tspan class="text-outer-tspan row" x="0" y="1em" dy="1.1em"><tspan font-style="normal" class="text-inner-tspan" font-weight="normal">Longest</tspan><tspan font-style="normal" class="text-inner-tspan" font-weight="normal"> match</tspan><tspan font-style="normal" class="text-inner-tspan" font-weight="normal"> first</tspan></tspan></text></g></g></g></g></g><g class="root" transform="translate(196.0766143798828, 436)"><g class="clusters"><g class="cluster" id="g14da9879-59f3-4542-b75e-05d1f917badc-dark-build" data-look="classic"><rect style="" x="8" y="8" width="480.140625" height="159.1999969482422"></rect><g class="cluster-label" transform="translate(230.0703125, 8)"><g><rect class="background" style="stroke: none"></rect><text y="-10.1" style=""><tspan class="text-outer-tspan row" x="0" y="-0.1em" dy="1.1em"><tspan font-style="normal" class="text-inner-tspan" font-weight="normal">Build</tspan></tspan></text></g></g></g></g><g class="edgePaths"></g><g class="edgeLabels"></g><g class="nodes"><g class="node default primary" id="g14da9879-59f3-4542-b75e-05d1f917badc-dark-flowchart-incremental-5" data-look="classic" transform="translate(139.7890625, 87.5999984741211)"><rect class="basic label-container" style="fill:#2E5A88 !important;stroke:#1F4870 !important" x="-96.7890625" y="-42.099998474121094" width="193.578125" height="84.19999694824219"></rect><g class="label" style="color:#ffffff !important" transform="translate(0, -27.099998474121094)"><rect></rect><g><rect class="background" style="stroke: none"></rect><text y="-10.1" style="fill:#404040 !important"><tspan class="text-outer-tspan row" x="0" y="-0.1em" dy="1.1em"><tspan font-style="normal" class="text-inner-tspan" font-weight="normal">Incremental</tspan><tspan font-style="normal" class="text-inner-tspan" font-weight="normal"> Builds</tspan></tspan><tspan class="text-outer-tspan row" x="0" y="1em" dy="1.1em"><tspan font-style="normal" class="text-inner-tspan" font-weight="normal">SHA-256</tspan><tspan font-style="normal" class="text-inner-tspan" font-weight="normal"> manifest</tspan></tspan><tspan class="text-outer-tspan row" x="0" y="2.1em" dy="1.1em"><tspan font-style="normal" class="text-inner-tspan" font-weight="normal">Skip</tspan><tspan font-style="normal" class="text-inner-tspan" font-weight="normal"> unchanged</tspan></tspan></text></g></g></g><g class="node default primary" id="g14da9879-59f3-4542-b75e-05d1f917badc-dark-flowchart-atomic-6" data-look="classic" transform="translate(369.859375, 87.5999984741211)"><rect class="basic label-container" style="fill:#2E5A88 !important;stroke:#1F4870 !important" x="-83.28125" y="-33.29999923706055" width="166.5625" height="66.5999984741211"></rect><g class="label" style="color:#ffffff !important" transform="translate(0, -18.299999237060547)"><rect></rect><g><rect class="background" style="stroke: none"></rect><text y="-10.1" style="fill:#404040 !important"><tspan class="text-outer-tspan row" x="0" y="-0.1em" dy="1.1em"><tspan font-style="normal" class="text-inner-tspan" font-weight="normal">Atomic</tspan><tspan font-style="normal" class="text-inner-tspan" font-weight="normal"> Writes</tspan></tspan><tspan class="text-outer-tspan row" x="0" y="1em" dy="1.1em"><tspan font-style="normal" class="text-inner-tspan" font-weight="normal">.tmp</tspan><tspan font-style="normal" class="text-inner-tspan" font-weight="normal"> +</tspan><tspan font-style="normal" class="text-inner-tspan" font-weight="normal"> rename</tspan></tspan></text></g></g></g></g></g><g class="root" transform="translate(173.8109893798828, 226.8000030517578)"><g class="clusters"><g class="cluster" id="g14da9879-59f3-4542-b75e-05d1f917badc-dark-output" data-look="classic"><rect style="" x="8" y="8" width="524.671875" height="159.1999969482422"></rect><g class="cluster-label" transform="translate(245.3984375, 8)"><g><rect class="background" style="stroke: none"></rect><text y="-10.1" style=""><tspan class="text-outer-tspan row" x="0" y="-0.1em" dy="1.1em"><tspan font-style="normal" class="text-inner-tspan" font-weight="normal">Output</tspan></tspan></text></g></g></g></g><g class="edgePaths"></g><g class="edgeLabels"></g><g class="nodes"><g class="node default primary" id="g14da9879-59f3-4542-b75e-05d1f917badc-dark-flowchart-svgFirst-3" data-look="classic" transform="translate(140.4296875, 87.5999984741211)"><rect class="basic label-container" style="fill:#2E5A88 !important;stroke:#1F4870 !important" x="-97.4296875" y="-42.099998474121094" width="194.859375" height="84.19999694824219"></rect><g class="label" style="color:#ffffff !important" transform="translate(0, -27.099998474121094)"><rect></rect><g><rect class="background" style="stroke: none"></rect><text y="-10.1" style="fill:#404040 !important"><tspan class="text-outer-tspan row" x="0" y="-0.1em" dy="1.1em"><tspan font-style="normal" class="text-inner-tspan" font-weight="normal">SVG-First</tspan></tspan><tspan class="text-outer-tspan row" x="0" y="1em" dy="1.1em"><tspan font-style="normal" class="text-inner-tspan" font-weight="normal">Vector</tspan><tspan font-style="normal" class="text-inner-tspan" font-weight="normal"> is</tspan><tspan font-style="normal" class="text-inner-tspan" font-weight="normal"> canonical</tspan></tspan><tspan class="text-outer-tspan row" x="0" y="2.1em" dy="1.1em"><tspan font-style="normal" class="text-inner-tspan" font-weight="normal">Raster</tspan><tspan font-style="normal" class="text-inner-tspan" font-weight="normal"> via</tspan><tspan font-style="normal" class="text-inner-tspan" font-weight="normal"> sharp</tspan></tspan></text></g></g></g><g class="node default primary" id="g14da9879-59f3-4542-b75e-05d1f917badc-dark-flowchart-themes-4" data-look="classic" transform="translate(392.765625, 87.5999984741211)"><rect class="basic label-container" style="fill:#2E5A88 !important;stroke:#1F4870 !important" x="-104.90625" y="-42.099998474121094" width="209.8125" height="84.19999694824219"></rect><g class="label" style="color:#ffffff !important" transform="translate(0, -27.099998474121094)"><rect></rect><g><rect class="background" style="stroke: none"></rect><text y="-10.1" style="fill:#404040 !important"><tspan class="text-outer-tspan row" x="0" y="-0.1em" dy="1.1em"><tspan font-style="normal" class="text-inner-tspan" font-weight="normal">Light</tspan><tspan font-style="normal" class="text-inner-tspan" font-weight="normal"> +</tspan><tspan font-style="normal" class="text-inner-tspan" font-weight="normal"> Dark</tspan></tspan><tspan class="text-outer-tspan row" x="0" y="1em" dy="1.1em"><tspan font-style="normal" class="text-inner-tspan" font-weight="normal">Both</tspan><tspan font-style="normal" class="text-inner-tspan" font-weight="normal"> themes</tspan><tspan font-style="normal" class="text-inner-tspan" font-weight="normal"> default</tspan></tspan><tspan class="text-outer-tspan row" x="0" y="2.1em" dy="1.1em"><tspan font-style="normal" class="text-inner-tspan" font-weight="normal">Theme</tspan><tspan font-style="normal" class="text-inner-tspan" font-weight="normal"> suffix</tspan><tspan font-style="normal" class="text-inner-tspan" font-weight="normal"> naming</tspan></tspan></text></g></g></g></g></g><g class="root" transform="translate(169.3031768798828, 0)"><g class="clusters"><g class="cluster" id="g14da9879-59f3-4542-b75e-05d1f917badc-dark-runtime" data-look="classic"><rect style="" x="8" y="8" width="533.6875" height="176.8000030517578"></rect><g class="cluster-label" transform="translate(245.21875, 8)"><g><rect class="background" style="stroke: none"></rect><text y="-10.1" style=""><tspan class="text-outer-tspan row" x="0" y="-0.1em" dy="1.1em"><tspan font-style="normal" class="text-inner-tspan" font-weight="normal">Runtime</tspan></tspan></text></g></g></g></g><g class="edgePaths"></g><g class="edgeLabels"></g><g class="nodes"><g class="node default primary" id="g14da9879-59f3-4542-b75e-05d1f917badc-dark-flowchart-chromium-1" data-look="classic" transform="translate(152.625, 96.4000015258789)"><rect class="basic label-container" style="fill:#2E5A88 !important;stroke:#1F4870 !important" x="-109.625" y="-42.099998474121094" width="219.25" height="84.19999694824219"></rect><g class="label" style="color:#ffffff !important" transform="translate(0, -27.099998474121094)"><rect></rect><g><rect class="background" style="stroke: none"></rect><text y="-10.1" style="fill:#404040 !important"><tspan class="text-outer-tspan row" x="0" y="-0.1em" dy="1.1em"><tspan font-style="normal" class="text-inner-tspan" font-weight="normal">One</tspan><tspan font-style="normal" class="text-inner-tspan" font-weight="normal"> Chromium</tspan></tspan><tspan class="text-outer-tspan row" x="0" y="1em" dy="1.1em"><tspan font-style="normal" class="text-inner-tspan" font-weight="normal">Shared</tspan><tspan font-style="normal" class="text-inner-tspan" font-weight="normal"> BrowserPool</tspan></tspan><tspan class="text-outer-tspan row" x="0" y="2.1em" dy="1.1em"><tspan font-style="normal" class="text-inner-tspan" font-weight="normal">Graphviz</tspan><tspan font-style="normal" class="text-inner-tspan" font-weight="normal"> is</tspan><tspan font-style="normal" class="text-inner-tspan" font-weight="normal"> WASM</tspan><tspan font-style="normal" class="text-inner-tspan" font-weight="normal"> only</tspan></tspan></text></g></g></g><g class="node default primary" id="g14da9879-59f3-4542-b75e-05d1f917badc-dark-flowchart-registry-2" data-look="classic" transform="translate(409.46875, 96.4000015258789)"><rect class="basic label-container" style="fill:#2E5A88 !important;stroke:#1F4870 !important" x="-97.21875" y="-50.900001525878906" width="194.4375" height="101.80000305175781"></rect><g class="label" style="color:#ffffff !important" transform="translate(0, -35.900001525878906)"><rect></rect><g><rect class="background" style="stroke: none"></rect><text y="-10.1" style="fill:#404040 !important"><tspan class="text-outer-tspan row" x="0" y="-0.1em" dy="1.1em"><tspan font-style="normal" class="text-inner-tspan" font-weight="normal">Engine</tspan><tspan font-style="normal" class="text-inner-tspan" font-weight="normal"> Registry</tspan></tspan><tspan class="text-outer-tspan row" x="0" y="1em" dy="1.1em"><tspan font-style="normal" class="text-inner-tspan" font-weight="normal">Extension</tspan><tspan font-style="normal" class="text-inner-tspan" font-weight="normal"> mapping</tspan></tspan><tspan class="text-outer-tspan row" x="0" y="2.1em" dy="1.1em"><tspan font-style="normal" class="text-inner-tspan" font-weight="normal">Engine</tspan><tspan font-style="normal" class="text-inner-tspan" font-weight="normal"> profiles</tspan></tspan><tspan class="text-outer-tspan row" x="0" y="3.2em" dy="1.1em"><tspan font-style="normal" class="text-inner-tspan" font-weight="normal">Renderer</tspan><tspan font-style="normal" class="text-inner-tspan" font-weight="normal"> dispatch</tspan></tspan></text></g></g></g></g></g><g class="node default rootNode" id="g14da9879-59f3-4542-b75e-05d1f917badc-dark-flowchart-root_node-0" data-look="classic" transform="translate(60.335182189941406, 419)"><g class="basic label-container outer-path"><path d="M-26.54843807220459 -25.799999237060547 C-7.047460272876162 -25.799999237060547, 12.453517526452266 -25.799999237060547, 26.54843807220459 -25.799999237060547 C26.54843807220459 -25.799999237060547, 26.54843807220459 -25.799999237060547, 26.54843807220459 -25.799999237060547 C26.99799597280719 -25.78558279019959, 27.447553873409788 -25.771166343338635, 28.201449698825282 -25.746990371586765 C28.80205491038855 -25.689050709160707, 29.40266012195181 -25.631111046734645, 29.84766874610231 -25.58818159996402 C30.283786752001387 -25.517673422915905, 30.71990475790046 -25.447165245867794, 31.48033054685753 -25.32422550149928 C32.096456626495346 -25.183598744420365, 32.71258270613316 -25.042971987341446, 33.092726143546784 -24.956206728419545 C33.52129508875238 -24.829009715086823, 33.94986403395798 -24.701812701754104, 34.678229856805515 -24.48563754880318 C35.01728188580704 -24.36086326796802, 35.35633391480855 -24.236088987132863, 36.23032651178644 -23.914451632345997 C36.622050960946304 -23.741046838795846, 37.01377541010617 -23.567642045245695, 37.74263821041056 -23.24499610449772 C38.19498644389913 -23.009006320829602, 38.647334677387704 -22.77301653716149, 39.2089505395184 -22.480021901620034 C39.65189821966162 -22.211504414867708, 40.094845899804845 -21.942986928115385, 40.62323810722664 -21.62267246679901 C41.098826774094206 -21.290922400693766, 41.57441544096178 -20.95917233458852, 41.97968930255584 -20.67647083276321 C42.34026034743123 -20.388925019673565, 42.70083139230662 -20.101379206583918, 43.272730176586506 -19.64530514498651 C43.522421581476436 -19.418542017538027, 43.772112986366366 -19.191778890089545, 44.49704734701088 -18.533412684464313 C44.9191876738436 -18.097518138644134, 45.34132800067633 -17.66162359282395, 45.64760983196044 -17.345362455817106 C45.92710331627389 -17.017053505512735, 46.20659680058735 -16.68874455520836, 46.71968972338968 -16.086036412270357 C47.04829808869634 -15.645731139597364, 47.376906454003 -15.205425866924372, 47.70888161506427 -14.76060939466161 C47.983907232695856 -14.338096191260533, 48.25893285032743 -13.915582987859457, 48.61112070532037 -13.374527866909407 C48.818225187183124 -13.006792887759206, 49.02532966904589 -12.639057908609006, 49.422699500206406 -11.93348753532484 C49.58759660501804 -11.591075168950637, 49.752493709829686 -11.248662802576431, 50.14028304837108 -10.443409943732584 C50.36700649336117 -9.883398651207454, 50.59372993835126 -9.323387358682321, 50.760922645093814 -8.910418140577123 C50.91768964418938 -8.438260916730576, 51.074456643284954 -7.966103692884028, 51.2820679491449 -7.340811518003323 C51.41707598749398 -6.825967354924323, 51.552084025843065 -6.311123191845324, 51.70157746268467 -5.741039926302914 C51.80823057145385 -5.193398753915682, 51.914883680223035 -4.645757581528451, 52.01772733113747 -4.117677170096137 C52.08238618850544 -3.616195840685789, 52.147045045873405 -3.1147145112754413, 52.22921842687991 -2.4773939951584394 C52.2622429003736 -1.9630111636190146, 52.29526737386729 -1.4486283320795896, 52.33518168763487 -0.8269306768952902 C52.33518168763487 -0.4474262168394814, 52.33518168763487 -0.06792175678367263, 52.33518168763487 0.826930676895284 C52.307690431631706 1.2551291796870547, 52.28019917562854 1.6833276824788252, 52.22921842687991 2.4773939951584216 C52.173322545378916 2.9109114141898664, 52.11742666387792 3.3444288332213112, 52.01772733113748 4.117677170096119 C51.898288366194556 4.7309710116438195, 51.77884940125164 5.34426485319152, 51.70157746268467 5.741039926302909 C51.60721521121763 6.100884088005231, 51.51285295975058 6.460728249707554, 51.28206794914491 7.340811518003306 C51.16474364451424 7.694173630461526, 51.04741933988356 8.047535742919747, 50.76092264509383 8.910418140577105 C50.61697898877549 9.265961754644657, 50.473035332457165 9.62150536871221, 50.14028304837109 10.443409943732577 C49.94614816682196 10.84653517909037, 49.75201328527284 11.249660414448163, 49.422699500206406 11.933487535324835 C49.24418884790309 12.250451274653033, 49.06567819559977 12.56741501398123, 48.611120705320374 13.374527866909402 C48.29890073687223 13.854181581246378, 47.98668076842408 14.333835295583356, 47.708881615064286 14.760609394661596 C47.43110957645357 15.132798620846648, 47.153337537842866 15.504987847031698, 46.71968972338968 16.086036412270353 C46.35796059774658 16.510944026221075, 45.99623147210348 16.935851640171798, 45.64760983196045 17.345362455817092 C45.32381176701897 17.679710542184704, 45.00001370207748 18.01405862855232, 44.49704734701088 18.533412684464306 C44.245414139514516 18.761939305662672, 43.993780932018154 18.990465926861035, 43.272730176586535 19.64530514498649 C42.908077528254445 19.936105928216826, 42.543424879922355 20.226906711447164, 41.97968930255585 20.676470832763208 C41.46611192659002 21.03472017783069, 40.95253455062418 21.392969522898174, 40.623238107226655 21.622672466799003 C40.25522426419487 21.845764621134265, 39.88721042116309 22.06885677546953, 39.208950539518405 22.48002190162003 C38.905376279995714 22.638396398364424, 38.60180202047303 22.796770895108814, 37.74263821041057 23.244996104497716 C37.185019360728916 23.49183742807632, 36.627400511047256 23.738678751654923, 36.23032651178645 23.914451632345994 C35.801035533305885 24.072434680749147, 35.37174455482531 24.2304177291523, 34.67822985680553 24.485637548803172 C34.15727567743758 24.64025401469529, 33.636321498069634 24.79487048058741, 33.09272614354681 24.95620672841954 C32.5075713983469 25.089764480519854, 31.922416653146982 25.223322232620163, 31.480330546857545 25.324225501499278 C30.93687452198348 25.4120872570365, 30.393418497109412 25.499949012573722, 29.84766874610233 25.588181599964017 C29.474674430718146 25.624163912977835, 29.101680115333966 25.66014622599165, 28.201449698825282 25.746990371586765 C27.704647792242838 25.762921841764616, 27.207845885660394 25.778853311942466, 26.548438072204593 25.799999237060547 C26.548438072204593 25.799999237060547, 26.548438072204593 25.799999237060547, 26.54843807220459 25.799999237060547 C9.621561509971688 25.799999237060547, -7.305315052261214 25.799999237060547, -26.548438072204586 25.799999237060547 C-27.019590184096504 25.784890305874125, -27.490742295988422 25.769781374687703, -28.20144969882527 25.746990371586765 C-28.653140130569813 25.70341633887359, -29.104830562314355 25.659842306160417, -29.84766874610232 25.588181599964017 C-30.331510228438958 25.509957861346564, -30.8153517107756 25.43173412272911, -31.480330546857534 25.324225501499278 C-31.94518181442056 25.218126233116028, -32.41003308198359 25.112026964732777, -33.092726143546784 24.956206728419545 C-33.60466273653958 24.804266634829297, -34.11659932953238 24.65232654123905, -34.6782298568055 24.485637548803183 C-34.993767755879325 24.36951668514365, -35.30930565495315 24.25339582148412, -36.230326511786444 23.914451632345997 C-36.82185804366827 23.652598170341353, -37.413389575550106 23.390744708336708, -37.74263821041056 23.244996104497723 C-38.071458347274145 23.07345084971534, -38.400278484137736 22.901905594932956, -39.2089505395184 22.480021901620038 C-39.64761836860484 22.21409888572953, -40.08628619769128 21.948175869839023, -40.623238107226626 21.622672466799017 C-40.9050230178681 21.426111511407704, -41.18680792850958 21.229550556016388, -41.97968930255584 20.67647083276321 C-42.48247764378464 20.275510510392916, -42.98526598501345 19.87455018802262, -43.272730176586506 19.645305144986512 C-43.57421804429204 19.371501840468202, -43.87570591199758 19.097698535949892, -44.49704734701086 18.533412684464324 C-44.72809242879334 18.29483966836992, -44.95913751057582 18.056266652275518, -45.64760983196044 17.3453624558171 C-45.99366998276057 16.938860511306853, -46.3397301335607 16.532358566796606, -46.71968972338967 16.08603641227036 C-46.99901430334544 15.711766922122353, -47.27833888330122 15.337497431974347, -47.70888161506427 14.760609394661614 C-47.953380446007316 14.38499353320412, -48.19787927695037 14.009377671746629, -48.61112070532036 13.374527866909418 C-48.89058098906756 12.87831783469396, -49.17004127281476 12.382107802478503, -49.4226995002064 11.933487535324842 C-49.60327467794088 11.55851931506934, -49.78384985567536 11.183551094813836, -50.14028304837108 10.443409943732586 C-50.36230851631362 9.895002745344112, -50.58433398425616 9.346595546955635, -50.760922645093814 8.910418140577127 C-50.94999771728413 8.340954148161597, -51.13907278947444 7.771490155746068, -51.2820679491449 7.340811518003316 C-51.380473456854936 6.965548667888121, -51.47887896456498 6.590285817772925, -51.70157746268467 5.741039926302918 C-51.78140522996154 5.331141212940749, -51.86123299723842 4.9212424995785815, -52.01772733113747 4.117677170096139 C-52.071296796835526 3.7022029726295598, -52.12486626253358 3.2867287751629806, -52.22921842687991 2.477393995158454 C-52.260342121933874 1.9926173220985253, -52.29146581698783 1.5078406490385963, -52.33518168763487 0.8269306768952934 C-52.33518168763487 0.23918381784719855, -52.33518168763487 -0.3485630412008963, -52.33518168763487 -0.8269306768952809 C-52.30582294853116 -1.2842167363833086, -52.276464209427445 -1.7415027958713363, -52.22921842687991 -2.4773939951584185 C-52.15829659912157 -3.027449686153168, -52.08737477136322 -3.5775053771479177, -52.01772733113748 -4.117677170096128 C-51.94401873815125 -4.496155216763751, -51.87031014516502 -4.874633263431374, -51.70157746268467 -5.741039926302906 C-51.600917416754164 -6.124900307775782, -51.50025737082367 -6.508760689248657, -51.28206794914491 -7.340811518003303 C-51.16284811010765 -7.699882678081756, -51.043628271070396 -8.058953838160209, -50.76092264509383 -8.910418140577093 C-50.525251459263814 -9.492530525969645, -50.2895802734338 -10.074642911362197, -50.14028304837109 -10.443409943732574 C-49.87398932831176 -10.996374551208614, -49.60769560825243 -11.549339158684655, -49.422699500206406 -11.933487535324831 C-49.15210662862088 -12.413952579324397, -48.88151375703535 -12.89441762332396, -48.61112070532037 -13.374527866909409 C-48.269736350726 -13.898985910101214, -47.928351996131624 -14.42344395329302, -47.70888161506428 -14.760609394661605 C-47.35048450059062 -15.240828877407491, -46.992087386116964 -15.721048360153377, -46.71968972338968 -16.086036412270353 C-46.372076699258095 -16.49436245015672, -46.02446367512651 -16.902688488043093, -45.64760983196045 -17.345362455817092 C-45.35664003902141 -17.645812656090932, -45.06567024608236 -17.94626285636477, -44.49704734701089 -18.5334126844643 C-44.24478823548171 -18.76250773514476, -43.99252912395252 -18.99160278582522, -43.272730176586535 -19.645305144986487 C-42.848962827669375 -19.983248328825166, -42.425195478752215 -20.321191512663844, -41.97968930255585 -20.676470832763204 C-41.65154968381732 -20.90536682586005, -41.3234100650788 -21.134262818956895, -40.62323810722666 -21.622672466799 C-40.09675753803741 -21.94182808178477, -39.57027696884816 -22.260983696770538, -39.208950539518405 -22.480021901620027 C-38.63884999108432 -22.777442992571263, -38.06874944265024 -23.074864083522495, -37.742638210410576 -23.244996104497716 C-37.25844291058161 -23.45933500058875, -36.77424761075264 -23.673673896679787, -36.23032651178645 -23.91445163234599 C-35.79827808325679 -24.0734494478568, -35.36622965472713 -24.232447263367607, -34.67822985680553 -24.485637548803172 C-34.15599671818965 -24.640633603086684, -33.633763579573774 -24.795629657370192, -33.09272614354682 -24.956206728419538 C-32.68403645660627 -25.049487482514273, -32.27534676966572 -25.142768236609005, -31.480330546857545 -25.324225501499278 C-30.97541285953155 -25.405856677491, -30.470495172205553 -25.48748785348272, -29.84766874610233 -25.588181599964017 C-29.212614795191264 -25.64944449084429, -28.577560844280203 -25.71070738172456, -28.201449698825286 -25.746990371586765 C-27.5525063871797 -25.76780072049971, -26.903563075534116 -25.788611069412656, -26.548438072204597 -25.799999237060547 C-26.548438072204593 -25.799999237060547, -26.54843807220459 -25.799999237060547, -26.54843807220459 -25.799999237060547" stroke="none" stroke-width="0" fill="#1F4870" style="fill:#1F4870 !important;stroke:#0E2C4A !important;stroke-width:2px !important"></path><path d="M-26.54843807220459 -25.799999237060547 C-10.73833445965263 -25.799999237060547, 5.0717691528993285 -25.799999237060547, 26.54843807220459 -25.799999237060547 M-26.54843807220459 -25.799999237060547 C-12.049758107113895 -25.799999237060547, 2.4489218579767993 -25.799999237060547, 26.54843807220459 -25.799999237060547 M26.54843807220459 -25.799999237060547 C26.54843807220459 -25.799999237060547, 26.54843807220459 -25.799999237060547, 26.54843807220459 -25.799999237060547 M26.54843807220459 -25.799999237060547 C26.54843807220459 -25.799999237060547, 26.54843807220459 -25.799999237060547, 26.54843807220459 -25.799999237060547 M26.54843807220459 -25.799999237060547 C26.9635654131178 -25.78668691123381, 27.378692754031004 -25.773374585407076, 28.201449698825282 -25.746990371586765 M26.54843807220459 -25.799999237060547 C27.01444639334608 -25.78505525723171, 27.480454714487568 -25.770111277402872, 28.201449698825282 -25.746990371586765 M28.201449698825282 -25.746990371586765 C28.601919357387416 -25.708357545260508, 29.00238901594955 -25.669724718934248, 29.84766874610231 -25.58818159996402 M28.201449698825282 -25.746990371586765 C28.777679449138287 -25.691402180591737, 29.353909199451294 -25.63581398959671, 29.84766874610231 -25.58818159996402 M29.84766874610231 -25.58818159996402 C30.184142717261324 -25.533783097701647, 30.520616688420336 -25.479384595439278, 31.48033054685753 -25.32422550149928 M29.84766874610231 -25.58818159996402 C30.498025248549027 -25.483037004238437, 31.148381750995746 -25.377892408512857, 31.48033054685753 -25.32422550149928 M31.48033054685753 -25.32422550149928 C31.944331885818716 -25.218320223773098, 32.4083332247799 -25.112414946046915, 33.092726143546784 -24.956206728419545 M31.48033054685753 -25.32422550149928 C31.83652404809927 -25.242926659220675, 32.19271754934101 -25.161627816942065, 33.092726143546784 -24.956206728419545 M33.092726143546784 -24.956206728419545 C33.452366591615075 -24.849467331224112, 33.812007039683365 -24.74272793402868, 34.678229856805515 -24.48563754880318 M33.092726143546784 -24.956206728419545 C33.58647128277372 -24.809665762818113, 34.08021642200066 -24.663124797216682, 34.678229856805515 -24.48563754880318 M34.678229856805515 -24.48563754880318 C35.084464050668 -24.336139610274063, 35.49069824453047 -24.186641671744948, 36.23032651178644 -23.914451632345997 M34.678229856805515 -24.48563754880318 C35.19137480108081 -24.296795465850003, 35.7045197453561 -24.107953382896827, 36.23032651178644 -23.914451632345997 M36.23032651178644 -23.914451632345997 C36.5927881357575 -23.75400062345606, 36.95524975972856 -23.59354961456613, 37.74263821041056 -23.24499610449772 M36.23032651178644 -23.914451632345997 C36.698303504157835 -23.70729209986743, 37.166280496529225 -23.500132567388864, 37.74263821041056 -23.24499610449772 M37.74263821041056 -23.24499610449772 C38.21883130197392 -22.99656647364535, 38.695024393537274 -22.748136842792977, 39.2089505395184 -22.480021901620034 M37.74263821041056 -23.24499610449772 C38.083810011475265 -23.067006994413234, 38.42498181253997 -22.889017884328744, 39.2089505395184 -22.480021901620034 M39.2089505395184 -22.480021901620034 C39.618520077575866 -22.23173844075183, 40.02808961563333 -21.983454979883625, 40.62323810722664 -21.62267246679901 M39.2089505395184 -22.480021901620034 C39.752608590322254 -22.1504531963334, 40.29626664112612 -21.820884491046765, 40.62323810722664 -21.62267246679901 M40.62323810722664 -21.62267246679901 C41.002540049705026 -21.35808785144254, 41.38184199218341 -21.09350323608607, 41.97968930255584 -20.67647083276321 M40.62323810722664 -21.62267246679901 C41.06045716101624 -21.317687381783177, 41.497676214805836 -21.012702296767344, 41.97968930255584 -20.67647083276321 M41.97968930255584 -20.67647083276321 C42.450494253738775 -20.301016412840738, 42.921299204921716 -19.92556199291827, 43.272730176586506 -19.64530514498651 M41.97968930255584 -20.67647083276321 C42.268551033628775 -20.44611128916604, 42.55741276470171 -20.21575174556887, 43.272730176586506 -19.64530514498651 M43.272730176586506 -19.64530514498651 C43.676430454904676 -19.278675233542, 44.08013073322284 -18.912045322097487, 44.49704734701088 -18.533412684464313 M43.272730176586506 -19.64530514498651 C43.61416066833809 -19.3352270061335, 43.95559116008967 -19.025148867280492, 44.49704734701088 -18.533412684464313 M44.49704734701088 -18.533412684464313 C44.74973536236396 -18.27249156254037, 45.002423377717044 -18.011570440616428, 45.64760983196044 -17.345362455817106 M44.49704734701088 -18.533412684464313 C44.80291533142297 -18.21757887833028, 45.108783315835076 -17.901745072196242, 45.64760983196044 -17.345362455817106 M45.64760983196044 -17.345362455817106 C45.9220508788253 -17.022988386031685, 46.19649192569017 -16.700614316246263, 46.71968972338968 -16.086036412270357 M45.64760983196044 -17.345362455817106 C45.95735691436807 -16.98151590771281, 46.26710399677571 -16.617669359608517, 46.71968972338968 -16.086036412270357 M46.71968972338968 -16.086036412270357 C47.1049329163234 -15.569845630116047, 47.49017610925711 -15.053654847961738, 47.70888161506427 -14.76060939466161 M46.71968972338968 -16.086036412270357 C46.97228234285763 -15.74758531384432, 47.22487496232559 -15.409134215418286, 47.70888161506427 -14.76060939466161 M47.70888161506427 -14.76060939466161 C47.97466923064374 -14.35228824316346, 48.24045684622322 -13.943967091665312, 48.61112070532037 -13.374527866909407 M47.70888161506427 -14.76060939466161 C48.02860741714769 -14.269424704262313, 48.34833321923111 -13.778240013863018, 48.61112070532037 -13.374527866909407 M48.61112070532037 -13.374527866909407 C48.80696185273615 -13.026792078606094, 49.00280300015194 -12.679056290302782, 49.422699500206406 -11.93348753532484 M48.61112070532037 -13.374527866909407 C48.79435094981241 -13.049184013739595, 48.977581194304456 -12.723840160569782, 49.422699500206406 -11.93348753532484 M49.422699500206406 -11.93348753532484 C49.68630347878662 -11.386108233581428, 49.949907457366834 -10.838728931838016, 50.14028304837108 -10.443409943732584 M49.422699500206406 -11.93348753532484 C49.64147595217392 -11.479193551748109, 49.86025240414144 -11.02489956817138, 50.14028304837108 -10.443409943732584 M50.14028304837108 -10.443409943732584 C50.29910131377064 -10.051125757653397, 50.4579195791702 -9.65884157157421, 50.760922645093814 -8.910418140577123 M50.14028304837108 -10.443409943732584 C50.33113396179822 -9.97200449771615, 50.521984875225364 -9.500599051699714, 50.760922645093814 -8.910418140577123 M50.760922645093814 -8.910418140577123 C50.86715885888691 -8.590451591074327, 50.973395072680006 -8.270485041571531, 51.2820679491449 -7.340811518003323 M50.760922645093814 -8.910418140577123 C50.92887426054554 -8.404574634292446, 51.09682587599727 -7.898731128007768, 51.2820679491449 -7.340811518003323 M51.2820679491449 -7.340811518003323 C51.42960709328062 -6.778180817544275, 51.577146237416336 -6.215550117085225, 51.70157746268467 -5.741039926302914 M51.2820679491449 -7.340811518003323 C51.384883229803144 -6.948732292428926, 51.48769851046139 -6.556653066854529, 51.70157746268467 -5.741039926302914 M51.70157746268467 -5.741039926302914 C51.79651401762346 -5.253560781540216, 51.89145057256225 -4.766081636777518, 52.01772733113747 -4.117677170096137 M51.70157746268467 -5.741039926302914 C51.80692845954085 -5.200084823387482, 51.91227945639704 -4.65912972047205, 52.01772733113747 -4.117677170096137 M52.01772733113747 -4.117677170096137 C52.08558141133333 -3.5914143234007767, 52.15343549152919 -3.065151476705416, 52.22921842687991 -2.4773939951584394 M52.01772733113747 -4.117677170096137 C52.06720235937105 -3.73395862106589, 52.116677387604625 -3.350240072035643, 52.22921842687991 -2.4773939951584394 M52.22921842687991 -2.4773939951584394 C52.268480073702555 -1.8658621544648146, 52.3077417205252 -1.2543303137711899, 52.33518168763487 -0.8269306768952902 M52.22921842687991 -2.4773939951584394 C52.26160584909025 -1.9729337515757093, 52.29399327130059 -1.4684735079929792, 52.33518168763487 -0.8269306768952902 M52.33518168763487 -0.8269306768952902 C52.33518168763487 -0.38992579915790393, 52.33518168763487 0.04707907857948235, 52.33518168763487 0.826930676895284 M52.33518168763487 -0.8269306768952902 C52.33518168763487 -0.445512443809098, 52.33518168763487 -0.06409421072290578, 52.33518168763487 0.826930676895284 M52.33518168763487 0.826930676895284 C52.307846074672206 1.2527049136984176, 52.28051046170955 1.678479150501551, 52.22921842687991 2.4773939951584216 M52.33518168763487 0.826930676895284 C52.304595550758066 1.3033344474368307, 52.27400941388127 1.7797382179783772, 52.22921842687991 2.4773939951584216 M52.22921842687991 2.4773939951584216 C52.16908532401686 2.943774466339965, 52.108952221153814 3.4101549375215088, 52.01772733113748 4.117677170096119 M52.22921842687991 2.4773939951584216 C52.17427727604692 2.9035067116617164, 52.119336125213934 3.329619428165011, 52.01772733113748 4.117677170096119 M52.01772733113748 4.117677170096119 C51.930912179674216 4.563454624471209, 51.84409702821095 5.009232078846299, 51.70157746268467 5.741039926302909 M52.01772733113748 4.117677170096119 C51.916997517946726 4.634903471577082, 51.816267704755965 5.152129773058045, 51.70157746268467 5.741039926302909 M51.70157746268467 5.741039926302909 C51.58832898070476 6.172905470294887, 51.47508049872484 6.6047710142868645, 51.28206794914491 7.340811518003306 M51.70157746268467 5.741039926302909 C51.607570232127784 6.0995302394077555, 51.5135630015709 6.458020552512601, 51.28206794914491 7.340811518003306 M51.28206794914491 7.340811518003306 C51.09519884124858 7.903631497438037, 50.908329733352254 8.46645147687277, 50.76092264509383 8.910418140577105 M51.28206794914491 7.340811518003306 C51.15248124834194 7.731106013984961, 51.02289454753898 8.121400509966616, 50.76092264509383 8.910418140577105 M50.76092264509383 8.910418140577105 C50.57495577911147 9.369759894978294, 50.38898891312911 9.829101649379485, 50.14028304837109 10.443409943732577 M50.76092264509383 8.910418140577105 C50.55960769306176 9.407669964256142, 50.358292741029686 9.904921787935178, 50.14028304837109 10.443409943732577 M50.14028304837109 10.443409943732577 C49.93364949321801 10.872488942257753, 49.72701593806493 11.30156794078293, 49.422699500206406 11.933487535324835 M50.14028304837109 10.443409943732577 C49.901501626499176 10.939244675353564, 49.66272020462727 11.435079406974552, 49.422699500206406 11.933487535324835 M49.422699500206406 11.933487535324835 C49.112651829397784 12.484008570576655, 48.802604158589155 13.034529605828476, 48.611120705320374 13.374527866909402 M49.422699500206406 11.933487535324835 C49.21968538998919 12.29395964542333, 49.01667127977198 12.654431755521827, 48.611120705320374 13.374527866909402 M48.611120705320374 13.374527866909402 C48.26808553786631 13.901522001959018, 47.925050370412244 14.428516137008634, 47.708881615064286 14.760609394661596 M48.611120705320374 13.374527866909402 C48.35695922693864 13.764988149616856, 48.10279774855691 14.155448432324313, 47.708881615064286 14.760609394661596 M47.708881615064286 14.760609394661596 C47.44351169040507 15.116180918007467, 47.178141765745856 15.471752441353338, 46.71968972338968 16.086036412270353 M47.708881615064286 14.760609394661596 C47.46615529651495 15.085840548695188, 47.223428977965604 15.411071702728782, 46.71968972338968 16.086036412270353 M46.71968972338968 16.086036412270353 C46.472810930751194 16.376034289904776, 46.22593213811271 16.666032167539196, 45.64760983196045 17.345362455817092 M46.71968972338968 16.086036412270353 C46.40895948195533 16.451037834910764, 46.09822924052098 16.81603925755117, 45.64760983196045 17.345362455817092 M45.64760983196045 17.345362455817092 C45.36093632392554 17.641376389195855, 45.07426281589064 17.93739032257462, 44.49704734701088 18.533412684464306 M45.64760983196045 17.345362455817092 C45.34265930662731 17.660248910127308, 45.03770878129418 17.975135364437524, 44.49704734701088 18.533412684464306 M44.49704734701088 18.533412684464306 C44.226584662105644 18.77903973884474, 43.956121977200404 19.024666793225173, 43.272730176586535 19.64530514498649 M44.49704734701088 18.533412684464306 C44.08545290558231 18.90721186597758, 43.67385846415374 19.281011047490853, 43.272730176586535 19.64530514498649 M43.272730176586535 19.64530514498649 C42.98860536652108 19.871887120134957, 42.70448055645562 20.098469095283427, 41.97968930255585 20.676470832763208 M43.272730176586535 19.64530514498649 C43.007238145501184 19.8570279747374, 42.74174611441583 20.068750804488307, 41.97968930255585 20.676470832763208 M41.97968930255585 20.676470832763208 C41.501105015184756 21.01031051405339, 41.02252072781366 21.344150195343577, 40.623238107226655 21.622672466799003 M41.97968930255585 20.676470832763208 C41.582048418855074 20.953847899636443, 41.18440753515431 21.231224966509682, 40.623238107226655 21.622672466799003 M40.623238107226655 21.622672466799003 C40.1395138054773 21.915908981198992, 39.655789503727945 22.20914549559898, 39.208950539518405 22.48002190162003 M40.623238107226655 21.622672466799003 C40.19192898386025 21.884134592037466, 39.760619860493854 22.145596717275932, 39.208950539518405 22.48002190162003 M39.208950539518405 22.48002190162003 C38.75170472186079 22.718566751812084, 38.294458904203175 22.957111602004137, 37.74263821041057 23.244996104497716 M39.208950539518405 22.48002190162003 C38.87089274330127 22.656386437370156, 38.53283494708414 22.83275097312028, 37.74263821041057 23.244996104497716 M37.74263821041057 23.244996104497716 C37.393340225278 23.39961996095932, 37.04404224014544 23.554243817420925, 36.23032651178645 23.914451632345994 M37.74263821041057 23.244996104497716 C37.34030569874301 23.42309677264303, 36.93797318707544 23.601197440788347, 36.23032651178645 23.914451632345994 M36.23032651178645 23.914451632345994 C35.62365263503373 24.137713227022836, 35.016978758281 24.36097482169968, 34.67822985680553 24.485637548803172 M36.23032651178645 23.914451632345994 C35.727889578712016 24.09935306819348, 35.22545264563758 24.28425450404097, 34.67822985680553 24.485637548803172 M34.67822985680553 24.485637548803172 C34.044817968650136 24.673630872360846, 33.41140608049475 24.861624195918516, 33.09272614354681 24.95620672841954 M34.67822985680553 24.485637548803172 C34.208166620904905 24.625149849806203, 33.73810338500428 24.764662150809233, 33.09272614354681 24.95620672841954 M33.09272614354681 24.95620672841954 C32.5810353383096 25.072996815620378, 32.06934453307238 25.18978690282121, 31.480330546857545 25.324225501499278 M33.09272614354681 24.95620672841954 C32.7597665939473 25.032202572851514, 32.426807044347775 25.10819841728349, 31.480330546857545 25.324225501499278 M31.480330546857545 25.324225501499278 C30.966752185592778 25.40725686808889, 30.45317382432801 25.490288234678502, 29.84766874610233 25.588181599964017 M31.480330546857545 25.324225501499278 C31.149547944499083 25.3777038673912, 30.818765342140622 25.431182233283124, 29.84766874610233 25.588181599964017 M29.84766874610233 25.588181599964017 C29.457453839459305 25.625825162705784, 29.067238932816284 25.663468725447547, 28.201449698825282 25.746990371586765 M29.84766874610233 25.588181599964017 C29.27181966594525 25.643733068166927, 28.695970585788178 25.699284536369834, 28.201449698825282 25.746990371586765 M28.201449698825282 25.746990371586765 C27.77572277266328 25.76064260548159, 27.349995846501272 25.774294839376413, 26.548438072204593 25.799999237060547 M28.201449698825282 25.746990371586765 C27.710048362660388 25.762748655982897, 27.21864702649549 25.778506940379028, 26.548438072204593 25.799999237060547 M26.548438072204593 25.799999237060547 C26.548438072204593 25.799999237060547, 26.548438072204593 25.799999237060547, 26.54843807220459 25.799999237060547 M26.548438072204593 25.799999237060547 C26.548438072204593 25.799999237060547, 26.54843807220459 25.799999237060547, 26.54843807220459 25.799999237060547 M26.54843807220459 25.799999237060547 C8.624468349963823 25.799999237060547, -9.299501372276943 25.799999237060547, -26.548438072204586 25.799999237060547 M26.54843807220459 25.799999237060547 C14.634861288724377 25.799999237060547, 2.7212845052441637 25.799999237060547, -26.548438072204586 25.799999237060547 M-26.548438072204586 25.799999237060547 C-27.008483531457948 25.785246474606456, -27.468528990711313 25.770493712152366, -28.20144969882527 25.746990371586765 M-26.548438072204586 25.799999237060547 C-27.079930901971974 25.782955296497942, -27.61142373173936 25.765911355935337, -28.20144969882527 25.746990371586765 M-28.20144969882527 25.746990371586765 C-28.614540590771433 25.707139990055204, -29.027631482717595 25.66728960852364, -29.84766874610232 25.588181599964017 M-28.20144969882527 25.746990371586765 C-28.60816543737794 25.70775499343583, -29.014881175930608 25.668519615284893, -29.84766874610232 25.588181599964017 M-29.84766874610232 25.588181599964017 C-30.363919269034838 25.504718218998885, -30.880169791967358 25.421254838033754, -31.480330546857534 25.324225501499278 M-29.84766874610232 25.588181599964017 C-30.254731637873128 25.522370828442384, -30.661794529643938 25.456560056920754, -31.480330546857534 25.324225501499278 M-31.480330546857534 25.324225501499278 C-32.078640330962685 25.187665197613498, -32.67695011506783 25.051104893727718, -33.092726143546784 24.956206728419545 M-31.480330546857534 25.324225501499278 C-31.8211249794083 25.24644139616107, -32.16191941195906 25.168657290822864, -33.092726143546784 24.956206728419545 M-33.092726143546784 24.956206728419545 C-33.55615309858369 24.81866404074232, -34.019580053620594 24.681121353065095, -34.6782298568055 24.485637548803183 M-33.092726143546784 24.956206728419545 C-33.61457920849896 24.801323478004377, -34.136432273451135 24.646440227589206, -34.6782298568055 24.485637548803183 M-34.6782298568055 24.485637548803183 C-35.16324813812539 24.30714633781762, -35.648266419445285 24.128655126832054, -36.230326511786444 23.914451632345997 M-34.6782298568055 24.485637548803183 C-35.21230852206783 24.289091663017583, -35.74638718733016 24.092545777231987, -36.230326511786444 23.914451632345997 M-36.230326511786444 23.914451632345997 C-36.72629272054863 23.694902104041834, -37.22225892931081 23.47535257573767, -37.74263821041056 23.244996104497723 M-36.230326511786444 23.914451632345997 C-36.623975178745674 23.740195044655962, -37.017623845704904 23.565938456965924, -37.74263821041056 23.244996104497723 M-37.74263821041056 23.244996104497723 C-38.14580063647115 23.03466652505977, -38.54896306253175 22.82433694562182, -39.2089505395184 22.480021901620038 M-37.74263821041056 23.244996104497723 C-38.15652982437558 23.029069114602404, -38.570421438340595 22.81314212470709, -39.2089505395184 22.480021901620038 M-39.2089505395184 22.480021901620038 C-39.69045482931765 22.188131171510435, -40.17195911911691 21.89624044140083, -40.623238107226626 21.622672466799017 M-39.2089505395184 22.480021901620038 C-39.516581705683215 22.293534080849525, -39.82421287184803 22.10704626007901, -40.623238107226626 21.622672466799017 M-40.623238107226626 21.622672466799017 C-40.92517005010017 21.41205781387358, -41.22710199297372 21.201443160948145, -41.97968930255584 20.67647083276321 M-40.623238107226626 21.622672466799017 C-41.038152489846894 21.33324615483726, -41.453066872467154 21.043819842875504, -41.97968930255584 20.67647083276321 M-41.97968930255584 20.67647083276321 C-42.24382510040048 20.465829562930892, -42.507960898245116 20.255188293098573, -43.272730176586506 19.645305144986512 M-41.97968930255584 20.67647083276321 C-42.37410070412232 20.361938235742134, -42.7685121056888 20.047405638721052, -43.272730176586506 19.645305144986512 M-43.272730176586506 19.645305144986512 C-43.73730827830965 19.223387605064545, -44.20188638003278 18.801470065142578, -44.49704734701086 18.533412684464324 M-43.272730176586506 19.645305144986512 C-43.68111293843929 19.274422725887582, -44.08949570029208 18.90354030678865, -44.49704734701086 18.533412684464324 M-44.49704734701086 18.533412684464324 C-44.731235041910274 18.291594662313358, -44.96542273680968 18.04977664016239, -45.64760983196044 17.3453624558171 M-44.49704734701086 18.533412684464324 C-44.88726236376256 18.130483642419506, -45.27747738051426 17.72755460037469, -45.64760983196044 17.3453624558171 M-45.64760983196044 17.3453624558171 C-45.98698176856718 16.94671686826857, -46.326353705173936 16.54807128072004, -46.71968972338967 16.08603641227036 M-45.64760983196044 17.3453624558171 C-45.98063951031403 16.95416684569745, -46.31366918866761 16.5629712355778, -46.71968972338967 16.08603641227036 M-46.71968972338967 16.08603641227036 C-47.02079714045865 15.682579904847948, -47.32190455752762 15.279123397425536, -47.70888161506427 14.760609394661614 M-46.71968972338967 16.08603641227036 C-47.00344054748336 15.705836158216686, -47.287191371577045 15.32563590416301, -47.70888161506427 14.760609394661614 M-47.70888161506427 14.760609394661614 C-48.050763660209846 14.235386765134537, -48.39264570535541 13.710164135607462, -48.61112070532036 13.374527866909418 M-47.70888161506427 14.760609394661614 C-48.03225049129655 14.263827964067286, -48.355619367528824 13.767046533472957, -48.61112070532036 13.374527866909418 M-48.61112070532036 13.374527866909418 C-48.80327952055354 13.033330432272894, -48.995438335786716 12.69213299763637, -49.4226995002064 11.933487535324842 M-48.61112070532036 13.374527866909418 C-48.927624167017115 12.812543921216012, -49.24412762871387 12.250559975522606, -49.4226995002064 11.933487535324842 M-49.4226995002064 11.933487535324842 C-49.667418052269376 11.425324225827872, -49.91213660433235 10.9171609163309, -50.14028304837108 10.443409943732586 M-49.4226995002064 11.933487535324842 C-49.69208215654935 11.374108685563213, -49.9614648128923 10.814729835801586, -50.14028304837108 10.443409943732586 M-50.14028304837108 10.443409943732586 C-50.37962162163888 9.852239040464584, -50.61896019490669 9.26106813719658, -50.760922645093814 8.910418140577127 M-50.14028304837108 10.443409943732586 C-50.36329468881008 9.892566880211504, -50.58630632924908 9.341723816690422, -50.760922645093814 8.910418140577127 M-50.760922645093814 8.910418140577127 C-50.9584545982628 8.315483370074848, -51.15598655143178 7.72054859957257, -51.2820679491449 7.340811518003316 M-50.760922645093814 8.910418140577127 C-50.866129843487116 8.593550821507167, -50.971337041880425 8.276683502437209, -51.2820679491449 7.340811518003316 M-51.2820679491449 7.340811518003316 C-51.37018955984804 7.0047656242445715, -51.458311170551184 6.668719730485826, -51.70157746268467 5.741039926302918 M-51.2820679491449 7.340811518003316 C-51.366995194211 7.016947124865444, -51.4519224392771 6.693082731727571, -51.70157746268467 5.741039926302918 M-51.70157746268467 5.741039926302918 C-51.78003532518249 5.338175384451737, -51.8584931876803 4.935310842600557, -52.01772733113747 4.117677170096139 M-51.70157746268467 5.741039926302918 C-51.82436041415876 5.110575420669441, -51.947143365632854 4.480110915035965, -52.01772733113747 4.117677170096139 M-52.01772733113747 4.117677170096139 C-52.07184164584307 3.697977231319645, -52.125955960548666 3.2782772925431507, -52.22921842687991 2.477393995158454 M-52.01772733113747 4.117677170096139 C-52.06514116192331 3.749944861441088, -52.11255499270915 3.3822125527860365, -52.22921842687991 2.477393995158454 M-52.22921842687991 2.477393995158454 C-52.26804180366794 1.8726885640192137, -52.306865180455965 1.2679831328799733, -52.33518168763487 0.8269306768952934 M-52.22921842687991 2.477393995158454 C-52.26466928931675 1.9252181972835087, -52.300120151753596 1.3730423994085632, -52.33518168763487 0.8269306768952934 M-52.33518168763487 0.8269306768952934 C-52.33518168763487 0.18945907178606625, -52.33518168763487 -0.44801253332316093, -52.33518168763487 -0.8269306768952809 M-52.33518168763487 0.8269306768952934 C-52.33518168763487 0.2412431335349292, -52.33518168763487 -0.344444409825435, -52.33518168763487 -0.8269306768952809 M-52.33518168763487 -0.8269306768952809 C-52.311088691967655 -1.2021985319282904, -52.28699569630044 -1.5774663869613001, -52.22921842687991 -2.4773939951584185 M-52.33518168763487 -0.8269306768952809 C-52.30502093137874 -1.2967088009087484, -52.27486017512261 -1.7664869249222157, -52.22921842687991 -2.4773939951584185 M-52.22921842687991 -2.4773939951584185 C-52.156458055387745 -3.041709068291175, -52.08369768389558 -3.606024141423932, -52.01772733113748 -4.117677170096128 M-52.22921842687991 -2.4773939951584185 C-52.147641480884865 -3.1100886791059583, -52.06606453488982 -3.742783363053498, -52.01772733113748 -4.117677170096128 M-52.01772733113748 -4.117677170096128 C-51.89806869120302 -4.7320989962970526, -51.77841005126856 -5.346520822497976, -51.70157746268467 -5.741039926302906 M-52.01772733113748 -4.117677170096128 C-51.95248827233199 -4.452665948782342, -51.8872492135265 -4.787654727468556, -51.70157746268467 -5.741039926302906 M-51.70157746268467 -5.741039926302906 C-51.57472502463501 -6.224783250780687, -51.44787258658535 -6.708526575258468, -51.28206794914491 -7.340811518003303 M-51.70157746268467 -5.741039926302906 C-51.5754235650636 -6.222119413377115, -51.44926966744254 -6.703198900451323, -51.28206794914491 -7.340811518003303 M-51.28206794914491 -7.340811518003303 C-51.15543310050016 -7.72221550559817, -51.02879825185542 -8.103619493193037, -50.76092264509383 -8.910418140577093 M-51.28206794914491 -7.340811518003303 C-51.07689134210711 -7.9587707679482795, -50.871714735069304 -8.576730017893256, -50.76092264509383 -8.910418140577093 M-50.76092264509383 -8.910418140577093 C-50.61118373024161 -9.280276155267039, -50.4614448153894 -9.650134169956985, -50.14028304837109 -10.443409943732574 M-50.76092264509383 -8.910418140577093 C-50.619669922597055 -9.259315096079735, -50.47841720010028 -9.608212051582376, -50.14028304837109 -10.443409943732574 M-50.14028304837109 -10.443409943732574 C-49.91436535899593 -10.912532859584276, -49.68844766962077 -11.381655775435977, -49.422699500206406 -11.933487535324831 M-50.14028304837109 -10.443409943732574 C-49.92526540122925 -10.889898688663246, -49.710247754087405 -11.336387433593918, -49.422699500206406 -11.933487535324831 M-49.422699500206406 -11.933487535324831 C-49.2155587726909 -12.301286872301759, -49.00841804517539 -12.669086209278685, -48.61112070532037 -13.374527866909409 M-49.422699500206406 -11.933487535324831 C-49.14503680668187 -12.426505764074196, -48.86737411315734 -12.919523992823562, -48.61112070532037 -13.374527866909409 M-48.61112070532037 -13.374527866909409 C-48.41249851261592 -13.679664892430134, -48.21387631991148 -13.98480191795086, -47.70888161506428 -14.760609394661605 M-48.61112070532037 -13.374527866909409 C-48.32852868767129 -13.80866509260026, -48.0459366700222 -14.24280231829111, -47.70888161506428 -14.760609394661605 M-47.70888161506428 -14.760609394661605 C-47.38592204443949 -15.193345797076663, -47.06296247381471 -15.62608219949172, -46.71968972338968 -16.086036412270353 M-47.70888161506428 -14.760609394661605 C-47.43878701513805 -15.122511552438503, -47.16869241521182 -15.4844137102154, -46.71968972338968 -16.086036412270353 M-46.71968972338968 -16.086036412270353 C-46.32133621416927 -16.553965111157446, -45.922982704948865 -17.021893810044542, -45.64760983196045 -17.345362455817092 M-46.71968972338968 -16.086036412270353 C-46.348774660037805 -16.521734351348467, -45.97785959668593 -16.957432290426585, -45.64760983196045 -17.345362455817092 M-45.64760983196045 -17.345362455817092 C-45.32065328356255 -17.68297193566977, -44.993696735164654 -18.02058141552245, -44.49704734701089 -18.5334126844643 M-45.64760983196045 -17.345362455817092 C-45.307222331352364 -17.696840496528477, -44.96683483074427 -18.04831853723986, -44.49704734701089 -18.5334126844643 M-44.49704734701089 -18.5334126844643 C-44.02945993929902 -18.958063196463364, -43.56187253158714 -19.38271370846243, -43.272730176586535 -19.645305144986487 M-44.49704734701089 -18.5334126844643 C-44.03827841855299 -18.95005448692908, -43.57950949009509 -19.366696289393857, -43.272730176586535 -19.645305144986487 M-43.272730176586535 -19.645305144986487 C-42.90422914880494 -19.939174908418128, -42.53572812102334 -20.23304467184977, -41.97968930255585 -20.676470832763204 M-43.272730176586535 -19.645305144986487 C-42.88962295766859 -19.950822957162295, -42.50651573875064 -20.2563407693381, -41.97968930255585 -20.676470832763204 M-41.97968930255585 -20.676470832763204 C-41.686587929168375 -20.88092566268435, -41.393486555780896 -21.085380492605495, -40.62323810722666 -21.622672466799 M-41.97968930255585 -20.676470832763204 C-41.59017029372873 -20.948182431314876, -41.20065128490161 -21.219894029866552, -40.62323810722666 -21.622672466799 M-40.62323810722666 -21.622672466799 C-40.154772219903386 -21.9066592407055, -39.686306332580116 -22.190646014612, -39.208950539518405 -22.480021901620027 M-40.62323810722666 -21.622672466799 C-40.266313459664495 -21.839042285673237, -39.90938881210232 -22.05541210454747, -39.208950539518405 -22.480021901620027 M-39.208950539518405 -22.480021901620027 C-38.898081066644295 -22.64220230649705, -38.587211593770185 -22.804382711374075, -37.742638210410576 -23.244996104497716 M-39.208950539518405 -22.480021901620027 C-38.72453101705367 -22.732743256204365, -38.240111494588945 -22.985464610788707, -37.742638210410576 -23.244996104497716 M-37.742638210410576 -23.244996104497716 C-37.43638168628856 -23.380566782949526, -37.13012516216655 -23.516137461401335, -36.23032651178645 -23.91445163234599 M-37.742638210410576 -23.244996104497716 C-37.210965947334245 -23.480351643864285, -36.679293684257914 -23.71570718323085, -36.23032651178645 -23.91445163234599 M-36.23032651178645 -23.91445163234599 C-35.78169828216309 -24.079550967921282, -35.333070052539725 -24.244650303496574, -34.67822985680553 -24.485637548803172 M-36.23032651178645 -23.91445163234599 C-35.81846945458949 -24.066018836559373, -35.406612397392536 -24.21758604077276, -34.67822985680553 -24.485637548803172 M-34.67822985680553 -24.485637548803172 C-34.12043544068046 -24.651188003586455, -33.5626410245554 -24.816738458369738, -33.09272614354682 -24.956206728419538 M-34.67822985680553 -24.485637548803172 C-34.079608154114894 -24.663305327932314, -33.480986451424265 -24.84097310706146, -33.09272614354682 -24.956206728419538 M-33.09272614354682 -24.956206728419538 C-32.712244234659266 -25.043049241246628, -32.33176232577172 -25.12989175407372, -31.480330546857545 -25.324225501499278 M-33.09272614354682 -24.956206728419538 C-32.61617694427916 -25.064975973378232, -32.139627745011495 -25.17374521833693, -31.480330546857545 -25.324225501499278 M-31.480330546857545 -25.324225501499278 C-31.06344241865511 -25.391624741051327, -30.64655429045268 -25.459023980603376, -29.84766874610233 -25.588181599964017 M-31.480330546857545 -25.324225501499278 C-30.896907544430764 -25.41854880801868, -30.313484542003987 -25.512872114538087, -29.84766874610233 -25.588181599964017 M-29.84766874610233 -25.588181599964017 C-29.414557516639974 -25.629963319377786, -28.98144628717762 -25.67174503879156, -28.201449698825286 -25.746990371586765 M-29.84766874610233 -25.588181599964017 C-29.29127762340914 -25.641855982412004, -28.734886500715948 -25.69553036485999, -28.201449698825286 -25.746990371586765 M-28.201449698825286 -25.746990371586765 C-27.69250621580748 -25.763311198488754, -27.183562732789674 -25.77963202539074, -26.548438072204597 -25.799999237060547 M-28.201449698825286 -25.746990371586765 C-27.83158174992038 -25.758851316803856, -27.46171380101548 -25.770712262020947, -26.548438072204597 -25.799999237060547 M-26.548438072204597 -25.799999237060547 C-26.548438072204597 -25.799999237060547, -26.548438072204593 -25.799999237060547, -26.54843807220459 -25.799999237060547 M-26.548438072204597 -25.799999237060547 C-26.548438072204593 -25.799999237060547, -26.548438072204593 -25.799999237060547, -26.54843807220459 -25.799999237060547" stroke="#0E2C4A" stroke-width="2" fill="none" stroke-dasharray="0 0" style="fill:#1F4870 !important;stroke:#0E2C4A !important;stroke-width:2px !important"></path></g><g class="label" style="color:#ffffff !important" transform="translate(0, -18.299999237060547)"><rect></rect><g><rect class="background" style="stroke: none"></rect><text y="-10.1" style="fill:#404040 !important"><tspan class="text-outer-tspan row" x="0" y="-0.1em" dy="1.1em"><tspan font-style="normal" class="text-inner-tspan" font-weight="normal">diagramkit</tspan></tspan><tspan class="text-outer-tspan row" x="0" y="1em" dy="1.1em"><tspan font-style="normal" class="text-inner-tspan" font-weight="normal">Principles</tspan></tspan></text></g></g></g></g></g></g><defs><filter id="g14da9879-59f3-4542-b75e-05d1f917badc-dark-drop-shadow" height="130%" width="130%"><feDropShadow dx="4" dy="4" stdDeviation="0" flood-opacity="0.06" flood-color="#000000"></feDropShadow></filter></defs><defs><filter id="g14da9879-59f3-4542-b75e-05d1f917badc-dark-drop-shadow-small" height="150%" width="150%"><feDropShadow dx="2" dy="2" stdDeviation="0" flood-opacity="0.06" flood-color="#000000"></feDropShadow></filter></defs><linearGradient id="g14da9879-59f3-4542-b75e-05d1f917badc-dark-gradient" gradientUnits="objectBoundingBox" x1="0%" y1="0%" x2="100%" y2="0%"><stop offset="0%" stop-color="#555555" stop-opacity="1"></stop><stop offset="100%" stop-color="#555555" stop-opacity="1"></stop></linearGradient></svg>