<?xml version="1.0" encoding="UTF-8" standalone="no"?>
<!DOCTYPE svg PUBLIC "-//W3C//DTD SVG 1.1//EN"
 "http://www.w3.org/Graphics/SVG/1.1/DTD/svg11.dtd">
<!-- Generated by graphviz version 14.1.5 (20260411.2331)
 -->
<!-- Title: GraphvizPipeline Pages: 1 -->
<svg width="637pt" height="98pt"
 viewBox="0.00 0.00 637.00 98.00" xmlns="http://www.w3.org/2000/svg" xmlns:xlink="http://www.w3.org/1999/xlink">
<g id="graph0" class="graph" transform="scale(1 1) rotate(0) translate(4 94.4)">
<title>GraphvizPipeline</title>
<!-- source -->
<g id="node1" class="node">
<title>source</title>
<path fill="#dae8fc" stroke="#6c8ebf" d="M50.03,-63.4C50.03,-63.4 12,-63.4 12,-63.4 6,-63.4 0,-57.4 0,-51.4 0,-51.4 0,-38.6 0,-38.6 0,-32.6 6,-26.6 12,-26.6 12,-26.6 50.03,-26.6 50.03,-26.6 56.03,-26.6 62.03,-32.6 62.03,-38.6 62.03,-38.6 62.03,-51.4 62.03,-51.4 62.03,-57.4 56.03,-63.4 50.03,-63.4"/>
<text xml:space="preserve" text-anchor="middle" x="31.01" y="-48.6" font-family="Helvetica,sans-Serif" font-size="12.00" fill="#333333">.dot / .gv</text>
<text xml:space="preserve" text-anchor="middle" x="31.01" y="-34.2" font-family="Helvetica,sans-Serif" font-size="12.00" fill="#333333">Source</text>
</g>
<!-- wasm -->
<g id="node2" class="node">
<title>wasm</title>
<path fill="#dae8fc" stroke="#6c8ebf" d="M140.03,-63.4C140.03,-63.4 110.03,-63.4 110.03,-63.4 104.03,-63.4 98.03,-57.4 98.03,-51.4 98.03,-51.4 98.03,-38.6 98.03,-38.6 98.03,-32.6 104.03,-26.6 110.03,-26.6 110.03,-26.6 140.03,-26.6 140.03,-26.6 146.03,-26.6 152.03,-32.6 152.03,-38.6 152.03,-38.6 152.03,-51.4 152.03,-51.4 152.03,-57.4 146.03,-63.4 140.03,-63.4"/>
<text xml:space="preserve" text-anchor="middle" x="125.03" y="-48.6" font-family="Helvetica,sans-Serif" font-size="12.00" fill="#333333">Viz.js</text>
<text xml:space="preserve" text-anchor="middle" x="125.03" y="-34.2" font-family="Helvetica,sans-Serif" font-size="12.00" fill="#333333">WASM</text>
</g>
<!-- source&#45;&gt;wasm -->
<g id="edge1" class="edge">
<title>source&#45;&gt;wasm</title>
<path fill="none" stroke="black" d="M62.4,-45C70.06,-45 78.39,-45 86.36,-45"/>
<polygon fill="black" stroke="black" points="86.17,-48.5 96.17,-45 86.17,-41.5 86.17,-48.5"/>
</g>
<!-- svg -->
<g id="node3" class="node">
<title>svg</title>
<path fill="#dae8fc" stroke="#6c8ebf" d="M244.71,-63C244.71,-63 200.03,-63 200.03,-63 194.03,-63 188.03,-57 188.03,-51 188.03,-51 188.03,-39 188.03,-39 188.03,-33 194.03,-27 200.03,-27 200.03,-27 244.71,-27 244.71,-27 250.71,-27 256.71,-33 256.71,-39 256.71,-39 256.71,-51 256.71,-51 256.71,-57 250.71,-63 244.71,-63"/>
<text xml:space="preserve" text-anchor="middle" x="222.37" y="-41.4" font-family="Helvetica,sans-Serif" font-size="12.00" fill="#333333">Raw SVG</text>
</g>
<!-- wasm&#45;&gt;svg -->
<g id="edge2" class="edge">
<title>wasm&#45;&gt;svg</title>
<path fill="none" stroke="black" d="M152.33,-45C159.75,-45 168.04,-45 176.22,-45"/>
<polygon fill="black" stroke="black" points="176.12,-48.5 186.12,-45 176.12,-41.5 176.12,-48.5"/>
</g>
<!-- adapt -->
<g id="node4" class="node">
<title>adapt</title>
<path fill="#dae8fc" stroke="#6c8ebf" d="M372.73,-90.4C372.73,-90.4 304.71,-90.4 304.71,-90.4 298.71,-90.4 292.71,-84.4 292.71,-78.4 292.71,-78.4 292.71,-65.6 292.71,-65.6 292.71,-59.6 298.71,-53.6 304.71,-53.6 304.71,-53.6 372.73,-53.6 372.73,-53.6 378.73,-53.6 384.73,-59.6 384.73,-65.6 384.73,-65.6 384.73,-78.4 384.73,-78.4 384.73,-84.4 378.73,-90.4 372.73,-90.4"/>
<text xml:space="preserve" text-anchor="middle" x="338.72" y="-75.6" font-family="Helvetica,sans-Serif" font-size="12.00" fill="#333333">Adapt Colors</text>
<text xml:space="preserve" text-anchor="middle" x="338.72" y="-61.2" font-family="Helvetica,sans-Serif" font-size="12.00" fill="#333333">for Dark Mode</text>
</g>
<!-- svg&#45;&gt;adapt -->
<g id="edge4" class="edge">
<title>svg&#45;&gt;adapt</title>
<path fill="none" stroke="black" d="M257.06,-52.95C264.67,-54.75 272.95,-56.71 281.21,-58.66"/>
<polygon fill="black" stroke="black" points="280.39,-62.06 290.93,-60.95 282,-55.25 280.39,-62.06"/>
</g>
<!-- light -->
<g id="node6" class="node">
<title>light</title>
<path fill="#d5e8d4" stroke="#82b366" d="M362.07,-36C362.07,-36 315.37,-36 315.37,-36 309.37,-36 303.37,-30 303.37,-24 303.37,-24 303.37,-12 303.37,-12 303.37,-6 309.37,0 315.37,0 315.37,0 362.07,0 362.07,0 368.07,0 374.07,-6 374.07,-12 374.07,-12 374.07,-24 374.07,-24 374.07,-30 368.07,-36 362.07,-36"/>
<text xml:space="preserve" text-anchor="middle" x="338.72" y="-14.4" font-family="Helvetica,sans-Serif" font-size="12.00" fill="#333333">Light SVG</text>
</g>
<!-- svg&#45;&gt;light -->
<g id="edge3" class="edge">
<title>svg&#45;&gt;light</title>
<path fill="none" stroke="black" d="M257.06,-37.05C268.04,-34.45 280.42,-31.53 292.13,-28.76"/>
<polygon fill="black" stroke="black" points="292.68,-32.23 301.61,-26.53 291.07,-25.42 292.68,-32.23"/>
</g>
<!-- contrast -->
<g id="node5" class="node">
<title>contrast</title>
<path fill="#dae8fc" stroke="#6c8ebf" d="M510.75,-90.4C510.75,-90.4 432.73,-90.4 432.73,-90.4 426.73,-90.4 420.73,-84.4 420.73,-78.4 420.73,-78.4 420.73,-65.6 420.73,-65.6 420.73,-59.6 426.73,-53.6 432.73,-53.6 432.73,-53.6 510.75,-53.6 510.75,-53.6 516.75,-53.6 522.75,-59.6 522.75,-65.6 522.75,-65.6 522.75,-78.4 522.75,-78.4 522.75,-84.4 516.75,-90.4 510.75,-90.4"/>
<text xml:space="preserve" text-anchor="middle" x="471.74" y="-75.6" font-family="Helvetica,sans-Serif" font-size="12.00" fill="#333333">WCAG Contrast</text>
<text xml:space="preserve" text-anchor="middle" x="471.74" y="-61.2" font-family="Helvetica,sans-Serif" font-size="12.00" fill="#333333">Post&#45;Process</text>
</g>
<!-- adapt&#45;&gt;contrast -->
<g id="edge5" class="edge">
<title>adapt&#45;&gt;contrast</title>
<path fill="none" stroke="black" d="M385.18,-72C392.91,-72 401.06,-72 409.13,-72"/>
<polygon fill="black" stroke="black" points="408.92,-75.5 418.92,-72 408.92,-68.5 408.92,-75.5"/>
</g>
<!-- dark -->
<g id="node7" class="node">
<title>dark</title>
<path fill="#e1d5e7" stroke="#9673a6" d="M616.76,-90C616.76,-90 570.75,-90 570.75,-90 564.75,-90 558.75,-84 558.75,-78 558.75,-78 558.75,-66 558.75,-66 558.75,-60 564.75,-54 570.75,-54 570.75,-54 616.76,-54 616.76,-54 622.76,-54 628.76,-60 628.76,-66 628.76,-66 628.76,-78 628.76,-78 628.76,-84 622.76,-90 616.76,-90"/>
<text xml:space="preserve" text-anchor="middle" x="593.75" y="-68.4" font-family="Helvetica,sans-Serif" font-size="12.00" fill="#333333">Dark SVG</text>
</g>
<!-- contrast&#45;&gt;dark -->
<g id="edge6" class="edge">
<title>contrast&#45;&gt;dark</title>
<path fill="none" stroke="black" d="M522.94,-72C530.97,-72 539.24,-72 547.15,-72"/>
<polygon fill="black" stroke="black" points="546.9,-75.5 556.9,-72 546.9,-68.5 546.9,-75.5"/>
</g>
</g>
</svg>
